<svg xmlns="http://www.w3.org/2000/svg" xmlns:xlink="http://www.w3.org/1999/xlink" width="1378" zoomAndPan="magnify" viewBox="0 0 1033.5 65.249999" height="87" preserveAspectRatio="xMidYMid meet" version="1.0"><defs><clipPath id="9c4f2d4fd9"><path d="M 199 10 L 243 10 L 243 44 L 199 44 Z M 199 10 " clip-rule="nonzero"/></clipPath><clipPath id="23bad5829b"><path d="M 231.683594 0.714844 L 247.339844 37.566406 L 210.488281 53.226562 L 194.832031 16.375 Z M 231.683594 0.714844 " clip-rule="nonzero"/></clipPath><clipPath id="6a6d45e084"><path d="M 231.683594 0.714844 L 247.339844 37.566406 L 210.488281 53.226562 L 194.832031 16.375 Z M 231.683594 0.714844 " clip-rule="nonzero"/></clipPath><clipPath id="d79b807b0e"><path d="M 138 12 L 180 12 L 180 52 L 138 52 Z M 138 12 " clip-rule="nonzero"/></clipPath><clipPath id="32525448eb"><path d="M 177.328125 53.445312 L 137.460938 49.738281 L 141.164062 9.871094 L 181.035156 13.574219 Z M 177.328125 53.445312 " clip-rule="nonzero"/></clipPath><clipPath id="31d75f40ce"><path d="M 177.328125 53.445312 L 137.460938 49.738281 L 141.164062 9.871094 L 181.035156 13.574219 Z M 177.328125 53.445312 " clip-rule="nonzero"/></clipPath><clipPath id="2508285509"><path d="M 8 21 L 51 21 L 51 59 L 8 59 Z M 8 21 " clip-rule="nonzero"/></clipPath><clipPath id="6fbd8be81c"><path d="M 14.292969 16.320312 L 53.378906 25.003906 L 44.695312 64.089844 L 5.609375 55.40625 Z M 14.292969 16.320312 " clip-rule="nonzero"/></clipPath><clipPath id="fea28f9f71"><path d="M 14.292969 16.320312 L 53.378906 25.003906 L 44.695312 64.089844 L 5.609375 55.40625 Z M 14.292969 16.320312 " clip-rule="nonzero"/></clipPath><clipPath id="f385bff89a"><path d="M 68 8 L 116 8 L 116 59 L 68 59 Z M 68 8 " clip-rule="nonzero"/></clipPath><clipPath id="fc6ead43f9"><path d="M 118.519531 11.007812 L 114.183594 59.753906 L 65.4375 55.414062 L 69.773438 6.671875 Z M 118.519531 11.007812 " clip-rule="nonzero"/></clipPath><clipPath id="37d0403870"><path d="M 118.519531 11.007812 L 114.183594 59.753906 L 65.4375 55.414062 L 69.773438 6.671875 Z M 118.519531 11.007812 " clip-rule="nonzero"/></clipPath><clipPath id="b30a56fe5a"><path d="M 317 6 L 356 6 L 356 46 L 317 46 Z M 317 6 " clip-rule="nonzero"/></clipPath><clipPath id="dc992386cd"><path d="M 357.78125 8.800781 L 353.722656 47.144531 L 315.378906 43.085938 L 319.441406 4.742188 Z M 357.78125 8.800781 " clip-rule="nonzero"/></clipPath><clipPath id="7b689578c5"><path d="M 357.78125 8.800781 L 353.722656 47.144531 L 315.378906 43.085938 L 319.441406 4.742188 Z M 357.78125 8.800781 " clip-rule="nonzero"/></clipPath><clipPath id="c162cb4d36"><path d="M 260 21 L 302 21 L 302 50 L 260 50 Z M 260 21 " clip-rule="nonzero"/></clipPath><clipPath id="8014e9dd20"><path d="M 286.445312 8.636719 L 308.042969 40.574219 L 276.105469 62.175781 L 254.503906 30.238281 Z M 286.445312 8.636719 " clip-rule="nonzero"/></clipPath><clipPath id="5c17d76dc4"><path d="M 286.445312 8.636719 L 308.042969 40.574219 L 276.105469 62.175781 L 254.503906 30.238281 Z M 286.445312 8.636719 " clip-rule="nonzero"/></clipPath><clipPath id="07e4199b21"><path d="M 559 10 L 602 10 L 602 44 L 559 44 Z M 559 10 " clip-rule="nonzero"/></clipPath><clipPath id="bfacd77210"><path d="M 591.265625 0.714844 L 606.921875 37.566406 L 570.070312 53.226562 L 554.414062 16.375 Z M 591.265625 0.714844 " clip-rule="nonzero"/></clipPath><clipPath id="b678623dbd"><path d="M 591.265625 0.714844 L 606.921875 37.566406 L 570.070312 53.226562 L 554.414062 16.375 Z M 591.265625 0.714844 " clip-rule="nonzero"/></clipPath><clipPath id="e9d8d64f23"><path d="M 498 12 L 540 12 L 540 52 L 498 52 Z M 498 12 " clip-rule="nonzero"/></clipPath><clipPath id="7c89bee385"><path d="M 536.910156 53.445312 L 497.042969 49.738281 L 500.746094 9.871094 L 540.617188 13.574219 Z M 536.910156 53.445312 " clip-rule="nonzero"/></clipPath><clipPath id="1fb6dc7c90"><path d="M 536.910156 53.445312 L 497.042969 49.738281 L 500.746094 9.871094 L 540.617188 13.574219 Z M 536.910156 53.445312 " clip-rule="nonzero"/></clipPath><clipPath id="9347dc72d7"><path d="M 368 21 L 410 21 L 410 59 L 368 59 Z M 368 21 " clip-rule="nonzero"/></clipPath><clipPath id="12813b5689"><path d="M 373.875 16.320312 L 412.960938 25.003906 L 404.277344 64.089844 L 365.191406 55.40625 Z M 373.875 16.320312 " clip-rule="nonzero"/></clipPath><clipPath id="83a04b792b"><path d="M 373.875 16.320312 L 412.960938 25.003906 L 404.277344 64.089844 L 365.191406 55.40625 Z M 373.875 16.320312 " clip-rule="nonzero"/></clipPath><clipPath id="ac1aa0389a"><path d="M 427 8 L 476 8 L 476 59 L 427 59 Z M 427 8 " clip-rule="nonzero"/></clipPath><clipPath id="e7b3e010aa"><path d="M 478.101562 11.007812 L 473.765625 59.753906 L 425.019531 55.414062 L 429.355469 6.671875 Z M 478.101562 11.007812 " clip-rule="nonzero"/></clipPath><clipPath id="b8dff19787"><path d="M 478.101562 11.007812 L 473.765625 59.753906 L 425.019531 55.414062 L 429.355469 6.671875 Z M 478.101562 11.007812 " clip-rule="nonzero"/></clipPath><clipPath id="e9db36c022"><path d="M 677 6 L 715 6 L 715 46 L 677 46 Z M 677 6 " clip-rule="nonzero"/></clipPath><clipPath id="430e7c0a23"><path d="M 717.363281 8.800781 L 713.304688 47.144531 L 674.960938 43.085938 L 679.023438 4.742188 Z M 717.363281 8.800781 " clip-rule="nonzero"/></clipPath><clipPath id="ef4866451a"><path d="M 717.363281 8.800781 L 713.304688 47.144531 L 674.960938 43.085938 L 679.023438 4.742188 Z M 717.363281 8.800781 " clip-rule="nonzero"/></clipPath><clipPath id="b9381a22e8"><path d="M 620 21 L 662 21 L 662 50 L 620 50 Z M 620 21 " clip-rule="nonzero"/></clipPath><clipPath id="b45d8526ce"><path d="M 646.027344 8.636719 L 667.625 40.574219 L 635.6875 62.175781 L 614.085938 30.238281 Z M 646.027344 8.636719 " clip-rule="nonzero"/></clipPath><clipPath id="fc3fbb03ae"><path d="M 646.027344 8.636719 L 667.625 40.574219 L 635.6875 62.175781 L 614.085938 30.238281 Z M 646.027344 8.636719 " clip-rule="nonzero"/></clipPath><clipPath id="cd0e72fbdc"><path d="M 919 10 L 962 10 L 962 44 L 919 44 Z M 919 10 " clip-rule="nonzero"/></clipPath><clipPath id="1467116b61"><path d="M 950.847656 0.714844 L 966.503906 37.566406 L 929.652344 53.226562 L 913.996094 16.375 Z M 950.847656 0.714844 " clip-rule="nonzero"/></clipPath><clipPath id="633c49c766"><path d="M 950.847656 0.714844 L 966.503906 37.566406 L 929.652344 53.226562 L 913.996094 16.375 Z M 950.847656 0.714844 " clip-rule="nonzero"/></clipPath><clipPath id="a60f351411"><path d="M 858 12 L 899 12 L 899 52 L 858 52 Z M 858 12 " clip-rule="nonzero"/></clipPath><clipPath id="20c22e3b6a"><path d="M 896.492188 53.445312 L 856.625 49.738281 L 860.328125 9.871094 L 900.199219 13.574219 Z M 896.492188 53.445312 " clip-rule="nonzero"/></clipPath><clipPath id="082b684888"><path d="M 896.492188 53.445312 L 856.625 49.738281 L 860.328125 9.871094 L 900.199219 13.574219 Z M 896.492188 53.445312 " clip-rule="nonzero"/></clipPath><clipPath id="d9481410c2"><path d="M 727 21 L 770 21 L 770 59 L 727 59 Z M 727 21 " clip-rule="nonzero"/></clipPath><clipPath id="8fcfc0539b"><path d="M 733.457031 16.320312 L 772.542969 25.003906 L 763.863281 64.089844 L 724.773438 55.40625 Z M 733.457031 16.320312 " clip-rule="nonzero"/></clipPath><clipPath id="996d29f881"><path d="M 733.457031 16.320312 L 772.542969 25.003906 L 763.863281 64.089844 L 724.773438 55.40625 Z M 733.457031 16.320312 " clip-rule="nonzero"/></clipPath><clipPath id="395d60a6fc"><path d="M 787 8 L 835 8 L 835 59 L 787 59 Z M 787 8 " clip-rule="nonzero"/></clipPath><clipPath id="12f8f19b51"><path d="M 837.683594 11.007812 L 833.347656 59.753906 L 784.601562 55.414062 L 788.9375 6.671875 Z M 837.683594 11.007812 " clip-rule="nonzero"/></clipPath><clipPath id="2ef4ffcf90"><path d="M 837.683594 11.007812 L 833.347656 59.753906 L 784.601562 55.414062 L 788.9375 6.671875 Z M 837.683594 11.007812 " clip-rule="nonzero"/></clipPath><clipPath id="9cfb0ce5c6"><path d="M 980 21 L 1021 21 L 1021 50 L 980 50 Z M 980 21 " clip-rule="nonzero"/></clipPath><clipPath id="5e43a33e4a"><path d="M 1005.609375 8.636719 L 1027.207031 40.574219 L 995.269531 62.175781 L 973.667969 30.238281 Z M 1005.609375 8.636719 " clip-rule="nonzero"/></clipPath><clipPath id="ad256f05e2"><path d="M 1005.609375 8.636719 L 1027.207031 40.574219 L 995.269531 62.175781 L 973.667969 30.238281 Z M 1005.609375 8.636719 " clip-rule="nonzero"/></clipPath></defs><g clip-path="url(#9c4f2d4fd9)"><g clip-path="url(#23bad5829b)"><g clip-path="url(#6a6d45e084)"><path fill="#bca893" d="M 200.449219 29.433594 C 199.796875 27.898438 199.78125 26.207031 200.40625 24.65625 C 201.03125 23.109375 202.222656 21.894531 203.757812 21.242188 C 204.421875 20.960938 205.121094 20.796875 205.820312 20.753906 C 205.332031 20.21875 204.933594 19.59375 204.648438 18.902344 C 204.003906 17.332031 204.019531 15.609375 204.691406 14.050781 C 205.324219 12.578125 206.496094 11.417969 207.984375 10.785156 C 209.476562 10.152344 211.125 10.113281 212.625 10.679688 C 214.214844 11.277344 215.464844 12.464844 216.148438 14.015625 C 216.832031 15.574219 216.855469 17.292969 216.21875 18.867188 L 216.214844 18.882812 C 216.136719 19.070312 216.140625 19.28125 216.21875 19.46875 C 216.21875 19.46875 216.21875 19.46875 216.21875 19.472656 C 216.300781 19.660156 216.449219 19.808594 216.636719 19.882812 L 229.183594 24.945312 C 229.367188 25.023438 229.574219 25.019531 229.757812 24.941406 C 229.941406 24.863281 230.082031 24.714844 230.15625 24.53125 C 230.167969 24.5 230.183594 24.46875 230.195312 24.433594 C 230.8125 22.949219 231.972656 21.773438 233.457031 21.121094 C 234.945312 20.46875 236.597656 20.414062 238.105469 20.96875 C 239.714844 21.558594 240.980469 22.742188 241.671875 24.300781 C 242.367188 25.863281 242.394531 27.59375 241.757812 29.175781 C 240.828125 31.480469 238.671875 32.929688 236.339844 33.074219 C 236.816406 33.59375 237.207031 34.195312 237.488281 34.859375 C 238.140625 36.398438 238.15625 38.09375 237.53125 39.644531 C 236.894531 41.21875 235.679688 42.445312 234.105469 43.085938 C 232.53125 43.730469 230.804688 43.710938 229.242188 43.03125 C 227.777344 42.394531 226.625 41.226562 225.996094 39.746094 C 225.992188 39.734375 225.984375 39.71875 225.980469 39.707031 C 225.355469 38.207031 225.328125 36.554688 225.910156 35.050781 L 225.933594 34.996094 C 226.097656 34.578125 225.898438 34.101562 225.484375 33.933594 L 213.046875 28.910156 C 212.632812 28.742188 212.152344 28.945312 211.984375 29.367188 L 211.960938 29.421875 C 211.335938 30.90625 210.167969 32.078125 208.679688 32.722656 C 207.1875 33.367188 205.535156 33.414062 204.023438 32.851562 C 202.429688 32.257812 201.171875 31.070312 200.484375 29.515625 C 200.472656 29.488281 200.460938 29.460938 200.449219 29.433594 Z M 208.082031 22.320312 C 206.835938 21.816406 205.46875 21.832031 204.230469 22.355469 C 202.992188 22.882812 202.03125 23.859375 201.527344 25.109375 C 201.015625 26.382812 201.039062 27.773438 201.589844 29.027344 C 202.144531 30.28125 203.160156 31.238281 204.445312 31.71875 C 205.660156 32.171875 206.992188 32.132812 208.195312 31.613281 C 209.402344 31.09375 210.339844 30.148438 210.84375 28.953125 L 210.863281 28.90625 C 211.285156 27.875 212.46875 27.375 213.496094 27.789062 L 225.9375 32.8125 C 226.964844 33.226562 227.46875 34.40625 227.054688 35.441406 L 227.039062 35.488281 C 226.570312 36.699219 226.589844 38.03125 227.097656 39.242188 C 227.101562 39.25 227.105469 39.261719 227.109375 39.269531 C 227.617188 40.46875 228.546875 41.40625 229.726562 41.921875 C 230.984375 42.46875 232.378906 42.488281 233.644531 41.96875 C 234.914062 41.449219 235.898438 40.460938 236.410156 39.1875 C 236.914062 37.941406 236.902344 36.570312 236.375 35.332031 C 235.851562 34.09375 234.871094 33.132812 233.625 32.628906 C 233.316406 32.503906 233.164062 32.152344 233.289062 31.84375 C 233.351562 31.6875 233.472656 31.574219 233.613281 31.511719 C 233.757812 31.453125 233.921875 31.445312 234.078125 31.507812 C 236.652344 32.546875 239.59375 31.296875 240.636719 28.722656 C 241.152344 27.445312 241.125 26.050781 240.566406 24.789062 C 240.007812 23.53125 238.988281 22.578125 237.691406 22.101562 C 236.476562 21.65625 235.144531 21.699219 233.945312 22.226562 C 232.746094 22.753906 231.808594 23.703125 231.3125 24.898438 C 231.300781 24.925781 231.289062 24.949219 231.28125 24.976562 C 231.085938 25.460938 230.714844 25.84375 230.230469 26.050781 C 229.75 26.257812 229.214844 26.261719 228.726562 26.066406 L 216.1875 21.003906 C 215.699219 20.804688 215.316406 20.429688 215.109375 19.941406 C 215.109375 19.941406 215.109375 19.941406 215.105469 19.941406 C 214.898438 19.453125 214.894531 18.914062 215.09375 18.425781 L 215.097656 18.414062 C 215.609375 17.144531 215.589844 15.753906 215.039062 14.5 C 214.492188 13.25 213.480469 12.292969 212.199219 11.808594 C 210.988281 11.355469 209.660156 11.386719 208.457031 11.898438 C 207.257812 12.410156 206.3125 13.34375 205.800781 14.53125 C 205.257812 15.789062 205.246094 17.179688 205.765625 18.441406 C 206.285156 19.707031 207.269531 20.6875 208.539062 21.199219 C 208.851562 21.324219 209 21.675781 208.875 21.988281 C 208.75 22.296875 208.398438 22.445312 208.085938 22.320312 C 208.085938 22.320312 208.085938 22.320312 208.082031 22.320312 Z M 208.082031 22.320312 " fill-opacity="1" fill-rule="nonzero"/></g></g></g><g clip-path="url(#d79b807b0e)"><g clip-path="url(#32525448eb)"><g clip-path="url(#31d75f40ce)"><path fill="#715c50" d="M 166.871094 12.324219 C 168.53125 12.480469 170.03125 13.269531 171.097656 14.554688 C 172.164062 15.839844 172.664062 17.460938 172.511719 19.125 C 172.445312 19.84375 172.257812 20.535156 171.964844 21.171875 C 172.667969 20.992188 173.40625 20.941406 174.148438 21.019531 C 175.835938 21.195312 177.347656 22.027344 178.398438 23.359375 C 179.394531 24.617188 179.859375 26.195312 179.710938 27.808594 C 179.5625 29.421875 178.8125 30.886719 177.601562 31.941406 C 176.320312 33.058594 174.683594 33.597656 172.992188 33.457031 C 171.296875 33.320312 169.773438 32.527344 168.6875 31.21875 L 168.679688 31.207031 C 168.546875 31.050781 168.363281 30.953125 168.15625 30.933594 C 167.953125 30.914062 167.753906 30.976562 167.59375 31.105469 L 157.1875 39.746094 C 157.03125 39.875 156.9375 40.054688 156.917969 40.253906 C 156.902344 40.453125 156.960938 40.648438 157.089844 40.800781 C 157.113281 40.828125 157.132812 40.855469 157.15625 40.878906 C 158.171875 42.128906 158.65625 43.707031 158.523438 45.324219 C 158.390625 46.945312 157.65625 48.421875 156.453125 49.488281 C 155.171875 50.625 153.53125 51.175781 151.828125 51.046875 C 150.121094 50.914062 148.585938 50.121094 147.496094 48.808594 C 145.910156 46.894531 145.65625 44.308594 146.636719 42.191406 C 145.953125 42.363281 145.238281 42.421875 144.519531 42.355469 C 144.519531 42.355469 144.519531 42.355469 144.515625 42.355469 C 142.855469 42.199219 141.355469 41.40625 140.289062 40.121094 C 139.203125 38.8125 138.703125 37.160156 138.882812 35.46875 C 139.0625 33.78125 139.898438 32.269531 141.238281 31.214844 C 142.496094 30.230469 144.070312 29.769531 145.671875 29.917969 C 145.6875 29.921875 145.699219 29.921875 145.710938 29.921875 C 147.328125 30.082031 148.796875 30.847656 149.84375 32.070312 L 149.882812 32.117188 C 150.171875 32.460938 150.6875 32.511719 151.03125 32.226562 L 161.355469 23.660156 C 161.699219 23.375 161.746094 22.859375 161.457031 22.507812 L 161.421875 22.464844 C 160.410156 21.207031 159.929688 19.625 160.070312 18.007812 C 160.210938 16.386719 160.957031 14.910156 162.167969 13.851562 C 163.449219 12.726562 165.085938 12.183594 166.78125 12.316406 C 166.8125 12.320312 166.839844 12.320312 166.871094 12.324219 Z M 169.511719 22.421875 C 170.542969 21.5625 171.179688 20.351562 171.304688 19.011719 C 171.429688 17.671875 171.023438 16.363281 170.164062 15.328125 C 169.289062 14.273438 168.054688 13.628906 166.6875 13.523438 C 165.320312 13.414062 163.996094 13.851562 162.964844 14.757812 C 161.988281 15.613281 161.390625 16.804688 161.277344 18.109375 C 161.164062 19.417969 161.546875 20.691406 162.363281 21.703125 L 162.394531 21.742188 C 163.101562 22.605469 162.980469 23.882812 162.125 24.589844 L 151.804688 33.15625 C 150.949219 33.867188 149.671875 33.746094 148.957031 32.894531 L 148.925781 32.855469 C 148.082031 31.871094 146.898438 31.257812 145.59375 31.128906 C 145.582031 31.125 145.570312 31.125 145.5625 31.125 C 144.265625 31.003906 143 31.375 141.988281 32.167969 C 140.90625 33.015625 140.230469 34.234375 140.085938 35.597656 C 139.941406 36.960938 140.34375 38.296875 141.21875 39.351562 C 142.078125 40.386719 143.289062 41.027344 144.628906 41.152344 C 144.628906 41.152344 144.628906 41.152344 144.632812 41.152344 C 145.972656 41.273438 147.28125 40.871094 148.316406 40.011719 C 148.574219 39.796875 148.953125 39.832031 149.167969 40.089844 C 149.273438 40.21875 149.320312 40.378906 149.304688 40.53125 C 149.289062 40.6875 149.21875 40.835938 149.089844 40.941406 C 146.949219 42.714844 146.652344 45.898438 148.429688 48.035156 C 149.308594 49.097656 150.550781 49.734375 151.921875 49.84375 C 153.296875 49.949219 154.621094 49.5 155.652344 48.585938 C 156.621094 47.726562 157.214844 46.535156 157.320312 45.226562 C 157.425781 43.921875 157.035156 42.648438 156.21875 41.644531 C 156.203125 41.621094 156.183594 41.601562 156.167969 41.578125 C 155.828125 41.175781 155.667969 40.667969 155.714844 40.144531 C 155.765625 39.625 156.011719 39.152344 156.417969 38.816406 L 166.824219 30.175781 C 167.230469 29.839844 167.742188 29.683594 168.269531 29.730469 C 168.269531 29.730469 168.269531 29.730469 168.273438 29.730469 C 168.800781 29.78125 169.273438 30.03125 169.609375 30.4375 L 169.621094 30.449219 C 170.492188 31.503906 171.726562 32.144531 173.089844 32.253906 C 174.453125 32.363281 175.773438 31.929688 176.808594 31.03125 C 177.78125 30.179688 178.386719 28.996094 178.507812 27.695312 C 178.628906 26.394531 178.253906 25.121094 177.449219 24.105469 C 176.601562 23.03125 175.382812 22.363281 174.023438 22.21875 C 172.664062 22.078125 171.332031 22.480469 170.28125 23.355469 C 170.023438 23.566406 169.640625 23.53125 169.425781 23.273438 C 169.214844 23.019531 169.25 22.636719 169.507812 22.421875 C 169.507812 22.421875 169.507812 22.421875 169.511719 22.421875 Z M 169.511719 22.421875 " fill-opacity="1" fill-rule="nonzero"/></g></g></g><g clip-path="url(#2508285509)"><g clip-path="url(#6fbd8be81c)"><g clip-path="url(#fea28f9f71)"><path fill="#715c50" d="M 19.503906 58.425781 C 17.875 58.066406 16.488281 57.09375 15.589844 55.683594 C 14.695312 54.273438 14.402344 52.601562 14.761719 50.972656 C 14.917969 50.269531 15.191406 49.605469 15.5625 49.011719 C 14.84375 49.097656 14.105469 49.058594 13.375 48.886719 C 11.722656 48.5 10.328125 47.488281 9.453125 46.03125 C 8.621094 44.660156 8.359375 43.035156 8.710938 41.453125 C 9.0625 39.875 9.988281 38.511719 11.320312 37.617188 C 12.734375 36.671875 14.425781 36.34375 16.085938 36.691406 C 17.75 37.039062 19.160156 38.019531 20.074219 39.453125 L 20.082031 39.464844 C 20.191406 39.640625 20.363281 39.757812 20.5625 39.804688 C 20.5625 39.804688 20.5625 39.804688 20.566406 39.804688 C 20.765625 39.847656 20.972656 39.8125 21.144531 39.703125 L 32.554688 32.441406 C 32.726562 32.332031 32.84375 32.164062 32.886719 31.96875 C 32.925781 31.773438 32.890625 31.574219 32.78125 31.40625 C 32.765625 31.375 32.746094 31.347656 32.726562 31.316406 C 31.878906 29.953125 31.59375 28.324219 31.929688 26.738281 C 32.261719 25.148438 33.179688 23.773438 34.507812 22.867188 C 35.917969 21.902344 37.617188 21.558594 39.289062 21.902344 C 40.964844 22.246094 42.390625 23.226562 43.308594 24.667969 C 44.640625 26.761719 44.566406 29.359375 43.332031 31.339844 C 44.027344 31.253906 44.746094 31.289062 45.449219 31.445312 C 45.449219 31.445312 45.449219 31.445312 45.453125 31.445312 C 47.082031 31.804688 48.472656 32.78125 49.367188 34.1875 C 50.28125 35.625 50.570312 37.324219 50.175781 38.980469 C 49.785156 40.636719 48.765625 42.03125 47.304688 42.90625 C 45.933594 43.726562 44.316406 43.984375 42.746094 43.636719 C 42.730469 43.632812 42.71875 43.628906 42.703125 43.625 C 41.121094 43.261719 39.761719 42.324219 38.875 40.976562 L 38.84375 40.925781 C 38.601562 40.546875 38.09375 40.433594 37.71875 40.671875 L 26.398438 47.875 C 26.023438 48.113281 25.910156 48.621094 26.152344 49.003906 L 26.183594 49.054688 C 27.027344 50.425781 27.304688 52.054688 26.964844 53.644531 C 26.621094 55.234375 25.695312 56.605469 24.363281 57.503906 C 22.949219 58.457031 21.253906 58.792969 19.589844 58.445312 C 19.5625 58.441406 19.53125 58.433594 19.503906 58.425781 Z M 18.152344 48.082031 C 17.019531 48.804688 16.234375 49.921875 15.945312 51.234375 C 15.652344 52.550781 15.890625 53.898438 16.613281 55.035156 C 17.347656 56.191406 18.496094 56.984375 19.835938 57.261719 C 21.179688 57.542969 22.546875 57.273438 23.683594 56.503906 C 24.761719 55.777344 25.503906 54.671875 25.78125 53.390625 C 26.058594 52.109375 25.835938 50.792969 25.15625 49.6875 L 25.128906 49.648438 C 24.535156 48.703125 24.8125 47.449219 25.75 46.855469 L 37.066406 39.652344 C 38.003906 39.054688 39.257812 39.335938 39.859375 40.269531 L 39.886719 40.3125 C 40.597656 41.394531 41.695312 42.152344 42.972656 42.445312 C 42.984375 42.449219 42.996094 42.449219 43.007812 42.453125 C 44.273438 42.734375 45.578125 42.527344 46.683594 41.867188 C 47.859375 41.160156 48.683594 40.035156 49 38.703125 C 49.316406 37.367188 49.082031 35.996094 48.347656 34.835938 C 47.625 33.703125 46.503906 32.914062 45.1875 32.625 C 43.875 32.332031 42.523438 32.570312 41.390625 33.292969 C 41.109375 33.46875 40.734375 33.386719 40.554688 33.105469 C 40.464844 32.964844 40.441406 32.800781 40.472656 32.648438 C 40.507812 32.5 40.597656 32.359375 40.738281 32.269531 C 43.082031 30.78125 43.777344 27.660156 42.285156 25.316406 C 41.546875 24.152344 40.394531 23.363281 39.046875 23.085938 C 37.699219 22.808594 36.328125 23.082031 35.1875 23.863281 C 34.117188 24.59375 33.378906 25.703125 33.109375 26.984375 C 32.839844 28.265625 33.070312 29.578125 33.753906 30.679688 C 33.769531 30.703125 33.78125 30.726562 33.796875 30.75 C 34.082031 31.191406 34.175781 31.714844 34.0625 32.226562 C 33.953125 32.742188 33.644531 33.175781 33.203125 33.460938 L 21.792969 40.722656 C 21.347656 41.003906 20.816406 41.097656 20.300781 40.980469 C 19.78125 40.867188 19.34375 40.558594 19.058594 40.113281 L 19.050781 40.101562 C 18.316406 38.945312 17.175781 38.15625 15.835938 37.875 C 14.496094 37.59375 13.132812 37.859375 11.996094 38.621094 C 10.921875 39.339844 10.175781 40.441406 9.890625 41.714844 C 9.605469 42.992188 9.820312 44.304688 10.488281 45.410156 C 11.195312 46.582031 12.320312 47.398438 13.652344 47.710938 C 14.984375 48.023438 16.351562 47.792969 17.507812 47.058594 C 17.789062 46.878906 18.164062 46.960938 18.34375 47.242188 C 18.523438 47.523438 18.4375 47.898438 18.15625 48.078125 C 18.15625 48.078125 18.152344 48.078125 18.152344 48.082031 Z M 18.152344 48.082031 " fill-opacity="1" fill-rule="nonzero"/></g></g></g><g clip-path="url(#f385bff89a)"><g clip-path="url(#fc6ead43f9)"><g clip-path="url(#37d0403870)"><path fill="#bca893" d="M 68.261719 24 C 68.441406 21.96875 69.402344 20.128906 70.96875 18.816406 C 72.535156 17.507812 74.519531 16.886719 76.554688 17.066406 C 77.433594 17.144531 78.28125 17.371094 79.0625 17.726562 C 78.839844 16.867188 78.773438 15.964844 78.863281 15.050781 C 79.070312 12.988281 80.082031 11.136719 81.707031 9.839844 C 83.238281 8.617188 85.171875 8.039062 87.144531 8.214844 C 89.117188 8.390625 90.914062 9.300781 92.210938 10.777344 C 93.582031 12.339844 94.25 14.339844 94.089844 16.40625 C 93.929688 18.480469 92.964844 20.351562 91.371094 21.683594 L 91.355469 21.695312 C 91.164062 21.855469 91.046875 22.082031 91.023438 22.335938 C 91 22.585938 91.078125 22.832031 91.238281 23.023438 L 101.855469 35.714844 C 102.015625 35.90625 102.234375 36.019531 102.480469 36.042969 C 102.722656 36.0625 102.960938 35.988281 103.148438 35.828125 C 103.179688 35.800781 103.210938 35.773438 103.246094 35.746094 C 104.769531 34.5 106.695312 33.898438 108.675781 34.054688 C 110.65625 34.207031 112.46875 35.097656 113.78125 36.566406 C 115.175781 38.128906 115.859375 40.132812 115.707031 42.21875 C 115.554688 44.304688 114.589844 46.1875 112.988281 47.527344 C 110.65625 49.480469 107.496094 49.800781 104.898438 48.613281 C 105.113281 49.445312 105.1875 50.320312 105.109375 51.203125 C 104.925781 53.238281 103.964844 55.078125 102.398438 56.390625 C 100.800781 57.726562 98.785156 58.34375 96.714844 58.128906 C 94.644531 57.917969 92.792969 56.902344 91.496094 55.265625 C 90.285156 53.734375 89.714844 51.8125 89.890625 49.851562 C 89.890625 49.835938 89.890625 49.816406 89.894531 49.800781 C 90.082031 47.824219 91.007812 46.023438 92.503906 44.738281 L 92.558594 44.691406 C 92.980469 44.332031 93.035156 43.703125 92.6875 43.28125 L 82.15625 30.695312 C 81.804688 30.273438 81.171875 30.21875 80.746094 30.574219 L 80.691406 30.617188 C 79.160156 31.859375 77.226562 32.453125 75.246094 32.292969 C 73.265625 32.128906 71.453125 31.222656 70.148438 29.746094 C 68.769531 28.1875 68.097656 26.183594 68.253906 24.109375 C 68.253906 24.070312 68.257812 24.035156 68.261719 24 Z M 80.601562 20.722656 C 79.542969 19.460938 78.058594 18.6875 76.421875 18.542969 C 74.78125 18.394531 73.183594 18.898438 71.917969 19.953125 C 70.632812 21.03125 69.851562 22.546875 69.726562 24.21875 C 69.601562 25.890625 70.144531 27.507812 71.257812 28.769531 C 72.308594 29.957031 73.765625 30.683594 75.367188 30.816406 C 76.964844 30.949219 78.523438 30.472656 79.757812 29.46875 L 79.804688 29.433594 C 80.855469 28.5625 82.417969 28.703125 83.289062 29.746094 L 93.820312 42.332031 C 94.691406 43.375 94.554688 44.9375 93.511719 45.816406 L 93.46875 45.859375 C 92.265625 46.894531 91.519531 48.34375 91.367188 49.941406 C 91.367188 49.953125 91.367188 49.96875 91.363281 49.980469 C 91.222656 51.566406 91.683594 53.113281 92.660156 54.347656 C 93.703125 55.667969 95.195312 56.488281 96.863281 56.65625 C 98.535156 56.828125 100.164062 56.332031 101.449219 55.253906 C 102.714844 54.195312 103.488281 52.710938 103.636719 51.070312 C 103.78125 49.429688 103.28125 47.832031 102.222656 46.570312 C 101.960938 46.253906 102.003906 45.789062 102.316406 45.527344 C 102.472656 45.394531 102.667969 45.339844 102.855469 45.355469 C 103.046875 45.375 103.226562 45.460938 103.359375 45.617188 C 105.539062 48.226562 109.433594 48.574219 112.042969 46.390625 C 113.335938 45.308594 114.109375 43.789062 114.234375 42.109375 C 114.355469 40.429688 113.804688 38.808594 112.679688 37.550781 C 111.625 36.367188 110.160156 35.648438 108.5625 35.527344 C 106.964844 35.402344 105.410156 35.886719 104.183594 36.890625 C 104.15625 36.914062 104.128906 36.933594 104.105469 36.957031 C 103.613281 37.371094 102.992188 37.566406 102.351562 37.511719 C 101.714844 37.457031 101.132812 37.15625 100.722656 36.664062 L 90.105469 23.96875 C 89.691406 23.476562 89.496094 22.847656 89.550781 22.203125 C 89.609375 21.554688 89.914062 20.972656 90.410156 20.558594 L 90.421875 20.546875 C 91.707031 19.476562 92.484375 17.960938 92.613281 16.292969 C 92.742188 14.625 92.207031 13.011719 91.101562 11.75 C 90.054688 10.5625 88.605469 9.832031 87.011719 9.6875 C 85.417969 9.546875 83.863281 10.011719 82.625 11 C 81.316406 12.042969 80.5 13.535156 80.332031 15.199219 C 80.164062 16.867188 80.664062 18.492188 81.738281 19.777344 C 82 20.089844 81.960938 20.554688 81.644531 20.820312 C 81.332031 21.082031 80.867188 21.039062 80.605469 20.726562 C 80.601562 20.726562 80.601562 20.722656 80.601562 20.722656 Z M 80.601562 20.722656 " fill-opacity="1" fill-rule="nonzero"/></g></g></g><g clip-path="url(#b30a56fe5a)"><g clip-path="url(#dc992386cd)"><g clip-path="url(#7b689578c5)"><path fill="#bca893" d="M 317.703125 18.449219 C 317.875 16.839844 318.660156 15.394531 319.925781 14.371094 C 321.183594 13.351562 322.765625 12.886719 324.378906 13.054688 C 325.078125 13.128906 325.746094 13.320312 326.363281 13.613281 C 326.199219 12.925781 326.15625 12.210938 326.242188 11.488281 C 326.433594 9.851562 327.261719 8.394531 328.566406 7.386719 C 329.800781 6.4375 331.34375 6.003906 332.90625 6.167969 C 334.46875 6.332031 335.886719 7.082031 336.894531 8.269531 C 337.964844 9.527344 338.464844 11.125 338.3125 12.765625 C 338.15625 14.410156 337.367188 15.882812 336.085938 16.917969 L 336.074219 16.929688 C 335.917969 17.050781 335.820312 17.230469 335.800781 17.429688 C 335.800781 17.429688 335.800781 17.429688 335.800781 17.433594 C 335.777344 17.632812 335.835938 17.824219 335.960938 17.980469 L 344.222656 28.199219 C 344.347656 28.351562 344.519531 28.445312 344.714844 28.464844 C 344.90625 28.484375 345.097656 28.429688 345.246094 28.304688 C 345.273438 28.285156 345.300781 28.265625 345.324219 28.242188 C 346.550781 27.273438 348.089844 26.820312 349.660156 26.96875 C 351.230469 27.117188 352.660156 27.851562 353.679688 29.035156 C 354.765625 30.292969 355.285156 31.894531 355.136719 33.546875 C 354.988281 35.199219 354.195312 36.683594 352.90625 37.726562 C 351.027344 39.242188 348.515625 39.457031 346.46875 38.480469 C 346.628906 39.144531 346.671875 39.839844 346.597656 40.539062 C 346.429688 42.152344 345.640625 43.601562 344.378906 44.621094 C 343.09375 45.660156 341.484375 46.125 339.84375 45.929688 C 338.203125 45.730469 336.746094 44.898438 335.738281 43.585938 C 334.796875 42.351562 334.367188 40.820312 334.535156 39.265625 C 334.535156 39.25 334.535156 39.238281 334.539062 39.226562 C 334.714844 37.65625 335.472656 36.238281 336.675781 35.238281 L 336.71875 35.203125 C 337.058594 34.925781 337.113281 34.421875 336.839844 34.085938 L 328.648438 23.949219 C 328.375 23.613281 327.875 23.558594 327.53125 23.835938 L 327.484375 23.871094 C 326.253906 24.835938 324.710938 25.28125 323.140625 25.125 C 321.570312 24.96875 320.144531 24.230469 319.128906 23.039062 C 318.050781 21.78125 317.542969 20.179688 317.695312 18.535156 C 317.699219 18.507812 317.703125 18.480469 317.703125 18.449219 Z M 327.546875 16.011719 C 326.722656 14.996094 325.554688 14.363281 324.257812 14.226562 C 322.957031 14.085938 321.679688 14.464844 320.660156 15.285156 C 319.625 16.125 318.988281 17.316406 318.863281 18.644531 C 318.742188 19.96875 319.152344 21.261719 320.019531 22.277344 C 320.839844 23.234375 321.988281 23.832031 323.253906 23.957031 C 324.523438 24.082031 325.765625 23.726562 326.757812 22.945312 L 326.796875 22.917969 C 327.644531 22.242188 328.882812 22.371094 329.5625 23.210938 L 337.753906 33.347656 C 338.433594 34.183594 338.300781 35.425781 337.464844 36.109375 L 337.425781 36.140625 C 336.460938 36.945312 335.847656 38.089844 335.707031 39.355469 C 335.707031 39.367188 335.703125 39.375 335.703125 39.386719 C 335.570312 40.640625 335.914062 41.878906 336.671875 42.871094 C 337.484375 43.933594 338.660156 44.605469 339.980469 44.761719 C 341.304688 44.917969 342.605469 44.542969 343.640625 43.707031 C 344.660156 42.882812 345.292969 41.714844 345.433594 40.414062 C 345.570312 39.113281 345.191406 37.835938 344.371094 36.820312 C 344.167969 36.570312 344.207031 36.199219 344.457031 35.996094 C 344.585938 35.894531 344.738281 35.851562 344.890625 35.867188 C 345.039062 35.882812 345.183594 35.957031 345.285156 36.082031 C 346.980469 38.179688 350.070312 38.507812 352.167969 36.8125 C 353.210938 35.96875 353.847656 34.773438 353.96875 33.4375 C 354.085938 32.105469 353.667969 30.816406 352.792969 29.800781 C 351.96875 28.847656 350.820312 28.257812 349.550781 28.136719 C 348.285156 28.019531 347.042969 28.382812 346.054688 29.164062 C 346.03125 29.179688 346.011719 29.195312 345.992188 29.214844 C 345.597656 29.535156 345.101562 29.683594 344.59375 29.632812 C 344.085938 29.582031 343.632812 29.332031 343.308594 28.9375 L 335.046875 18.714844 C 334.726562 18.316406 334.578125 17.816406 334.632812 17.304688 C 334.6875 16.792969 334.9375 16.335938 335.335938 16.011719 L 335.347656 16.003906 C 336.378906 15.167969 337.019531 13.980469 337.144531 12.65625 C 337.269531 11.332031 336.863281 10.042969 336 9.027344 C 335.1875 8.070312 334.046875 7.46875 332.78125 7.335938 C 331.519531 7.203125 330.277344 7.550781 329.28125 8.316406 C 328.226562 9.128906 327.5625 10.304688 327.40625 11.625 C 327.25 12.945312 327.625 14.242188 328.460938 15.277344 C 328.664062 15.527344 328.625 15.898438 328.375 16.101562 C 328.121094 16.304688 327.75 16.265625 327.546875 16.015625 C 327.546875 16.015625 327.546875 16.011719 327.546875 16.011719 Z M 327.546875 16.011719 " fill-opacity="1" fill-rule="nonzero"/></g></g></g><g clip-path="url(#c162cb4d36)"><g clip-path="url(#8014e9dd20)"><g clip-path="url(#5c17d76dc4)"><path fill="#715c50" d="M 262.011719 41.839844 C 261.101562 40.496094 260.773438 38.882812 261.078125 37.289062 C 261.386719 35.695312 262.296875 34.320312 263.640625 33.410156 C 264.222656 33.019531 264.855469 32.730469 265.515625 32.558594 C 264.949219 32.140625 264.453125 31.621094 264.050781 31.011719 C 263.144531 29.636719 262.839844 27.988281 263.191406 26.378906 C 263.519531 24.855469 264.421875 23.53125 265.722656 22.648438 C 267.027344 21.769531 268.589844 21.425781 270.128906 21.6875 C 271.753906 21.960938 273.167969 22.859375 274.105469 24.210938 C 275.050781 25.570312 275.390625 27.207031 275.078125 28.824219 L 275.078125 28.839844 C 275.039062 29.035156 275.078125 29.234375 275.191406 29.398438 C 275.304688 29.566406 275.472656 29.679688 275.667969 29.714844 L 288.574219 32.207031 C 288.765625 32.246094 288.957031 32.203125 289.121094 32.09375 C 289.28125 31.984375 289.390625 31.820312 289.425781 31.628906 C 289.429688 31.59375 289.4375 31.5625 289.445312 31.53125 C 289.757812 30 290.640625 28.660156 291.9375 27.761719 C 293.234375 26.863281 294.800781 26.503906 296.34375 26.75 C 297.984375 27.011719 299.410156 27.90625 300.363281 29.265625 C 301.316406 30.625 301.664062 32.269531 301.351562 33.898438 C 300.894531 36.269531 299.105469 38.050781 296.914062 38.625 C 297.464844 39.027344 297.945312 39.53125 298.339844 40.113281 C 299.25 41.457031 299.582031 43.074219 299.273438 44.664062 C 298.960938 46.289062 298.027344 47.679688 296.644531 48.589844 C 295.265625 49.496094 293.613281 49.796875 291.996094 49.441406 C 290.480469 49.105469 289.167969 48.207031 288.292969 46.910156 C 288.285156 46.902344 288.277344 46.890625 288.269531 46.878906 C 287.394531 45.566406 287.0625 43.996094 287.335938 42.453125 L 287.347656 42.394531 C 287.425781 41.964844 287.144531 41.546875 286.71875 41.464844 L 273.921875 38.992188 C 273.496094 38.910156 273.078125 39.195312 272.996094 39.625 L 272.984375 39.679688 C 272.664062 41.210938 271.769531 42.546875 270.46875 43.441406 C 269.167969 44.335938 267.597656 44.683594 266.054688 44.429688 C 264.421875 44.160156 263.003906 43.265625 262.058594 41.910156 C 262.042969 41.886719 262.027344 41.863281 262.011719 41.839844 Z M 267.964844 33.632812 C 266.683594 33.386719 265.378906 33.652344 264.296875 34.386719 C 263.214844 35.117188 262.480469 36.226562 262.234375 37.511719 C 261.980469 38.820312 262.261719 40.144531 263.023438 41.238281 C 263.785156 42.332031 264.929688 43.054688 266.246094 43.273438 C 267.488281 43.476562 268.753906 43.191406 269.804688 42.472656 C 270.855469 41.753906 271.574219 40.675781 271.832031 39.441406 L 271.84375 39.394531 C 272.054688 38.332031 273.085938 37.636719 274.144531 37.839844 L 286.941406 40.308594 C 288 40.515625 288.699219 41.546875 288.5 42.613281 L 288.492188 42.660156 C 288.269531 43.898438 288.539062 45.164062 289.246094 46.226562 C 289.253906 46.234375 289.257812 46.242188 289.265625 46.253906 C 289.972656 47.296875 291.03125 48.023438 292.25 48.292969 C 293.554688 48.582031 294.886719 48.335938 296 47.605469 C 297.113281 46.875 297.867188 45.75 298.121094 44.441406 C 298.367188 43.15625 298.101562 41.855469 297.367188 40.769531 C 296.636719 39.6875 295.523438 38.953125 294.242188 38.707031 C 293.921875 38.644531 293.714844 38.335938 293.773438 38.015625 C 293.804688 37.859375 293.898438 37.726562 294.023438 37.640625 C 294.148438 37.558594 294.304688 37.519531 294.460938 37.550781 C 297.113281 38.0625 299.6875 36.324219 300.199219 33.671875 C 300.453125 32.359375 300.167969 31.035156 299.398438 29.9375 C 298.632812 28.839844 297.480469 28.121094 296.15625 27.910156 C 294.914062 27.710938 293.652344 28 292.609375 28.726562 C 291.5625 29.453125 290.847656 30.53125 290.59375 31.765625 C 290.589844 31.789062 290.582031 31.816406 290.578125 31.84375 C 290.484375 32.34375 290.199219 32.777344 289.78125 33.0625 C 289.359375 33.351562 288.851562 33.457031 288.347656 33.359375 L 275.445312 30.867188 C 274.941406 30.769531 274.507812 30.480469 274.21875 30.054688 C 273.929688 29.628906 273.828125 29.117188 273.925781 28.613281 L 273.925781 28.601562 C 274.179688 27.296875 273.898438 25.972656 273.144531 24.882812 C 272.386719 23.789062 271.246094 23.066406 269.933594 22.84375 C 268.695312 22.636719 267.433594 22.910156 266.382812 23.625 C 265.328125 24.335938 264.601562 25.402344 264.335938 26.628906 C 264.054688 27.929688 264.300781 29.257812 265.03125 30.367188 C 265.765625 31.476562 266.886719 32.226562 268.191406 32.480469 C 268.511719 32.539062 268.71875 32.847656 268.65625 33.167969 C 268.597656 33.484375 268.289062 33.695312 267.96875 33.632812 C 267.96875 33.632812 267.964844 33.632812 267.964844 33.632812 Z M 267.964844 33.632812 " fill-opacity="1" fill-rule="nonzero"/></g></g></g><g clip-path="url(#07e4199b21)"><g clip-path="url(#bfacd77210)"><g clip-path="url(#b678623dbd)"><path fill="#bca893" d="M 560.03125 29.433594 C 559.378906 27.898438 559.363281 26.207031 559.988281 24.65625 C 560.613281 23.109375 561.804688 21.894531 563.339844 21.242188 C 564.003906 20.960938 564.703125 20.796875 565.402344 20.753906 C 564.914062 20.21875 564.515625 19.59375 564.230469 18.902344 C 563.585938 17.332031 563.601562 15.609375 564.273438 14.050781 C 564.90625 12.578125 566.078125 11.417969 567.566406 10.785156 C 569.058594 10.152344 570.707031 10.113281 572.207031 10.679688 C 573.796875 11.277344 575.046875 12.464844 575.730469 14.015625 C 576.414062 15.574219 576.4375 17.292969 575.800781 18.867188 L 575.796875 18.882812 C 575.71875 19.070312 575.722656 19.28125 575.800781 19.46875 C 575.800781 19.46875 575.800781 19.46875 575.800781 19.472656 C 575.882812 19.660156 576.03125 19.808594 576.21875 19.882812 L 588.765625 24.945312 C 588.949219 25.023438 589.15625 25.019531 589.339844 24.941406 C 589.523438 24.863281 589.664062 24.714844 589.738281 24.53125 C 589.75 24.5 589.765625 24.46875 589.777344 24.433594 C 590.394531 22.949219 591.554688 21.773438 593.039062 21.121094 C 594.527344 20.46875 596.179688 20.414062 597.691406 20.96875 C 599.296875 21.558594 600.5625 22.742188 601.253906 24.300781 C 601.949219 25.863281 601.976562 27.59375 601.339844 29.175781 C 600.410156 31.480469 598.253906 32.929688 595.921875 33.074219 C 596.398438 33.59375 596.789062 34.195312 597.070312 34.859375 C 597.722656 36.398438 597.738281 38.09375 597.113281 39.644531 C 596.476562 41.21875 595.261719 42.445312 593.6875 43.085938 C 592.113281 43.730469 590.386719 43.710938 588.824219 43.03125 C 587.359375 42.394531 586.207031 41.226562 585.578125 39.746094 C 585.574219 39.734375 585.566406 39.71875 585.5625 39.707031 C 584.9375 38.207031 584.910156 36.554688 585.492188 35.050781 L 585.515625 34.996094 C 585.679688 34.578125 585.480469 34.101562 585.066406 33.933594 L 572.628906 28.910156 C 572.214844 28.742188 571.734375 28.945312 571.566406 29.367188 L 571.542969 29.421875 C 570.917969 30.90625 569.75 32.078125 568.261719 32.722656 C 566.769531 33.367188 565.117188 33.414062 563.605469 32.851562 C 562.011719 32.257812 560.753906 31.070312 560.066406 29.515625 C 560.054688 29.488281 560.042969 29.460938 560.03125 29.433594 Z M 567.664062 22.320312 C 566.417969 21.816406 565.050781 21.832031 563.8125 22.355469 C 562.574219 22.882812 561.613281 23.859375 561.109375 25.109375 C 560.597656 26.382812 560.621094 27.773438 561.171875 29.027344 C 561.726562 30.28125 562.742188 31.238281 564.027344 31.71875 C 565.242188 32.171875 566.574219 32.132812 567.78125 31.613281 C 568.984375 31.09375 569.921875 30.148438 570.425781 28.953125 L 570.445312 28.90625 C 570.867188 27.875 572.050781 27.375 573.078125 27.789062 L 585.519531 32.8125 C 586.546875 33.226562 587.050781 34.40625 586.636719 35.441406 L 586.621094 35.488281 C 586.152344 36.699219 586.171875 38.03125 586.679688 39.242188 C 586.683594 39.25 586.6875 39.261719 586.691406 39.269531 C 587.199219 40.46875 588.128906 41.40625 589.308594 41.921875 C 590.566406 42.46875 591.960938 42.488281 593.226562 41.96875 C 594.496094 41.449219 595.480469 40.460938 595.992188 39.1875 C 596.496094 37.941406 596.484375 36.570312 595.957031 35.332031 C 595.433594 34.09375 594.453125 33.132812 593.207031 32.628906 C 592.898438 32.503906 592.746094 32.152344 592.871094 31.84375 C 592.933594 31.6875 593.054688 31.574219 593.195312 31.511719 C 593.339844 31.453125 593.503906 31.445312 593.660156 31.507812 C 596.234375 32.546875 599.179688 31.296875 600.21875 28.722656 C 600.734375 27.445312 600.707031 26.050781 600.148438 24.789062 C 599.589844 23.53125 598.570312 22.578125 597.273438 22.101562 C 596.058594 21.65625 594.726562 21.699219 593.527344 22.226562 C 592.328125 22.753906 591.390625 23.703125 590.894531 24.898438 C 590.882812 24.925781 590.871094 24.949219 590.863281 24.976562 C 590.667969 25.460938 590.296875 25.84375 589.8125 26.050781 C 589.332031 26.257812 588.796875 26.261719 588.308594 26.066406 L 575.769531 21.003906 C 575.28125 20.804688 574.898438 20.429688 574.691406 19.941406 C 574.691406 19.941406 574.691406 19.941406 574.6875 19.941406 C 574.480469 19.453125 574.476562 18.914062 574.675781 18.425781 L 574.679688 18.414062 C 575.191406 17.144531 575.171875 15.753906 574.621094 14.5 C 574.074219 13.25 573.066406 12.292969 571.78125 11.808594 C 570.570312 11.355469 569.242188 11.386719 568.039062 11.898438 C 566.839844 12.410156 565.894531 13.34375 565.382812 14.53125 C 564.839844 15.789062 564.828125 17.179688 565.347656 18.441406 C 565.867188 19.707031 566.851562 20.6875 568.121094 21.199219 C 568.433594 21.324219 568.582031 21.675781 568.457031 21.988281 C 568.332031 22.296875 567.980469 22.445312 567.671875 22.320312 C 567.667969 22.320312 567.667969 22.320312 567.664062 22.320312 Z M 567.664062 22.320312 " fill-opacity="1" fill-rule="nonzero"/></g></g></g><g clip-path="url(#e9d8d64f23)"><g clip-path="url(#7c89bee385)"><g clip-path="url(#1fb6dc7c90)"><path fill="#715c50" d="M 526.453125 12.324219 C 528.113281 12.480469 529.613281 13.269531 530.679688 14.554688 C 531.746094 15.839844 532.246094 17.460938 532.09375 19.125 C 532.027344 19.84375 531.839844 20.535156 531.546875 21.171875 C 532.25 20.992188 532.988281 20.941406 533.730469 21.019531 C 535.417969 21.195312 536.929688 22.027344 537.980469 23.359375 C 538.976562 24.617188 539.441406 26.195312 539.292969 27.808594 C 539.144531 29.421875 538.394531 30.886719 537.183594 31.941406 C 535.902344 33.058594 534.265625 33.597656 532.574219 33.457031 C 530.878906 33.320312 529.355469 32.527344 528.269531 31.21875 L 528.261719 31.207031 C 528.132812 31.050781 527.945312 30.953125 527.742188 30.933594 C 527.742188 30.933594 527.742188 30.933594 527.738281 30.933594 C 527.535156 30.914062 527.335938 30.976562 527.179688 31.105469 L 516.769531 39.746094 C 516.613281 39.875 516.519531 40.054688 516.5 40.253906 C 516.484375 40.453125 516.542969 40.648438 516.671875 40.800781 C 516.695312 40.828125 516.714844 40.855469 516.738281 40.878906 C 517.753906 42.128906 518.238281 43.707031 518.105469 45.324219 C 517.976562 46.945312 517.238281 48.421875 516.035156 49.488281 C 514.753906 50.625 513.113281 51.175781 511.410156 51.046875 C 509.703125 50.914062 508.167969 50.121094 507.078125 48.808594 C 505.492188 46.894531 505.238281 44.308594 506.21875 42.191406 C 505.535156 42.363281 504.820312 42.421875 504.101562 42.355469 C 504.101562 42.355469 504.101562 42.355469 504.097656 42.355469 C 502.4375 42.199219 500.9375 41.40625 499.871094 40.121094 C 498.785156 38.8125 498.285156 37.160156 498.464844 35.46875 C 498.644531 33.78125 499.484375 32.269531 500.824219 31.214844 C 502.078125 30.230469 503.652344 29.769531 505.253906 29.917969 C 505.269531 29.921875 505.28125 29.921875 505.292969 29.921875 C 506.910156 30.082031 508.378906 30.847656 509.425781 32.070312 L 509.464844 32.117188 C 509.753906 32.460938 510.269531 32.511719 510.613281 32.226562 L 520.9375 23.660156 C 521.28125 23.375 521.328125 22.859375 521.039062 22.507812 L 521.003906 22.464844 C 519.992188 21.207031 519.511719 19.625 519.652344 18.007812 C 519.792969 16.386719 520.539062 14.910156 521.75 13.851562 C 523.03125 12.726562 524.667969 12.183594 526.363281 12.316406 C 526.394531 12.320312 526.421875 12.320312 526.453125 12.324219 Z M 529.09375 22.421875 C 530.125 21.5625 530.761719 20.351562 530.886719 19.011719 C 531.011719 17.671875 530.609375 16.363281 529.746094 15.328125 C 528.871094 14.273438 527.636719 13.628906 526.269531 13.523438 C 524.902344 13.414062 523.578125 13.851562 522.546875 14.757812 C 521.570312 15.613281 520.972656 16.804688 520.859375 18.109375 C 520.746094 19.417969 521.128906 20.691406 521.945312 21.703125 L 521.976562 21.742188 C 522.683594 22.605469 522.5625 23.882812 521.707031 24.589844 L 511.386719 33.15625 C 510.53125 33.867188 509.253906 33.746094 508.539062 32.894531 L 508.507812 32.855469 C 507.664062 31.871094 506.480469 31.257812 505.175781 31.128906 C 505.164062 31.125 505.15625 31.125 505.144531 31.125 C 503.847656 31.003906 502.582031 31.375 501.570312 32.167969 C 500.488281 33.015625 499.8125 34.234375 499.667969 35.597656 C 499.523438 36.960938 499.925781 38.296875 500.800781 39.351562 C 501.660156 40.386719 502.871094 41.027344 504.214844 41.152344 C 505.554688 41.273438 506.863281 40.871094 507.898438 40.011719 C 508.15625 39.796875 508.535156 39.832031 508.75 40.089844 C 508.855469 40.21875 508.902344 40.378906 508.886719 40.53125 C 508.871094 40.6875 508.800781 40.835938 508.671875 40.941406 C 506.53125 42.714844 506.238281 45.898438 508.011719 48.035156 C 508.890625 49.097656 510.132812 49.734375 511.503906 49.84375 C 512.878906 49.949219 514.203125 49.5 515.234375 48.585938 C 516.203125 47.726562 516.796875 46.535156 516.902344 45.226562 C 517.007812 43.921875 516.617188 42.648438 515.800781 41.644531 C 515.785156 41.621094 515.765625 41.601562 515.75 41.578125 C 515.410156 41.175781 515.253906 40.667969 515.300781 40.144531 C 515.347656 39.625 515.59375 39.152344 516 38.816406 L 526.40625 30.175781 C 526.8125 29.839844 527.328125 29.683594 527.851562 29.730469 C 527.855469 29.730469 527.855469 29.730469 527.855469 29.730469 C 528.382812 29.78125 528.855469 30.03125 529.195312 30.4375 L 529.203125 30.449219 C 530.074219 31.503906 531.308594 32.144531 532.671875 32.253906 C 534.035156 32.363281 535.355469 31.929688 536.390625 31.03125 C 537.363281 30.179688 537.96875 28.996094 538.089844 27.695312 C 538.210938 26.394531 537.835938 25.121094 537.03125 24.105469 C 536.183594 23.03125 534.964844 22.363281 533.605469 22.21875 C 532.246094 22.078125 530.914062 22.480469 529.863281 23.355469 C 529.605469 23.566406 529.222656 23.53125 529.011719 23.273438 C 528.796875 23.019531 528.832031 22.636719 529.089844 22.421875 C 529.089844 22.421875 529.089844 22.421875 529.09375 22.421875 Z M 529.09375 22.421875 " fill-opacity="1" fill-rule="nonzero"/></g></g></g><g clip-path="url(#9347dc72d7)"><g clip-path="url(#12813b5689)"><g clip-path="url(#83a04b792b)"><path fill="#715c50" d="M 379.085938 58.425781 C 377.457031 58.066406 376.070312 57.09375 375.171875 55.683594 C 374.277344 54.273438 373.984375 52.601562 374.34375 50.972656 C 374.5 50.269531 374.773438 49.605469 375.144531 49.011719 C 374.425781 49.097656 373.6875 49.058594 372.957031 48.886719 C 371.304688 48.5 369.910156 47.488281 369.035156 46.03125 C 368.203125 44.660156 367.941406 43.035156 368.292969 41.453125 C 368.644531 39.875 369.570312 38.511719 370.902344 37.617188 C 372.316406 36.671875 374.007812 36.34375 375.667969 36.691406 C 377.332031 37.039062 378.746094 38.019531 379.65625 39.453125 L 379.664062 39.464844 C 379.773438 39.640625 379.945312 39.757812 380.144531 39.804688 C 380.144531 39.804688 380.144531 39.804688 380.148438 39.804688 C 380.347656 39.847656 380.554688 39.8125 380.726562 39.703125 L 392.136719 32.441406 C 392.308594 32.332031 392.425781 32.164062 392.46875 31.96875 C 392.507812 31.773438 392.472656 31.574219 392.367188 31.40625 C 392.347656 31.375 392.328125 31.347656 392.308594 31.316406 C 391.460938 29.953125 391.175781 28.324219 391.511719 26.738281 C 391.84375 25.148438 392.761719 23.773438 394.089844 22.867188 C 395.5 21.902344 397.199219 21.558594 398.871094 21.902344 C 400.546875 22.246094 401.972656 23.226562 402.890625 24.667969 C 404.222656 26.761719 404.148438 29.359375 402.914062 31.339844 C 403.609375 31.253906 404.328125 31.289062 405.03125 31.445312 C 405.03125 31.445312 405.03125 31.445312 405.035156 31.445312 C 406.664062 31.804688 408.054688 32.78125 408.949219 34.1875 C 409.863281 35.625 410.152344 37.324219 409.757812 38.980469 C 409.367188 40.636719 408.347656 42.03125 406.886719 42.90625 C 405.515625 43.726562 403.898438 43.984375 402.328125 43.636719 C 402.3125 43.632812 402.300781 43.628906 402.289062 43.625 C 400.703125 43.261719 399.34375 42.324219 398.457031 40.976562 L 398.425781 40.925781 C 398.183594 40.546875 397.675781 40.433594 397.300781 40.671875 L 385.980469 47.875 C 385.605469 48.113281 385.492188 48.621094 385.734375 49.003906 L 385.765625 49.054688 C 386.609375 50.425781 386.886719 52.054688 386.546875 53.644531 C 386.203125 55.234375 385.277344 56.605469 383.945312 57.503906 C 382.53125 58.457031 380.835938 58.792969 379.171875 58.445312 C 379.144531 58.441406 379.113281 58.433594 379.085938 58.425781 Z M 377.734375 48.082031 C 376.601562 48.804688 375.816406 49.921875 375.527344 51.234375 C 375.234375 52.550781 375.472656 53.898438 376.195312 55.035156 C 376.929688 56.191406 378.078125 56.984375 379.417969 57.261719 C 380.761719 57.542969 382.128906 57.273438 383.265625 56.503906 C 384.34375 55.777344 385.085938 54.671875 385.363281 53.390625 C 385.640625 52.109375 385.417969 50.792969 384.738281 49.6875 L 384.710938 49.648438 C 384.117188 48.703125 384.398438 47.449219 385.332031 46.855469 L 396.648438 39.652344 C 397.585938 39.054688 398.839844 39.335938 399.441406 40.269531 L 399.46875 40.3125 C 400.179688 41.394531 401.277344 42.152344 402.554688 42.445312 C 402.566406 42.449219 402.578125 42.449219 402.589844 42.453125 C 403.855469 42.734375 405.160156 42.527344 406.265625 41.867188 C 407.441406 41.160156 408.265625 40.035156 408.582031 38.703125 C 408.898438 37.367188 408.664062 35.996094 407.929688 34.835938 C 407.207031 33.703125 406.085938 32.914062 404.769531 32.625 C 403.457031 32.332031 402.105469 32.570312 400.972656 33.292969 C 400.691406 33.46875 400.316406 33.386719 400.136719 33.105469 C 400.046875 32.964844 400.023438 32.800781 400.054688 32.648438 C 400.089844 32.5 400.179688 32.359375 400.320312 32.269531 C 402.667969 30.78125 403.359375 27.660156 401.867188 25.316406 C 401.128906 24.152344 399.976562 23.363281 398.628906 23.085938 C 397.28125 22.808594 395.910156 23.082031 394.769531 23.863281 C 393.699219 24.59375 392.960938 25.703125 392.691406 26.984375 C 392.421875 28.265625 392.652344 29.578125 393.335938 30.679688 C 393.351562 30.703125 393.363281 30.726562 393.378906 30.75 C 393.664062 31.191406 393.757812 31.714844 393.644531 32.226562 C 393.535156 32.742188 393.226562 33.175781 392.785156 33.460938 L 381.375 40.722656 C 380.929688 41.003906 380.398438 41.097656 379.882812 40.980469 C 379.363281 40.867188 378.925781 40.558594 378.640625 40.113281 L 378.636719 40.101562 C 377.898438 38.945312 376.757812 38.15625 375.417969 37.875 C 374.078125 37.59375 372.714844 37.859375 371.578125 38.621094 C 370.503906 39.339844 369.757812 40.441406 369.472656 41.714844 C 369.1875 42.992188 369.402344 44.304688 370.070312 45.410156 C 370.777344 46.582031 371.902344 47.398438 373.234375 47.710938 C 374.566406 48.023438 375.933594 47.792969 377.089844 47.058594 C 377.371094 46.878906 377.746094 46.960938 377.925781 47.242188 C 378.105469 47.523438 378.019531 47.898438 377.738281 48.078125 C 377.738281 48.078125 377.734375 48.078125 377.734375 48.082031 Z M 377.734375 48.082031 " fill-opacity="1" fill-rule="nonzero"/></g></g></g><g clip-path="url(#ac1aa0389a)"><g clip-path="url(#e7b3e010aa)"><g clip-path="url(#b8dff19787)"><path fill="#bca893" d="M 427.84375 24 C 428.023438 21.96875 428.984375 20.128906 430.550781 18.816406 C 432.117188 17.507812 434.101562 16.886719 436.136719 17.066406 C 437.015625 17.144531 437.863281 17.371094 438.644531 17.726562 C 438.421875 16.867188 438.355469 15.964844 438.445312 15.050781 C 438.652344 12.988281 439.664062 11.136719 441.289062 9.839844 C 442.820312 8.617188 444.753906 8.039062 446.726562 8.214844 C 448.699219 8.390625 450.496094 9.300781 451.792969 10.777344 C 453.164062 12.339844 453.832031 14.339844 453.671875 16.40625 C 453.511719 18.480469 452.546875 20.351562 450.953125 21.683594 L 450.9375 21.695312 C 450.746094 21.855469 450.628906 22.082031 450.605469 22.335938 C 450.582031 22.585938 450.660156 22.832031 450.820312 23.023438 L 461.4375 35.714844 C 461.597656 35.90625 461.816406 36.019531 462.0625 36.042969 C 462.304688 36.0625 462.542969 35.988281 462.730469 35.828125 C 462.761719 35.800781 462.796875 35.773438 462.828125 35.746094 C 464.351562 34.5 466.277344 33.898438 468.257812 34.054688 C 470.238281 34.207031 472.050781 35.097656 473.363281 36.566406 C 474.757812 38.128906 475.441406 40.132812 475.289062 42.21875 C 475.136719 44.304688 474.171875 46.1875 472.570312 47.527344 C 470.238281 49.480469 467.078125 49.800781 464.480469 48.613281 C 464.695312 49.445312 464.769531 50.320312 464.691406 51.203125 C 464.507812 53.238281 463.546875 55.078125 461.980469 56.390625 C 460.382812 57.726562 458.367188 58.34375 456.296875 58.128906 C 454.226562 57.917969 452.375 56.902344 451.078125 55.265625 C 449.867188 53.734375 449.296875 51.8125 449.472656 49.851562 C 449.472656 49.835938 449.472656 49.816406 449.476562 49.800781 C 449.664062 47.824219 450.589844 46.023438 452.085938 44.738281 L 452.140625 44.691406 C 452.5625 44.332031 452.617188 43.703125 452.269531 43.28125 L 441.738281 30.695312 C 441.386719 30.273438 440.753906 30.21875 440.328125 30.574219 L 440.273438 30.617188 C 438.742188 31.859375 436.808594 32.453125 434.828125 32.292969 C 432.847656 32.128906 431.035156 31.222656 429.734375 29.746094 C 428.351562 28.1875 427.679688 26.183594 427.835938 24.109375 C 427.835938 24.070312 427.839844 24.035156 427.84375 24 Z M 440.183594 20.722656 C 439.125 19.460938 437.640625 18.6875 436.003906 18.542969 C 434.363281 18.394531 432.765625 18.898438 431.5 19.953125 C 430.214844 21.03125 429.433594 22.546875 429.308594 24.21875 C 429.183594 25.890625 429.726562 27.507812 430.839844 28.769531 C 431.890625 29.957031 433.351562 30.683594 434.949219 30.816406 C 436.546875 30.949219 438.105469 30.472656 439.339844 29.46875 L 439.386719 29.433594 C 440.4375 28.5625 442 28.703125 442.875 29.746094 L 453.402344 42.332031 C 454.273438 43.375 454.136719 44.9375 453.09375 45.816406 L 453.050781 45.859375 C 451.847656 46.894531 451.101562 48.34375 450.949219 49.941406 C 450.949219 49.953125 450.949219 49.96875 450.945312 49.980469 C 450.804688 51.566406 451.265625 53.113281 452.242188 54.347656 C 453.285156 55.667969 454.777344 56.488281 456.445312 56.65625 C 458.117188 56.828125 459.746094 56.332031 461.03125 55.253906 C 462.296875 54.195312 463.070312 52.710938 463.21875 51.070312 C 463.363281 49.429688 462.863281 47.832031 461.804688 46.570312 C 461.542969 46.253906 461.585938 45.789062 461.898438 45.527344 C 462.054688 45.394531 462.25 45.339844 462.4375 45.355469 C 462.628906 45.375 462.808594 45.460938 462.941406 45.617188 C 465.121094 48.226562 469.015625 48.574219 471.625 46.390625 C 472.917969 45.308594 473.691406 43.789062 473.816406 42.109375 C 473.9375 40.429688 473.386719 38.808594 472.261719 37.550781 C 471.207031 36.367188 469.742188 35.648438 468.144531 35.527344 C 466.546875 35.402344 464.992188 35.886719 463.765625 36.890625 C 463.738281 36.914062 463.710938 36.933594 463.6875 36.957031 C 463.195312 37.371094 462.574219 37.566406 461.933594 37.511719 C 461.296875 37.457031 460.714844 37.15625 460.304688 36.664062 L 449.6875 23.96875 C 449.273438 23.476562 449.078125 22.847656 449.132812 22.203125 C 449.191406 21.554688 449.496094 20.972656 449.992188 20.558594 L 450.003906 20.546875 C 451.289062 19.476562 452.066406 17.960938 452.195312 16.292969 C 452.324219 14.625 451.789062 13.011719 450.683594 11.75 C 449.636719 10.5625 448.1875 9.832031 446.59375 9.6875 C 445 9.546875 443.445312 10.011719 442.207031 11 C 440.898438 12.042969 440.082031 13.535156 439.914062 15.199219 C 439.75 16.867188 440.246094 18.492188 441.320312 19.777344 C 441.582031 20.089844 441.542969 20.554688 441.226562 20.820312 C 440.914062 21.082031 440.449219 21.039062 440.1875 20.726562 C 440.183594 20.726562 440.183594 20.722656 440.183594 20.722656 Z M 440.183594 20.722656 " fill-opacity="1" fill-rule="nonzero"/></g></g></g><g clip-path="url(#e9db36c022)"><g clip-path="url(#430e7c0a23)"><g clip-path="url(#ef4866451a)"><path fill="#bca893" d="M 677.285156 18.449219 C 677.457031 16.839844 678.242188 15.394531 679.507812 14.371094 C 680.765625 13.351562 682.347656 12.886719 683.960938 13.054688 C 684.660156 13.128906 685.328125 13.320312 685.945312 13.613281 C 685.78125 12.925781 685.738281 12.210938 685.824219 11.488281 C 686.015625 9.851562 686.84375 8.394531 688.148438 7.386719 C 689.382812 6.4375 690.925781 6.003906 692.488281 6.167969 C 694.054688 6.332031 695.46875 7.082031 696.476562 8.269531 C 697.546875 9.527344 698.046875 11.125 697.894531 12.765625 C 697.742188 14.410156 696.949219 15.882812 695.667969 16.917969 L 695.65625 16.929688 C 695.5 17.050781 695.402344 17.230469 695.382812 17.429688 C 695.382812 17.429688 695.382812 17.429688 695.382812 17.433594 C 695.359375 17.632812 695.417969 17.824219 695.542969 17.980469 L 703.804688 28.199219 C 703.929688 28.351562 704.101562 28.445312 704.296875 28.464844 C 704.488281 28.484375 704.679688 28.429688 704.832031 28.304688 C 704.855469 28.285156 704.882812 28.265625 704.90625 28.242188 C 706.132812 27.273438 707.671875 26.820312 709.242188 26.96875 C 710.8125 27.117188 712.242188 27.851562 713.261719 29.035156 C 714.347656 30.292969 714.867188 31.894531 714.71875 33.546875 C 714.570312 35.199219 713.777344 36.683594 712.488281 37.726562 C 710.613281 39.242188 708.097656 39.457031 706.050781 38.480469 C 706.210938 39.144531 706.253906 39.839844 706.179688 40.539062 C 706.011719 42.152344 705.222656 43.601562 703.960938 44.621094 C 702.675781 45.660156 701.066406 46.125 699.425781 45.929688 C 697.785156 45.730469 696.328125 44.898438 695.320312 43.585938 C 694.378906 42.351562 693.953125 40.820312 694.117188 39.265625 C 694.117188 39.25 694.117188 39.238281 694.121094 39.226562 C 694.296875 37.65625 695.054688 36.238281 696.257812 35.238281 L 696.300781 35.203125 C 696.640625 34.925781 696.695312 34.421875 696.421875 34.085938 L 688.230469 23.949219 C 687.957031 23.613281 687.457031 23.558594 687.113281 23.835938 L 687.066406 23.871094 C 685.835938 24.835938 684.292969 25.28125 682.722656 25.125 C 681.152344 24.96875 679.726562 24.230469 678.710938 23.039062 C 677.636719 21.78125 677.125 20.179688 677.277344 18.535156 C 677.28125 18.507812 677.285156 18.480469 677.285156 18.449219 Z M 687.128906 16.011719 C 686.304688 14.996094 685.136719 14.363281 683.839844 14.226562 C 682.539062 14.085938 681.261719 14.464844 680.246094 15.285156 C 679.207031 16.125 678.570312 17.316406 678.449219 18.644531 C 678.324219 19.96875 678.734375 21.261719 679.601562 22.277344 C 680.421875 23.234375 681.570312 23.832031 682.835938 23.957031 C 684.105469 24.082031 685.351562 23.726562 686.34375 22.945312 L 686.378906 22.917969 C 687.226562 22.242188 688.464844 22.371094 689.144531 23.210938 L 697.335938 33.347656 C 698.015625 34.183594 697.886719 35.425781 697.046875 36.109375 L 697.007812 36.140625 C 696.042969 36.945312 695.429688 38.089844 695.289062 39.355469 C 695.289062 39.367188 695.285156 39.375 695.285156 39.386719 C 695.152344 40.640625 695.496094 41.878906 696.253906 42.871094 C 697.066406 43.933594 698.242188 44.605469 699.5625 44.761719 C 700.886719 44.917969 702.1875 44.542969 703.222656 43.707031 C 704.242188 42.882812 704.875 41.714844 705.015625 40.414062 C 705.152344 39.113281 704.773438 37.835938 703.953125 36.820312 C 703.75 36.570312 703.789062 36.199219 704.039062 35.996094 C 704.167969 35.894531 704.320312 35.851562 704.472656 35.867188 C 704.621094 35.882812 704.765625 35.957031 704.867188 36.082031 C 706.5625 38.179688 709.652344 38.507812 711.75 36.8125 C 712.792969 35.96875 713.429688 34.773438 713.550781 33.4375 C 713.667969 32.105469 713.25 30.816406 712.375 29.800781 C 711.550781 28.847656 710.402344 28.257812 709.132812 28.136719 C 707.867188 28.019531 706.625 28.382812 705.636719 29.164062 C 705.613281 29.179688 705.59375 29.195312 705.574219 29.214844 C 705.179688 29.535156 704.683594 29.683594 704.175781 29.632812 C 703.667969 29.582031 703.214844 29.332031 702.890625 28.9375 L 694.628906 18.714844 C 694.308594 18.316406 694.160156 17.816406 694.214844 17.304688 C 694.269531 16.792969 694.519531 16.335938 694.917969 16.011719 L 694.929688 16.003906 C 695.960938 15.167969 696.601562 13.980469 696.726562 12.65625 C 696.851562 11.332031 696.445312 10.042969 695.582031 9.027344 C 694.769531 8.070312 693.628906 7.46875 692.363281 7.335938 C 691.101562 7.203125 689.859375 7.550781 688.863281 8.316406 C 687.808594 9.128906 687.144531 10.304688 686.988281 11.625 C 686.832031 12.945312 687.207031 14.242188 688.042969 15.277344 C 688.25 15.527344 688.207031 15.898438 687.957031 16.101562 C 687.703125 16.304688 687.335938 16.265625 687.128906 16.015625 C 687.128906 16.015625 687.128906 16.011719 687.128906 16.011719 Z M 687.128906 16.011719 " fill-opacity="1" fill-rule="nonzero"/></g></g></g><g clip-path="url(#b9381a22e8)"><g clip-path="url(#b45d8526ce)"><g clip-path="url(#fc3fbb03ae)"><path fill="#715c50" d="M 621.59375 41.839844 C 620.683594 40.496094 620.355469 38.882812 620.664062 37.289062 C 620.96875 35.695312 621.878906 34.320312 623.222656 33.410156 C 623.804688 33.019531 624.4375 32.730469 625.097656 32.558594 C 624.53125 32.140625 624.035156 31.621094 623.632812 31.011719 C 622.726562 29.636719 622.421875 27.988281 622.773438 26.378906 C 623.101562 24.855469 624.003906 23.53125 625.304688 22.648438 C 626.609375 21.769531 628.171875 21.425781 629.710938 21.6875 C 631.335938 21.960938 632.75 22.859375 633.6875 24.210938 C 634.632812 25.570312 634.976562 27.207031 634.660156 28.824219 L 634.660156 28.839844 C 634.621094 29.035156 634.660156 29.234375 634.773438 29.398438 C 634.886719 29.566406 635.054688 29.679688 635.25 29.714844 L 648.15625 32.207031 C 648.347656 32.246094 648.539062 32.203125 648.703125 32.09375 C 648.863281 31.984375 648.972656 31.820312 649.007812 31.628906 C 649.011719 31.59375 649.019531 31.5625 649.027344 31.53125 C 649.339844 30 650.226562 28.660156 651.519531 27.761719 C 652.816406 26.863281 654.382812 26.503906 655.925781 26.75 C 657.566406 27.011719 658.992188 27.90625 659.945312 29.265625 C 660.898438 30.625 661.246094 32.269531 660.933594 33.898438 C 660.476562 36.269531 658.6875 38.050781 656.496094 38.625 C 657.046875 39.027344 657.527344 39.53125 657.921875 40.113281 C 658.832031 41.457031 659.164062 43.074219 658.855469 44.664062 C 658.542969 46.289062 657.609375 47.679688 656.226562 48.589844 C 654.847656 49.496094 653.195312 49.796875 651.578125 49.441406 C 650.0625 49.105469 648.75 48.207031 647.875 46.910156 C 647.867188 46.902344 647.859375 46.890625 647.851562 46.878906 C 646.976562 45.566406 646.644531 43.996094 646.917969 42.453125 L 646.929688 42.394531 C 647.007812 41.964844 646.726562 41.546875 646.300781 41.464844 L 633.507812 38.992188 C 633.078125 38.910156 632.664062 39.195312 632.578125 39.625 L 632.566406 39.679688 C 632.246094 41.210938 631.351562 42.546875 630.050781 43.441406 C 628.75 44.335938 627.179688 44.683594 625.636719 44.429688 C 624.003906 44.160156 622.585938 43.265625 621.640625 41.910156 C 621.625 41.886719 621.609375 41.863281 621.59375 41.839844 Z M 627.546875 33.632812 C 626.265625 33.386719 624.960938 33.652344 623.878906 34.386719 C 622.796875 35.117188 622.0625 36.226562 621.816406 37.511719 C 621.5625 38.820312 621.84375 40.144531 622.605469 41.238281 C 623.367188 42.332031 624.511719 43.054688 625.828125 43.273438 C 627.070312 43.476562 628.335938 43.191406 629.386719 42.472656 C 630.4375 41.753906 631.15625 40.675781 631.414062 39.441406 L 631.425781 39.394531 C 631.636719 38.332031 632.667969 37.636719 633.726562 37.839844 L 646.523438 40.308594 C 647.582031 40.515625 648.28125 41.546875 648.082031 42.613281 L 648.074219 42.660156 C 647.851562 43.898438 648.121094 45.164062 648.828125 46.226562 C 648.835938 46.234375 648.839844 46.242188 648.847656 46.253906 C 649.554688 47.296875 650.613281 48.023438 651.835938 48.292969 C 653.136719 48.582031 654.46875 48.335938 655.582031 47.605469 C 656.695312 46.875 657.449219 45.75 657.703125 44.441406 C 657.949219 43.15625 657.683594 41.855469 656.949219 40.769531 C 656.21875 39.6875 655.105469 38.953125 653.824219 38.707031 C 653.503906 38.644531 653.296875 38.335938 653.355469 38.015625 C 653.386719 37.859375 653.480469 37.726562 653.605469 37.640625 C 653.730469 37.558594 653.886719 37.519531 654.046875 37.550781 C 656.695312 38.0625 659.269531 36.324219 659.78125 33.671875 C 660.035156 32.359375 659.75 31.035156 658.984375 29.9375 C 658.214844 28.839844 657.0625 28.121094 655.738281 27.910156 C 654.496094 27.710938 653.234375 28 652.191406 28.726562 C 651.144531 29.453125 650.429688 30.53125 650.175781 31.765625 C 650.171875 31.789062 650.164062 31.816406 650.160156 31.84375 C 650.066406 32.34375 649.78125 32.777344 649.363281 33.0625 C 648.941406 33.351562 648.433594 33.457031 647.929688 33.359375 L 635.027344 30.867188 C 634.523438 30.769531 634.089844 30.480469 633.800781 30.054688 C 633.511719 29.628906 633.410156 29.117188 633.507812 28.613281 L 633.507812 28.601562 C 633.761719 27.296875 633.484375 25.972656 632.726562 24.882812 C 631.96875 23.789062 630.828125 23.066406 629.515625 22.84375 C 628.277344 22.636719 627.015625 22.910156 625.964844 23.625 C 624.910156 24.335938 624.183594 25.402344 623.917969 26.628906 C 623.636719 27.929688 623.882812 29.257812 624.613281 30.367188 C 625.347656 31.476562 626.46875 32.226562 627.773438 32.480469 C 628.09375 32.539062 628.300781 32.847656 628.238281 33.167969 C 628.179688 33.484375 627.871094 33.695312 627.550781 33.632812 C 627.550781 33.632812 627.546875 33.632812 627.546875 33.632812 Z M 627.546875 33.632812 " fill-opacity="1" fill-rule="nonzero"/></g></g></g><g clip-path="url(#cd0e72fbdc)"><g clip-path="url(#1467116b61)"><g clip-path="url(#633c49c766)"><path fill="#bca893" d="M 919.613281 29.433594 C 918.960938 27.898438 918.945312 26.207031 919.570312 24.65625 C 920.195312 23.109375 921.386719 21.894531 922.921875 21.242188 C 923.589844 20.960938 924.285156 20.796875 924.984375 20.753906 C 924.496094 20.21875 924.097656 19.59375 923.8125 18.902344 C 923.167969 17.332031 923.183594 15.609375 923.855469 14.050781 C 924.488281 12.578125 925.660156 11.417969 927.148438 10.785156 C 928.640625 10.152344 930.289062 10.113281 931.789062 10.679688 C 933.378906 11.277344 934.628906 12.464844 935.3125 14.015625 C 935.996094 15.574219 936.019531 17.292969 935.382812 18.867188 L 935.378906 18.882812 C 935.300781 19.070312 935.304688 19.28125 935.382812 19.46875 C 935.382812 19.46875 935.382812 19.46875 935.382812 19.472656 C 935.464844 19.660156 935.613281 19.808594 935.800781 19.882812 L 948.347656 24.945312 C 948.53125 25.023438 948.738281 25.019531 948.921875 24.941406 C 949.105469 24.863281 949.246094 24.714844 949.320312 24.53125 C 949.335938 24.5 949.347656 24.46875 949.359375 24.433594 C 949.976562 22.949219 951.136719 21.773438 952.625 21.121094 C 954.109375 20.46875 955.761719 20.414062 957.273438 20.96875 C 958.878906 21.558594 960.144531 22.742188 960.835938 24.300781 C 961.53125 25.863281 961.558594 27.59375 960.921875 29.175781 C 959.992188 31.480469 957.835938 32.929688 955.503906 33.074219 C 955.980469 33.59375 956.371094 34.195312 956.652344 34.859375 C 957.304688 36.398438 957.320312 38.09375 956.695312 39.644531 C 956.058594 41.21875 954.84375 42.445312 953.269531 43.085938 C 951.695312 43.730469 949.96875 43.710938 948.40625 43.03125 C 946.941406 42.394531 945.789062 41.226562 945.160156 39.746094 C 945.15625 39.734375 945.148438 39.71875 945.144531 39.707031 C 944.519531 38.207031 944.492188 36.554688 945.074219 35.050781 L 945.097656 34.996094 C 945.265625 34.578125 945.0625 34.101562 944.648438 33.933594 L 932.210938 28.910156 C 931.796875 28.742188 931.316406 28.945312 931.148438 29.367188 L 931.125 29.421875 C 930.5 30.90625 929.332031 32.078125 927.84375 32.722656 C 926.351562 33.367188 924.699219 33.414062 923.1875 32.851562 C 921.59375 32.257812 920.335938 31.070312 919.648438 29.515625 C 919.636719 29.488281 919.625 29.460938 919.613281 29.433594 Z M 927.246094 22.320312 C 926 21.816406 924.632812 21.832031 923.394531 22.355469 C 922.15625 22.882812 921.195312 23.859375 920.691406 25.109375 C 920.179688 26.382812 920.203125 27.773438 920.753906 29.027344 C 921.308594 30.28125 922.324219 31.238281 923.609375 31.71875 C 924.824219 32.171875 926.15625 32.132812 927.363281 31.613281 C 928.566406 31.09375 929.503906 30.148438 930.007812 28.953125 L 930.027344 28.90625 C 930.449219 27.875 931.632812 27.375 932.664062 27.789062 L 945.101562 32.8125 C 946.128906 33.226562 946.632812 34.40625 946.21875 35.441406 L 946.203125 35.488281 C 945.734375 36.699219 945.753906 38.03125 946.261719 39.242188 C 946.265625 39.25 946.269531 39.261719 946.273438 39.269531 C 946.78125 40.46875 947.710938 41.40625 948.890625 41.921875 C 950.148438 42.46875 951.542969 42.488281 952.8125 41.96875 C 954.078125 41.449219 955.0625 40.460938 955.574219 39.1875 C 956.078125 37.941406 956.066406 36.570312 955.539062 35.332031 C 955.015625 34.09375 954.035156 33.132812 952.789062 32.628906 C 952.480469 32.503906 952.328125 32.152344 952.453125 31.84375 C 952.515625 31.6875 952.636719 31.574219 952.777344 31.511719 C 952.921875 31.453125 953.085938 31.445312 953.242188 31.507812 C 955.816406 32.546875 958.761719 31.296875 959.800781 28.722656 C 960.316406 27.445312 960.289062 26.050781 959.730469 24.789062 C 959.171875 23.53125 958.152344 22.578125 956.855469 22.101562 C 955.640625 21.65625 954.308594 21.699219 953.109375 22.226562 C 951.910156 22.753906 950.972656 23.703125 950.476562 24.898438 C 950.464844 24.925781 950.453125 24.949219 950.445312 24.976562 C 950.25 25.460938 949.878906 25.84375 949.394531 26.050781 C 948.914062 26.257812 948.378906 26.261719 947.894531 26.066406 L 935.351562 21.003906 C 934.863281 20.804688 934.480469 20.429688 934.273438 19.941406 C 934.066406 19.453125 934.058594 18.914062 934.257812 18.425781 L 934.261719 18.414062 C 934.773438 17.144531 934.753906 15.753906 934.207031 14.5 C 933.65625 13.25 932.648438 12.292969 931.363281 11.808594 C 930.152344 11.355469 928.824219 11.386719 927.625 11.898438 C 926.421875 12.410156 925.476562 13.34375 924.964844 14.53125 C 924.421875 15.789062 924.410156 17.179688 924.929688 18.441406 C 925.449219 19.707031 926.433594 20.6875 927.703125 21.199219 C 928.015625 21.324219 928.164062 21.675781 928.039062 21.988281 C 927.914062 22.296875 927.5625 22.445312 927.253906 22.320312 C 927.25 22.320312 927.25 22.320312 927.246094 22.320312 Z M 927.246094 22.320312 " fill-opacity="1" fill-rule="nonzero"/></g></g></g><g clip-path="url(#a60f351411)"><g clip-path="url(#20c22e3b6a)"><g clip-path="url(#082b684888)"><path fill="#715c50" d="M 886.035156 12.324219 C 887.695312 12.480469 889.195312 13.269531 890.261719 14.554688 C 891.328125 15.839844 891.828125 17.460938 891.675781 19.125 C 891.609375 19.84375 891.421875 20.535156 891.128906 21.171875 C 891.832031 20.992188 892.570312 20.941406 893.3125 21.019531 C 895 21.195312 896.511719 22.027344 897.5625 23.359375 C 898.558594 24.617188 899.023438 26.195312 898.875 27.808594 C 898.726562 29.421875 897.976562 30.886719 896.765625 31.941406 C 895.484375 33.058594 893.847656 33.597656 892.15625 33.457031 C 890.460938 33.320312 888.9375 32.527344 887.851562 31.21875 L 887.84375 31.207031 C 887.714844 31.050781 887.527344 30.953125 887.324219 30.933594 C 887.324219 30.933594 887.324219 30.933594 887.320312 30.933594 C 887.117188 30.914062 886.917969 30.976562 886.761719 31.105469 L 876.351562 39.746094 C 876.195312 39.875 876.101562 40.054688 876.082031 40.253906 C 876.066406 40.453125 876.125 40.648438 876.253906 40.800781 C 876.277344 40.828125 876.296875 40.855469 876.320312 40.878906 C 877.335938 42.128906 877.820312 43.707031 877.6875 45.324219 C 877.558594 46.945312 876.820312 48.421875 875.617188 49.488281 C 874.335938 50.625 872.695312 51.175781 870.992188 51.046875 C 869.289062 50.914062 867.75 50.121094 866.660156 48.808594 C 865.074219 46.894531 864.820312 44.308594 865.800781 42.191406 C 865.117188 42.363281 864.402344 42.421875 863.683594 42.355469 C 862.019531 42.199219 860.519531 41.40625 859.453125 40.121094 C 858.367188 38.8125 857.867188 37.160156 858.046875 35.46875 C 858.226562 33.78125 859.066406 32.269531 860.40625 31.214844 C 861.660156 30.230469 863.234375 29.769531 864.835938 29.917969 C 864.851562 29.921875 864.863281 29.921875 864.875 29.921875 C 866.492188 30.082031 867.960938 30.847656 869.007812 32.070312 L 869.046875 32.117188 C 869.335938 32.460938 869.851562 32.511719 870.195312 32.226562 L 880.519531 23.660156 C 880.863281 23.375 880.910156 22.859375 880.621094 22.507812 L 880.585938 22.464844 C 879.574219 21.207031 879.09375 19.625 879.234375 18.007812 C 879.375 16.386719 880.121094 14.910156 881.332031 13.851562 C 882.613281 12.726562 884.25 12.183594 885.945312 12.316406 C 885.976562 12.320312 886.003906 12.320312 886.035156 12.324219 Z M 888.675781 22.421875 C 889.707031 21.5625 890.34375 20.351562 890.46875 19.011719 C 890.59375 17.671875 890.191406 16.363281 889.328125 15.328125 C 888.453125 14.273438 887.21875 13.628906 885.851562 13.523438 C 884.484375 13.414062 883.160156 13.851562 882.128906 14.757812 C 881.152344 15.613281 880.554688 16.804688 880.441406 18.109375 C 880.328125 19.417969 880.710938 20.691406 881.527344 21.703125 L 881.558594 21.742188 C 882.265625 22.605469 882.144531 23.882812 881.289062 24.589844 L 870.96875 33.15625 C 870.113281 33.867188 868.835938 33.746094 868.121094 32.894531 L 868.089844 32.855469 C 867.246094 31.871094 866.0625 31.257812 864.757812 31.128906 C 864.746094 31.125 864.738281 31.125 864.726562 31.125 C 863.429688 31.003906 862.164062 31.375 861.152344 32.167969 C 860.070312 33.015625 859.394531 34.234375 859.25 35.597656 C 859.105469 36.960938 859.507812 38.296875 860.382812 39.351562 C 861.242188 40.386719 862.453125 41.027344 863.796875 41.152344 C 865.136719 41.273438 866.445312 40.871094 867.480469 40.011719 C 867.738281 39.796875 868.117188 39.832031 868.332031 40.089844 C 868.4375 40.21875 868.484375 40.378906 868.46875 40.53125 C 868.453125 40.6875 868.382812 40.835938 868.253906 40.941406 C 866.113281 42.714844 865.820312 45.898438 867.59375 48.035156 C 868.472656 49.097656 869.714844 49.734375 871.085938 49.84375 C 872.460938 49.949219 873.785156 49.5 874.816406 48.585938 C 875.785156 47.726562 876.378906 46.535156 876.484375 45.226562 C 876.589844 43.921875 876.199219 42.648438 875.382812 41.644531 C 875.367188 41.621094 875.347656 41.601562 875.332031 41.578125 C 874.996094 41.175781 874.835938 40.667969 874.882812 40.144531 C 874.929688 39.625 875.175781 39.152344 875.582031 38.816406 L 885.988281 30.175781 C 886.394531 29.839844 886.910156 29.683594 887.433594 29.730469 C 887.4375 29.730469 887.4375 29.730469 887.4375 29.730469 C 887.964844 29.78125 888.4375 30.03125 888.777344 30.4375 L 888.785156 30.449219 C 889.65625 31.503906 890.890625 32.144531 892.253906 32.253906 C 893.617188 32.363281 894.9375 31.929688 895.972656 31.03125 C 896.945312 30.179688 897.550781 28.996094 897.671875 27.695312 C 897.792969 26.394531 897.417969 25.121094 896.613281 24.105469 C 895.765625 23.03125 894.546875 22.363281 893.1875 22.21875 C 891.828125 22.078125 890.496094 22.480469 889.445312 23.355469 C 889.1875 23.566406 888.804688 23.53125 888.59375 23.273438 C 888.378906 23.019531 888.414062 22.636719 888.671875 22.421875 C 888.671875 22.421875 888.671875 22.421875 888.675781 22.421875 Z M 888.675781 22.421875 " fill-opacity="1" fill-rule="nonzero"/></g></g></g><g clip-path="url(#d9481410c2)"><g clip-path="url(#8fcfc0539b)"><g clip-path="url(#996d29f881)"><path fill="#715c50" d="M 738.667969 58.425781 C 737.039062 58.066406 735.652344 57.09375 734.753906 55.683594 C 733.859375 54.273438 733.566406 52.601562 733.925781 50.972656 C 734.082031 50.269531 734.355469 49.605469 734.726562 49.011719 C 734.007812 49.097656 733.269531 49.058594 732.539062 48.886719 C 730.886719 48.5 729.492188 47.488281 728.617188 46.03125 C 727.785156 44.660156 727.523438 43.035156 727.875 41.453125 C 728.226562 39.875 729.152344 38.511719 730.484375 37.617188 C 731.898438 36.671875 733.589844 36.34375 735.25 36.691406 C 736.914062 37.039062 738.328125 38.019531 739.238281 39.453125 L 739.246094 39.464844 C 739.355469 39.640625 739.527344 39.757812 739.726562 39.804688 C 739.726562 39.804688 739.726562 39.804688 739.730469 39.804688 C 739.929688 39.847656 740.136719 39.8125 740.308594 39.703125 L 751.71875 32.441406 C 751.890625 32.332031 752.007812 32.164062 752.050781 31.96875 C 752.09375 31.773438 752.054688 31.574219 751.949219 31.40625 C 751.929688 31.375 751.910156 31.347656 751.890625 31.316406 C 751.042969 29.953125 750.757812 28.324219 751.09375 26.738281 C 751.425781 25.148438 752.34375 23.773438 753.671875 22.867188 C 755.082031 21.902344 756.78125 21.558594 758.453125 21.902344 C 760.128906 22.246094 761.554688 23.226562 762.472656 24.667969 C 763.804688 26.761719 763.730469 29.359375 762.496094 31.339844 C 763.191406 31.253906 763.910156 31.289062 764.617188 31.445312 C 766.246094 31.804688 767.636719 32.78125 768.53125 34.1875 C 769.445312 35.625 769.734375 37.324219 769.339844 38.980469 C 768.949219 40.636719 767.929688 42.03125 766.46875 42.90625 C 765.097656 43.726562 763.480469 43.984375 761.910156 43.636719 C 761.894531 43.632812 761.882812 43.628906 761.871094 43.625 C 760.285156 43.261719 758.925781 42.324219 758.039062 40.976562 L 758.007812 40.925781 C 757.765625 40.546875 757.257812 40.433594 756.882812 40.671875 L 745.5625 47.875 C 745.1875 48.113281 745.074219 48.621094 745.316406 49.003906 L 745.347656 49.054688 C 746.191406 50.425781 746.46875 52.054688 746.128906 53.644531 C 745.785156 55.234375 744.859375 56.605469 743.527344 57.503906 C 742.113281 58.457031 740.417969 58.792969 738.753906 58.445312 C 738.726562 58.441406 738.695312 58.433594 738.667969 58.425781 Z M 737.316406 48.082031 C 736.183594 48.804688 735.398438 49.921875 735.109375 51.234375 C 734.816406 52.550781 735.054688 53.898438 735.777344 55.035156 C 736.511719 56.191406 737.660156 56.984375 739 57.261719 C 740.34375 57.542969 741.710938 57.273438 742.847656 56.503906 C 743.925781 55.777344 744.667969 54.671875 744.945312 53.390625 C 745.222656 52.109375 745 50.792969 744.320312 49.6875 L 744.292969 49.648438 C 743.699219 48.703125 743.980469 47.449219 744.914062 46.855469 L 756.230469 39.652344 C 757.167969 39.054688 758.421875 39.335938 759.023438 40.269531 L 759.050781 40.3125 C 759.761719 41.394531 760.859375 42.152344 762.136719 42.445312 C 762.148438 42.449219 762.160156 42.449219 762.171875 42.453125 C 763.4375 42.734375 764.742188 42.527344 765.847656 41.867188 C 767.023438 41.160156 767.847656 40.035156 768.164062 38.703125 C 768.480469 37.367188 768.246094 35.996094 767.511719 34.835938 C 766.789062 33.703125 765.667969 32.914062 764.351562 32.625 C 763.039062 32.332031 761.6875 32.570312 760.554688 33.292969 C 760.273438 33.46875 759.898438 33.386719 759.71875 33.105469 C 759.628906 32.964844 759.605469 32.800781 759.636719 32.648438 C 759.671875 32.5 759.761719 32.359375 759.902344 32.269531 C 762.25 30.78125 762.941406 27.660156 761.449219 25.316406 C 760.710938 24.152344 759.558594 23.363281 758.210938 23.085938 C 756.863281 22.808594 755.492188 23.082031 754.351562 23.863281 C 753.28125 24.59375 752.542969 25.703125 752.277344 26.984375 C 752.003906 28.265625 752.234375 29.578125 752.917969 30.679688 C 752.933594 30.703125 752.945312 30.726562 752.960938 30.75 C 753.246094 31.191406 753.339844 31.714844 753.226562 32.226562 C 753.117188 32.742188 752.808594 33.175781 752.367188 33.460938 L 740.957031 40.722656 C 740.511719 41.003906 739.980469 41.097656 739.464844 40.980469 C 738.945312 40.867188 738.507812 40.558594 738.222656 40.113281 L 738.21875 40.101562 C 737.480469 38.945312 736.339844 38.15625 735 37.875 C 733.660156 37.59375 732.296875 37.859375 731.160156 38.621094 C 730.085938 39.339844 729.339844 40.441406 729.054688 41.714844 C 728.769531 42.992188 728.984375 44.304688 729.652344 45.410156 C 730.359375 46.582031 731.484375 47.398438 732.816406 47.710938 C 734.148438 48.023438 735.515625 47.792969 736.671875 47.058594 C 736.953125 46.878906 737.328125 46.960938 737.507812 47.242188 C 737.6875 47.523438 737.601562 47.898438 737.320312 48.078125 C 737.320312 48.078125 737.316406 48.078125 737.316406 48.082031 Z M 737.316406 48.082031 " fill-opacity="1" fill-rule="nonzero"/></g></g></g><g clip-path="url(#395d60a6fc)"><g clip-path="url(#12f8f19b51)"><g clip-path="url(#2ef4ffcf90)"><path fill="#bca893" d="M 787.425781 24 C 787.605469 21.96875 788.566406 20.128906 790.132812 18.816406 C 791.699219 17.507812 793.683594 16.886719 795.71875 17.066406 C 796.597656 17.144531 797.445312 17.371094 798.226562 17.726562 C 798.003906 16.867188 797.9375 15.964844 798.027344 15.050781 C 798.234375 12.988281 799.246094 11.136719 800.871094 9.839844 C 802.402344 8.617188 804.335938 8.039062 806.308594 8.214844 C 808.28125 8.390625 810.078125 9.300781 811.375 10.777344 C 812.746094 12.339844 813.414062 14.339844 813.253906 16.40625 C 813.09375 18.480469 812.128906 20.351562 810.535156 21.683594 L 810.519531 21.695312 C 810.328125 21.855469 810.210938 22.082031 810.1875 22.335938 C 810.164062 22.585938 810.242188 22.832031 810.402344 23.023438 L 821.019531 35.714844 C 821.179688 35.90625 821.398438 36.019531 821.644531 36.042969 C 821.886719 36.0625 822.125 35.988281 822.3125 35.828125 C 822.34375 35.800781 822.378906 35.773438 822.410156 35.746094 C 823.933594 34.5 825.859375 33.898438 827.839844 34.054688 C 829.820312 34.207031 831.632812 35.097656 832.945312 36.566406 C 834.339844 38.128906 835.023438 40.132812 834.871094 42.21875 C 834.71875 44.304688 833.753906 46.1875 832.152344 47.527344 C 829.824219 49.480469 826.660156 49.800781 824.0625 48.613281 C 824.277344 49.445312 824.351562 50.320312 824.273438 51.203125 C 824.089844 53.238281 823.128906 55.078125 821.5625 56.390625 C 819.964844 57.726562 817.949219 58.34375 815.878906 58.128906 C 813.808594 57.917969 811.957031 56.902344 810.664062 55.265625 C 809.449219 53.734375 808.878906 51.8125 809.054688 49.851562 C 809.054688 49.835938 809.058594 49.816406 809.058594 49.800781 C 809.246094 47.824219 810.171875 46.023438 811.667969 44.738281 L 811.722656 44.691406 C 812.144531 44.332031 812.199219 43.703125 811.851562 43.28125 L 801.320312 30.695312 C 800.96875 30.273438 800.335938 30.21875 799.910156 30.574219 L 799.855469 30.617188 C 798.324219 31.859375 796.390625 32.453125 794.410156 32.292969 C 792.429688 32.128906 790.617188 31.222656 789.316406 29.746094 C 787.933594 28.1875 787.261719 26.183594 787.417969 24.109375 C 787.417969 24.070312 787.421875 24.035156 787.425781 24 Z M 799.765625 20.722656 C 798.707031 19.460938 797.222656 18.6875 795.585938 18.542969 C 793.945312 18.394531 792.347656 18.898438 791.082031 19.953125 C 789.796875 21.03125 789.015625 22.546875 788.890625 24.21875 C 788.765625 25.890625 789.308594 27.507812 790.421875 28.769531 C 791.472656 29.957031 792.933594 30.683594 794.53125 30.816406 C 796.128906 30.949219 797.6875 30.472656 798.921875 29.46875 L 798.96875 29.433594 C 800.019531 28.5625 801.582031 28.703125 802.457031 29.746094 L 812.984375 42.332031 C 813.855469 43.375 813.71875 44.9375 812.675781 45.816406 L 812.632812 45.859375 C 811.429688 46.894531 810.683594 48.34375 810.53125 49.941406 C 810.53125 49.953125 810.53125 49.96875 810.527344 49.980469 C 810.386719 51.566406 810.847656 53.113281 811.824219 54.347656 C 812.867188 55.667969 814.359375 56.488281 816.03125 56.65625 C 817.699219 56.828125 819.328125 56.332031 820.613281 55.253906 C 821.878906 54.195312 822.652344 52.710938 822.800781 51.070312 C 822.945312 49.429688 822.445312 47.832031 821.386719 46.570312 C 821.125 46.253906 821.167969 45.789062 821.480469 45.527344 C 821.636719 45.394531 821.832031 45.339844 822.019531 45.355469 C 822.210938 45.375 822.390625 45.460938 822.523438 45.617188 C 824.703125 48.226562 828.597656 48.574219 831.207031 46.390625 C 832.5 45.308594 833.273438 43.789062 833.398438 42.109375 C 833.519531 40.429688 832.96875 38.808594 831.84375 37.550781 C 830.789062 36.367188 829.324219 35.648438 827.726562 35.527344 C 826.128906 35.402344 824.574219 35.886719 823.347656 36.890625 C 823.320312 36.914062 823.292969 36.933594 823.269531 36.957031 C 822.777344 37.371094 822.15625 37.566406 821.515625 37.511719 C 820.878906 37.457031 820.296875 37.15625 819.886719 36.664062 L 809.269531 23.96875 C 808.855469 23.476562 808.660156 22.847656 808.714844 22.203125 C 808.773438 21.554688 809.078125 20.972656 809.574219 20.558594 L 809.585938 20.546875 C 810.871094 19.476562 811.648438 17.960938 811.777344 16.292969 C 811.90625 14.625 811.371094 13.011719 810.265625 11.75 C 809.21875 10.5625 807.769531 9.832031 806.175781 9.6875 C 804.585938 9.546875 803.027344 10.011719 801.789062 11 C 800.480469 12.042969 799.664062 13.535156 799.496094 15.199219 C 799.332031 16.867188 799.828125 18.492188 800.902344 19.777344 C 801.164062 20.089844 801.125 20.554688 800.8125 20.820312 C 800.496094 21.082031 800.03125 21.039062 799.769531 20.726562 C 799.765625 20.726562 799.765625 20.722656 799.765625 20.722656 Z M 799.765625 20.722656 " fill-opacity="1" fill-rule="nonzero"/></g></g></g><g clip-path="url(#9cfb0ce5c6)"><g clip-path="url(#5e43a33e4a)"><g clip-path="url(#ad256f05e2)"><path fill="#715c50" d="M 981.175781 41.839844 C 980.265625 40.496094 979.9375 38.882812 980.246094 37.289062 C 980.550781 35.695312 981.460938 34.320312 982.804688 33.410156 C 983.386719 33.019531 984.019531 32.730469 984.679688 32.558594 C 984.113281 32.140625 983.617188 31.621094 983.214844 31.011719 C 982.308594 29.636719 982.003906 27.988281 982.355469 26.378906 C 982.683594 24.855469 983.585938 23.53125 984.886719 22.648438 C 986.191406 21.769531 987.753906 21.425781 989.292969 21.6875 C 990.917969 21.960938 992.332031 22.859375 993.269531 24.210938 C 994.214844 25.570312 994.558594 27.207031 994.242188 28.824219 L 994.242188 28.839844 C 994.203125 29.035156 994.246094 29.234375 994.355469 29.398438 C 994.46875 29.566406 994.636719 29.679688 994.832031 29.714844 L 1007.738281 32.207031 C 1007.929688 32.246094 1008.121094 32.203125 1008.285156 32.09375 C 1008.445312 31.984375 1008.554688 31.820312 1008.589844 31.628906 C 1008.59375 31.59375 1008.601562 31.5625 1008.609375 31.53125 C 1008.921875 30 1009.808594 28.660156 1011.101562 27.761719 C 1012.398438 26.863281 1013.964844 26.503906 1015.507812 26.75 C 1017.148438 27.011719 1018.574219 27.90625 1019.527344 29.265625 C 1020.480469 30.625 1020.828125 32.269531 1020.515625 33.898438 C 1020.058594 36.269531 1018.269531 38.050781 1016.078125 38.625 C 1016.628906 39.027344 1017.109375 39.53125 1017.503906 40.113281 C 1018.414062 41.457031 1018.746094 43.074219 1018.4375 44.664062 C 1018.125 46.289062 1017.191406 47.679688 1015.808594 48.589844 C 1014.429688 49.496094 1012.777344 49.796875 1011.160156 49.441406 C 1009.648438 49.105469 1008.332031 48.207031 1007.457031 46.910156 C 1007.449219 46.902344 1007.441406 46.890625 1007.433594 46.878906 C 1006.558594 45.566406 1006.226562 43.996094 1006.5 42.453125 L 1006.511719 42.394531 C 1006.589844 41.964844 1006.3125 41.546875 1005.882812 41.464844 L 993.089844 38.992188 C 992.660156 38.910156 992.246094 39.195312 992.160156 39.625 L 992.148438 39.679688 C 991.828125 41.210938 990.933594 42.546875 989.632812 43.441406 C 988.332031 44.335938 986.761719 44.683594 985.21875 44.429688 C 983.585938 44.160156 982.167969 43.265625 981.222656 41.910156 C 981.207031 41.886719 981.191406 41.863281 981.175781 41.839844 Z M 987.128906 33.632812 C 985.847656 33.386719 984.542969 33.652344 983.460938 34.386719 C 982.378906 35.117188 981.644531 36.226562 981.398438 37.511719 C 981.144531 38.820312 981.425781 40.144531 982.1875 41.238281 C 982.949219 42.332031 984.09375 43.054688 985.410156 43.273438 C 986.652344 43.476562 987.917969 43.191406 988.96875 42.472656 C 990.019531 41.753906 990.738281 40.675781 990.996094 39.441406 L 991.007812 39.394531 C 991.21875 38.332031 992.25 37.636719 993.3125 37.839844 L 1006.105469 40.308594 C 1007.164062 40.515625 1007.863281 41.546875 1007.664062 42.613281 L 1007.65625 42.660156 C 1007.433594 43.898438 1007.703125 45.164062 1008.410156 46.226562 C 1008.417969 46.234375 1008.421875 46.242188 1008.429688 46.253906 C 1009.136719 47.296875 1010.195312 48.023438 1011.417969 48.292969 C 1012.71875 48.582031 1014.050781 48.335938 1015.164062 47.605469 C 1016.277344 46.875 1017.03125 45.75 1017.285156 44.441406 C 1017.53125 43.15625 1017.265625 41.855469 1016.53125 40.769531 C 1015.800781 39.6875 1014.6875 38.953125 1013.40625 38.707031 C 1013.085938 38.644531 1012.878906 38.335938 1012.9375 38.015625 C 1012.96875 37.859375 1013.0625 37.726562 1013.1875 37.640625 C 1013.3125 37.558594 1013.46875 37.519531 1013.628906 37.550781 C 1016.277344 38.0625 1018.851562 36.324219 1019.363281 33.671875 C 1019.617188 32.359375 1019.332031 31.035156 1018.566406 29.9375 C 1017.796875 28.839844 1016.644531 28.121094 1015.320312 27.910156 C 1014.078125 27.710938 1012.816406 28 1011.773438 28.726562 C 1010.726562 29.453125 1010.011719 30.53125 1009.757812 31.765625 C 1009.753906 31.789062 1009.746094 31.816406 1009.742188 31.84375 C 1009.648438 32.34375 1009.363281 32.777344 1008.945312 33.0625 C 1008.523438 33.351562 1008.015625 33.457031 1007.511719 33.359375 L 994.609375 30.867188 C 994.105469 30.769531 993.671875 30.480469 993.382812 30.054688 C 993.09375 29.628906 992.992188 29.117188 993.089844 28.613281 L 993.089844 28.601562 C 993.34375 27.296875 993.066406 25.972656 992.308594 24.882812 C 991.550781 23.789062 990.410156 23.066406 989.097656 22.84375 C 987.859375 22.636719 986.597656 22.910156 985.546875 23.625 C 984.492188 24.335938 983.769531 25.402344 983.5 26.628906 C 983.21875 27.929688 983.464844 29.257812 984.195312 30.367188 C 984.929688 31.476562 986.050781 32.226562 987.355469 32.480469 C 987.675781 32.539062 987.882812 32.847656 987.820312 33.167969 C 987.761719 33.484375 987.453125 33.695312 987.132812 33.632812 C 987.132812 33.632812 987.128906 33.632812 987.128906 33.632812 Z M 987.128906 33.632812 " fill-opacity="1" fill-rule="nonzero"/></g></g></g></svg>