<svg xmlns="http://www.w3.org/2000/svg" xmlns:xlink="http://www.w3.org/1999/xlink" width="1366" zoomAndPan="magnify" viewBox="0 0 1024.5 576" height="768" preserveAspectRatio="xMidYMid meet" version="1.0"><defs><clipPath id="323939eef1"><path d="M 0 0.140625 L 1024 0.140625 L 1024 575.859375 L 0 575.859375 Z M 0 0.140625 " clip-rule="nonzero"/></clipPath><clipPath id="e43606e10f"><path d="M 565 349 L 689 349 L 689 447 L 565 447 Z M 565 349 " clip-rule="nonzero"/></clipPath><clipPath id="159d181959"><path d="M 657.792969 321.574219 L 703.230469 428.515625 L 596.289062 473.953125 L 550.851562 367.011719 Z M 657.792969 321.574219 " clip-rule="nonzero"/></clipPath><clipPath id="bb86b5ae76"><path d="M 657.792969 321.574219 L 703.230469 428.515625 L 596.289062 473.953125 L 550.851562 367.011719 Z M 657.792969 321.574219 " clip-rule="nonzero"/></clipPath><clipPath id="a459f0a060"><path d="M 387 413 L 507 413 L 507 527 L 387 527 Z M 387 413 " clip-rule="nonzero"/></clipPath><clipPath id="b0ad8bbf09"><path d="M 499.433594 533.050781 L 383.738281 522.300781 L 394.492188 406.605469 L 510.1875 417.359375 Z M 499.433594 533.050781 " clip-rule="nonzero"/></clipPath><clipPath id="224099dea7"><path d="M 499.433594 533.050781 L 383.738281 522.300781 L 394.492188 406.605469 L 510.1875 417.359375 Z M 499.433594 533.050781 " clip-rule="nonzero"/></clipPath><clipPath id="9a8115cf60"><path d="M 8 453 L 131 453 L 131 561 L 8 561 Z M 8 453 " clip-rule="nonzero"/></clipPath><clipPath id="fc76ca118d"><path d="M 25.214844 437.140625 L 138.640625 462.339844 L 113.445312 575.769531 L 0.015625 550.570312 Z M 25.214844 437.140625 " clip-rule="nonzero"/></clipPath><clipPath id="d554048f2c"><path d="M 25.214844 437.140625 L 138.640625 462.339844 L 113.445312 575.769531 L 0.015625 550.570312 Z M 25.214844 437.140625 " clip-rule="nonzero"/></clipPath><clipPath id="1cf387088d"><path d="M 907 407 L 1017 407 L 1017 524 L 907 524 Z M 907 407 " clip-rule="nonzero"/></clipPath><clipPath id="73f9f9d64d"><path d="M 1024 415.289062 L 1012.066406 527.851562 L 899.5 515.921875 L 911.433594 403.355469 Z M 1024 415.289062 " clip-rule="nonzero"/></clipPath><clipPath id="bf6a78a74f"><path d="M 1024 415.289062 L 1012.066406 527.851562 L 899.5 515.921875 L 911.433594 403.355469 Z M 1024 415.289062 " clip-rule="nonzero"/></clipPath><clipPath id="277fa21ce8"><path d="M 182 343 L 321 343 L 321 489 L 182 489 Z M 182 343 " clip-rule="nonzero"/></clipPath><clipPath id="12a8a81fad"><path d="M 328.660156 351.507812 L 316.039062 493.378906 L 174.167969 480.753906 L 186.792969 338.886719 Z M 328.660156 351.507812 " clip-rule="nonzero"/></clipPath><clipPath id="60682483af"><path d="M 328.660156 351.507812 L 316.039062 493.378906 L 174.167969 480.753906 L 186.792969 338.886719 Z M 328.660156 351.507812 " clip-rule="nonzero"/></clipPath><clipPath id="75c0da9eb1"><path d="M 740.605469 422.246094 L 865 422.246094 L 865 518.199219 L 740.605469 518.199219 Z M 740.605469 422.246094 " clip-rule="nonzero"/></clipPath></defs><g clip-path="url(#323939eef1)"><path fill="#ffffff" d="M 0 0.140625 L 1024 0.140625 L 1024 575.859375 L 0 575.859375 Z M 0 0.140625 " fill-opacity="1" fill-rule="nonzero"/><path fill="#f5f1ec" d="M 0 0.140625 L 1024 0.140625 L 1024 575.859375 L 0 575.859375 Z M 0 0.140625 " fill-opacity="1" fill-rule="nonzero"/></g><g clip-path="url(#e43606e10f)"><g clip-path="url(#159d181959)"><g clip-path="url(#bb86b5ae76)"><path fill="#bca893" d="M 566.949219 405.109375 C 565.050781 400.644531 565.003906 395.714844 566.824219 391.207031 C 568.640625 386.703125 572.101562 383.179688 576.574219 381.28125 C 578.507812 380.460938 580.53125 379.984375 582.570312 379.855469 C 581.144531 378.300781 579.988281 376.484375 579.160156 374.46875 C 577.285156 369.90625 577.328125 364.894531 579.285156 360.355469 C 581.128906 356.074219 584.535156 352.699219 588.867188 350.859375 C 593.203125 349.015625 597.996094 348.910156 602.363281 350.554688 C 606.988281 352.292969 610.625 355.742188 612.605469 360.261719 C 614.597656 364.789062 614.664062 369.792969 612.816406 374.371094 L 612.800781 374.410156 C 612.578125 374.960938 612.582031 375.570312 612.820312 376.125 C 613.054688 376.679688 613.484375 377.105469 614.035156 377.328125 L 650.523438 392.054688 C 651.0625 392.273438 651.65625 392.265625 652.195312 392.035156 C 652.730469 391.808594 653.144531 391.382812 653.359375 390.839844 C 653.394531 390.75 653.433594 390.65625 653.46875 390.566406 C 655.265625 386.246094 658.640625 382.820312 662.960938 380.925781 C 667.289062 379.03125 672.089844 378.871094 676.484375 380.484375 C 681.15625 382.195312 684.839844 385.636719 686.851562 390.171875 C 688.871094 394.722656 688.957031 399.75 687.097656 404.355469 C 684.394531 411.058594 678.121094 415.273438 671.347656 415.695312 C 672.730469 417.199219 673.863281 418.953125 674.683594 420.890625 C 674.683594 420.890625 674.683594 420.890625 674.6875 420.890625 C 676.585938 425.359375 676.628906 430.296875 674.8125 434.800781 C 672.960938 439.390625 669.417969 442.945312 664.839844 444.820312 C 660.261719 446.691406 655.238281 446.632812 650.695312 444.65625 C 646.433594 442.800781 643.085938 439.40625 641.257812 435.097656 C 641.242188 435.0625 641.226562 435.023438 641.210938 434.988281 C 639.390625 430.628906 639.316406 425.820312 641.007812 421.449219 L 641.070312 421.289062 C 641.554688 420.066406 640.96875 418.679688 639.765625 418.191406 L 603.585938 403.582031 C 602.378906 403.097656 600.992188 403.6875 600.492188 404.90625 L 600.425781 405.066406 C 598.609375 409.382812 595.21875 412.796875 590.882812 414.671875 C 586.542969 416.550781 581.734375 416.679688 577.347656 415.046875 C 572.703125 413.316406 569.046875 409.867188 567.050781 405.34375 C 567.015625 405.261719 566.980469 405.1875 566.949219 405.109375 Z M 589.152344 384.414062 C 585.523438 382.953125 581.546875 382.992188 577.945312 384.519531 C 574.34375 386.050781 571.550781 388.894531 570.085938 392.527344 C 568.59375 396.226562 568.65625 400.277344 570.265625 403.925781 C 571.875 407.574219 574.824219 410.355469 578.570312 411.75 C 582.105469 413.066406 585.980469 412.957031 589.484375 411.445312 C 592.984375 409.929688 595.71875 407.183594 597.183594 403.703125 L 597.238281 403.574219 C 598.46875 400.570312 601.90625 399.113281 604.902344 400.324219 L 641.082031 414.925781 C 644.078125 416.136719 645.535156 419.570312 644.339844 422.582031 L 644.285156 422.71875 C 642.925781 426.234375 642.988281 430.109375 644.457031 433.632812 C 644.46875 433.660156 644.480469 433.6875 644.496094 433.71875 C 645.972656 437.199219 648.671875 439.933594 652.101562 441.429688 C 655.765625 443.023438 659.820312 443.070312 663.507812 441.558594 C 667.199219 440.050781 670.058594 437.179688 671.550781 433.480469 C 673.015625 429.847656 672.980469 425.867188 671.449219 422.261719 C 669.917969 418.65625 667.074219 415.867188 663.445312 414.402344 C 662.546875 414.035156 662.109375 413.011719 662.472656 412.109375 C 662.65625 411.660156 663 411.324219 663.414062 411.148438 C 663.832031 410.972656 664.3125 410.957031 664.761719 411.140625 C 672.253906 414.164062 680.8125 410.527344 683.839844 403.035156 C 685.335938 399.320312 685.261719 395.257812 683.640625 391.59375 C 682.015625 387.933594 679.042969 385.160156 675.277344 383.78125 C 671.734375 382.484375 667.863281 382.613281 664.375 384.144531 C 660.882812 385.671875 658.164062 388.433594 656.714844 391.914062 C 656.683594 391.988281 656.652344 392.0625 656.625 392.132812 C 656.058594 393.550781 654.976562 394.664062 653.574219 395.265625 C 652.171875 395.863281 650.621094 395.878906 649.203125 395.308594 L 612.71875 380.582031 C 611.300781 380.007812 610.1875 378.910156 609.585938 377.496094 C 609.582031 377.492188 609.582031 377.492188 609.582031 377.492188 C 608.980469 376.074219 608.96875 374.507812 609.542969 373.085938 L 609.558594 373.050781 C 611.046875 369.359375 610.988281 365.316406 609.390625 361.671875 C 607.789062 358.027344 604.855469 355.25 601.125 353.84375 C 597.605469 352.519531 593.742188 352.609375 590.242188 354.097656 C 586.746094 355.582031 584 358.300781 582.511719 361.753906 C 580.933594 365.414062 580.898438 369.457031 582.410156 373.136719 C 583.925781 376.816406 586.789062 379.667969 590.480469 381.15625 C 591.382812 381.519531 591.816406 382.542969 591.453125 383.445312 C 591.089844 384.347656 590.066406 384.78125 589.164062 384.417969 C 589.160156 384.417969 589.15625 384.414062 589.152344 384.414062 Z M 589.152344 384.414062 " fill-opacity="1" fill-rule="nonzero"/></g></g></g><g clip-path="url(#a459f0a060)"><g clip-path="url(#b0ad8bbf09)"><g clip-path="url(#224099dea7)"><path fill="#715c50" d="M 469.011719 413.445312 C 473.84375 413.894531 478.203125 416.195312 481.308594 419.933594 C 484.410156 423.671875 485.867188 428.390625 485.417969 433.226562 C 485.226562 435.316406 484.683594 437.324219 483.828125 439.179688 C 485.875 438.664062 488.019531 438.507812 490.1875 438.734375 C 495.09375 439.25 499.488281 441.667969 502.550781 445.542969 C 505.445312 449.199219 506.800781 453.796875 506.363281 458.484375 C 505.929688 463.171875 503.75 467.441406 500.226562 470.507812 C 496.503906 473.753906 491.742188 475.320312 486.824219 474.917969 C 481.894531 474.519531 477.457031 472.207031 474.304688 468.410156 L 474.277344 468.375 C 473.898438 467.917969 473.359375 467.632812 472.761719 467.578125 C 472.761719 467.578125 472.761719 467.578125 472.757812 467.578125 C 472.160156 467.523438 471.582031 467.699219 471.125 468.078125 L 440.84375 493.207031 C 440.398438 493.578125 440.121094 494.105469 440.066406 494.6875 C 440.015625 495.265625 440.191406 495.832031 440.566406 496.277344 C 440.632812 496.355469 440.695312 496.429688 440.757812 496.507812 C 443.707031 500.140625 445.121094 504.730469 444.738281 509.4375 C 444.355469 514.144531 442.214844 518.445312 438.710938 521.550781 C 434.988281 524.851562 430.210938 526.460938 425.261719 526.078125 C 420.300781 525.695312 415.832031 523.386719 412.660156 519.566406 C 408.046875 514.003906 407.3125 506.480469 410.15625 500.320312 C 408.171875 500.824219 406.09375 500.988281 403.996094 500.792969 C 399.160156 500.34375 394.792969 498.039062 391.691406 494.304688 C 388.53125 490.496094 387.082031 485.691406 387.605469 480.769531 C 388.132812 475.851562 390.566406 471.457031 394.460938 468.398438 C 398.117188 465.527344 402.691406 464.191406 407.355469 464.625 C 407.394531 464.628906 407.433594 464.632812 407.46875 464.636719 C 412.175781 465.101562 416.441406 467.320312 419.488281 470.882812 L 419.597656 471.015625 C 420.441406 472.019531 421.941406 472.164062 422.941406 471.335938 L 452.96875 446.421875 C 453.96875 445.589844 454.109375 444.085938 453.273438 443.070312 L 453.160156 442.9375 C 450.226562 439.289062 448.828125 434.683594 449.238281 429.976562 C 449.644531 425.265625 451.808594 420.972656 455.332031 417.882812 C 459.058594 414.617188 463.828125 413.035156 468.757812 413.425781 C 468.84375 413.429688 468.929688 413.4375 469.011719 413.445312 Z M 476.695312 442.8125 C 479.699219 440.3125 481.554688 436.792969 481.914062 432.898438 C 482.277344 429 481.101562 425.195312 478.597656 422.179688 C 476.050781 419.109375 472.453125 417.242188 468.480469 416.929688 C 464.503906 416.613281 460.65625 417.890625 457.652344 420.523438 C 454.8125 423.011719 453.070312 426.476562 452.742188 430.277344 C 452.410156 434.078125 453.535156 437.785156 455.902344 440.726562 L 455.988281 440.835938 C 458.046875 443.34375 457.699219 447.0625 455.214844 449.125 L 425.191406 474.042969 C 422.707031 476.105469 418.988281 475.761719 416.90625 473.277344 L 416.8125 473.167969 C 414.363281 470.300781 410.921875 468.515625 407.125 468.136719 C 407.09375 468.136719 407.0625 468.132812 407.03125 468.128906 C 403.265625 467.78125 399.578125 468.859375 396.636719 471.167969 C 393.492188 473.636719 391.527344 477.179688 391.105469 481.144531 C 390.683594 485.113281 391.855469 488.988281 394.402344 492.058594 C 396.902344 495.074219 400.425781 496.929688 404.324219 497.292969 C 404.324219 497.292969 404.324219 497.292969 404.328125 497.292969 C 408.222656 497.65625 412.03125 496.480469 415.042969 493.980469 C 415.789062 493.359375 416.898438 493.460938 417.519531 494.210938 C 417.828125 494.582031 417.960938 495.046875 417.917969 495.496094 C 417.875 495.941406 417.664062 496.375 417.289062 496.683594 C 411.070312 501.847656 410.210938 511.105469 415.371094 517.324219 C 417.929688 520.40625 421.539062 522.265625 425.535156 522.578125 C 429.527344 522.882812 433.378906 521.585938 436.382812 518.921875 C 439.203125 516.421875 440.929688 512.953125 441.234375 509.15625 C 441.546875 505.355469 440.40625 501.652344 438.03125 498.726562 C 437.980469 498.660156 437.929688 498.601562 437.878906 498.539062 C 436.898438 497.371094 436.433594 495.890625 436.570312 494.371094 C 436.707031 492.851562 437.429688 491.476562 438.605469 490.5 L 468.882812 465.375 C 470.0625 464.398438 471.554688 463.9375 473.085938 464.082031 C 473.089844 464.082031 473.089844 464.082031 473.09375 464.082031 C 474.625 464.222656 476.007812 464.953125 476.988281 466.136719 L 477.011719 466.167969 C 479.554688 469.230469 483.140625 471.09375 487.109375 471.417969 C 491.074219 471.738281 494.914062 470.476562 497.921875 467.859375 C 500.753906 465.386719 502.511719 461.945312 502.863281 458.160156 C 503.214844 454.375 502.125 450.667969 499.789062 447.71875 C 497.320312 444.59375 493.777344 442.644531 489.820312 442.226562 C 485.863281 441.816406 481.992188 442.984375 478.929688 445.527344 C 478.183594 446.148438 477.074219 446.046875 476.453125 445.296875 C 475.832031 444.550781 475.933594 443.441406 476.683594 442.820312 C 476.6875 442.820312 476.691406 442.8125 476.695312 442.8125 Z M 476.695312 442.8125 " fill-opacity="1" fill-rule="nonzero"/></g></g></g><g clip-path="url(#9a8115cf60)"><g clip-path="url(#fc76ca118d)"><g clip-path="url(#d554048f2c)"><path fill="#715c50" d="M 40.371094 559.621094 C 35.636719 558.570312 31.597656 555.742188 28.988281 551.640625 C 26.382812 547.542969 25.527344 542.679688 26.578125 537.9375 C 27.035156 535.886719 27.824219 533.964844 28.90625 532.230469 C 26.808594 532.484375 24.664062 532.371094 22.539062 531.875 C 17.738281 530.746094 13.683594 527.796875 11.132812 523.566406 C 8.71875 519.578125 7.953125 514.84375 8.972656 510.25 C 9.996094 505.652344 12.691406 501.6875 16.570312 499.089844 C 20.675781 496.339844 25.59375 495.382812 30.425781 496.398438 C 35.265625 497.414062 39.375 500.265625 42.027344 504.429688 L 42.050781 504.464844 C 42.367188 504.96875 42.867188 505.316406 43.453125 505.449219 C 43.453125 505.449219 43.453125 505.449219 43.457031 505.449219 C 44.042969 505.578125 44.640625 505.476562 45.140625 505.15625 L 78.335938 484.03125 C 78.828125 483.71875 79.167969 483.230469 79.292969 482.660156 C 79.414062 482.09375 79.3125 481.507812 78.996094 481.019531 C 78.941406 480.933594 78.890625 480.851562 78.835938 480.765625 C 76.367188 476.792969 75.539062 472.058594 76.511719 467.441406 C 77.484375 462.816406 80.148438 458.820312 84.011719 456.179688 C 88.117188 453.375 93.058594 452.378906 97.921875 453.375 C 102.796875 454.378906 106.941406 457.234375 109.609375 461.421875 C 113.488281 467.519531 113.269531 475.074219 109.675781 480.828125 C 111.707031 480.578125 113.789062 480.675781 115.84375 481.132812 C 115.84375 481.132812 115.84375 481.132812 115.847656 481.132812 C 120.585938 482.1875 124.628906 485.019531 127.234375 489.117188 C 129.894531 493.292969 130.730469 498.242188 129.589844 503.054688 C 128.449219 507.867188 125.484375 511.921875 121.234375 514.46875 C 117.25 516.859375 112.542969 517.609375 107.972656 516.59375 C 107.933594 516.585938 107.894531 516.574219 107.855469 516.566406 C 103.246094 515.511719 99.292969 512.777344 96.71875 508.859375 L 96.625 508.714844 C 95.914062 507.613281 94.445312 507.28125 93.347656 507.976562 L 60.429688 528.925781 C 59.332031 529.621094 59.007812 531.097656 59.710938 532.207031 L 59.800781 532.355469 C 62.257812 536.34375 63.0625 541.085938 62.066406 545.707031 C 61.070312 550.328125 58.382812 554.316406 54.5 556.9375 C 50.394531 559.710938 45.464844 560.679688 40.621094 559.675781 C 40.535156 559.65625 40.453125 559.640625 40.371094 559.621094 Z M 36.441406 529.523438 C 33.144531 531.625 30.863281 534.886719 30.015625 538.703125 C 29.164062 542.527344 29.855469 546.449219 31.957031 549.753906 C 34.101562 553.117188 37.433594 555.421875 41.339844 556.234375 C 45.242188 557.046875 49.21875 556.261719 52.53125 554.027344 C 55.660156 551.914062 57.824219 548.699219 58.628906 544.96875 C 59.433594 541.238281 58.785156 537.417969 56.804688 534.203125 L 56.730469 534.085938 C 55.003906 531.335938 55.816406 527.691406 58.542969 525.957031 L 91.457031 505.007812 C 94.183594 503.273438 97.824219 504.085938 99.578125 506.808594 L 99.660156 506.929688 C 101.726562 510.082031 104.917969 512.285156 108.636719 513.136719 C 108.671875 513.144531 108.699219 513.148438 108.730469 513.15625 C 112.421875 513.976562 116.214844 513.371094 119.425781 511.449219 C 122.855469 509.394531 125.25 506.125 126.164062 502.246094 C 127.082031 498.363281 126.40625 494.367188 124.265625 491.003906 C 122.164062 487.699219 118.902344 485.414062 115.078125 484.5625 C 111.257812 483.714844 107.332031 484.40625 104.03125 486.503906 C 103.210938 487.027344 102.125 486.785156 101.601562 485.964844 C 101.339844 485.558594 101.269531 485.082031 101.367188 484.640625 C 101.464844 484.203125 101.730469 483.800781 102.140625 483.539062 C 108.957031 479.199219 110.976562 470.125 106.636719 463.304688 C 104.484375 459.925781 101.136719 457.628906 97.210938 456.816406 C 93.289062 456.011719 89.304688 456.816406 85.992188 459.078125 C 82.878906 461.207031 80.734375 464.429688 79.949219 468.160156 C 79.164062 471.890625 79.832031 475.707031 81.820312 478.910156 C 81.859375 478.980469 81.902344 479.046875 81.945312 479.113281 C 82.769531 480.398438 83.046875 481.921875 82.722656 483.414062 C 82.394531 484.902344 81.503906 486.175781 80.214844 486.996094 L 47.023438 508.121094 C 45.730469 508.941406 44.191406 509.210938 42.6875 508.875 C 42.6875 508.875 42.6875 508.875 42.683594 508.875 C 41.179688 508.542969 39.902344 507.640625 39.078125 506.347656 L 39.058594 506.3125 C 36.921875 502.957031 33.597656 500.65625 29.699219 499.835938 C 25.804688 499.019531 21.839844 499.792969 18.527344 502.011719 C 15.402344 504.105469 13.230469 507.300781 12.40625 511.011719 C 11.582031 514.722656 12.199219 518.535156 14.140625 521.753906 C 16.203125 525.167969 19.472656 527.546875 23.34375 528.453125 C 27.21875 529.359375 31.203125 528.6875 34.5625 526.546875 C 35.382812 526.027344 36.46875 526.269531 36.992188 527.085938 C 37.511719 527.90625 37.269531 528.996094 36.453125 529.515625 C 36.449219 529.519531 36.441406 529.523438 36.441406 529.523438 Z M 36.441406 529.523438 " fill-opacity="1" fill-rule="nonzero"/></g></g></g><g clip-path="url(#1cf387088d)"><g clip-path="url(#73f9f9d64d)"><g clip-path="url(#bf6a78a74f)"><path fill="#715c50" d="M 907.40625 443.34375 C 907.902344 438.652344 910.191406 434.445312 913.863281 431.476562 C 917.535156 428.511719 922.136719 427.152344 926.828125 427.648438 C 928.859375 427.863281 930.804688 428.417969 932.59375 429.269531 C 932.117188 427.277344 931.996094 425.1875 932.242188 423.085938 C 932.804688 418.324219 935.207031 414.089844 939.011719 411.160156 C 942.601562 408.394531 947.085938 407.136719 951.636719 407.617188 C 956.183594 408.101562 960.304688 410.273438 963.238281 413.730469 C 966.34375 417.390625 967.808594 422.039062 967.355469 426.8125 C 966.910156 431.597656 964.605469 435.878906 960.875 438.894531 L 960.839844 438.917969 C 960.390625 439.28125 960.109375 439.800781 960.046875 440.382812 C 959.984375 440.964844 960.148438 441.53125 960.511719 441.976562 L 984.546875 471.714844 C 984.902344 472.152344 985.410156 472.429688 985.976562 472.488281 C 986.539062 472.546875 987.089844 472.382812 987.527344 472.023438 C 987.601562 471.960938 987.679688 471.902344 987.753906 471.839844 C 991.320312 469.019531 995.800781 467.703125 1000.367188 468.136719 C 1004.933594 468.566406 1009.085938 470.699219 1012.058594 474.144531 C 1015.21875 477.800781 1016.722656 482.464844 1016.289062 487.269531 C 1015.855469 492.085938 1013.554688 496.394531 1009.800781 499.429688 C 1004.339844 503.84375 997.023438 504.460938 991.070312 501.621094 C 991.535156 503.554688 991.667969 505.574219 991.453125 507.609375 C 991.453125 507.609375 991.453125 507.609375 991.453125 507.613281 C 990.957031 512.304688 988.664062 516.519531 984.992188 519.484375 C 981.253906 522.507812 976.566406 523.855469 971.792969 523.285156 C 967.023438 522.710938 962.78125 520.292969 959.859375 516.46875 C 957.117188 512.882812 955.875 508.417969 956.355469 503.894531 C 956.359375 503.855469 956.363281 503.816406 956.367188 503.78125 C 956.878906 499.214844 959.089844 495.097656 962.589844 492.183594 L 962.71875 492.078125 C 963.707031 491.273438 963.863281 489.816406 963.070312 488.832031 L 939.242188 459.34375 C 938.445312 458.363281 936.988281 458.210938 935.992188 459.007812 L 935.859375 459.113281 C 932.277344 461.921875 927.785156 463.21875 923.21875 462.765625 C 918.644531 462.308594 914.5 460.152344 911.546875 456.691406 C 908.417969 453.027344 906.941406 448.375 907.382812 443.589844 C 907.386719 443.503906 907.398438 443.421875 907.40625 443.34375 Z M 936.035156 436.25 C 933.644531 433.296875 930.246094 431.453125 926.464844 431.050781 C 922.683594 430.648438 918.972656 431.746094 916.011719 434.136719 C 912.996094 436.574219 911.136719 440.046875 910.785156 443.902344 C 910.425781 447.761719 911.617188 451.515625 914.140625 454.46875 C 916.519531 457.257812 919.863281 458.996094 923.550781 459.363281 C 927.242188 459.730469 930.859375 458.6875 933.746094 456.425781 L 933.855469 456.339844 C 936.316406 454.371094 939.925781 454.757812 941.898438 457.195312 L 965.730469 486.679688 C 967.703125 489.121094 967.320312 492.730469 964.882812 494.722656 L 964.773438 494.808594 C 961.960938 497.152344 960.179688 500.476562 959.765625 504.160156 C 959.761719 504.191406 959.757812 504.222656 959.757812 504.253906 C 959.371094 507.90625 960.371094 511.5 962.578125 514.390625 C 964.933594 517.476562 968.355469 519.429688 972.203125 519.886719 C 976.050781 520.347656 979.832031 519.261719 982.847656 516.824219 C 985.808594 514.429688 987.65625 511.03125 988.058594 507.25 C 988.058594 507.25 988.058594 507.25 988.058594 507.246094 C 988.457031 503.464844 987.363281 499.75 984.972656 496.792969 C 984.378906 496.058594 984.492188 494.984375 985.226562 494.390625 C 985.59375 494.09375 986.046875 493.972656 986.480469 494.019531 C 986.917969 494.0625 987.335938 494.277344 987.628906 494.644531 C 992.566406 500.75 1001.550781 501.703125 1007.65625 496.765625 C 1010.683594 494.320312 1012.535156 490.835938 1012.890625 486.957031 C 1013.238281 483.082031 1012.023438 479.324219 1009.476562 476.371094 C 1007.082031 473.601562 1003.734375 471.882812 1000.046875 471.535156 C 996.359375 471.183594 992.746094 472.246094 989.875 474.515625 C 989.8125 474.566406 989.75 474.613281 989.691406 474.660156 C 988.542969 475.597656 987.097656 476.03125 985.625 475.878906 C 984.148438 475.730469 982.824219 475.007812 981.890625 473.855469 L 957.859375 444.121094 C 956.921875 442.964844 956.496094 441.507812 956.652344 440.019531 C 956.652344 440.019531 956.652344 440.019531 956.652344 440.015625 C 956.8125 438.527344 957.539062 437.191406 958.699219 436.257812 L 958.730469 436.234375 C 961.738281 433.800781 963.59375 430.339844 963.957031 426.488281 C 964.320312 422.640625 963.140625 418.894531 960.636719 415.9375 C 958.269531 413.152344 954.949219 411.40625 951.273438 411.015625 C 947.601562 410.628906 943.988281 411.640625 941.09375 413.871094 C 938.023438 416.230469 936.085938 419.648438 935.632812 423.488281 C 935.179688 427.328125 936.269531 431.101562 938.703125 434.109375 C 939.292969 434.84375 939.179688 435.921875 938.445312 436.515625 C 937.710938 437.105469 936.636719 436.992188 936.042969 436.257812 C 936.039062 436.257812 936.035156 436.25 936.035156 436.25 Z M 936.035156 436.25 " fill-opacity="1" fill-rule="nonzero"/></g></g></g><g clip-path="url(#277fa21ce8)"><g clip-path="url(#12a8a81fad)"><g clip-path="url(#60682483af)"><path fill="#bca893" d="M 182.453125 389.308594 C 182.980469 383.394531 185.769531 378.046875 190.332031 374.230469 C 194.890625 370.417969 200.65625 368.609375 206.578125 369.136719 C 209.136719 369.363281 211.597656 370.019531 213.871094 371.054688 C 213.226562 368.550781 213.03125 365.929688 213.292969 363.273438 C 213.902344 357.269531 216.835938 351.882812 221.566406 348.113281 C 226.023438 344.554688 231.644531 342.875 237.382812 343.386719 C 243.125 343.898438 248.359375 346.542969 252.125 350.835938 C 256.113281 355.378906 258.054688 361.199219 257.585938 367.21875 C 257.125 373.253906 254.316406 378.691406 249.679688 382.570312 L 249.640625 382.605469 C 249.082031 383.070312 248.738281 383.730469 248.671875 384.460938 C 248.671875 384.460938 248.671875 384.460938 248.671875 384.464844 C 248.605469 385.195312 248.824219 385.90625 249.292969 386.460938 L 280.1875 423.390625 C 280.644531 423.9375 281.289062 424.277344 282 424.335938 C 282.710938 424.394531 283.402344 424.179688 283.945312 423.71875 C 284.039062 423.640625 284.132812 423.5625 284.226562 423.484375 C 288.65625 419.855469 294.269531 418.105469 300.027344 418.550781 C 305.789062 418.996094 311.0625 421.59375 314.878906 425.867188 C 318.933594 430.40625 320.925781 436.242188 320.484375 442.300781 C 320.039062 448.375 317.234375 453.851562 312.574219 457.753906 C 305.792969 463.425781 296.589844 464.359375 289.035156 460.910156 C 289.664062 463.335938 289.875 465.878906 289.644531 468.445312 C 289.117188 474.363281 286.320312 479.71875 281.765625 483.53125 C 277.121094 487.417969 271.246094 489.214844 265.222656 488.597656 C 259.203125 487.976562 253.816406 485.019531 250.050781 480.265625 C 246.523438 475.808594 244.863281 470.21875 245.371094 464.511719 C 245.375 464.460938 245.382812 464.414062 245.386719 464.367188 C 245.933594 458.609375 248.628906 453.378906 252.972656 449.632812 L 253.132812 449.496094 C 254.359375 448.460938 254.527344 446.625 253.507812 445.402344 L 222.878906 408.78125 C 221.855469 407.558594 220.015625 407.398438 218.777344 408.425781 L 218.613281 408.5625 C 214.164062 412.171875 208.535156 413.902344 202.773438 413.425781 C 197.007812 412.949219 191.742188 410.320312 187.949219 406.027344 C 183.933594 401.484375 181.972656 395.652344 182.429688 389.617188 C 182.433594 389.511719 182.445312 389.410156 182.453125 389.308594 Z M 218.347656 379.769531 C 215.277344 376.101562 210.960938 373.851562 206.191406 373.425781 C 201.417969 373 196.769531 374.460938 193.09375 377.535156 C 189.347656 380.667969 187.082031 385.078125 186.71875 389.941406 C 186.351562 394.808594 187.929688 399.511719 191.167969 403.175781 C 194.226562 406.636719 198.472656 408.75 203.125 409.136719 C 207.777344 409.523438 212.3125 408.128906 215.898438 405.21875 L 216.03125 405.109375 C 219.089844 402.582031 223.640625 402.988281 226.175781 406.019531 L 256.8125 442.636719 C 259.347656 445.667969 258.941406 450.21875 255.914062 452.777344 L 255.78125 452.894531 C 252.285156 455.902344 250.117188 460.125 249.671875 464.773438 C 249.667969 464.8125 249.667969 464.847656 249.664062 464.890625 C 249.253906 469.496094 250.589844 474.003906 253.429688 477.59375 C 256.464844 481.429688 260.8125 483.816406 265.664062 484.3125 C 270.523438 484.808594 275.261719 483.359375 279.003906 480.226562 C 282.679688 477.152344 284.9375 472.832031 285.363281 468.058594 C 285.785156 463.285156 284.328125 458.632812 281.253906 454.960938 C 280.492188 454.050781 280.613281 452.691406 281.523438 451.929688 C 281.980469 451.546875 282.546875 451.386719 283.097656 451.433594 C 283.644531 451.484375 284.175781 451.742188 284.554688 452.199219 C 290.898438 459.785156 302.234375 460.792969 309.816406 454.445312 C 313.578125 451.300781 315.835938 446.875 316.199219 441.984375 C 316.550781 437.097656 314.945312 432.390625 311.675781 428.726562 C 308.601562 425.289062 304.347656 423.195312 299.699219 422.835938 C 295.050781 422.476562 290.523438 423.886719 286.953125 426.808594 C 286.875 426.871094 286.800781 426.933594 286.726562 426.996094 C 285.296875 428.199219 283.488281 428.773438 281.632812 428.617188 C 279.769531 428.457031 278.085938 427.578125 276.886719 426.144531 L 245.996094 389.214844 C 244.792969 387.777344 244.222656 385.953125 244.390625 384.078125 C 244.390625 384.074219 244.390625 384.074219 244.390625 384.074219 C 244.558594 382.195312 245.445312 380.5 246.886719 379.296875 L 246.925781 379.265625 C 250.660156 376.140625 252.925781 371.742188 253.300781 366.886719 C 253.675781 362.03125 252.109375 357.339844 248.894531 353.671875 C 245.855469 350.214844 241.636719 348.085938 237.003906 347.671875 C 232.371094 347.261719 227.839844 348.613281 224.242188 351.480469 C 220.429688 354.519531 218.058594 358.863281 217.570312 363.707031 C 217.085938 368.554688 218.535156 373.28125 221.660156 377.019531 C 222.425781 377.929688 222.304688 379.289062 221.390625 380.050781 C 220.480469 380.8125 219.121094 380.691406 218.359375 379.78125 C 218.355469 379.777344 218.351562 379.769531 218.347656 379.769531 Z M 218.347656 379.769531 " fill-opacity="1" fill-rule="nonzero"/></g></g></g><g clip-path="url(#75c0da9eb1)"><path fill="#e6d5c9" d="M 752.070312 482.816406 C 764.378906 482.453125 757.566406 492.96875 748.121094 490.050781 L 748.121094 510.777344 L 857.335938 510.777344 C 857.554688 504.082031 856.90625 496.527344 857.667969 490.378906 C 851.660156 490.671875 843.914062 491.113281 845.496094 485.117188 C 845.988281 483.257812 847.835938 482.511719 850.761719 482.484375 C 849.175781 477.707031 847.351562 473.171875 846.15625 468.011719 L 757.660156 468.011719 C 755.296875 472.445312 754.023438 477.96875 752.070312 482.816406 Z M 818.847656 441.035156 C 815.796875 441.394531 816.136719 437.140625 814.574219 434.457031 C 809.921875 426.464844 795.769531 424.90625 789.570312 432.8125 C 788.121094 434.660156 787.257812 441.800781 783.980469 441.035156 C 780.914062 440.320312 782.9375 436.042969 783.320312 433.46875 C 776.347656 429.195312 767.773438 434.136719 767.53125 441.691406 C 770.976562 441.96875 778.449219 444.582031 777.398438 448.929688 C 776.210938 453.851562 772.109375 448.105469 769.832031 447.285156 C 762.136719 444.515625 756.167969 453.023438 758.320312 460.769531 C 785.628906 460.773438 817.527344 460.773438 844.839844 460.769531 C 846.644531 452.035156 840.605469 444.980469 833.65625 446.957031 C 830.882812 447.742188 829.621094 451.417969 827.402344 450.574219 C 821.605469 448.371094 831.714844 440.476562 835.296875 441.691406 C 835.488281 433.835938 826.550781 429.316406 819.835938 433.46875 C 819.707031 435.28125 822.699219 440.582031 818.851562 441.035156 Z M 816.875 429.191406 C 827.246094 423.042969 840.695312 429.699219 840.234375 442.351562 C 846.308594 445.378906 851.425781 451.105469 849.769531 460.769531 C 853.902344 466.511719 855.082031 475.203125 857.996094 482.15625 C 860.378906 482.847656 862.894531 483.398438 864.25 485.113281 C 863.125 492.816406 868.335938 515.015625 860.960938 517.683594 C 857.90625 518.789062 851.171875 518.015625 846.15625 518.015625 C 816.046875 518.011719 786.949219 518.015625 756.34375 518.015625 C 751.25 518.015625 744.148438 518.378906 742.527344 517.023438 C 740.191406 515.078125 740.882812 507.339844 740.886719 501.5625 C 740.886719 493.179688 739.039062 483.914062 744.832031 482.484375 C 747.878906 475.550781 749.183594 466.878906 753.386719 461.101562 C 751.46875 452.332031 756.101562 444.859375 762.925781 442.679688 C 761.910156 429.828125 776.308594 422.640625 785.953125 429.519531 C 792.425781 419.820312 810.433594 419.933594 816.875 429.191406 " fill-opacity="1" fill-rule="evenodd"/></g><path fill="#c68243" d="M 819.835938 433.46875 C 826.550781 429.316406 835.488281 433.839844 835.296875 441.691406 C 831.714844 440.476562 821.605469 448.375 827.402344 450.574219 C 829.621094 451.417969 830.882812 447.742188 833.65625 446.957031 C 840.605469 444.980469 846.644531 452.035156 844.839844 460.769531 C 817.527344 460.773438 785.628906 460.773438 758.320312 460.769531 C 756.167969 453.023438 762.136719 444.515625 769.832031 447.285156 C 772.109375 448.105469 776.210938 453.851562 777.398438 448.929688 C 778.449219 444.582031 770.976562 441.972656 767.53125 441.691406 C 767.773438 434.140625 776.347656 429.195312 783.320312 433.46875 C 782.9375 436.042969 780.914062 440.320312 783.980469 441.035156 C 787.257812 441.800781 788.121094 434.660156 789.570312 432.8125 C 795.769531 424.90625 809.921875 426.464844 814.574219 434.457031 C 816.136719 437.144531 815.796875 441.394531 818.851562 441.035156 C 822.699219 440.582031 819.707031 435.28125 819.835938 433.46875 " fill-opacity="1" fill-rule="evenodd"/><path fill="#2f506f" d="M 791.875 496.628906 C 791.109375 501.230469 792.277344 504.308594 794.835938 505.183594 C 797.253906 506.011719 799.214844 503.828125 801.746094 503.867188 C 804.507812 503.914062 806.269531 506.125 808.652344 505.183594 C 811.113281 504.210938 812.035156 500.019531 811.285156 496.300781 C 810.246094 491.140625 804.914062 488.292969 799.441406 489.394531 C 795.558594 490.175781 792.425781 493.304688 791.875 496.628906 Z M 814.902344 494.660156 C 822.972656 495.320312 824.921875 481.40625 815.890625 483.46875 C 810.738281 484.648438 808.359375 494.121094 814.902344 494.660156 Z M 789.242188 494.328125 C 795.128906 492.65625 791.089844 481.46875 784.308594 483.46875 C 776.847656 485.675781 783.664062 495.914062 789.242188 494.328125 Z M 806.347656 487.089844 C 813.832031 487.855469 814.949219 473.445312 806.679688 475.25 C 801.453125 476.386719 800.339844 486.472656 806.347656 487.089844 Z M 796.808594 487.089844 C 803.144531 486.4375 801.527344 474.320312 794.835938 475.25 C 787.371094 476.28125 791.089844 487.679688 796.808594 487.089844 Z M 757.660156 468.011719 L 846.15625 468.011719 C 847.347656 473.171875 849.175781 477.707031 850.761719 482.484375 C 847.832031 482.511719 845.988281 483.257812 845.496094 485.117188 C 843.910156 491.113281 851.660156 490.671875 857.667969 490.378906 C 856.90625 496.527344 857.550781 504.082031 857.335938 510.777344 L 748.121094 510.777344 C 748.121094 503.867188 748.121094 496.960938 748.121094 490.050781 C 757.566406 492.96875 764.378906 482.453125 752.070312 482.816406 C 754.023438 477.96875 755.296875 472.445312 757.660156 468.011719 " fill-opacity="1" fill-rule="evenodd"/><path fill="#e6d5c9" d="M 794.835938 475.25 C 801.527344 474.320312 803.144531 486.4375 796.808594 487.089844 C 791.089844 487.679688 787.371094 476.28125 794.835938 475.25 " fill-opacity="1" fill-rule="evenodd"/><path fill="#e6d5c9" d="M 806.679688 475.25 C 814.949219 473.445312 813.832031 487.855469 806.347656 487.089844 C 800.339844 486.472656 801.453125 476.386719 806.679688 475.25 " fill-opacity="1" fill-rule="evenodd"/><path fill="#e6d5c9" d="M 784.308594 483.46875 C 791.089844 481.46875 795.128906 492.65625 789.242188 494.328125 C 783.664062 495.914062 776.847656 485.675781 784.308594 483.46875 " fill-opacity="1" fill-rule="evenodd"/><path fill="#e6d5c9" d="M 815.890625 483.46875 C 824.921875 481.40625 822.972656 495.320312 814.902344 494.660156 C 808.359375 494.121094 810.738281 484.648438 815.890625 483.46875 " fill-opacity="1" fill-rule="evenodd"/><path fill="#e6d5c9" d="M 799.441406 489.394531 C 804.914062 488.292969 810.246094 491.140625 811.285156 496.300781 C 812.035156 500.019531 811.113281 504.210938 808.652344 505.183594 C 806.269531 506.125 804.507812 503.914062 801.746094 503.867188 C 799.214844 503.828125 797.253906 506.011719 794.835938 505.183594 C 792.277344 504.308594 791.109375 501.230469 791.875 496.628906 C 792.425781 493.304688 795.558594 490.175781 799.441406 489.394531 " fill-opacity="1" fill-rule="evenodd"/></svg>