<svg xmlns="http://www.w3.org/2000/svg" xmlns:xlink="http://www.w3.org/1999/xlink" width="1366" zoomAndPan="magnify" viewBox="0 0 1024.5 576" height="768" preserveAspectRatio="xMidYMid meet" version="1.0"><defs><clipPath id="ef29db79a3"><path d="M 0 0.140625 L 1024 0.140625 L 1024 575.859375 L 0 575.859375 Z M 0 0.140625 " clip-rule="nonzero"/></clipPath><clipPath id="ee1155a796"><path d="M 193 415 L 237 415 L 237 449 L 193 449 Z M 193 415 " clip-rule="nonzero"/></clipPath><clipPath id="8c0a3c6e02"><path d="M 225.546875 405.667969 L 241.339844 442.839844 L 204.167969 458.628906 L 188.375 421.460938 Z M 225.546875 405.667969 " clip-rule="nonzero"/></clipPath><clipPath id="0b0e1386f8"><path d="M 225.546875 405.667969 L 241.339844 442.839844 L 204.167969 458.628906 L 188.375 421.460938 Z M 225.546875 405.667969 " clip-rule="nonzero"/></clipPath><clipPath id="c34fc6d579"><path d="M 131 417 L 174 417 L 174 457 L 131 457 Z M 131 417 " clip-rule="nonzero"/></clipPath><clipPath id="d3a37a2af2"><path d="M 170.59375 458.976562 L 130.382812 455.238281 L 134.117188 415.027344 L 174.332031 418.761719 Z M 170.59375 458.976562 " clip-rule="nonzero"/></clipPath><clipPath id="34bbfb532e"><path d="M 170.59375 458.976562 L 130.382812 455.238281 L 134.117188 415.027344 L 174.332031 418.761719 Z M 170.59375 458.976562 " clip-rule="nonzero"/></clipPath><clipPath id="5bd5583a4f"><path d="M 0 426 L 43 426 L 43 465 L 0 465 Z M 0 426 " clip-rule="nonzero"/></clipPath><clipPath id="32a05a95a7"><path d="M 5.765625 421.441406 L 45.191406 430.199219 L 36.433594 469.625 L -2.992188 460.867188 Z M 5.765625 421.441406 " clip-rule="nonzero"/></clipPath><clipPath id="f9622fcc6f"><path d="M 5.765625 421.441406 L 45.191406 430.199219 L 36.433594 469.625 L -2.992188 460.867188 Z M 5.765625 421.441406 " clip-rule="nonzero"/></clipPath><clipPath id="6b2b6f2542"><path d="M 60 413 L 109 413 L 109 464 L 60 464 Z M 60 413 " clip-rule="nonzero"/></clipPath><clipPath id="1d5cb0a450"><path d="M 111.144531 416.070312 L 106.757812 465.382812 L 57.449219 460.996094 L 61.835938 411.683594 Z M 111.144531 416.070312 " clip-rule="nonzero"/></clipPath><clipPath id="9576e758b9"><path d="M 111.144531 416.070312 L 106.757812 465.382812 L 57.449219 460.996094 L 61.835938 411.683594 Z M 111.144531 416.070312 " clip-rule="nonzero"/></clipPath><clipPath id="dbfada6ec7"><path d="M 312 411 L 351 411 L 351 452 L 312 452 Z M 312 411 " clip-rule="nonzero"/></clipPath><clipPath id="94bd39d896"><path d="M 353.042969 413.84375 L 348.898438 452.96875 L 309.773438 448.824219 L 313.917969 409.699219 Z M 353.042969 413.84375 " clip-rule="nonzero"/></clipPath><clipPath id="76582bf863"><path d="M 353.042969 413.84375 L 348.898438 452.96875 L 309.773438 448.824219 L 313.917969 409.699219 Z M 353.042969 413.84375 " clip-rule="nonzero"/></clipPath><clipPath id="57e38edd94"><path d="M 255 426 L 297 426 L 297 456 L 255 456 Z M 255 426 " clip-rule="nonzero"/></clipPath><clipPath id="bc0d2639fa"><path d="M 280.914062 413.671875 L 302.953125 446.261719 L 270.363281 468.304688 L 248.320312 435.714844 Z M 280.914062 413.671875 " clip-rule="nonzero"/></clipPath><clipPath id="6745f41ff8"><path d="M 280.914062 413.671875 L 302.953125 446.261719 L 270.363281 468.304688 L 248.320312 435.714844 Z M 280.914062 413.671875 " clip-rule="nonzero"/></clipPath><clipPath id="57bcb2535f"><path d="M 557 415 L 600 415 L 600 449 L 557 449 Z M 557 415 " clip-rule="nonzero"/></clipPath><clipPath id="359bafa4bb"><path d="M 589.082031 405.667969 L 604.875 442.839844 L 567.707031 458.628906 L 551.914062 421.460938 Z M 589.082031 405.667969 " clip-rule="nonzero"/></clipPath><clipPath id="d5ae574022"><path d="M 589.082031 405.667969 L 604.875 442.839844 L 567.707031 458.628906 L 551.914062 421.460938 Z M 589.082031 405.667969 " clip-rule="nonzero"/></clipPath><clipPath id="f8c1873a9e"><path d="M 495 417 L 537 417 L 537 457 L 495 457 Z M 495 417 " clip-rule="nonzero"/></clipPath><clipPath id="540634be47"><path d="M 534.132812 458.976562 L 493.917969 455.238281 L 497.65625 415.027344 L 537.871094 418.761719 Z M 534.132812 458.976562 " clip-rule="nonzero"/></clipPath><clipPath id="2a511469ee"><path d="M 534.132812 458.976562 L 493.917969 455.238281 L 497.65625 415.027344 L 537.871094 418.761719 Z M 534.132812 458.976562 " clip-rule="nonzero"/></clipPath><clipPath id="f62a43a1b5"><path d="M 363 426 L 406 426 L 406 465 L 363 465 Z M 363 426 " clip-rule="nonzero"/></clipPath><clipPath id="5b1ad4db2f"><path d="M 369.304688 421.441406 L 408.730469 430.199219 L 399.96875 469.625 L 360.542969 460.867188 Z M 369.304688 421.441406 " clip-rule="nonzero"/></clipPath><clipPath id="ec51517f1d"><path d="M 369.304688 421.441406 L 408.730469 430.199219 L 399.96875 469.625 L 360.542969 460.867188 Z M 369.304688 421.441406 " clip-rule="nonzero"/></clipPath><clipPath id="9849b412ba"><path d="M 423 413 L 472 413 L 472 464 L 423 464 Z M 423 413 " clip-rule="nonzero"/></clipPath><clipPath id="c5d12b0ded"><path d="M 474.683594 416.070312 L 470.296875 465.382812 L 420.984375 460.996094 L 425.371094 411.683594 Z M 474.683594 416.070312 " clip-rule="nonzero"/></clipPath><clipPath id="a63b394ffb"><path d="M 474.683594 416.070312 L 470.296875 465.382812 L 420.984375 460.996094 L 425.371094 411.683594 Z M 474.683594 416.070312 " clip-rule="nonzero"/></clipPath><clipPath id="71c05de2f5"><path d="M 676 411 L 714 411 L 714 452 L 676 452 Z M 676 411 " clip-rule="nonzero"/></clipPath><clipPath id="4398edbff1"><path d="M 716.578125 413.84375 L 712.4375 452.96875 L 673.3125 448.824219 L 677.453125 409.699219 Z M 716.578125 413.84375 " clip-rule="nonzero"/></clipPath><clipPath id="3d13089bbd"><path d="M 716.578125 413.84375 L 712.4375 452.96875 L 673.3125 448.824219 L 677.453125 409.699219 Z M 716.578125 413.84375 " clip-rule="nonzero"/></clipPath><clipPath id="50986f16cc"><path d="M 618 426 L 660 426 L 660 456 L 618 456 Z M 618 426 " clip-rule="nonzero"/></clipPath><clipPath id="d359b17cf5"><path d="M 644.449219 413.671875 L 666.492188 446.261719 L 633.902344 468.304688 L 611.859375 435.714844 Z M 644.449219 413.671875 " clip-rule="nonzero"/></clipPath><clipPath id="d8bcddf758"><path d="M 644.449219 413.671875 L 666.492188 446.261719 L 633.902344 468.304688 L 611.859375 435.714844 Z M 644.449219 413.671875 " clip-rule="nonzero"/></clipPath><clipPath id="8c85f51bd2"><path d="M 920 415 L 964 415 L 964 449 L 920 449 Z M 920 415 " clip-rule="nonzero"/></clipPath><clipPath id="02911e11d1"><path d="M 952.621094 405.667969 L 968.414062 442.839844 L 931.242188 458.628906 L 915.449219 421.460938 Z M 952.621094 405.667969 " clip-rule="nonzero"/></clipPath><clipPath id="89748bccc8"><path d="M 952.621094 405.667969 L 968.414062 442.839844 L 931.242188 458.628906 L 915.449219 421.460938 Z M 952.621094 405.667969 " clip-rule="nonzero"/></clipPath><clipPath id="1f8c1833c4"><path d="M 858 417 L 901 417 L 901 457 L 858 457 Z M 858 417 " clip-rule="nonzero"/></clipPath><clipPath id="b88b9045b1"><path d="M 897.671875 458.976562 L 857.457031 455.238281 L 861.195312 415.027344 L 901.40625 418.761719 Z M 897.671875 458.976562 " clip-rule="nonzero"/></clipPath><clipPath id="bc4a934687"><path d="M 897.671875 458.976562 L 857.457031 455.238281 L 861.195312 415.027344 L 901.40625 418.761719 Z M 897.671875 458.976562 " clip-rule="nonzero"/></clipPath><clipPath id="37b56ae14f"><path d="M 727 426 L 770 426 L 770 465 L 727 465 Z M 727 426 " clip-rule="nonzero"/></clipPath><clipPath id="10b4b34037"><path d="M 732.839844 421.441406 L 772.265625 430.199219 L 763.507812 469.625 L 724.082031 460.867188 Z M 732.839844 421.441406 " clip-rule="nonzero"/></clipPath><clipPath id="99adfd553a"><path d="M 732.839844 421.441406 L 772.265625 430.199219 L 763.507812 469.625 L 724.082031 460.867188 Z M 732.839844 421.441406 " clip-rule="nonzero"/></clipPath><clipPath id="0c53d310da"><path d="M 787 413 L 836 413 L 836 464 L 787 464 Z M 787 413 " clip-rule="nonzero"/></clipPath><clipPath id="2359199242"><path d="M 838.222656 416.070312 L 833.835938 465.382812 L 784.523438 460.996094 L 788.910156 411.683594 Z M 838.222656 416.070312 " clip-rule="nonzero"/></clipPath><clipPath id="cccc02c316"><path d="M 838.222656 416.070312 L 833.835938 465.382812 L 784.523438 460.996094 L 788.910156 411.683594 Z M 838.222656 416.070312 " clip-rule="nonzero"/></clipPath><clipPath id="8d20124442"><path d="M 982 426 L 1024 426 L 1024 456 L 982 456 Z M 982 426 " clip-rule="nonzero"/></clipPath><clipPath id="ad2aa6ac6e"><path d="M 1007.988281 413.671875 L 1030.03125 446.261719 L 997.4375 468.304688 L 975.398438 435.714844 Z M 1007.988281 413.671875 " clip-rule="nonzero"/></clipPath><clipPath id="b1abbae15f"><path d="M 1007.988281 413.671875 L 1030.03125 446.261719 L 997.4375 468.304688 L 975.398438 435.714844 Z M 1007.988281 413.671875 " clip-rule="nonzero"/></clipPath></defs><g clip-path="url(#ef29db79a3)"><path fill="#ffffff" d="M 0 0.140625 L 1024 0.140625 L 1024 575.859375 L 0 575.859375 Z M 0 0.140625 " fill-opacity="1" fill-rule="nonzero"/><path fill="#f5f1ec" d="M 0 0.140625 L 1024 0.140625 L 1024 575.859375 L 0 575.859375 Z M 0 0.140625 " fill-opacity="1" fill-rule="nonzero"/></g><g clip-path="url(#ee1155a796)"><g clip-path="url(#8c0a3c6e02)"><g clip-path="url(#0b0e1386f8)"><path fill="#bca893" d="M 193.96875 434.703125 C 193.308594 433.148438 193.292969 431.4375 193.925781 429.871094 C 194.558594 428.304688 195.761719 427.082031 197.316406 426.421875 C 197.988281 426.132812 198.691406 425.96875 199.398438 425.925781 C 198.902344 425.382812 198.503906 424.753906 198.214844 424.054688 C 197.5625 422.464844 197.578125 420.722656 198.257812 419.148438 C 198.898438 417.660156 200.082031 416.484375 201.589844 415.847656 C 203.09375 415.207031 204.761719 415.167969 206.277344 415.742188 C 207.886719 416.34375 209.152344 417.542969 209.839844 419.113281 C 210.53125 420.6875 210.554688 422.425781 209.914062 424.019531 L 209.90625 424.03125 C 209.828125 424.222656 209.832031 424.4375 209.914062 424.628906 C 209.996094 424.820312 210.144531 424.96875 210.335938 425.046875 L 223.019531 430.164062 C 223.207031 430.242188 223.414062 430.238281 223.597656 430.160156 C 223.785156 430.078125 223.929688 429.933594 224.003906 429.742188 C 224.015625 429.710938 224.03125 429.679688 224.042969 429.648438 C 224.667969 428.144531 225.839844 426.957031 227.34375 426.296875 C 228.847656 425.636719 230.515625 425.582031 232.042969 426.144531 C 233.664062 426.738281 234.945312 427.933594 235.644531 429.511719 C 236.347656 431.09375 236.378906 432.839844 235.730469 434.441406 C 234.792969 436.769531 232.609375 438.234375 230.257812 438.382812 C 230.738281 438.90625 231.128906 439.515625 231.417969 440.1875 C 232.078125 441.742188 232.09375 443.457031 231.460938 445.023438 C 230.816406 446.617188 229.585938 447.855469 227.996094 448.503906 C 226.402344 449.15625 224.65625 449.136719 223.078125 448.449219 C 221.597656 447.804688 220.433594 446.625 219.796875 445.125 C 219.792969 445.113281 219.785156 445.101562 219.78125 445.089844 C 219.148438 443.570312 219.125 441.902344 219.710938 440.382812 L 219.734375 440.324219 C 219.902344 439.902344 219.699219 439.417969 219.277344 439.25 L 206.703125 434.171875 C 206.285156 434.003906 205.800781 434.210938 205.628906 434.632812 L 205.605469 434.6875 C 204.976562 436.1875 203.796875 437.375 202.289062 438.027344 C 200.78125 438.679688 199.109375 438.722656 197.582031 438.15625 C 195.96875 437.554688 194.699219 436.355469 194.003906 434.785156 C 193.992188 434.757812 193.980469 434.730469 193.96875 434.703125 Z M 201.6875 427.507812 C 200.425781 427 199.042969 427.015625 197.792969 427.546875 C 196.539062 428.078125 195.570312 429.066406 195.058594 430.328125 C 194.542969 431.613281 194.5625 433.023438 195.125 434.289062 C 195.683594 435.558594 196.707031 436.527344 198.007812 437.011719 C 199.238281 437.46875 200.585938 437.429688 201.800781 436.90625 C 203.019531 436.378906 203.96875 435.421875 204.480469 434.214844 L 204.496094 434.167969 C 204.925781 433.125 206.121094 432.617188 207.160156 433.039062 L 219.738281 438.113281 C 220.777344 438.535156 221.285156 439.730469 220.867188 440.777344 L 220.851562 440.824219 C 220.378906 442.042969 220.398438 443.390625 220.910156 444.617188 C 220.914062 444.625 220.917969 444.636719 220.921875 444.648438 C 221.4375 445.855469 222.375 446.804688 223.566406 447.328125 C 224.839844 447.878906 226.25 447.898438 227.53125 447.371094 C 228.816406 446.847656 229.808594 445.851562 230.328125 444.5625 C 230.835938 443.300781 230.824219 441.917969 230.292969 440.664062 C 229.761719 439.410156 228.773438 438.441406 227.511719 437.933594 C 227.199219 437.804688 227.046875 437.449219 227.171875 437.136719 C 227.234375 436.980469 227.355469 436.863281 227.5 436.800781 C 227.644531 436.742188 227.8125 436.734375 227.96875 436.796875 C 230.574219 437.851562 233.546875 436.585938 234.597656 433.980469 C 235.121094 432.691406 235.09375 431.277344 234.53125 430.003906 C 233.964844 428.734375 232.933594 427.769531 231.621094 427.289062 C 230.390625 426.839844 229.046875 426.882812 227.832031 427.414062 C 226.621094 427.945312 225.675781 428.90625 225.171875 430.117188 C 225.160156 430.140625 225.148438 430.167969 225.140625 430.191406 C 224.941406 430.683594 224.566406 431.070312 224.078125 431.28125 C 223.59375 431.488281 223.050781 431.496094 222.558594 431.296875 L 209.878906 426.175781 C 209.386719 425.976562 209 425.597656 208.789062 425.105469 C 208.789062 425.105469 208.789062 425.105469 208.789062 425.101562 C 208.578125 424.609375 208.574219 424.066406 208.773438 423.570312 L 208.78125 423.558594 C 209.296875 422.277344 209.277344 420.871094 208.722656 419.605469 C 208.164062 418.335938 207.144531 417.371094 205.847656 416.882812 C 204.625 416.421875 203.28125 416.453125 202.066406 416.972656 C 200.851562 417.488281 199.894531 418.433594 199.378906 419.632812 C 198.832031 420.90625 198.816406 422.308594 199.34375 423.589844 C 199.871094 424.867188 200.867188 425.859375 202.148438 426.375 C 202.460938 426.503906 202.613281 426.859375 202.488281 427.171875 C 202.359375 427.484375 202.003906 427.636719 201.691406 427.511719 C 201.691406 427.511719 201.6875 427.507812 201.6875 427.507812 Z M 201.6875 427.507812 " fill-opacity="1" fill-rule="nonzero"/></g></g></g><g clip-path="url(#c34fc6d579)"><g clip-path="url(#d3a37a2af2)"><g clip-path="url(#34bbfb532e)"><path fill="#715c50" d="M 160.019531 417.402344 C 161.699219 417.558594 163.214844 418.359375 164.292969 419.660156 C 165.371094 420.957031 165.878906 422.597656 165.722656 424.277344 C 165.65625 425.003906 165.46875 425.703125 165.171875 426.347656 C 165.882812 426.167969 166.628906 426.113281 167.378906 426.191406 C 169.085938 426.371094 170.613281 427.210938 171.675781 428.558594 C 172.683594 429.828125 173.15625 431.429688 173.003906 433.058594 C 172.851562 434.6875 172.09375 436.171875 170.871094 437.238281 C 169.574219 438.363281 167.921875 438.910156 166.210938 438.769531 C 164.496094 438.632812 162.957031 437.828125 161.859375 436.507812 L 161.851562 436.496094 C 161.71875 436.335938 161.53125 436.238281 161.324219 436.21875 C 161.113281 436.199219 160.914062 436.261719 160.753906 436.390625 L 150.230469 445.125 C 150.074219 445.257812 149.976562 445.4375 149.960938 445.640625 C 149.941406 445.84375 150.003906 446.039062 150.132812 446.195312 C 150.15625 446.21875 150.179688 446.246094 150.199219 446.273438 C 151.226562 447.535156 151.714844 449.132812 151.582031 450.769531 C 151.449219 452.402344 150.707031 453.898438 149.488281 454.976562 C 148.195312 456.125 146.535156 456.683594 144.8125 456.550781 C 143.089844 456.417969 141.535156 455.617188 140.433594 454.289062 C 138.828125 452.355469 138.574219 449.742188 139.5625 447.597656 C 138.875 447.773438 138.152344 447.832031 137.421875 447.761719 C 135.742188 447.605469 134.222656 446.804688 133.144531 445.507812 C 132.046875 444.183594 131.542969 442.515625 131.726562 440.804688 C 131.90625 439.09375 132.753906 437.566406 134.109375 436.503906 C 135.378906 435.503906 136.96875 435.042969 138.589844 435.191406 C 138.601562 435.191406 138.617188 435.195312 138.628906 435.195312 C 140.265625 435.359375 141.746094 436.128906 142.804688 437.367188 L 142.84375 437.414062 C 143.136719 437.761719 143.660156 437.8125 144.007812 437.523438 L 154.445312 428.863281 C 154.792969 428.574219 154.839844 428.054688 154.550781 427.699219 L 154.511719 427.652344 C 153.492188 426.386719 153.003906 424.785156 153.148438 423.148438 C 153.289062 421.511719 154.042969 420.019531 155.265625 418.945312 C 156.558594 417.808594 158.21875 417.261719 159.933594 417.394531 C 159.960938 417.398438 159.992188 417.402344 160.019531 417.402344 Z M 162.691406 427.609375 C 163.734375 426.742188 164.378906 425.519531 164.503906 424.164062 C 164.632812 422.808594 164.222656 421.488281 163.351562 420.4375 C 162.46875 419.371094 161.21875 418.722656 159.835938 418.613281 C 158.453125 418.503906 157.117188 418.949219 156.070312 419.863281 C 155.085938 420.726562 154.480469 421.933594 154.363281 423.253906 C 154.25 424.574219 154.640625 425.863281 155.464844 426.886719 L 155.496094 426.921875 C 156.210938 427.796875 156.089844 429.085938 155.226562 429.804688 L 144.789062 438.464844 C 143.925781 439.183594 142.632812 439.0625 141.910156 438.199219 L 141.878906 438.160156 C 141.027344 437.164062 139.828125 436.542969 138.511719 436.414062 C 138.5 436.410156 138.488281 436.410156 138.476562 436.410156 C 137.167969 436.289062 135.886719 436.664062 134.863281 437.464844 C 133.773438 438.324219 133.089844 439.554688 132.941406 440.933594 C 132.796875 442.3125 133.203125 443.660156 134.085938 444.726562 C 134.957031 445.773438 136.179688 446.421875 137.535156 446.546875 C 137.535156 446.546875 137.535156 446.546875 137.539062 446.546875 C 138.890625 446.671875 140.214844 446.261719 141.261719 445.394531 C 141.523438 445.179688 141.90625 445.214844 142.121094 445.476562 C 142.230469 445.605469 142.277344 445.765625 142.261719 445.921875 C 142.246094 446.078125 142.171875 446.226562 142.042969 446.335938 C 139.882812 448.128906 139.582031 451.347656 141.375 453.507812 C 142.265625 454.578125 143.519531 455.226562 144.910156 455.335938 C 146.296875 455.441406 147.636719 454.988281 148.679688 454.0625 C 149.660156 453.195312 150.257812 451.988281 150.367188 450.667969 C 150.472656 449.347656 150.078125 448.0625 149.253906 447.042969 C 149.234375 447.023438 149.21875 447 149.199219 446.980469 C 148.859375 446.574219 148.699219 446.058594 148.746094 445.53125 C 148.792969 445.003906 149.042969 444.523438 149.453125 444.1875 L 159.976562 435.453125 C 160.386719 435.113281 160.90625 434.953125 161.4375 435.003906 C 161.972656 435.050781 162.453125 435.304688 162.792969 435.71875 L 162.800781 435.726562 C 163.683594 436.792969 164.929688 437.441406 166.308594 437.550781 C 167.6875 437.664062 169.023438 437.226562 170.070312 436.316406 C 171.054688 435.457031 171.664062 434.261719 171.785156 432.945312 C 171.90625 431.628906 171.53125 430.339844 170.71875 429.316406 C 169.859375 428.230469 168.628906 427.550781 167.253906 427.40625 C 165.878906 427.265625 164.53125 427.671875 163.46875 428.554688 C 163.207031 428.769531 162.824219 428.734375 162.605469 428.472656 C 162.390625 428.214844 162.425781 427.828125 162.6875 427.613281 C 162.6875 427.613281 162.6875 427.609375 162.691406 427.609375 Z M 162.691406 427.609375 " fill-opacity="1" fill-rule="nonzero"/></g></g></g><g clip-path="url(#5bd5583a4f)"><g clip-path="url(#32a05a95a7)"><g clip-path="url(#f9622fcc6f)"><path fill="#715c50" d="M 11.035156 464.015625 C 9.386719 463.648438 7.984375 462.664062 7.078125 461.238281 C 6.171875 459.816406 5.875 458.125 6.238281 456.476562 C 6.398438 455.765625 6.671875 455.097656 7.046875 454.492188 C 6.320312 454.582031 5.574219 454.542969 4.835938 454.371094 C 3.167969 453.976562 1.757812 452.953125 0.871094 451.480469 C 0.03125 450.09375 -0.234375 448.449219 0.121094 446.851562 C 0.476562 445.253906 1.414062 443.878906 2.761719 442.976562 C 4.1875 442.019531 5.898438 441.6875 7.578125 442.039062 C 9.257812 442.390625 10.6875 443.382812 11.609375 444.832031 L 11.617188 444.84375 C 11.726562 445.019531 11.902344 445.140625 12.105469 445.183594 C 12.308594 445.230469 12.515625 445.195312 12.691406 445.082031 L 24.230469 437.738281 C 24.398438 437.632812 24.519531 437.460938 24.5625 437.265625 C 24.605469 437.066406 24.570312 436.863281 24.457031 436.691406 C 24.441406 436.664062 24.421875 436.636719 24.402344 436.605469 C 23.542969 435.222656 23.257812 433.578125 23.59375 431.972656 C 23.933594 430.367188 24.859375 428.976562 26.203125 428.058594 C 27.628906 427.085938 29.347656 426.738281 31.039062 427.085938 C 32.730469 427.433594 34.171875 428.425781 35.097656 429.882812 C 36.449219 432 36.371094 434.625 35.121094 436.628906 C 35.828125 436.539062 36.550781 436.574219 37.265625 436.734375 C 38.914062 437.097656 40.320312 438.085938 41.226562 439.507812 C 42.148438 440.960938 42.441406 442.679688 42.042969 444.351562 C 41.648438 446.027344 40.617188 447.433594 39.140625 448.320312 C 37.753906 449.148438 36.117188 449.410156 34.53125 449.058594 C 34.515625 449.054688 34.503906 449.050781 34.488281 449.050781 C 32.886719 448.683594 31.515625 447.730469 30.621094 446.371094 L 30.585938 446.320312 C 30.339844 445.9375 29.828125 445.820312 29.449219 446.0625 L 18.003906 453.34375 C 17.625 453.585938 17.511719 454.097656 17.753906 454.484375 L 17.789062 454.539062 C 18.640625 455.921875 18.921875 457.570312 18.574219 459.175781 C 18.230469 460.785156 17.292969 462.171875 15.945312 463.082031 C 14.519531 464.042969 12.804688 464.382812 11.121094 464.03125 C 11.089844 464.027344 11.0625 464.019531 11.035156 464.015625 Z M 9.667969 453.550781 C 8.523438 454.285156 7.730469 455.417969 7.433594 456.742188 C 7.140625 458.074219 7.378906 459.4375 8.109375 460.585938 C 8.855469 461.753906 10.011719 462.554688 11.371094 462.835938 C 12.726562 463.117188 14.109375 462.847656 15.261719 462.070312 C 16.347656 461.335938 17.101562 460.21875 17.378906 458.921875 C 17.660156 457.625 17.433594 456.296875 16.746094 455.179688 L 16.71875 455.136719 C 16.121094 454.183594 16.402344 452.917969 17.347656 452.3125 L 28.789062 445.03125 C 29.738281 444.429688 31.003906 444.710938 31.613281 445.65625 L 31.640625 445.699219 C 32.359375 446.792969 33.46875 447.5625 34.761719 447.855469 C 34.773438 447.859375 34.785156 447.863281 34.792969 447.863281 C 36.078125 448.148438 37.394531 447.9375 38.511719 447.269531 C 39.703125 446.554688 40.535156 445.417969 40.855469 444.070312 C 41.171875 442.722656 40.9375 441.332031 40.195312 440.164062 C 39.460938 439.015625 38.328125 438.222656 37 437.925781 C 35.671875 437.628906 34.308594 437.871094 33.160156 438.601562 C 32.875 438.78125 32.496094 438.699219 32.316406 438.414062 C 32.226562 438.269531 32.199219 438.105469 32.234375 437.953125 C 32.269531 437.800781 32.359375 437.660156 32.503906 437.570312 C 34.875 436.0625 35.574219 432.90625 34.066406 430.535156 C 33.316406 429.363281 32.15625 428.5625 30.789062 428.28125 C 29.425781 428 28.042969 428.28125 26.890625 429.066406 C 25.808594 429.808594 25.0625 430.929688 24.789062 432.222656 C 24.519531 433.519531 24.75 434.847656 25.441406 435.960938 C 25.453125 435.984375 25.46875 436.007812 25.484375 436.03125 C 25.769531 436.476562 25.867188 437.007812 25.753906 437.523438 C 25.640625 438.042969 25.332031 438.484375 24.882812 438.769531 L 13.34375 446.113281 C 12.894531 446.398438 12.363281 446.492188 11.839844 446.375 C 11.839844 446.375 11.839844 446.375 11.835938 446.375 C 11.316406 446.261719 10.871094 445.945312 10.585938 445.496094 L 10.578125 445.484375 C 9.835938 444.320312 8.679688 443.519531 7.324219 443.234375 C 5.972656 442.949219 4.59375 443.21875 3.441406 443.988281 C 2.355469 444.71875 1.601562 445.828125 1.3125 447.117188 C 1.027344 448.40625 1.242188 449.734375 1.917969 450.851562 C 2.632812 452.039062 3.769531 452.863281 5.117188 453.179688 C 6.460938 453.496094 7.847656 453.261719 9.015625 452.519531 C 9.300781 452.335938 9.675781 452.421875 9.859375 452.707031 C 10.039062 452.992188 9.957031 453.367188 9.671875 453.550781 C 9.671875 453.550781 9.667969 453.550781 9.667969 453.550781 Z M 9.667969 453.550781 " fill-opacity="1" fill-rule="nonzero"/></g></g></g><g clip-path="url(#6b2b6f2542)"><g clip-path="url(#1d5cb0a450)"><g clip-path="url(#9576e758b9)"><path fill="#bca893" d="M 60.328125 429.210938 C 60.511719 427.15625 61.480469 425.296875 63.066406 423.96875 C 64.648438 422.644531 66.65625 422.015625 68.710938 422.199219 C 69.601562 422.277344 70.457031 422.503906 71.246094 422.867188 C 71.023438 421.996094 70.953125 421.082031 71.046875 420.160156 C 71.257812 418.074219 72.277344 416.203125 73.921875 414.890625 C 75.472656 413.65625 77.425781 413.070312 79.421875 413.25 C 81.414062 413.425781 83.234375 414.347656 84.542969 415.839844 C 85.929688 417.417969 86.605469 419.441406 86.441406 421.53125 C 86.28125 423.628906 85.304688 425.519531 83.695312 426.867188 L 83.679688 426.878906 C 83.484375 427.042969 83.367188 427.273438 83.34375 427.527344 C 83.320312 427.78125 83.398438 428.027344 83.558594 428.222656 L 94.296875 441.058594 C 94.457031 441.246094 94.679688 441.363281 94.929688 441.386719 C 95.175781 441.40625 95.414062 441.332031 95.605469 441.171875 C 95.636719 441.144531 95.667969 441.117188 95.703125 441.089844 C 97.242188 439.828125 99.191406 439.21875 101.195312 439.375 C 103.195312 439.53125 105.03125 440.433594 106.355469 441.917969 C 107.765625 443.496094 108.457031 445.523438 108.304688 447.628906 C 108.148438 449.742188 107.175781 451.644531 105.554688 453 C 103.195312 454.972656 100 455.296875 97.375 454.097656 C 97.589844 454.941406 97.664062 455.824219 97.585938 456.714844 C 97.585938 456.714844 97.585938 456.714844 97.585938 456.71875 C 97.402344 458.773438 96.429688 460.636719 94.84375 461.960938 C 93.230469 463.3125 91.191406 463.9375 89.097656 463.722656 C 87.003906 463.507812 85.132812 462.476562 83.824219 460.824219 C 82.597656 459.277344 82.019531 457.332031 82.195312 455.347656 C 82.199219 455.332031 82.199219 455.316406 82.199219 455.300781 C 82.390625 453.296875 83.328125 451.480469 84.839844 450.179688 L 84.894531 450.132812 C 85.320312 449.769531 85.378906 449.132812 85.023438 448.707031 L 74.378906 435.976562 C 74.023438 435.554688 73.382812 435.5 72.953125 435.855469 L 72.894531 435.902344 C 71.347656 437.15625 69.394531 437.757812 67.390625 437.59375 C 65.386719 437.429688 63.554688 436.515625 62.238281 435.019531 C 60.839844 433.441406 60.160156 431.417969 60.316406 429.316406 C 60.320312 429.28125 60.324219 429.246094 60.328125 429.210938 Z M 72.804688 425.894531 C 71.734375 424.621094 70.234375 423.835938 68.578125 423.691406 C 66.917969 423.542969 65.304688 424.050781 64.023438 425.117188 C 62.722656 426.207031 61.9375 427.738281 61.808594 429.429688 C 61.683594 431.121094 62.230469 432.757812 63.355469 434.03125 C 64.417969 435.234375 65.894531 435.96875 67.511719 436.101562 C 69.128906 436.234375 70.703125 435.753906 71.953125 434.742188 L 71.996094 434.703125 C 73.0625 433.824219 74.644531 433.964844 75.523438 435.019531 L 86.171875 447.746094 C 87.054688 448.800781 86.914062 450.382812 85.859375 451.269531 L 85.8125 451.3125 C 84.597656 452.359375 83.84375 453.824219 83.691406 455.441406 C 83.691406 455.453125 83.6875 455.46875 83.6875 455.480469 C 83.546875 457.082031 84.007812 458.648438 84.996094 459.898438 C 86.050781 461.230469 87.5625 462.058594 89.25 462.230469 C 90.9375 462.40625 92.585938 461.902344 93.886719 460.8125 C 95.164062 459.742188 95.949219 458.242188 96.097656 456.582031 C 96.242188 454.921875 95.738281 453.308594 94.667969 452.03125 C 94.402344 451.714844 94.445312 451.242188 94.761719 450.976562 C 94.921875 450.84375 95.117188 450.789062 95.308594 450.804688 C 95.5 450.820312 95.683594 450.910156 95.816406 451.070312 C 98.019531 453.707031 101.960938 454.054688 104.597656 451.851562 C 105.902344 450.757812 106.6875 449.21875 106.8125 447.519531 C 106.9375 445.820312 106.378906 444.183594 105.242188 442.910156 C 104.171875 441.714844 102.695312 440.988281 101.078125 440.863281 C 99.464844 440.738281 97.890625 441.230469 96.648438 442.246094 C 96.621094 442.265625 96.597656 442.289062 96.570312 442.308594 C 96.074219 442.726562 95.445312 442.929688 94.800781 442.871094 C 94.152344 442.816406 93.566406 442.511719 93.148438 442.015625 L 82.414062 429.179688 C 81.996094 428.679688 81.796875 428.042969 81.855469 427.394531 C 81.855469 427.390625 81.855469 427.390625 81.855469 427.390625 C 81.914062 426.738281 82.222656 426.148438 82.722656 425.730469 L 82.734375 425.71875 C 84.035156 424.632812 84.820312 423.105469 84.953125 421.417969 C 85.082031 419.730469 84.539062 418.097656 83.421875 416.824219 C 82.363281 415.621094 80.898438 414.882812 79.289062 414.738281 C 77.675781 414.597656 76.101562 415.066406 74.851562 416.0625 C 73.527344 417.121094 72.703125 418.628906 72.535156 420.3125 C 72.363281 421.996094 72.867188 423.640625 73.957031 424.9375 C 74.21875 425.253906 74.179688 425.726562 73.863281 425.992188 C 73.542969 426.257812 73.074219 426.214844 72.808594 425.898438 C 72.804688 425.898438 72.804688 425.894531 72.804688 425.894531 Z M 72.804688 425.894531 " fill-opacity="1" fill-rule="nonzero"/></g></g></g><g clip-path="url(#dbfada6ec7)"><g clip-path="url(#94bd39d896)"><g clip-path="url(#76582bf863)"><path fill="#bca893" d="M 312.515625 423.597656 C 312.6875 421.96875 313.480469 420.507812 314.757812 419.472656 C 316.035156 418.445312 317.632812 417.972656 319.265625 418.144531 C 319.972656 418.21875 320.648438 418.410156 321.269531 418.707031 C 321.105469 418.011719 321.0625 417.289062 321.144531 416.558594 C 321.339844 414.902344 322.175781 413.429688 323.5 412.410156 C 324.746094 411.449219 326.304688 411.011719 327.886719 411.179688 C 329.46875 411.347656 330.902344 412.101562 331.921875 413.304688 C 333 414.574219 333.507812 416.191406 333.351562 417.851562 C 333.199219 419.511719 332.398438 421 331.101562 422.050781 L 331.089844 422.058594 C 330.933594 422.1875 330.835938 422.367188 330.8125 422.566406 C 330.8125 422.566406 330.8125 422.566406 330.8125 422.570312 C 330.792969 422.769531 330.847656 422.96875 330.976562 423.121094 L 339.332031 433.457031 C 339.453125 433.609375 339.632812 433.707031 339.828125 433.726562 C 340.023438 433.746094 340.214844 433.691406 340.367188 433.566406 C 340.394531 433.542969 340.417969 433.523438 340.445312 433.5 C 341.683594 432.519531 343.242188 432.0625 344.828125 432.214844 C 346.417969 432.363281 347.863281 433.105469 348.894531 434.300781 C 349.992188 435.574219 350.515625 437.191406 350.367188 438.863281 C 350.214844 440.539062 349.414062 442.035156 348.109375 443.089844 C 346.214844 444.625 343.667969 444.839844 341.601562 443.855469 C 341.761719 444.527344 341.808594 445.230469 341.734375 445.9375 C 341.5625 447.566406 340.765625 449.03125 339.488281 450.0625 C 338.1875 451.113281 336.558594 451.585938 334.898438 451.386719 C 333.242188 451.1875 331.769531 450.347656 330.75 449.015625 C 329.796875 447.769531 329.367188 446.21875 329.53125 444.644531 C 329.535156 444.632812 329.535156 444.621094 329.535156 444.605469 C 329.714844 443.019531 330.480469 441.589844 331.699219 440.574219 L 331.742188 440.539062 C 332.085938 440.257812 332.140625 439.75 331.867188 439.410156 L 323.582031 429.160156 C 323.304688 428.820312 322.796875 428.765625 322.453125 429.042969 L 322.40625 429.082031 C 321.160156 430.058594 319.597656 430.507812 318.011719 430.351562 C 316.421875 430.191406 314.980469 429.441406 313.953125 428.238281 C 312.867188 426.96875 312.351562 425.347656 312.503906 423.683594 C 312.507812 423.65625 312.511719 423.628906 312.515625 423.597656 Z M 322.464844 421.132812 C 321.632812 420.105469 320.453125 419.464844 319.140625 419.324219 C 317.824219 419.1875 316.535156 419.566406 315.503906 420.398438 C 314.457031 421.246094 313.8125 422.453125 313.6875 423.792969 C 313.5625 425.136719 313.980469 426.441406 314.855469 427.46875 C 315.683594 428.4375 316.84375 429.039062 318.128906 429.167969 C 319.410156 429.296875 320.667969 428.933594 321.671875 428.144531 L 321.707031 428.117188 C 322.566406 427.433594 323.820312 427.566406 324.503906 428.414062 L 332.789062 438.660156 C 333.476562 439.511719 333.34375 440.765625 332.496094 441.457031 L 332.457031 441.488281 C 331.480469 442.300781 330.863281 443.457031 330.71875 444.738281 C 330.71875 444.75 330.714844 444.757812 330.714844 444.769531 C 330.582031 446.039062 330.929688 447.289062 331.695312 448.292969 C 332.515625 449.367188 333.703125 450.046875 335.042969 450.203125 C 336.378906 450.363281 337.695312 449.988281 338.742188 449.140625 C 339.769531 448.308594 340.414062 447.125 340.554688 445.808594 C 340.691406 444.496094 340.3125 443.203125 339.480469 442.175781 C 339.273438 441.921875 339.3125 441.546875 339.570312 441.339844 C 339.695312 441.238281 339.851562 441.195312 340.003906 441.210938 C 340.15625 441.226562 340.300781 441.300781 340.402344 441.429688 C 342.121094 443.550781 345.242188 443.882812 347.367188 442.164062 C 348.417969 441.316406 349.0625 440.105469 349.183594 438.757812 C 349.304688 437.410156 348.882812 436.101562 347.996094 435.078125 C 347.164062 434.113281 346 433.515625 344.71875 433.394531 C 343.4375 433.273438 342.179688 433.640625 341.183594 434.433594 C 341.160156 434.449219 341.140625 434.464844 341.117188 434.484375 C 340.71875 434.808594 340.21875 434.960938 339.707031 434.90625 C 339.191406 434.855469 338.730469 434.605469 338.40625 434.203125 L 330.050781 423.867188 C 329.726562 423.464844 329.578125 422.960938 329.632812 422.441406 C 329.6875 421.921875 329.941406 421.460938 330.34375 421.132812 L 330.355469 421.125 C 331.398438 420.28125 332.046875 419.078125 332.171875 417.738281 C 332.296875 416.398438 331.886719 415.097656 331.015625 414.070312 C 330.195312 413.101562 329.039062 412.496094 327.761719 412.359375 C 326.484375 412.226562 325.226562 412.578125 324.222656 413.351562 C 323.15625 414.175781 322.480469 415.363281 322.324219 416.695312 C 322.167969 418.03125 322.546875 419.34375 323.390625 420.386719 C 323.597656 420.644531 323.558594 421.019531 323.304688 421.222656 C 323.046875 421.429688 322.675781 421.390625 322.46875 421.136719 C 322.46875 421.136719 322.464844 421.132812 322.464844 421.132812 Z M 322.464844 421.132812 " fill-opacity="1" fill-rule="nonzero"/></g></g></g><g clip-path="url(#57e38edd94)"><g clip-path="url(#bc0d2639fa)"><g clip-path="url(#6745f41ff8)"><path fill="#715c50" d="M 256.207031 447.246094 C 255.289062 445.886719 254.957031 444.257812 255.265625 442.644531 C 255.578125 441.035156 256.496094 439.640625 257.855469 438.722656 C 258.441406 438.324219 259.082031 438.035156 259.75 437.863281 C 259.175781 437.4375 258.675781 436.910156 258.273438 436.296875 C 257.355469 434.90625 257.042969 433.242188 257.398438 431.613281 C 257.734375 430.074219 258.644531 428.734375 259.960938 427.84375 C 261.277344 426.953125 262.859375 426.605469 264.414062 426.867188 C 266.058594 427.144531 267.488281 428.054688 268.4375 429.421875 C 269.390625 430.792969 269.738281 432.449219 269.421875 434.085938 L 269.417969 434.101562 C 269.378906 434.296875 269.421875 434.5 269.535156 434.667969 C 269.648438 434.835938 269.820312 434.949219 270.015625 434.988281 L 283.066406 437.507812 C 283.257812 437.542969 283.457031 437.503906 283.617188 437.390625 C 283.78125 437.28125 283.890625 437.113281 283.925781 436.921875 C 283.933594 436.886719 283.9375 436.855469 283.945312 436.820312 C 284.261719 435.273438 285.15625 433.921875 286.46875 433.011719 C 287.78125 432.105469 289.359375 431.742188 290.921875 431.992188 C 292.582031 432.253906 294.023438 433.15625 294.984375 434.53125 C 295.949219 435.90625 296.304688 437.570312 295.984375 439.214844 C 295.523438 441.613281 293.714844 443.414062 291.5 443.996094 C 292.054688 444.402344 292.542969 444.910156 292.941406 445.5 C 293.859375 446.859375 294.195312 448.492188 293.882812 450.101562 C 293.566406 451.742188 292.625 453.152344 291.226562 454.070312 C 289.832031 454.988281 288.160156 455.292969 286.527344 454.929688 C 284.996094 454.59375 283.667969 453.683594 282.78125 452.375 C 282.773438 452.363281 282.765625 452.351562 282.757812 452.339844 C 281.871094 451.011719 281.535156 449.425781 281.816406 447.867188 L 281.824219 447.808594 C 281.90625 447.375 281.621094 446.949219 281.191406 446.867188 L 268.253906 444.367188 C 267.820312 444.285156 267.398438 444.570312 267.3125 445.007812 L 267.300781 445.0625 C 266.980469 446.613281 266.078125 447.960938 264.761719 448.867188 C 263.445312 449.769531 261.859375 450.125 260.296875 449.867188 C 258.648438 449.59375 257.210938 448.6875 256.257812 447.316406 C 256.238281 447.292969 256.222656 447.269531 256.207031 447.246094 Z M 262.226562 438.945312 C 260.929688 438.699219 259.613281 438.96875 258.519531 439.707031 C 257.425781 440.449219 256.683594 441.570312 256.433594 442.871094 C 256.179688 444.195312 256.460938 445.53125 257.230469 446.636719 C 258 447.742188 259.160156 448.472656 260.488281 448.695312 C 261.746094 448.902344 263.023438 448.613281 264.085938 447.886719 C 265.152344 447.15625 265.878906 446.070312 266.140625 444.820312 L 266.148438 444.773438 C 266.363281 443.699219 267.40625 442.996094 268.476562 443.203125 L 281.417969 445.699219 C 282.488281 445.90625 283.195312 446.949219 282.992188 448.027344 L 282.984375 448.074219 C 282.761719 449.328125 283.03125 450.609375 283.746094 451.679688 C 283.753906 451.691406 283.757812 451.699219 283.765625 451.707031 C 284.480469 452.765625 285.550781 453.496094 286.785156 453.769531 C 288.101562 454.0625 289.449219 453.816406 290.574219 453.074219 C 291.699219 452.335938 292.460938 451.199219 292.71875 449.875 C 292.96875 448.578125 292.699219 447.261719 291.957031 446.164062 C 291.21875 445.070312 290.09375 444.328125 288.796875 444.078125 C 288.472656 444.015625 288.261719 443.703125 288.324219 443.382812 C 288.355469 443.21875 288.449219 443.085938 288.574219 443 C 288.703125 442.917969 288.859375 442.878906 289.019531 442.910156 C 291.699219 443.429688 294.300781 441.667969 294.820312 438.988281 C 295.074219 437.660156 294.789062 436.320312 294.011719 435.210938 C 293.238281 434.101562 292.074219 433.375 290.734375 433.160156 C 289.476562 432.960938 288.203125 433.253906 287.144531 433.988281 C 286.085938 434.71875 285.363281 435.8125 285.109375 437.058594 C 285.101562 437.085938 285.097656 437.113281 285.09375 437.136719 C 284.996094 437.644531 284.710938 438.082031 284.285156 438.371094 C 283.859375 438.664062 283.34375 438.769531 282.839844 438.671875 L 269.792969 436.152344 C 269.285156 436.054688 268.84375 435.761719 268.550781 435.332031 C 268.550781 435.332031 268.550781 435.332031 268.550781 435.328125 C 268.261719 434.898438 268.15625 434.382812 268.253906 433.871094 L 268.257812 433.859375 C 268.511719 432.539062 268.230469 431.203125 267.464844 430.097656 C 266.699219 428.996094 265.546875 428.261719 264.21875 428.039062 C 262.964844 427.828125 261.691406 428.109375 260.625 428.828125 C 259.5625 429.546875 258.828125 430.625 258.558594 431.867188 C 258.273438 433.179688 258.523438 434.523438 259.261719 435.644531 C 260.003906 436.765625 261.136719 437.527344 262.457031 437.78125 C 262.78125 437.84375 262.992188 438.15625 262.929688 438.476562 C 262.867188 438.800781 262.554688 439.011719 262.230469 438.949219 C 262.230469 438.949219 262.230469 438.945312 262.226562 438.945312 Z M 262.226562 438.945312 " fill-opacity="1" fill-rule="nonzero"/></g></g></g><g clip-path="url(#57bcb2535f)"><g clip-path="url(#359bafa4bb)"><g clip-path="url(#d5ae574022)"><path fill="#bca893" d="M 557.507812 434.703125 C 556.847656 433.148438 556.832031 431.4375 557.464844 429.871094 C 558.097656 428.304688 559.300781 427.082031 560.851562 426.421875 C 561.523438 426.132812 562.230469 425.96875 562.9375 425.925781 C 562.441406 425.382812 562.039062 424.753906 561.75 424.054688 C 561.101562 422.464844 561.117188 420.722656 561.796875 419.148438 C 562.4375 417.660156 563.621094 416.484375 565.125 415.847656 C 566.632812 415.207031 568.296875 415.167969 569.816406 415.742188 C 571.425781 416.34375 572.6875 417.542969 573.378906 419.113281 C 574.070312 420.6875 574.09375 422.425781 573.449219 424.019531 L 573.445312 424.03125 C 573.367188 424.222656 573.371094 424.4375 573.449219 424.628906 C 573.449219 424.628906 573.449219 424.628906 573.453125 424.628906 C 573.53125 424.820312 573.683594 424.96875 573.875 425.046875 L 586.554688 430.164062 C 586.746094 430.242188 586.949219 430.238281 587.136719 430.160156 C 587.324219 430.078125 587.46875 429.933594 587.542969 429.742188 C 587.554688 429.710938 587.566406 429.679688 587.582031 429.648438 C 588.207031 428.144531 589.378906 426.957031 590.878906 426.296875 C 592.382812 425.636719 594.050781 425.582031 595.578125 426.144531 C 597.203125 426.738281 598.484375 427.933594 599.183594 429.511719 C 599.886719 431.09375 599.914062 432.839844 599.269531 434.441406 C 598.328125 436.769531 596.148438 438.234375 593.792969 438.382812 C 594.273438 438.90625 594.667969 439.515625 594.953125 440.1875 C 594.953125 440.1875 594.953125 440.1875 594.957031 440.1875 C 595.613281 441.742188 595.628906 443.457031 595 445.023438 C 594.355469 446.617188 593.125 447.855469 591.53125 448.503906 C 589.941406 449.15625 588.195312 449.136719 586.617188 448.449219 C 585.136719 447.804688 583.972656 446.625 583.335938 445.125 C 583.328125 445.113281 583.324219 445.101562 583.320312 445.089844 C 582.6875 443.570312 582.660156 441.902344 583.25 440.382812 L 583.269531 440.324219 C 583.441406 439.902344 583.234375 439.417969 582.816406 439.25 L 570.242188 434.171875 C 569.824219 434.003906 569.339844 434.210938 569.167969 434.632812 L 569.144531 434.6875 C 568.511719 436.1875 567.332031 437.375 565.828125 438.027344 C 564.316406 438.679688 562.648438 438.722656 561.121094 438.15625 C 559.507812 437.554688 558.238281 436.355469 557.542969 434.785156 C 557.53125 434.757812 557.519531 434.730469 557.507812 434.703125 Z M 565.226562 427.507812 C 563.964844 427 562.582031 427.015625 561.332031 427.546875 C 560.078125 428.078125 559.109375 429.066406 558.597656 430.328125 C 558.078125 431.613281 558.101562 433.023438 558.660156 434.289062 C 559.21875 435.558594 560.246094 436.527344 561.546875 437.011719 C 562.777344 437.46875 564.121094 437.429688 565.339844 436.90625 C 566.558594 436.378906 567.507812 435.421875 568.015625 434.214844 L 568.035156 434.167969 C 568.464844 433.125 569.65625 432.617188 570.699219 433.039062 L 583.273438 438.113281 C 584.316406 438.535156 584.824219 439.730469 584.40625 440.777344 L 584.390625 440.824219 C 583.914062 442.042969 583.9375 443.390625 584.449219 444.617188 C 584.453125 444.625 584.457031 444.636719 584.460938 444.648438 C 584.976562 445.855469 585.914062 446.804688 587.105469 447.328125 C 588.378906 447.878906 589.789062 447.898438 591.070312 447.371094 C 592.351562 446.847656 593.347656 445.851562 593.863281 444.5625 C 594.375 443.300781 594.363281 441.917969 593.828125 440.664062 C 593.296875 439.410156 592.308594 438.441406 591.046875 437.933594 C 590.734375 437.804688 590.582031 437.449219 590.710938 437.136719 C 590.773438 436.980469 590.894531 436.863281 591.039062 436.800781 C 591.183594 436.742188 591.347656 436.734375 591.503906 436.796875 C 594.109375 437.851562 597.085938 436.585938 598.136719 433.980469 C 598.65625 432.691406 598.628906 431.277344 598.066406 430.003906 C 597.503906 428.734375 596.46875 427.769531 595.160156 427.289062 C 593.929688 426.839844 592.585938 426.882812 591.371094 427.414062 C 590.15625 427.945312 589.210938 428.90625 588.707031 430.117188 C 588.699219 430.140625 588.6875 430.167969 588.675781 430.191406 C 588.480469 430.683594 588.105469 431.070312 587.617188 431.28125 C 587.128906 431.488281 586.589844 431.496094 586.097656 431.296875 L 573.417969 426.175781 C 572.921875 425.976562 572.535156 425.597656 572.328125 425.105469 C 572.328125 425.105469 572.328125 425.105469 572.328125 425.101562 C 572.117188 424.609375 572.113281 424.066406 572.3125 423.570312 L 572.316406 423.558594 C 572.835938 422.277344 572.816406 420.871094 572.257812 419.605469 C 571.703125 418.335938 570.683594 417.371094 569.386719 416.882812 C 568.164062 416.421875 566.820312 416.453125 565.605469 416.972656 C 564.386719 417.488281 563.433594 418.433594 562.917969 419.632812 C 562.367188 420.90625 562.355469 422.308594 562.882812 423.589844 C 563.40625 424.867188 564.402344 425.859375 565.6875 426.375 C 566 426.503906 566.152344 426.859375 566.027344 427.171875 C 565.898438 427.484375 565.542969 427.636719 565.230469 427.511719 C 565.226562 427.511719 565.226562 427.507812 565.226562 427.507812 Z M 565.226562 427.507812 " fill-opacity="1" fill-rule="nonzero"/></g></g></g><g clip-path="url(#f8c1873a9e)"><g clip-path="url(#540634be47)"><g clip-path="url(#2a511469ee)"><path fill="#715c50" d="M 523.558594 417.402344 C 525.238281 417.558594 526.753906 418.359375 527.832031 419.660156 C 528.910156 420.957031 529.417969 422.597656 529.261719 424.277344 C 529.195312 425.003906 529.003906 425.703125 528.707031 426.347656 C 529.417969 426.167969 530.164062 426.113281 530.917969 426.191406 C 532.625 426.371094 534.152344 427.210938 535.214844 428.558594 C 536.222656 429.828125 536.691406 431.429688 536.542969 433.058594 C 536.390625 434.6875 535.632812 436.171875 534.410156 437.238281 C 533.113281 438.363281 531.457031 438.910156 529.75 438.769531 C 528.035156 438.632812 526.492188 437.828125 525.398438 436.507812 L 525.386719 436.496094 C 525.257812 436.335938 525.070312 436.238281 524.859375 436.21875 C 524.652344 436.199219 524.449219 436.261719 524.292969 436.390625 L 513.769531 445.125 C 513.613281 445.257812 513.515625 445.4375 513.496094 445.640625 C 513.480469 445.84375 513.542969 446.039062 513.671875 446.195312 C 513.695312 446.21875 513.714844 446.246094 513.738281 446.273438 C 514.761719 447.535156 515.253906 449.132812 515.121094 450.769531 C 514.988281 452.402344 514.242188 453.898438 513.027344 454.976562 C 511.734375 456.125 510.074219 456.683594 508.351562 456.550781 C 506.628906 456.417969 505.074219 455.617188 503.972656 454.289062 C 502.367188 452.355469 502.113281 449.742188 503.101562 447.597656 C 502.410156 447.773438 501.6875 447.832031 500.960938 447.761719 C 499.28125 447.605469 497.761719 446.804688 496.683594 445.507812 C 495.585938 444.183594 495.082031 442.515625 495.261719 440.804688 C 495.445312 439.09375 496.292969 437.566406 497.644531 436.503906 C 498.917969 435.503906 500.507812 435.042969 502.128906 435.191406 C 502.140625 435.191406 502.15625 435.195312 502.167969 435.195312 C 503.804688 435.359375 505.285156 436.128906 506.34375 437.367188 L 506.382812 437.414062 C 506.675781 437.761719 507.199219 437.8125 507.546875 437.523438 L 517.984375 428.863281 C 518.332031 428.574219 518.378906 428.054688 518.085938 427.699219 L 518.050781 427.652344 C 517.027344 426.386719 516.542969 424.785156 516.683594 423.148438 C 516.828125 421.511719 517.578125 420.019531 518.804688 418.945312 C 520.097656 417.808594 521.757812 417.261719 523.46875 417.394531 C 523.5 417.398438 523.53125 417.402344 523.558594 417.402344 Z M 526.226562 427.609375 C 527.273438 426.742188 527.917969 425.519531 528.042969 424.164062 C 528.167969 422.808594 527.761719 421.488281 526.890625 420.4375 C 526.003906 419.371094 524.753906 418.722656 523.375 418.613281 C 521.992188 418.503906 520.652344 418.949219 519.609375 419.863281 C 518.625 420.726562 518.019531 421.933594 517.902344 423.253906 C 517.789062 424.574219 518.179688 425.863281 519 426.886719 L 519.03125 426.921875 C 519.746094 427.796875 519.625 429.085938 518.761719 429.804688 L 508.328125 438.464844 C 507.464844 439.183594 506.171875 439.0625 505.449219 438.199219 L 505.414062 438.160156 C 504.5625 437.164062 503.367188 436.542969 502.046875 436.414062 C 502.035156 436.410156 502.027344 436.410156 502.015625 436.410156 C 500.707031 436.289062 499.425781 436.664062 498.402344 437.464844 C 497.308594 438.324219 496.625 439.554688 496.480469 440.933594 C 496.332031 442.3125 496.738281 443.660156 497.625 444.726562 C 498.496094 445.773438 499.71875 446.421875 501.074219 446.546875 C 502.429688 446.671875 503.753906 446.261719 504.800781 445.394531 C 505.058594 445.179688 505.445312 445.214844 505.660156 445.476562 C 505.769531 445.605469 505.8125 445.765625 505.800781 445.921875 C 505.785156 446.078125 505.710938 446.226562 505.582031 446.335938 C 503.417969 448.128906 503.121094 451.347656 504.914062 453.507812 C 505.804688 454.578125 507.058594 455.226562 508.445312 455.335938 C 509.835938 455.441406 511.171875 454.988281 512.21875 454.0625 C 513.199219 453.195312 513.796875 451.988281 513.902344 450.667969 C 514.011719 449.347656 513.617188 448.0625 512.789062 447.042969 C 512.773438 447.023438 512.753906 447 512.738281 446.980469 C 512.398438 446.574219 512.234375 446.058594 512.28125 445.53125 C 512.332031 445.003906 512.582031 444.523438 512.988281 444.1875 L 523.511719 435.453125 C 523.921875 435.113281 524.441406 434.953125 524.976562 435.003906 C 525.507812 435.050781 525.992188 435.304688 526.332031 435.71875 L 526.339844 435.726562 C 527.222656 436.792969 528.46875 437.441406 529.847656 437.550781 C 531.226562 437.664062 532.5625 437.226562 533.605469 436.316406 C 534.59375 435.457031 535.203125 434.261719 535.324219 432.945312 C 535.445312 431.628906 535.066406 430.339844 534.257812 429.316406 C 533.398438 428.230469 532.164062 427.550781 530.789062 427.40625 C 529.414062 427.265625 528.070312 427.671875 527.003906 428.554688 C 526.746094 428.769531 526.359375 428.734375 526.144531 428.472656 C 525.929688 428.214844 525.964844 427.828125 526.226562 427.613281 C 526.226562 427.613281 526.226562 427.609375 526.226562 427.609375 Z M 526.226562 427.609375 " fill-opacity="1" fill-rule="nonzero"/></g></g></g><g clip-path="url(#f62a43a1b5)"><g clip-path="url(#5b1ad4db2f)"><g clip-path="url(#ec51517f1d)"><path fill="#715c50" d="M 374.570312 464.015625 C 372.925781 463.648438 371.523438 462.664062 370.613281 461.238281 C 369.707031 459.816406 369.410156 458.125 369.777344 456.476562 C 369.9375 455.765625 370.210938 455.097656 370.585938 454.492188 C 369.859375 454.582031 369.113281 454.542969 368.375 454.371094 C 366.703125 453.976562 365.296875 452.953125 364.410156 451.480469 C 363.570312 450.09375 363.304688 448.449219 363.660156 446.851562 C 364.011719 445.253906 364.953125 443.878906 366.300781 442.976562 C 367.726562 442.019531 369.4375 441.6875 371.113281 442.039062 C 372.796875 442.390625 374.226562 443.382812 375.148438 444.832031 L 375.15625 444.84375 C 375.265625 445.019531 375.4375 445.140625 375.644531 445.183594 C 375.847656 445.230469 376.054688 445.195312 376.230469 445.082031 L 387.765625 437.738281 C 387.9375 437.632812 388.054688 437.460938 388.101562 437.265625 C 388.144531 437.066406 388.105469 436.863281 387.996094 436.691406 C 387.976562 436.664062 387.960938 436.636719 387.941406 436.605469 C 387.082031 435.222656 386.796875 433.578125 387.132812 431.972656 C 387.472656 430.367188 388.398438 428.976562 389.738281 428.058594 C 391.167969 427.085938 392.886719 426.738281 394.574219 427.085938 C 396.269531 427.433594 397.710938 428.425781 398.636719 429.882812 C 399.984375 432 399.910156 434.625 398.660156 436.628906 C 399.367188 436.539062 400.089844 436.574219 400.804688 436.734375 C 402.453125 437.097656 403.859375 438.085938 404.765625 439.507812 C 405.6875 440.960938 405.976562 442.679688 405.582031 444.351562 C 405.1875 446.027344 404.15625 447.433594 402.679688 448.320312 C 401.292969 449.148438 399.65625 449.410156 398.066406 449.058594 C 398.054688 449.054688 398.039062 449.050781 398.027344 449.050781 C 396.425781 448.683594 395.050781 447.730469 394.15625 446.371094 L 394.125 446.320312 C 393.878906 445.9375 393.367188 445.820312 392.984375 446.0625 L 381.542969 453.34375 C 381.160156 453.585938 381.050781 454.097656 381.292969 454.484375 L 381.324219 454.539062 C 382.179688 455.921875 382.457031 457.570312 382.113281 459.175781 C 381.765625 460.785156 380.832031 462.171875 379.484375 463.082031 C 378.054688 464.042969 376.339844 464.382812 374.660156 464.03125 C 374.628906 464.027344 374.601562 464.019531 374.570312 464.015625 Z M 373.207031 453.550781 C 372.058594 454.285156 371.265625 455.417969 370.972656 456.742188 C 370.675781 458.074219 370.917969 459.4375 371.648438 460.585938 C 372.390625 461.753906 373.550781 462.554688 374.90625 462.835938 C 376.265625 463.117188 377.648438 462.847656 378.796875 462.070312 C 379.886719 461.335938 380.636719 460.21875 380.917969 458.921875 C 381.195312 457.625 380.972656 456.296875 380.285156 455.179688 L 380.257812 455.136719 C 379.65625 454.183594 379.941406 452.917969 380.886719 452.3125 L 392.328125 445.03125 C 393.273438 444.429688 394.542969 444.710938 395.152344 445.65625 L 395.179688 445.699219 C 395.898438 446.792969 397.007812 447.5625 398.300781 447.855469 C 398.3125 447.859375 398.320312 447.863281 398.332031 447.863281 C 399.613281 448.148438 400.933594 447.9375 402.050781 447.269531 C 403.242188 446.554688 404.074219 445.417969 404.390625 444.070312 C 404.710938 442.722656 404.476562 441.332031 403.730469 440.164062 C 403 439.015625 401.867188 438.222656 400.539062 437.925781 C 399.210938 437.628906 397.84375 437.871094 396.699219 438.601562 C 396.414062 438.78125 396.035156 438.699219 395.855469 438.414062 C 395.761719 438.269531 395.738281 438.105469 395.773438 437.953125 C 395.804688 437.800781 395.898438 437.660156 396.042969 437.570312 C 398.410156 436.0625 399.113281 432.90625 397.605469 430.535156 C 396.855469 429.363281 395.691406 428.5625 394.328125 428.28125 C 392.964844 428 391.578125 428.28125 390.429688 429.066406 C 389.347656 429.808594 388.601562 430.929688 388.328125 432.222656 C 388.054688 433.519531 388.285156 434.847656 388.976562 435.960938 C 388.992188 435.984375 389.007812 436.007812 389.023438 436.03125 C 389.308594 436.476562 389.40625 437.007812 389.292969 437.523438 C 389.179688 438.042969 388.867188 438.484375 388.421875 438.769531 L 376.882812 446.113281 C 376.433594 446.398438 375.898438 446.492188 375.378906 446.375 C 375.375 446.375 375.375 446.375 375.375 446.375 C 374.851562 446.261719 374.40625 445.945312 374.121094 445.496094 L 374.113281 445.484375 C 373.371094 444.320312 372.214844 443.519531 370.863281 443.234375 C 369.507812 442.949219 368.128906 443.21875 366.980469 443.988281 C 365.894531 444.71875 365.136719 445.828125 364.851562 447.117188 C 364.566406 448.40625 364.777344 449.734375 365.453125 450.851562 C 366.171875 452.039062 367.308594 452.863281 368.652344 453.179688 C 370 453.496094 371.386719 453.261719 372.550781 452.519531 C 372.835938 452.335938 373.214844 452.421875 373.398438 452.707031 C 373.578125 452.992188 373.492188 453.367188 373.210938 453.550781 C 373.207031 453.550781 373.207031 453.550781 373.207031 453.550781 Z M 373.207031 453.550781 " fill-opacity="1" fill-rule="nonzero"/></g></g></g><g clip-path="url(#9849b412ba)"><g clip-path="url(#c5d12b0ded)"><g clip-path="url(#a63b394ffb)"><path fill="#bca893" d="M 423.863281 429.210938 C 424.046875 427.15625 425.019531 425.296875 426.605469 423.96875 C 428.1875 422.644531 430.191406 422.015625 432.25 422.199219 C 433.140625 422.277344 433.996094 422.503906 434.785156 422.867188 C 434.5625 421.996094 434.492188 421.082031 434.585938 420.160156 C 434.796875 418.074219 435.816406 416.203125 437.460938 414.890625 C 439.007812 413.65625 440.964844 413.070312 442.957031 413.25 C 444.953125 413.425781 446.773438 414.347656 448.082031 415.839844 C 449.46875 417.417969 450.140625 419.441406 449.980469 421.53125 C 449.820312 423.628906 448.84375 425.519531 447.230469 426.867188 L 447.21875 426.878906 C 447.023438 427.042969 446.902344 427.273438 446.882812 427.527344 C 446.859375 427.78125 446.933594 428.027344 447.097656 428.222656 L 457.835938 441.058594 C 457.996094 441.246094 458.21875 441.363281 458.464844 441.386719 C 458.710938 441.40625 458.953125 441.332031 459.140625 441.171875 C 459.175781 441.144531 459.207031 441.117188 459.238281 441.089844 C 460.777344 439.828125 462.730469 439.21875 464.730469 439.375 C 466.734375 439.53125 468.566406 440.433594 469.894531 441.917969 C 471.304688 443.496094 471.996094 445.523438 471.84375 447.628906 C 471.6875 449.742188 470.710938 451.644531 469.09375 453 C 466.734375 454.972656 463.539062 455.296875 460.910156 454.097656 C 461.128906 454.941406 461.203125 455.824219 461.121094 456.714844 C 461.121094 456.714844 461.121094 456.714844 461.121094 456.71875 C 460.941406 458.773438 459.96875 460.636719 458.382812 461.960938 C 456.769531 463.3125 454.726562 463.9375 452.632812 463.722656 C 450.542969 463.507812 448.667969 462.476562 447.359375 460.824219 C 446.132812 459.277344 445.558594 457.332031 445.734375 455.347656 C 445.734375 455.332031 445.738281 455.316406 445.738281 455.300781 C 445.929688 453.296875 446.867188 451.480469 448.375 450.179688 L 448.433594 450.132812 C 448.859375 449.769531 448.917969 449.132812 448.5625 448.707031 L 437.914062 435.976562 C 437.5625 435.554688 436.921875 435.5 436.492188 435.855469 L 436.433594 435.902344 C 434.886719 437.15625 432.929688 437.757812 430.929688 437.59375 C 428.925781 437.429688 427.09375 436.515625 425.773438 435.019531 C 424.378906 433.441406 423.699219 431.417969 423.855469 429.316406 C 423.859375 429.28125 423.863281 429.246094 423.863281 429.210938 Z M 436.339844 425.894531 C 435.273438 424.621094 433.773438 423.835938 432.117188 423.691406 C 430.457031 423.542969 428.839844 424.050781 427.5625 425.117188 C 426.261719 426.207031 425.472656 427.738281 425.347656 429.429688 C 425.21875 431.121094 425.769531 432.757812 426.894531 434.03125 C 427.957031 435.234375 429.433594 435.96875 431.050781 436.101562 C 432.667969 436.234375 434.242188 435.753906 435.488281 434.742188 L 435.535156 434.703125 C 436.597656 433.824219 438.179688 433.964844 439.0625 435.019531 L 449.710938 447.746094 C 450.589844 448.800781 450.449219 450.382812 449.398438 451.269531 L 449.351562 451.3125 C 448.136719 452.359375 447.382812 453.824219 447.230469 455.441406 C 447.226562 455.453125 447.226562 455.46875 447.226562 455.480469 C 447.082031 457.082031 447.546875 458.648438 448.535156 459.898438 C 449.589844 461.230469 451.101562 462.058594 452.789062 462.230469 C 454.476562 462.40625 456.121094 461.902344 457.425781 460.8125 C 458.703125 459.742188 459.484375 458.242188 459.632812 456.582031 C 459.78125 454.921875 459.273438 453.308594 458.207031 452.03125 C 457.941406 451.714844 457.984375 451.242188 458.300781 450.976562 C 458.457031 450.84375 458.65625 450.789062 458.847656 450.804688 C 459.035156 450.820312 459.222656 450.910156 459.351562 451.070312 C 461.558594 453.707031 465.496094 454.054688 468.132812 451.851562 C 469.441406 450.757812 470.226562 449.21875 470.351562 447.519531 C 470.476562 445.820312 469.917969 444.183594 468.78125 442.910156 C 467.710938 441.714844 466.234375 440.988281 464.617188 440.863281 C 463 440.738281 461.425781 441.230469 460.1875 442.246094 C 460.160156 442.265625 460.132812 442.289062 460.109375 442.308594 C 459.613281 442.726562 458.984375 442.929688 458.335938 442.871094 C 457.691406 442.816406 457.105469 442.511719 456.6875 442.015625 L 445.953125 429.179688 C 445.53125 428.679688 445.335938 428.042969 445.394531 427.394531 C 445.394531 427.390625 445.394531 427.390625 445.394531 427.390625 C 445.453125 426.738281 445.761719 426.148438 446.261719 425.730469 L 446.273438 425.71875 C 447.570312 424.632812 448.359375 423.105469 448.492188 421.417969 C 448.621094 419.730469 448.078125 418.097656 446.957031 416.824219 C 445.902344 415.621094 444.4375 414.882812 442.824219 414.738281 C 441.214844 414.597656 439.640625 415.066406 438.390625 416.0625 C 437.0625 417.121094 436.242188 418.628906 436.070312 420.3125 C 435.902344 421.996094 436.40625 423.640625 437.492188 424.9375 C 437.757812 425.253906 437.714844 425.726562 437.398438 425.992188 C 437.082031 426.257812 436.609375 426.214844 436.34375 425.898438 C 436.34375 425.898438 436.34375 425.894531 436.339844 425.894531 Z M 436.339844 425.894531 " fill-opacity="1" fill-rule="nonzero"/></g></g></g><g clip-path="url(#71c05de2f5)"><g clip-path="url(#4398edbff1)"><g clip-path="url(#3d13089bbd)"><path fill="#bca893" d="M 676.050781 423.597656 C 676.222656 421.96875 677.019531 420.507812 678.296875 419.472656 C 679.570312 418.445312 681.171875 417.972656 682.804688 418.144531 C 683.507812 418.21875 684.183594 418.410156 684.808594 418.707031 C 684.640625 418.011719 684.597656 417.289062 684.683594 416.558594 C 684.878906 414.902344 685.714844 413.429688 687.039062 412.410156 C 688.285156 411.449219 689.84375 411.011719 691.425781 411.179688 C 693.007812 411.347656 694.4375 412.101562 695.457031 413.304688 C 696.539062 414.574219 697.046875 416.191406 696.890625 417.851562 C 696.734375 419.511719 695.933594 421 694.636719 422.050781 L 694.625 422.058594 C 694.46875 422.1875 694.371094 422.367188 694.351562 422.566406 C 694.351562 422.566406 694.351562 422.566406 694.351562 422.570312 C 694.328125 422.769531 694.386719 422.96875 694.511719 423.121094 L 702.867188 433.457031 C 702.992188 433.609375 703.167969 433.707031 703.367188 433.726562 C 703.5625 433.746094 703.753906 433.691406 703.90625 433.566406 C 703.929688 433.542969 703.957031 433.523438 703.984375 433.5 C 705.222656 432.519531 706.78125 432.0625 708.367188 432.214844 C 709.957031 432.363281 711.398438 433.105469 712.433594 434.300781 C 713.53125 435.574219 714.054688 437.191406 713.902344 438.863281 C 713.753906 440.539062 712.953125 442.035156 711.648438 443.089844 C 709.75 444.625 707.207031 444.839844 705.136719 443.855469 C 705.300781 444.527344 705.347656 445.230469 705.273438 445.9375 C 705.273438 445.9375 705.273438 445.9375 705.269531 445.9375 C 705.097656 447.566406 704.300781 449.03125 703.027344 450.0625 C 701.726562 451.113281 700.097656 451.585938 698.4375 451.386719 C 696.78125 451.1875 695.304688 450.347656 694.289062 449.015625 C 693.335938 447.769531 692.902344 446.21875 693.070312 444.644531 C 693.070312 444.632812 693.074219 444.621094 693.074219 444.605469 C 693.253906 443.019531 694.019531 441.589844 695.238281 440.574219 L 695.28125 440.539062 C 695.625 440.257812 695.679688 439.75 695.402344 439.410156 L 687.117188 429.160156 C 686.84375 428.820312 686.335938 428.765625 685.988281 429.042969 L 685.941406 429.082031 C 684.699219 430.058594 683.136719 430.507812 681.550781 430.351562 C 679.960938 430.191406 678.519531 429.441406 677.492188 428.238281 C 676.402344 426.96875 675.890625 425.347656 676.042969 423.683594 C 676.046875 423.65625 676.050781 423.628906 676.050781 423.597656 Z M 686.003906 421.132812 C 685.171875 420.105469 683.992188 419.464844 682.675781 419.324219 C 681.363281 419.1875 680.070312 419.566406 679.042969 420.398438 C 677.996094 421.246094 677.347656 422.453125 677.226562 423.792969 C 677.101562 425.136719 677.515625 426.441406 678.394531 427.46875 C 679.222656 428.4375 680.382812 429.039062 681.664062 429.167969 C 682.949219 429.296875 684.207031 428.933594 685.207031 428.144531 L 685.246094 428.117188 C 686.101562 427.433594 687.355469 427.566406 688.042969 428.414062 L 696.328125 438.660156 C 697.015625 439.511719 696.882812 440.765625 696.035156 441.457031 L 695.996094 441.488281 C 695.019531 442.300781 694.398438 443.457031 694.257812 444.738281 C 694.253906 444.75 694.253906 444.757812 694.253906 444.769531 C 694.117188 446.039062 694.464844 447.289062 695.234375 448.292969 C 696.054688 449.367188 697.242188 450.046875 698.578125 450.203125 C 699.917969 450.363281 701.230469 449.988281 702.28125 449.140625 C 703.308594 448.308594 703.953125 447.125 704.089844 445.808594 C 704.230469 444.496094 703.847656 443.203125 703.019531 442.175781 C 702.8125 441.921875 702.851562 441.546875 703.105469 441.339844 C 703.234375 441.238281 703.390625 441.195312 703.542969 441.210938 C 703.695312 441.226562 703.839844 441.300781 703.941406 441.429688 C 705.65625 443.550781 708.78125 443.882812 710.902344 442.164062 C 711.957031 441.316406 712.597656 440.105469 712.722656 438.757812 C 712.84375 437.410156 712.421875 436.101562 711.535156 435.078125 C 710.703125 434.113281 709.539062 433.515625 708.257812 433.394531 C 706.976562 433.273438 705.71875 433.640625 704.71875 434.433594 C 704.699219 434.449219 704.679688 434.464844 704.65625 434.484375 C 704.257812 434.808594 703.753906 434.960938 703.242188 434.90625 C 702.730469 434.855469 702.269531 434.605469 701.945312 434.203125 L 693.589844 423.867188 C 693.265625 423.464844 693.117188 422.960938 693.171875 422.441406 C 693.226562 421.921875 693.480469 421.460938 693.882812 421.132812 L 693.890625 421.125 C 694.9375 420.28125 695.582031 419.078125 695.710938 417.738281 C 695.835938 416.398438 695.425781 415.097656 694.554688 414.070312 C 693.730469 413.101562 692.578125 412.496094 691.300781 412.359375 C 690.023438 412.226562 688.765625 412.578125 687.761719 413.351562 C 686.695312 414.175781 686.019531 415.363281 685.863281 416.695312 C 685.707031 418.03125 686.085938 419.34375 686.929688 420.386719 C 687.136719 420.644531 687.097656 421.019531 686.839844 421.222656 C 686.585938 421.429688 686.210938 421.390625 686.007812 421.136719 C 686.003906 421.136719 686.003906 421.132812 686.003906 421.132812 Z M 686.003906 421.132812 " fill-opacity="1" fill-rule="nonzero"/></g></g></g><g clip-path="url(#50986f16cc)"><g clip-path="url(#d359b17cf5)"><g clip-path="url(#d8bcddf758)"><path fill="#715c50" d="M 619.746094 447.246094 C 618.828125 445.886719 618.492188 444.257812 618.804688 442.644531 C 619.117188 441.035156 620.035156 439.640625 621.394531 438.722656 C 621.980469 438.324219 622.621094 438.035156 623.289062 437.863281 C 622.714844 437.4375 622.214844 436.910156 621.808594 436.296875 C 620.890625 434.90625 620.582031 433.242188 620.9375 431.613281 C 621.273438 430.074219 622.183594 428.734375 623.5 427.84375 C 624.816406 426.953125 626.398438 426.605469 627.953125 426.867188 C 629.597656 427.144531 631.027344 428.054688 631.976562 429.421875 C 632.929688 430.792969 633.277344 432.449219 632.960938 434.085938 L 632.957031 434.101562 C 632.917969 434.296875 632.960938 434.5 633.074219 434.667969 C 633.1875 434.835938 633.359375 434.949219 633.554688 434.988281 L 646.601562 437.507812 C 646.796875 437.542969 646.992188 437.503906 647.15625 437.390625 C 647.320312 437.28125 647.429688 437.113281 647.464844 436.921875 C 647.472656 436.886719 647.476562 436.855469 647.484375 436.820312 C 647.800781 435.273438 648.695312 433.921875 650.007812 433.011719 C 651.316406 432.105469 652.898438 431.742188 654.460938 431.992188 C 656.117188 432.253906 657.5625 433.15625 658.523438 434.53125 C 659.488281 435.90625 659.839844 437.570312 659.523438 439.214844 C 659.0625 441.613281 657.253906 443.414062 655.035156 443.996094 C 655.59375 444.402344 656.082031 444.910156 656.480469 445.5 C 657.398438 446.859375 657.734375 448.492188 657.421875 450.101562 C 657.105469 451.742188 656.160156 453.152344 654.765625 454.070312 C 653.367188 454.988281 651.699219 455.292969 650.066406 454.929688 C 648.535156 454.59375 647.203125 453.683594 646.316406 452.375 C 646.3125 452.363281 646.304688 452.351562 646.296875 452.339844 C 645.410156 451.011719 645.074219 449.425781 645.351562 447.867188 L 645.363281 447.808594 C 645.445312 447.375 645.160156 446.949219 644.730469 446.867188 L 631.789062 444.367188 C 631.359375 444.285156 630.9375 444.570312 630.851562 445.007812 L 630.839844 445.0625 C 630.515625 446.613281 629.613281 447.960938 628.296875 448.867188 C 626.980469 449.769531 625.394531 450.125 623.835938 449.867188 C 622.183594 449.59375 620.75 448.6875 619.792969 447.316406 C 619.777344 447.292969 619.761719 447.269531 619.746094 447.246094 Z M 625.765625 438.945312 C 624.46875 438.699219 623.152344 438.96875 622.058594 439.707031 C 620.960938 440.449219 620.222656 441.570312 619.972656 442.871094 C 619.714844 444.195312 620 445.53125 620.769531 446.636719 C 621.539062 447.742188 622.695312 448.472656 624.027344 448.695312 C 625.285156 448.902344 626.5625 448.613281 627.625 447.886719 C 628.6875 447.15625 629.417969 446.070312 629.675781 444.820312 L 629.6875 444.773438 C 629.898438 443.699219 630.945312 442.996094 632.015625 443.203125 L 644.953125 445.699219 C 646.027344 445.90625 646.730469 446.949219 646.53125 448.027344 L 646.519531 448.074219 C 646.296875 449.328125 646.570312 450.609375 647.285156 451.679688 C 647.289062 451.691406 647.296875 451.699219 647.300781 451.707031 C 648.019531 452.765625 649.089844 453.496094 650.324219 453.769531 C 651.640625 454.0625 652.988281 453.816406 654.113281 453.074219 C 655.238281 452.335938 656 451.199219 656.253906 449.875 C 656.507812 448.578125 656.238281 447.261719 655.496094 446.164062 C 654.753906 445.070312 653.632812 444.328125 652.332031 444.078125 C 652.011719 444.015625 651.800781 443.703125 651.863281 443.382812 C 651.894531 443.21875 651.988281 443.085938 652.113281 443 C 652.238281 442.917969 652.398438 442.878906 652.558594 442.910156 C 655.238281 443.429688 657.839844 441.667969 658.355469 438.988281 C 658.613281 437.660156 658.324219 436.320312 657.550781 435.210938 C 656.773438 434.101562 655.609375 433.375 654.273438 433.160156 C 653.015625 432.960938 651.738281 433.253906 650.683594 433.988281 C 649.625 434.71875 648.902344 435.8125 648.648438 437.058594 C 648.640625 437.085938 648.636719 437.113281 648.628906 437.136719 C 648.535156 437.644531 648.25 438.082031 647.824219 438.371094 C 647.398438 438.664062 646.882812 438.769531 646.375 438.671875 L 633.328125 436.152344 C 632.820312 436.054688 632.382812 435.761719 632.089844 435.332031 C 632.089844 435.332031 632.089844 435.332031 632.089844 435.328125 C 631.796875 434.898438 631.691406 434.382812 631.792969 433.871094 L 631.792969 433.859375 C 632.046875 432.539062 631.765625 431.203125 631 430.097656 C 630.234375 428.996094 629.082031 428.261719 627.753906 428.039062 C 626.503906 427.828125 625.226562 428.109375 624.164062 428.828125 C 623.101562 429.546875 622.367188 430.625 622.097656 431.867188 C 621.8125 433.179688 622.0625 434.523438 622.800781 435.644531 C 623.539062 436.765625 624.675781 437.527344 625.996094 437.78125 C 626.316406 437.84375 626.527344 438.15625 626.464844 438.476562 C 626.402344 438.800781 626.09375 439.011719 625.769531 438.949219 C 625.769531 438.949219 625.765625 438.945312 625.765625 438.945312 Z M 625.765625 438.945312 " fill-opacity="1" fill-rule="nonzero"/></g></g></g><g clip-path="url(#8c85f51bd2)"><g clip-path="url(#02911e11d1)"><g clip-path="url(#89748bccc8)"><path fill="#bca893" d="M 921.046875 434.703125 C 920.386719 433.148438 920.371094 431.4375 921.003906 429.871094 C 921.632812 428.304688 922.835938 427.082031 924.390625 426.421875 C 925.0625 426.132812 925.765625 425.96875 926.476562 425.925781 C 925.980469 425.382812 925.578125 424.753906 925.289062 424.054688 C 924.636719 422.464844 924.652344 420.722656 925.332031 419.148438 C 925.976562 417.660156 927.15625 416.484375 928.664062 415.847656 C 930.171875 415.207031 931.835938 415.167969 933.355469 415.742188 C 934.960938 416.34375 936.226562 417.542969 936.914062 419.113281 C 937.605469 420.6875 937.632812 422.425781 936.988281 424.019531 L 936.984375 424.03125 C 936.90625 424.222656 936.90625 424.4375 936.988281 424.628906 C 937.070312 424.820312 937.21875 424.96875 937.410156 425.046875 L 950.09375 430.164062 C 950.28125 430.242188 950.488281 430.238281 950.675781 430.160156 C 950.859375 430.078125 951.003906 429.933594 951.078125 429.742188 C 951.09375 429.710938 951.105469 429.679688 951.117188 429.648438 C 951.742188 428.144531 952.914062 426.957031 954.417969 426.296875 C 955.921875 425.636719 957.589844 425.582031 959.117188 426.144531 C 960.742188 426.738281 962.023438 427.933594 962.722656 429.511719 C 963.421875 431.09375 963.453125 432.839844 962.808594 434.441406 C 961.867188 436.769531 959.6875 438.234375 957.332031 438.382812 C 957.8125 438.90625 958.207031 439.515625 958.492188 440.1875 C 959.152344 441.742188 959.167969 443.457031 958.535156 445.023438 C 957.894531 446.617188 956.664062 447.855469 955.070312 448.503906 C 953.480469 449.15625 951.734375 449.136719 950.152344 448.449219 C 948.671875 447.804688 947.507812 446.625 946.875 445.125 C 946.867188 445.113281 946.863281 445.101562 946.855469 445.089844 C 946.222656 443.570312 946.199219 441.902344 946.785156 440.382812 L 946.808594 440.324219 C 946.976562 439.902344 946.773438 439.417969 946.355469 439.25 L 933.78125 434.171875 C 933.359375 434.003906 932.878906 434.210938 932.707031 434.632812 L 932.683594 434.6875 C 932.050781 436.1875 930.871094 437.375 929.363281 438.027344 C 927.855469 438.679688 926.183594 438.722656 924.660156 438.15625 C 923.046875 437.554688 921.773438 436.355469 921.082031 434.785156 C 921.066406 434.757812 921.058594 434.730469 921.046875 434.703125 Z M 928.761719 427.507812 C 927.503906 427 926.121094 427.015625 924.867188 427.546875 C 923.617188 428.078125 922.644531 429.066406 922.136719 430.328125 C 921.617188 431.613281 921.640625 433.023438 922.199219 434.289062 C 922.757812 435.558594 923.785156 436.527344 925.085938 437.011719 C 926.3125 437.46875 927.660156 437.429688 928.878906 436.90625 C 930.09375 436.378906 931.046875 435.421875 931.554688 434.214844 L 931.574219 434.167969 C 932 433.125 933.195312 432.617188 934.238281 433.039062 L 946.8125 438.113281 C 947.855469 438.535156 948.359375 439.730469 947.945312 440.777344 L 947.925781 440.824219 C 947.453125 442.042969 947.476562 443.390625 947.984375 444.617188 C 947.992188 444.625 947.996094 444.636719 948 444.648438 C 948.511719 445.855469 949.449219 446.804688 950.644531 447.328125 C 951.917969 447.878906 953.324219 447.898438 954.609375 447.371094 C 955.890625 446.847656 956.882812 445.851562 957.402344 444.5625 C 957.914062 443.300781 957.898438 441.917969 957.367188 440.664062 C 956.835938 439.410156 955.847656 438.441406 954.585938 437.933594 C 954.273438 437.804688 954.121094 437.449219 954.25 437.136719 C 954.3125 436.980469 954.429688 436.863281 954.574219 436.800781 C 954.71875 436.742188 954.886719 436.734375 955.042969 436.796875 C 957.648438 437.851562 960.621094 436.585938 961.675781 433.980469 C 962.195312 432.691406 962.167969 431.277344 961.605469 430.003906 C 961.039062 428.734375 960.007812 427.769531 958.699219 427.289062 C 957.46875 426.839844 956.121094 426.882812 954.910156 427.414062 C 953.695312 427.945312 952.75 428.90625 952.246094 430.117188 C 952.234375 430.140625 952.226562 430.167969 952.214844 430.191406 C 952.019531 430.683594 951.640625 431.070312 951.15625 431.28125 C 950.667969 431.488281 950.128906 431.496094 949.636719 431.296875 L 936.953125 426.175781 C 936.460938 425.976562 936.074219 425.597656 935.863281 425.105469 C 935.863281 425.105469 935.863281 425.105469 935.863281 425.101562 C 935.65625 424.609375 935.652344 424.066406 935.851562 423.570312 L 935.855469 423.558594 C 936.375 422.277344 936.351562 420.871094 935.796875 419.605469 C 935.242188 418.335938 934.222656 417.371094 932.925781 416.882812 C 931.699219 416.421875 930.359375 416.453125 929.140625 416.972656 C 927.925781 417.488281 926.972656 418.433594 926.453125 419.632812 C 925.90625 420.90625 925.894531 422.308594 926.417969 423.589844 C 926.945312 424.867188 927.941406 425.859375 929.226562 426.375 C 929.539062 426.503906 929.691406 426.859375 929.5625 427.171875 C 929.4375 427.484375 929.082031 427.636719 928.765625 427.511719 C 928.765625 427.511719 928.765625 427.507812 928.761719 427.507812 Z M 928.761719 427.507812 " fill-opacity="1" fill-rule="nonzero"/></g></g></g><g clip-path="url(#1f8c1833c4)"><g clip-path="url(#b88b9045b1)"><g clip-path="url(#bc4a934687)"><path fill="#715c50" d="M 887.097656 417.402344 C 888.777344 417.558594 890.292969 418.359375 891.371094 419.660156 C 892.449219 420.957031 892.957031 422.597656 892.800781 424.277344 C 892.730469 425.003906 892.542969 425.703125 892.246094 426.347656 C 892.957031 426.167969 893.703125 426.113281 894.457031 426.191406 C 896.164062 426.371094 897.6875 427.210938 898.753906 428.558594 C 899.757812 429.828125 900.230469 431.429688 900.078125 433.058594 C 899.925781 434.6875 899.171875 436.171875 897.945312 437.238281 C 896.652344 438.363281 894.996094 438.910156 893.285156 438.769531 C 891.574219 438.632812 890.03125 437.828125 888.933594 436.507812 L 888.925781 436.496094 C 888.792969 436.335938 888.605469 436.238281 888.398438 436.21875 C 888.191406 436.199219 887.988281 436.261719 887.832031 436.390625 L 877.304688 445.125 C 877.148438 445.257812 877.054688 445.4375 877.035156 445.640625 C 877.019531 445.84375 877.078125 446.039062 877.210938 446.195312 C 877.230469 446.21875 877.253906 446.246094 877.277344 446.273438 C 878.300781 447.535156 878.792969 449.132812 878.660156 450.769531 C 878.527344 452.402344 877.78125 453.898438 876.5625 454.976562 C 875.269531 456.125 873.609375 456.683594 871.890625 456.550781 C 870.164062 456.417969 868.613281 455.617188 867.507812 454.289062 C 865.90625 452.355469 865.652344 449.742188 866.640625 447.597656 C 865.949219 447.773438 865.226562 447.832031 864.5 447.761719 C 864.5 447.761719 864.5 447.761719 864.496094 447.761719 C 862.816406 447.605469 861.300781 446.804688 860.222656 445.507812 C 859.125 444.183594 858.617188 442.515625 858.800781 440.804688 C 858.984375 439.09375 859.828125 437.566406 861.183594 436.503906 C 862.453125 435.503906 864.042969 435.042969 865.664062 435.191406 C 865.679688 435.191406 865.691406 435.195312 865.707031 435.195312 C 867.339844 435.359375 868.824219 436.128906 869.882812 437.367188 L 869.921875 437.414062 C 870.214844 437.761719 870.734375 437.8125 871.082031 437.523438 L 881.519531 428.863281 C 881.867188 428.574219 881.914062 428.054688 881.625 427.699219 L 881.585938 427.652344 C 880.566406 426.386719 880.082031 424.785156 880.222656 423.148438 C 880.363281 421.511719 881.117188 420.019531 882.339844 418.945312 C 883.636719 417.808594 885.292969 417.261719 887.007812 417.394531 C 887.039062 417.398438 887.066406 417.402344 887.097656 417.402344 Z M 889.765625 427.609375 C 890.8125 426.742188 891.457031 425.519531 891.582031 424.164062 C 891.707031 422.808594 891.296875 421.488281 890.429688 420.4375 C 889.542969 419.371094 888.292969 418.722656 886.910156 418.613281 C 885.527344 418.503906 884.191406 418.949219 883.148438 419.863281 C 882.160156 420.726562 881.554688 421.933594 881.441406 423.253906 C 881.328125 424.574219 881.714844 425.863281 882.539062 426.886719 L 882.570312 426.921875 C 883.285156 427.796875 883.164062 429.085938 882.300781 429.804688 L 871.867188 438.464844 C 871 439.183594 869.710938 439.0625 868.984375 438.199219 L 868.953125 438.160156 C 868.101562 437.164062 866.90625 436.542969 865.585938 436.414062 C 865.574219 436.410156 865.5625 436.410156 865.550781 436.410156 C 864.246094 436.289062 862.964844 436.664062 861.941406 437.464844 C 860.847656 438.324219 860.164062 439.554688 860.019531 440.933594 C 859.871094 442.3125 860.277344 443.660156 861.164062 444.726562 C 862.03125 445.773438 863.257812 446.421875 864.613281 446.546875 C 865.96875 446.671875 867.289062 446.261719 868.335938 445.394531 C 868.597656 445.179688 868.984375 445.214844 869.199219 445.476562 C 869.304688 445.605469 869.351562 445.765625 869.335938 445.921875 C 869.324219 446.078125 869.25 446.226562 869.117188 446.335938 C 866.957031 448.128906 866.65625 451.347656 868.453125 453.507812 C 869.339844 454.578125 870.597656 455.226562 871.984375 455.335938 C 873.371094 455.441406 874.710938 454.988281 875.753906 454.0625 C 876.734375 453.195312 877.335938 451.988281 877.441406 450.667969 C 877.550781 449.347656 877.152344 448.0625 876.328125 447.042969 C 876.3125 447.023438 876.292969 447 876.273438 446.980469 C 875.933594 446.574219 875.773438 446.058594 875.820312 445.53125 C 875.867188 445.003906 876.121094 444.523438 876.527344 444.1875 L 887.050781 435.453125 C 887.460938 435.113281 887.980469 434.953125 888.511719 435.003906 C 888.511719 435.003906 888.511719 435.003906 888.515625 435.003906 C 889.046875 435.050781 889.527344 435.304688 889.867188 435.71875 L 889.878906 435.726562 C 890.761719 436.792969 892.007812 437.441406 893.386719 437.550781 C 894.765625 437.664062 896.097656 437.226562 897.144531 436.316406 C 898.128906 435.457031 898.738281 434.261719 898.863281 432.945312 C 898.984375 431.628906 898.605469 430.339844 897.792969 429.316406 C 896.933594 428.230469 895.703125 427.550781 894.328125 427.40625 C 892.953125 427.265625 891.609375 427.671875 890.542969 428.554688 C 890.285156 428.769531 889.898438 428.734375 889.683594 428.472656 C 889.46875 428.214844 889.503906 427.828125 889.761719 427.613281 C 889.761719 427.613281 889.765625 427.609375 889.765625 427.609375 Z M 889.765625 427.609375 " fill-opacity="1" fill-rule="nonzero"/></g></g></g><g clip-path="url(#37b56ae14f)"><g clip-path="url(#10b4b34037)"><g clip-path="url(#99adfd553a)"><path fill="#715c50" d="M 738.109375 464.015625 C 736.464844 463.648438 735.058594 462.664062 734.152344 461.238281 C 733.246094 459.816406 732.949219 458.125 733.316406 456.476562 C 733.472656 455.765625 733.75 455.097656 734.125 454.492188 C 733.394531 454.582031 732.648438 454.542969 731.910156 454.371094 C 730.242188 453.976562 728.832031 452.953125 727.945312 451.480469 C 727.109375 450.09375 726.839844 448.449219 727.195312 446.851562 C 727.550781 445.253906 728.488281 443.878906 729.835938 442.976562 C 731.261719 442.019531 732.972656 441.6875 734.652344 442.039062 C 736.335938 442.390625 737.761719 443.382812 738.683594 444.832031 L 738.691406 444.84375 C 738.804688 445.019531 738.976562 445.140625 739.179688 445.183594 C 739.386719 445.230469 739.59375 445.195312 739.765625 445.082031 L 751.304688 437.738281 C 751.476562 437.632812 751.59375 437.460938 751.636719 437.265625 C 751.679688 437.066406 751.644531 436.863281 751.535156 436.691406 C 751.515625 436.664062 751.496094 436.636719 751.480469 436.605469 C 750.621094 435.222656 750.332031 433.578125 750.671875 431.972656 C 751.007812 430.367188 751.933594 428.976562 753.277344 428.058594 C 754.707031 427.085938 756.421875 426.738281 758.113281 427.085938 C 759.808594 427.433594 761.246094 428.425781 762.175781 429.882812 C 763.523438 432 763.449219 434.625 762.199219 436.628906 C 762.902344 436.539062 763.628906 436.574219 764.34375 436.734375 C 765.988281 437.097656 767.394531 438.085938 768.300781 439.507812 C 769.226562 440.960938 769.515625 442.679688 769.121094 444.351562 C 768.722656 446.027344 767.691406 447.433594 766.214844 448.320312 C 764.832031 449.148438 763.195312 449.410156 761.605469 449.058594 C 761.59375 449.054688 761.578125 449.050781 761.566406 449.050781 C 759.964844 448.683594 758.589844 447.730469 757.695312 446.371094 L 757.664062 446.320312 C 757.414062 445.9375 756.902344 445.820312 756.523438 446.0625 L 745.082031 453.34375 C 744.699219 453.585938 744.585938 454.097656 744.832031 454.484375 L 744.863281 454.539062 C 745.714844 455.921875 745.996094 457.570312 745.652344 459.175781 C 745.304688 460.785156 744.371094 462.171875 743.019531 463.082031 C 741.59375 464.042969 739.878906 464.382812 738.195312 464.03125 C 738.167969 464.027344 738.136719 464.019531 738.109375 464.015625 Z M 736.742188 453.550781 C 735.597656 454.285156 734.804688 455.417969 734.507812 456.742188 C 734.214844 458.074219 734.453125 459.4375 735.183594 460.585938 C 735.929688 461.753906 737.089844 462.554688 738.445312 462.835938 C 739.804688 463.117188 741.183594 462.847656 742.335938 462.070312 C 743.421875 461.335938 744.175781 460.21875 744.453125 458.921875 C 744.734375 457.625 744.507812 456.296875 743.820312 455.179688 L 743.796875 455.136719 C 743.195312 454.183594 743.476562 452.917969 744.425781 452.3125 L 755.867188 445.03125 C 756.8125 444.429688 758.078125 444.710938 758.6875 445.65625 L 758.714844 445.699219 C 759.4375 446.792969 760.542969 447.5625 761.835938 447.855469 C 761.847656 447.859375 761.859375 447.863281 761.871094 447.863281 C 763.152344 448.148438 764.472656 447.9375 765.585938 447.269531 C 766.777344 446.554688 767.613281 445.417969 767.929688 444.070312 C 768.25 442.722656 768.015625 441.332031 767.269531 440.164062 C 766.539062 439.015625 765.40625 438.222656 764.078125 437.925781 C 764.078125 437.925781 764.078125 437.925781 764.074219 437.925781 C 762.746094 437.628906 761.382812 437.871094 760.234375 438.601562 C 759.949219 438.78125 759.574219 438.699219 759.390625 438.414062 C 759.300781 438.269531 759.277344 438.105469 759.308594 437.953125 C 759.34375 437.800781 759.4375 437.660156 759.578125 437.570312 C 761.949219 436.0625 762.648438 432.90625 761.140625 430.535156 C 760.394531 429.363281 759.230469 428.5625 757.867188 428.28125 C 756.503906 428 755.117188 428.28125 753.964844 429.066406 C 752.882812 429.808594 752.136719 430.929688 751.867188 432.222656 C 751.59375 433.519531 751.824219 434.847656 752.515625 435.960938 C 752.53125 435.984375 752.546875 436.007812 752.558594 436.03125 C 752.847656 436.476562 752.941406 437.007812 752.828125 437.523438 C 752.714844 438.042969 752.40625 438.484375 751.957031 438.769531 L 740.421875 446.113281 C 739.972656 446.398438 739.4375 446.492188 738.914062 446.375 C 738.390625 446.261719 737.945312 445.945312 737.660156 445.496094 L 737.652344 445.484375 C 736.910156 444.320312 735.753906 443.519531 734.402344 443.234375 C 733.046875 442.949219 731.667969 443.21875 730.515625 443.988281 C 729.429688 444.71875 728.675781 445.828125 728.390625 447.117188 C 728.101562 448.40625 728.316406 449.734375 728.992188 450.851562 C 729.707031 452.039062 730.84375 452.863281 732.191406 453.179688 C 733.539062 453.496094 734.921875 453.261719 736.089844 452.519531 C 736.375 452.335938 736.753906 452.421875 736.933594 452.707031 C 737.117188 452.992188 737.03125 453.367188 736.746094 453.550781 C 736.746094 453.550781 736.742188 453.550781 736.742188 453.550781 Z M 736.742188 453.550781 " fill-opacity="1" fill-rule="nonzero"/></g></g></g><g clip-path="url(#0c53d310da)"><g clip-path="url(#2359199242)"><g clip-path="url(#cccc02c316)"><path fill="#bca893" d="M 787.402344 429.210938 C 787.585938 427.15625 788.554688 425.296875 790.140625 423.96875 C 791.726562 422.644531 793.730469 422.015625 795.789062 422.199219 C 796.675781 422.277344 797.53125 422.503906 798.324219 422.867188 C 798.101562 421.996094 798.03125 421.082031 798.121094 420.160156 C 798.332031 418.074219 799.355469 416.203125 800.996094 414.890625 C 802.546875 413.65625 804.5 413.070312 806.496094 413.25 C 808.492188 413.425781 810.308594 414.347656 811.621094 415.839844 C 813.003906 417.417969 813.679688 419.441406 813.519531 421.53125 C 813.355469 423.628906 812.382812 425.519531 810.769531 426.867188 L 810.757812 426.878906 C 810.5625 427.042969 810.441406 427.273438 810.417969 427.527344 C 810.394531 427.78125 810.472656 428.027344 810.632812 428.222656 L 821.371094 441.058594 C 821.53125 441.246094 821.757812 441.363281 822.003906 441.386719 C 822.25 441.40625 822.488281 441.332031 822.679688 441.171875 C 822.710938 441.144531 822.746094 441.117188 822.777344 441.089844 C 824.316406 439.828125 826.269531 439.21875 828.269531 439.375 C 830.273438 439.53125 832.105469 440.433594 833.429688 441.917969 C 834.839844 443.496094 835.535156 445.523438 835.378906 447.628906 C 835.226562 449.742188 834.25 451.644531 832.628906 453 C 830.273438 454.972656 827.074219 455.296875 824.449219 454.097656 C 824.667969 454.941406 824.738281 455.824219 824.660156 456.714844 C 824.660156 456.714844 824.660156 456.714844 824.660156 456.71875 C 824.476562 458.773438 823.503906 460.636719 821.921875 461.960938 C 820.308594 463.3125 818.265625 463.9375 816.171875 463.722656 C 814.078125 463.507812 812.207031 462.476562 810.898438 460.824219 C 809.671875 459.277344 809.097656 457.332031 809.273438 455.347656 C 809.273438 455.332031 809.273438 455.316406 809.277344 455.300781 C 809.46875 453.296875 810.402344 451.480469 811.914062 450.179688 L 811.96875 450.132812 C 812.394531 449.769531 812.453125 449.132812 812.101562 448.707031 L 801.453125 435.976562 C 801.097656 435.554688 800.457031 435.5 800.027344 435.855469 L 799.972656 435.902344 C 798.425781 437.15625 796.46875 437.757812 794.464844 437.59375 C 792.460938 437.429688 790.632812 436.515625 789.3125 435.019531 C 787.917969 433.441406 787.238281 431.417969 787.394531 429.320312 C 787.394531 429.28125 787.398438 429.246094 787.402344 429.210938 Z M 799.878906 425.894531 C 798.8125 424.621094 797.3125 423.835938 795.652344 423.691406 C 793.996094 423.542969 792.378906 424.050781 791.101562 425.117188 C 789.800781 426.207031 789.011719 427.738281 788.886719 429.429688 C 788.757812 431.121094 789.308594 432.757812 790.433594 434.03125 C 791.496094 435.234375 792.96875 435.96875 794.585938 436.101562 C 796.203125 436.234375 797.78125 435.753906 799.027344 434.742188 L 799.074219 434.703125 C 800.136719 433.824219 801.71875 433.964844 802.601562 435.019531 L 813.25 447.746094 C 814.128906 448.800781 813.988281 450.382812 812.9375 451.269531 L 812.890625 451.3125 C 811.675781 452.359375 810.921875 453.824219 810.765625 455.441406 C 810.765625 455.453125 810.765625 455.46875 810.761719 455.480469 C 810.621094 457.082031 811.085938 458.648438 812.074219 459.898438 C 813.128906 461.230469 814.640625 462.058594 816.324219 462.230469 C 818.015625 462.40625 819.660156 461.902344 820.960938 460.8125 C 822.238281 459.742188 823.023438 458.242188 823.171875 456.582031 C 823.320312 454.921875 822.8125 453.308594 821.746094 452.03125 C 821.480469 451.714844 821.519531 451.242188 821.839844 450.976562 C 821.996094 450.84375 822.195312 450.789062 822.382812 450.804688 C 822.574219 450.820312 822.757812 450.910156 822.890625 451.070312 C 825.097656 453.707031 829.035156 454.058594 831.671875 451.851562 C 832.980469 450.757812 833.765625 449.21875 833.890625 447.519531 C 834.011719 445.820312 833.453125 444.183594 832.316406 442.910156 C 831.25 441.714844 829.769531 440.988281 828.15625 440.863281 C 826.539062 440.738281 824.964844 441.230469 823.722656 442.246094 C 823.699219 442.265625 823.671875 442.289062 823.644531 442.308594 C 823.148438 442.726562 822.519531 442.929688 821.875 442.871094 C 821.226562 442.816406 820.644531 442.511719 820.226562 442.015625 L 809.488281 429.179688 C 809.070312 428.679688 808.875 428.042969 808.929688 427.394531 C 808.929688 427.390625 808.929688 427.390625 808.929688 427.390625 C 808.988281 426.738281 809.296875 426.148438 809.800781 425.730469 L 809.8125 425.71875 C 811.109375 424.632812 811.898438 423.105469 812.027344 421.417969 C 812.160156 419.730469 811.613281 418.097656 810.496094 416.824219 C 809.441406 415.621094 807.972656 414.882812 806.363281 414.738281 C 804.753906 414.597656 803.179688 415.066406 801.929688 416.0625 C 800.601562 417.121094 799.777344 418.628906 799.609375 420.3125 C 799.441406 421.996094 799.945312 423.640625 801.03125 424.9375 C 801.296875 425.253906 801.253906 425.726562 800.9375 425.992188 C 800.621094 426.257812 800.148438 426.214844 799.882812 425.898438 C 799.882812 425.898438 799.878906 425.894531 799.878906 425.894531 Z M 799.878906 425.894531 " fill-opacity="1" fill-rule="nonzero"/></g></g></g><g clip-path="url(#8d20124442)"><g clip-path="url(#ad2aa6ac6e)"><g clip-path="url(#b1abbae15f)"><path fill="#715c50" d="M 983.285156 447.246094 C 982.367188 445.886719 982.03125 444.257812 982.34375 442.644531 C 982.652344 441.035156 983.574219 439.640625 984.929688 438.722656 C 985.519531 438.324219 986.160156 438.035156 986.828125 437.863281 C 986.253906 437.4375 985.753906 436.910156 985.347656 436.296875 C 984.429688 434.90625 984.121094 433.242188 984.476562 431.613281 C 984.808594 430.074219 985.71875 428.734375 987.035156 427.84375 C 988.355469 426.953125 989.9375 426.605469 991.492188 426.867188 C 993.136719 427.144531 994.566406 428.054688 995.515625 429.421875 C 996.46875 430.792969 996.8125 432.449219 996.496094 434.085938 L 996.496094 434.101562 C 996.457031 434.296875 996.496094 434.5 996.613281 434.667969 C 996.726562 434.835938 996.894531 434.949219 997.09375 434.988281 L 1010.140625 437.507812 C 1010.335938 437.542969 1010.53125 437.503906 1010.695312 437.390625 C 1010.855469 437.28125 1010.964844 437.113281 1011.003906 436.921875 C 1011.007812 436.886719 1011.015625 436.855469 1011.023438 436.820312 C 1011.335938 435.273438 1012.234375 433.921875 1013.542969 433.011719 C 1014.855469 432.105469 1016.4375 431.742188 1017.996094 431.992188 C 1019.65625 432.253906 1021.101562 433.15625 1022.0625 434.53125 C 1023.023438 435.90625 1023.378906 437.570312 1023.0625 439.214844 C 1022.597656 441.613281 1020.792969 443.414062 1018.574219 443.996094 C 1019.128906 444.402344 1019.617188 444.910156 1020.015625 445.5 C 1020.015625 445.5 1020.015625 445.5 1020.019531 445.5 C 1020.9375 446.859375 1021.269531 448.492188 1020.960938 450.101562 C 1020.644531 451.742188 1019.699219 453.152344 1018.304688 454.070312 C 1016.90625 454.988281 1015.238281 455.292969 1013.605469 454.929688 C 1012.070312 454.59375 1010.742188 453.683594 1009.855469 452.375 C 1009.847656 452.363281 1009.839844 452.351562 1009.835938 452.339844 C 1008.949219 451.011719 1008.613281 449.425781 1008.890625 447.867188 L 1008.902344 447.808594 C 1008.984375 447.375 1008.699219 446.949219 1008.265625 446.867188 L 995.328125 444.367188 C 994.898438 444.285156 994.476562 444.570312 994.390625 445.007812 L 994.378906 445.0625 C 994.054688 446.613281 993.152344 447.960938 991.835938 448.867188 C 990.519531 449.769531 988.933594 450.125 987.375 449.867188 C 985.722656 449.59375 984.289062 448.6875 983.332031 447.316406 C 983.316406 447.292969 983.300781 447.269531 983.285156 447.246094 Z M 989.304688 438.945312 C 988.007812 438.699219 986.691406 438.96875 985.597656 439.707031 C 984.5 440.449219 983.761719 441.570312 983.507812 442.871094 C 983.253906 444.195312 983.535156 445.53125 984.308594 446.636719 C 985.078125 447.742188 986.234375 448.472656 987.566406 448.695312 C 988.824219 448.902344 990.101562 448.613281 991.164062 447.886719 C 992.226562 447.15625 992.953125 446.070312 993.214844 444.820312 L 993.222656 444.773438 C 993.4375 443.699219 994.484375 442.996094 995.554688 443.203125 L 1008.492188 445.699219 C 1009.5625 445.90625 1010.269531 446.949219 1010.066406 448.027344 L 1010.058594 448.074219 C 1009.835938 449.328125 1010.105469 450.609375 1010.824219 451.679688 C 1010.828125 451.691406 1010.835938 451.699219 1010.839844 451.707031 C 1011.554688 452.765625 1012.628906 453.496094 1013.859375 453.769531 C 1015.179688 454.0625 1016.527344 453.816406 1017.652344 453.074219 C 1018.777344 452.335938 1019.539062 451.199219 1019.792969 449.875 C 1020.042969 448.578125 1019.773438 447.261719 1019.035156 446.164062 C 1019.035156 446.164062 1019.035156 446.164062 1019.03125 446.164062 C 1018.292969 445.070312 1017.167969 444.328125 1015.871094 444.078125 C 1015.550781 444.015625 1015.339844 443.703125 1015.402344 443.382812 C 1015.433594 443.21875 1015.523438 443.085938 1015.652344 443 C 1015.777344 442.917969 1015.933594 442.878906 1016.097656 442.910156 C 1018.777344 443.429688 1021.378906 441.667969 1021.894531 438.988281 C 1022.152344 437.660156 1021.863281 436.320312 1021.089844 435.210938 C 1020.3125 434.101562 1019.148438 433.375 1017.808594 433.160156 C 1016.554688 432.960938 1015.277344 433.253906 1014.21875 433.988281 C 1013.164062 434.71875 1012.441406 435.8125 1012.183594 437.058594 C 1012.179688 437.085938 1012.171875 437.113281 1012.167969 437.136719 C 1012.074219 437.644531 1011.785156 438.082031 1011.359375 438.371094 C 1010.933594 438.664062 1010.421875 438.769531 1009.914062 438.671875 L 996.867188 436.152344 C 996.359375 436.054688 995.917969 435.761719 995.628906 435.332031 C 995.628906 435.332031 995.628906 435.332031 995.628906 435.328125 C 995.335938 434.898438 995.230469 434.382812 995.328125 433.871094 L 995.332031 433.859375 C 995.585938 432.539062 995.304688 431.203125 994.539062 430.097656 C 993.773438 428.996094 992.621094 428.261719 991.292969 428.039062 C 990.039062 427.828125 988.765625 428.109375 987.703125 428.828125 C 986.640625 429.546875 985.90625 430.625 985.636719 431.867188 C 985.347656 433.179688 985.597656 434.523438 986.339844 435.644531 C 987.078125 436.765625 988.214844 437.527344 989.535156 437.78125 C 989.855469 437.84375 990.066406 438.15625 990.003906 438.476562 C 989.941406 438.800781 989.628906 439.011719 989.308594 438.949219 C 989.308594 438.949219 989.304688 438.945312 989.304688 438.945312 Z M 989.304688 438.945312 " fill-opacity="1" fill-rule="nonzero"/></g></g></g></svg>