<svg xmlns="http://www.w3.org/2000/svg" xmlns:xlink="http://www.w3.org/1999/xlink" width="1366" zoomAndPan="magnify" viewBox="0 0 1024.5 576" height="768" preserveAspectRatio="xMidYMid meet" version="1.0"><defs><g/><clipPath id="dc7b421a9d"><path d="M 0 0.140625 L 1024 0.140625 L 1024 575.859375 L 0 575.859375 Z M 0 0.140625 " clip-rule="nonzero"/></clipPath><clipPath id="5f790cb6c5"><path d="M 364 56 L 661 56 L 661 183 L 364 183 Z M 364 56 " clip-rule="nonzero"/></clipPath><clipPath id="d3b4fb6d45"><path d="M 511.996094 -75.140625 L 707.128906 119.992188 L 511.996094 315.125 L 316.863281 119.992188 Z M 511.996094 -75.140625 " clip-rule="nonzero"/></clipPath><clipPath id="e522e20bde"><path d="M 511.996094 -75.140625 L 707.128906 119.992188 L 511.996094 315.125 L 316.863281 119.992188 Z M 511.996094 -75.140625 " clip-rule="nonzero"/></clipPath></defs><g clip-path="url(#dc7b421a9d)"><path fill="#ffffff" d="M 0 0.140625 L 1024 0.140625 L 1024 575.859375 L 0 575.859375 Z M 0 0.140625 " fill-opacity="1" fill-rule="nonzero"/><path fill="#f5f1ec" d="M 0 0.140625 L 1024 0.140625 L 1024 575.859375 L 0 575.859375 Z M 0 0.140625 " fill-opacity="1" fill-rule="nonzero"/></g><g clip-path="url(#5f790cb6c5)"><g clip-path="url(#d3b4fb6d45)"><g clip-path="url(#e522e20bde)"><path fill="#6f5d51" d="M 379.566406 120.285156 C 364.476562 131.554688 360.3125 150.644531 368.632812 164.980469 C 377.511719 180.300781 397.160156 183.039062 410.957031 178.765625 C 420.945312 175.679688 429.179688 168.507812 434.074219 159.097656 C 437.671875 152.207031 444.777344 147.855469 452.546875 147.855469 L 574.101562 147.855469 C 581.507812 147.855469 588.09375 152.28125 591.15625 159.011719 C 598.667969 175.488281 615.78125 185.003906 631.5625 182.082031 C 647.527344 179.132812 661.160156 163.648438 660.574219 146.421875 C 660.035156 130.957031 648.289062 121.355469 646.304688 119.792969 C 648.28125 118.21875 660.035156 108.628906 660.574219 93.164062 C 661.171875 75.925781 647.539062 60.441406 631.5625 57.5 C 615.789062 54.589844 598.667969 64.097656 591.15625 80.574219 C 588.09375 87.300781 581.496094 91.738281 574.101562 91.726562 L 452.546875 91.726562 C 444.777344 91.726562 437.664062 87.386719 434.074219 80.484375 C 429.179688 71.074219 420.945312 63.902344 410.957031 60.816406 C 397.160156 56.546875 377.523438 59.292969 368.632812 74.605469 C 360.3125 88.960938 364.488281 109.003906 379.566406 120.285156 Z M 379.566406 120.285156 " fill-opacity="1" fill-rule="nonzero"/></g></g></g><g fill="#ffffff" fill-opacity="1"><g transform="translate(411.130827, 132.108504)"><g><path d="M 1.710938 0 L 7.339844 0 C 8.214844 0 8.589844 -1.292969 7.882812 -1.792969 C 7.632812 -1.960938 7.382812 -2.125 7.171875 -2.25 C 6.503906 -2.667969 6.046875 -3.378906 6.089844 -4.085938 L 6.753906 -23.1875 L 15.097656 -1.167969 C 15.386719 -0.457031 16.054688 0 16.804688 0 L 18.765625 0 C 19.515625 0 20.140625 -0.457031 20.433594 -1.167969 L 28.230469 -23.0625 L 29.191406 -4.085938 C 29.148438 -3.335938 28.734375 -2.628906 28.023438 -2.292969 C 27.730469 -2.125 27.441406 -1.960938 27.191406 -1.792969 C 26.523438 -1.292969 26.898438 0 27.730469 0 L 40.617188 0 C 41.492188 0 41.910156 -1.292969 41.203125 -1.792969 C 40.953125 -1.960938 40.699219 -2.125 40.449219 -2.25 C 39.824219 -2.667969 39.410156 -3.378906 39.410156 -4.085938 L 38.324219 -26.273438 C 38.367188 -26.941406 38.78125 -27.605469 39.367188 -27.980469 C 39.617188 -28.105469 39.867188 -28.273438 40.117188 -28.441406 C 40.828125 -28.941406 40.410156 -30.234375 39.535156 -30.234375 L 29.441406 -30.234375 C 28.691406 -30.234375 28.023438 -29.773438 27.730469 -29.066406 L 21.726562 -12.761719 L 15.136719 -29.066406 C 14.847656 -29.773438 14.179688 -30.234375 13.429688 -30.234375 L 2.542969 -30.234375 C 1.710938 -30.234375 1.335938 -28.941406 2.042969 -28.441406 C 2.25 -28.273438 2.542969 -28.105469 2.878906 -27.941406 C 3.460938 -27.648438 3.878906 -27.105469 3.960938 -26.480469 L 3.167969 -4.085938 C 3.167969 -3.335938 2.710938 -2.628906 2.042969 -2.292969 C 1.710938 -2.125 1.417969 -1.960938 1.210938 -1.792969 C 0.5 -1.292969 0.875 0 1.710938 0 Z M 1.710938 0 "/></g></g></g><g fill="#ffffff" fill-opacity="1"><g transform="translate(450.992051, 132.108504)"><g><path d="M 0.417969 -17.765625 C 0.707031 -17.554688 1.042969 -17.390625 1.417969 -17.222656 C 1.960938 -16.929688 2.503906 -16.429688 2.878906 -15.847656 C 7.171875 -6.796875 13.71875 5.878906 10.257812 7.214844 C 10.132812 7.257812 9.964844 7.296875 9.839844 7.296875 C 9.007812 7.382812 7.546875 6.089844 7.757812 3.667969 C 7.921875 1.960938 5.964844 0.875 4.046875 0.875 C 2.460938 0.875 0.875 1.625 0.5 3.335938 C -0.292969 6.839844 2.917969 9.800781 7.882812 9.714844 C 13.511719 9.632812 15.097656 6.546875 17.722656 0.542969 L 24.894531 -15.722656 C 25.1875 -16.304688 25.773438 -16.890625 26.398438 -17.265625 C 26.648438 -17.390625 26.898438 -17.554688 27.191406 -17.765625 C 27.898438 -18.222656 27.480469 -19.515625 26.605469 -19.515625 L 21.269531 -19.515625 C 20.390625 -19.515625 20.015625 -18.222656 20.726562 -17.765625 C 20.933594 -17.597656 21.144531 -17.472656 21.394531 -17.304688 C 22.058594 -16.890625 22.269531 -16.222656 22.019531 -15.554688 L 21.769531 -15.011719 L 21.808594 -15.011719 L 17.390625 -4.753906 C 16.847656 -7.046875 14.886719 -11.507812 13.09375 -15.722656 C 12.925781 -16.347656 13.179688 -16.929688 13.761719 -17.304688 C 14.011719 -17.472656 14.21875 -17.597656 14.429688 -17.765625 C 15.097656 -18.222656 14.722656 -19.515625 13.886719 -19.515625 L 1 -19.515625 C 0.125 -19.515625 -0.292969 -18.222656 0.417969 -17.765625 Z M 10.09375 7.257812 C 10.007812 7.296875 9.925781 7.296875 9.839844 7.296875 C 9.925781 7.296875 10.007812 7.296875 10.09375 7.257812 Z M 10.09375 7.257812 "/></g></g></g><g fill="#ffffff" fill-opacity="1"><g transform="translate(476.342979, 132.108504)"><g/></g></g><g fill="#ffffff" fill-opacity="1"><g transform="translate(488.434501, 132.108504)"><g><path d="M 1.460938 -15.097656 C 1.792969 -6.003906 7.464844 0.542969 18.097656 0.542969 C 26.898438 0.542969 32.277344 -3.292969 33.152344 -10.675781 C 33.320312 -12.050781 33.070312 -13.34375 31.820312 -13.429688 C 30.402344 -13.511719 30.066406 -12.136719 29.898438 -10.96875 C 29.148438 -6.128906 25.855469 -3.210938 21.644531 -3.210938 C 15.097656 -3.210938 12.636719 -8.550781 11.925781 -14.386719 C 11.007812 -22.101562 11.84375 -27.648438 16.265625 -28.191406 C 19.308594 -28.566406 22.144531 -27.441406 21.769531 -22.3125 C 21.476562 -18.347656 24.355469 -16.515625 27.941406 -16.804688 C 32.277344 -17.140625 32.945312 -21.308594 31.984375 -23.8125 C 30.402344 -28.105469 25.4375 -30.777344 17.847656 -30.777344 C 7.214844 -30.777344 1.167969 -24.605469 1.460938 -15.097656 Z M 1.460938 -15.097656 "/></g></g></g><g fill="#ffffff" fill-opacity="1"><g transform="translate(520.08156, 132.108504)"><g><path d="M 0.5 -9.757812 C 0.5 -3.042969 5.046875 0.582031 11.96875 0.582031 C 18.933594 0.582031 23.476562 -2.710938 23.476562 -9.757812 C 23.476562 -16.804688 18.933594 -20.101562 11.96875 -20.101562 C 5.046875 -20.101562 0.5 -16.472656 0.5 -9.757812 Z M 10.632812 -17.683594 C 12.550781 -18.015625 13.136719 -16.222656 14.179688 -10.132812 C 15.179688 -4.046875 15.179688 -2.125 13.304688 -1.792969 C 11.425781 -1.460938 10.800781 -3.292969 9.800781 -9.382812 C 8.757812 -15.472656 8.757812 -17.347656 10.632812 -17.683594 Z M 10.632812 -17.683594 "/></g></g></g><g fill="#ffffff" fill-opacity="1"><g transform="translate(542.38867, 132.108504)"><g><path d="M 0.5 -9.757812 C 0.582031 -3.042969 4.835938 1.085938 10.84375 0.582031 C 12.675781 0.417969 14.21875 -0.125 15.511719 -0.917969 C 16.597656 0.0429688 18.265625 0.5 20.183594 0.542969 C 26.5625 0.625 27.191406 -2.585938 26.1875 -2.835938 C 25.648438 -2.960938 25.144531 -2.210938 24.519531 -2.292969 C 23.769531 -2.378906 23.519531 -3.128906 23.519531 -4.421875 C 23.519531 -6.089844 23.5625 -22.351562 23.5625 -25.230469 L 23.5625 -26.980469 C 23.5625 -30.566406 22.351562 -31.152344 19.140625 -31.152344 C 16.804688 -31.152344 14.011719 -30.609375 12.386719 -29.648438 C 11.550781 -29.191406 11.800781 -27.773438 12.71875 -27.691406 C 13.84375 -27.648438 14.179688 -27.648438 14.179688 -26.3125 L 14.179688 -19.265625 C 13.261719 -19.683594 12.21875 -19.976562 11.050781 -20.101562 C 4.753906 -20.640625 0.375 -16.390625 0.5 -9.757812 Z M 10.675781 -17.722656 C 12.550781 -18.058594 13.136719 -16.640625 14.179688 -10.550781 C 15.179688 -4.460938 15.222656 -2.542969 13.304688 -2.210938 C 11.425781 -1.875 10.800781 -3.710938 9.800781 -9.800781 C 8.757812 -15.886719 8.800781 -17.390625 10.675781 -17.722656 Z M 10.675781 -17.722656 "/></g></g></g><g fill="#ffffff" fill-opacity="1"><g transform="translate(567.07245, 132.108504)"><g><path d="M 0.5 -9.757812 C 0.667969 -3.042969 5.046875 0.582031 11.96875 0.582031 C 17.933594 0.582031 22.058594 -1.5 23.144531 -6.628906 C 23.3125 -7.589844 23.0625 -8.132812 22.226562 -8.257812 C 21.433594 -8.339844 20.933594 -7.921875 20.726562 -7.007812 C 20.140625 -4.378906 18.140625 -2.960938 15.511719 -2.960938 C 13.09375 -3.003906 11.21875 -4.210938 10.050781 -7.257812 C 10.59375 -7.171875 11.257812 -7.132812 11.96875 -7.132812 C 16.554688 -7.132812 23.476562 -9.175781 22.6875 -13.929688 C 22.101562 -17.304688 18.390625 -20.101562 12.550781 -20.101562 C 5.628906 -20.101562 0.332031 -16.515625 0.5 -9.757812 Z M 11.382812 -17.683594 C 13.761719 -18.183594 15.804688 -14.722656 14.886719 -11.59375 C 14.304688 -9.464844 11.34375 -9.175781 9.464844 -9.339844 C 8.507812 -13.679688 9.507812 -17.304688 11.382812 -17.683594 Z M 11.382812 -17.683594 "/></g></g></g><g fill="#ffffff" fill-opacity="1"><g transform="translate(588.9209, 132.108504)"><g><path d="M 0.792969 -3.753906 C 2.335938 -0.125 8.964844 0.667969 11.59375 0.667969 C 19.015625 0.667969 22.851562 -1.960938 22.601562 -6.589844 C 22.269531 -13.59375 8.589844 -12.71875 8.800781 -16.515625 C 8.839844 -17.597656 10.09375 -18.183594 11.636719 -18.058594 C 15.636719 -17.722656 15.347656 -13.929688 18.640625 -13.46875 C 20.226562 -13.261719 21.558594 -14.304688 21.269531 -15.886719 C 20.894531 -18.265625 17.429688 -19.933594 11.550781 -20.183594 C 5.046875 -20.476562 0.875 -17.890625 0.917969 -14.136719 C 0.960938 -7.464844 14.511719 -6.253906 14.511719 -3.128906 C 14.511719 -1.917969 13.554688 -1.167969 11.382812 -1.5 C 5.921875 -2.335938 7.214844 -7.046875 3.542969 -7.546875 C 1.125 -7.882812 -0.125 -5.839844 0.792969 -3.753906 Z M 0.792969 -3.753906 "/></g></g></g></svg>