<svg xmlns="http://www.w3.org/2000/svg" xmlns:xlink="http://www.w3.org/1999/xlink" width="1366" zoomAndPan="magnify" viewBox="0 0 1024.5 576" height="768" preserveAspectRatio="xMidYMid meet" version="1.0"><defs><g/><clipPath id="5650004cb4"><path d="M 0 0.140625 L 1024 0.140625 L 1024 575.859375 L 0 575.859375 Z M 0 0.140625 " clip-rule="nonzero"/></clipPath><clipPath id="ba9878b0bf"><path d="M 421 58 L 604 58 L 604 137 L 421 137 Z M 421 58 " clip-rule="nonzero"/></clipPath><clipPath id="f02fa70cbf"><path d="M 511.996094 -22.523438 L 632.257812 97.738281 L 511.996094 217.996094 L 391.738281 97.738281 Z M 511.996094 -22.523438 " clip-rule="nonzero"/></clipPath><clipPath id="dacb33b794"><path d="M 511.996094 -22.523438 L 632.257812 97.738281 L 511.996094 217.996094 L 391.738281 97.738281 Z M 511.996094 -22.523438 " clip-rule="nonzero"/></clipPath></defs><g clip-path="url(#5650004cb4)"><path fill="#ffffff" d="M 0 0.140625 L 1024 0.140625 L 1024 575.859375 L 0 575.859375 Z M 0 0.140625 " fill-opacity="1" fill-rule="nonzero"/><path fill="#f5f1ec" d="M 0 0.140625 L 1024 0.140625 L 1024 575.859375 L 0 575.859375 Z M 0 0.140625 " fill-opacity="1" fill-rule="nonzero"/></g><g clip-path="url(#ba9878b0bf)"><g clip-path="url(#f02fa70cbf)"><g clip-path="url(#dacb33b794)"><path fill="#6f5d51" d="M 430.378906 97.917969 C 421.082031 104.863281 418.515625 116.628906 423.644531 125.464844 C 429.113281 134.90625 441.222656 136.59375 449.726562 133.960938 C 455.882812 132.058594 460.957031 127.640625 463.976562 121.839844 C 466.191406 117.589844 470.570312 114.910156 475.359375 114.910156 L 550.273438 114.910156 C 554.835938 114.910156 558.894531 117.640625 560.785156 121.785156 C 565.414062 131.941406 575.960938 137.804688 585.6875 136.003906 C 595.527344 134.1875 603.929688 124.644531 603.566406 114.027344 C 603.234375 104.496094 595.996094 98.578125 594.773438 97.613281 C 595.988281 96.648438 603.234375 90.734375 603.566406 81.203125 C 603.933594 70.578125 595.53125 61.039062 585.6875 59.226562 C 575.964844 57.429688 565.414062 63.289062 560.785156 73.445312 C 558.894531 77.589844 554.832031 80.324219 550.273438 80.320312 L 475.359375 80.320312 C 470.570312 80.320312 466.1875 77.644531 463.976562 73.390625 C 460.957031 67.589844 455.882812 63.171875 449.726562 61.269531 C 441.222656 58.636719 429.121094 60.332031 423.644531 69.765625 C 418.515625 78.613281 421.085938 90.964844 430.378906 97.917969 Z M 430.378906 97.917969 " fill-opacity="1" fill-rule="nonzero"/></g></g></g><g fill="#ffffff" fill-opacity="1"><g transform="translate(449.834395, 105.205651)"><g><path d="M 1.054688 0 L 4.523438 0 C 5.0625 0 5.292969 -0.796875 4.859375 -1.105469 C 4.703125 -1.207031 4.550781 -1.3125 4.421875 -1.386719 C 4.007812 -1.644531 3.726562 -2.082031 3.753906 -2.519531 L 4.164062 -14.289062 L 9.304688 -0.71875 C 9.484375 -0.28125 9.894531 0 10.359375 0 L 11.566406 0 C 12.027344 0 12.414062 -0.28125 12.59375 -0.71875 L 17.398438 -14.210938 L 17.992188 -2.519531 C 17.964844 -2.054688 17.707031 -1.621094 17.269531 -1.414062 C 17.089844 -1.3125 16.910156 -1.207031 16.757812 -1.105469 C 16.347656 -0.796875 16.578125 0 17.089844 0 L 25.03125 0 C 25.574219 0 25.828125 -0.796875 25.390625 -1.105469 C 25.238281 -1.207031 25.085938 -1.3125 24.929688 -1.386719 C 24.542969 -1.644531 24.289062 -2.082031 24.289062 -2.519531 L 23.617188 -16.191406 C 23.644531 -16.601562 23.902344 -17.015625 24.261719 -17.246094 C 24.414062 -17.324219 24.570312 -17.425781 24.722656 -17.527344 C 25.160156 -17.835938 24.902344 -18.632812 24.363281 -18.632812 L 18.144531 -18.632812 C 17.683594 -18.632812 17.269531 -18.351562 17.089844 -17.914062 L 13.390625 -7.863281 L 9.328125 -17.914062 C 9.148438 -18.351562 8.738281 -18.632812 8.277344 -18.632812 L 1.566406 -18.632812 C 1.054688 -18.632812 0.824219 -17.835938 1.257812 -17.527344 C 1.386719 -17.425781 1.566406 -17.324219 1.773438 -17.21875 C 2.132812 -17.039062 2.390625 -16.707031 2.441406 -16.320312 L 1.953125 -2.519531 C 1.953125 -2.054688 1.671875 -1.621094 1.257812 -1.414062 C 1.054688 -1.3125 0.875 -1.207031 0.746094 -1.105469 C 0.308594 -0.796875 0.539062 0 1.054688 0 Z M 1.054688 0 "/></g></g></g><g fill="#ffffff" fill-opacity="1"><g transform="translate(474.400839, 105.205651)"><g><path d="M 0.257812 -10.949219 C 0.4375 -10.820312 0.640625 -10.71875 0.875 -10.613281 C 1.207031 -10.433594 1.542969 -10.125 1.773438 -9.765625 C 4.421875 -4.1875 8.457031 3.625 6.324219 4.445312 C 6.246094 4.472656 6.140625 4.496094 6.066406 4.496094 C 5.550781 4.550781 4.652344 3.753906 4.78125 2.261719 C 4.882812 1.207031 3.675781 0.539062 2.492188 0.539062 C 1.515625 0.539062 0.539062 1.003906 0.308594 2.054688 C -0.179688 4.214844 1.800781 6.039062 4.859375 5.988281 C 8.328125 5.9375 9.304688 4.035156 10.921875 0.335938 L 15.34375 -9.6875 C 15.523438 -10.050781 15.882812 -10.410156 16.269531 -10.640625 C 16.421875 -10.71875 16.578125 -10.820312 16.757812 -10.949219 C 17.195312 -11.230469 16.9375 -12.027344 16.398438 -12.027344 L 13.109375 -12.027344 C 12.566406 -12.027344 12.335938 -11.230469 12.773438 -10.949219 C 12.902344 -10.847656 13.03125 -10.769531 13.183594 -10.664062 C 13.597656 -10.410156 13.722656 -9.996094 13.570312 -9.585938 L 13.414062 -9.253906 L 13.441406 -9.253906 L 10.71875 -2.929688 C 10.382812 -4.34375 9.175781 -7.09375 8.070312 -9.6875 C 7.96875 -10.074219 8.121094 -10.433594 8.480469 -10.664062 C 8.636719 -10.769531 8.765625 -10.847656 8.890625 -10.949219 C 9.304688 -11.230469 9.074219 -12.027344 8.558594 -12.027344 L 0.617188 -12.027344 C 0.078125 -12.027344 -0.179688 -11.230469 0.257812 -10.949219 Z M 6.21875 4.472656 C 6.167969 4.496094 6.117188 4.496094 6.066406 4.496094 C 6.117188 4.496094 6.167969 4.496094 6.21875 4.472656 Z M 6.21875 4.472656 "/></g></g></g><g fill="#ffffff" fill-opacity="1"><g transform="translate(490.024598, 105.205651)"><g/></g></g><g fill="#ffffff" fill-opacity="1"><g transform="translate(497.476594, 105.205651)"><g><path d="M 0.898438 -9.304688 C 1.105469 -3.699219 4.601562 0.335938 11.152344 0.335938 C 16.578125 0.335938 19.890625 -2.03125 20.433594 -6.578125 C 20.535156 -7.425781 20.378906 -8.222656 19.609375 -8.277344 C 18.734375 -8.328125 18.53125 -7.480469 18.425781 -6.757812 C 17.964844 -3.777344 15.933594 -1.980469 13.339844 -1.980469 C 9.304688 -1.980469 7.789062 -5.269531 7.351562 -8.867188 C 6.785156 -13.621094 7.300781 -17.039062 10.023438 -17.375 C 11.898438 -17.605469 13.648438 -16.910156 13.414062 -13.75 C 13.234375 -11.308594 15.007812 -10.175781 17.21875 -10.359375 C 19.890625 -10.5625 20.304688 -13.132812 19.710938 -14.675781 C 18.734375 -17.324219 15.675781 -18.96875 11 -18.96875 C 4.445312 -18.96875 0.71875 -15.164062 0.898438 -9.304688 Z M 0.898438 -9.304688 "/></g></g></g><g fill="#ffffff" fill-opacity="1"><g transform="translate(516.980654, 105.205651)"><g><path d="M 0.308594 -6.015625 C 0.308594 -1.875 3.109375 0.359375 7.375 0.359375 C 11.667969 0.359375 14.46875 -1.671875 14.46875 -6.015625 C 14.46875 -10.359375 11.667969 -12.386719 7.375 -12.386719 C 3.109375 -12.386719 0.308594 -10.152344 0.308594 -6.015625 Z M 6.554688 -10.898438 C 7.734375 -11.101562 8.097656 -9.996094 8.738281 -6.246094 C 9.355469 -2.492188 9.355469 -1.3125 8.199219 -1.105469 C 7.042969 -0.898438 6.65625 -2.03125 6.039062 -5.78125 C 5.398438 -9.535156 5.398438 -10.691406 6.554688 -10.898438 Z M 6.554688 -10.898438 "/></g></g></g><g fill="#ffffff" fill-opacity="1"><g transform="translate(530.72851, 105.205651)"><g><path d="M 0.308594 -6.015625 C 0.359375 -1.875 2.980469 0.667969 6.683594 0.359375 C 7.8125 0.257812 8.765625 -0.078125 9.5625 -0.566406 C 10.230469 0.0273438 11.257812 0.308594 12.4375 0.335938 C 16.371094 0.386719 16.757812 -1.59375 16.140625 -1.746094 C 15.804688 -1.824219 15.496094 -1.363281 15.113281 -1.414062 C 14.648438 -1.464844 14.496094 -1.925781 14.496094 -2.722656 C 14.496094 -3.753906 14.519531 -13.777344 14.519531 -15.550781 L 14.519531 -16.628906 C 14.519531 -18.839844 13.777344 -19.199219 11.796875 -19.199219 C 10.359375 -19.199219 8.636719 -18.863281 7.632812 -18.273438 C 7.121094 -17.992188 7.273438 -17.117188 7.839844 -17.066406 C 8.53125 -17.039062 8.738281 -17.039062 8.738281 -16.21875 L 8.738281 -11.875 C 8.171875 -12.128906 7.53125 -12.3125 6.8125 -12.386719 C 2.929688 -12.722656 0.230469 -10.101562 0.308594 -6.015625 Z M 6.578125 -10.921875 C 7.734375 -11.128906 8.097656 -10.253906 8.738281 -6.503906 C 9.355469 -2.75 9.378906 -1.566406 8.199219 -1.363281 C 7.042969 -1.15625 6.65625 -2.289062 6.039062 -6.039062 C 5.398438 -9.792969 5.421875 -10.71875 6.578125 -10.921875 Z M 6.578125 -10.921875 "/></g></g></g><g fill="#ffffff" fill-opacity="1"><g transform="translate(545.941106, 105.205651)"><g><path d="M 0.308594 -6.015625 C 0.410156 -1.875 3.109375 0.359375 7.375 0.359375 C 11.050781 0.359375 13.597656 -0.925781 14.265625 -4.085938 C 14.367188 -4.675781 14.210938 -5.011719 13.699219 -5.089844 C 13.210938 -5.140625 12.902344 -4.882812 12.773438 -4.316406 C 12.414062 -2.699219 11.179688 -1.824219 9.5625 -1.824219 C 8.070312 -1.851562 6.914062 -2.597656 6.195312 -4.472656 C 6.527344 -4.421875 6.9375 -4.394531 7.375 -4.394531 C 10.203125 -4.394531 14.46875 -5.652344 13.980469 -8.585938 C 13.621094 -10.664062 11.335938 -12.386719 7.734375 -12.386719 C 3.46875 -12.386719 0.207031 -10.175781 0.308594 -6.015625 Z M 7.015625 -10.898438 C 8.480469 -11.207031 9.742188 -9.074219 9.175781 -7.144531 C 8.816406 -5.835938 6.992188 -5.652344 5.835938 -5.757812 C 5.242188 -8.429688 5.859375 -10.664062 7.015625 -10.898438 Z M 7.015625 -10.898438 "/></g></g></g><g fill="#ffffff" fill-opacity="1"><g transform="translate(559.406291, 105.205651)"><g><path d="M 0.488281 -2.3125 C 1.4375 -0.078125 5.527344 0.410156 7.144531 0.410156 C 11.71875 0.410156 14.085938 -1.207031 13.929688 -4.0625 C 13.722656 -8.378906 5.292969 -7.839844 5.421875 -10.175781 C 5.449219 -10.847656 6.21875 -11.207031 7.171875 -11.128906 C 9.636719 -10.921875 9.457031 -8.585938 11.488281 -8.300781 C 12.464844 -8.171875 13.289062 -8.816406 13.109375 -9.792969 C 12.875 -11.257812 10.742188 -12.285156 7.121094 -12.4375 C 3.109375 -12.621094 0.539062 -11.027344 0.566406 -8.710938 C 0.589844 -4.601562 8.945312 -3.855469 8.945312 -1.925781 C 8.945312 -1.183594 8.351562 -0.71875 7.015625 -0.925781 C 3.648438 -1.4375 4.445312 -4.34375 2.183594 -4.652344 C 0.695312 -4.859375 -0.078125 -3.597656 0.488281 -2.3125 Z M 0.488281 -2.3125 "/></g></g></g></svg>