<svg xmlns="http://www.w3.org/2000/svg" xmlns:xlink="http://www.w3.org/1999/xlink" width="475" zoomAndPan="magnify" viewBox="0 0 356.25 65.249999" height="87" preserveAspectRatio="xMidYMid meet" version="1.0"><defs><clipPath id="1638102062"><path d="M 195 10 L 239 10 L 239 44 L 195 44 Z M 195 10 " clip-rule="nonzero"/></clipPath><clipPath id="423a37aecd"><path d="M 227.710938 0.714844 L 243.367188 37.566406 L 206.515625 53.226562 L 190.859375 16.375 Z M 227.710938 0.714844 " clip-rule="nonzero"/></clipPath><clipPath id="7277fcd14d"><path d="M 227.710938 0.714844 L 243.367188 37.566406 L 206.515625 53.226562 L 190.859375 16.375 Z M 227.710938 0.714844 " clip-rule="nonzero"/></clipPath><clipPath id="0222c78f1e"><path d="M 134 12 L 176 12 L 176 52 L 134 52 Z M 134 12 " clip-rule="nonzero"/></clipPath><clipPath id="4de85fa0d7"><path d="M 173.355469 53.445312 L 133.488281 49.738281 L 137.195312 9.871094 L 177.0625 13.574219 Z M 173.355469 53.445312 " clip-rule="nonzero"/></clipPath><clipPath id="f9069cce0f"><path d="M 173.355469 53.445312 L 133.488281 49.738281 L 137.195312 9.871094 L 177.0625 13.574219 Z M 173.355469 53.445312 " clip-rule="nonzero"/></clipPath><clipPath id="e01c81324f"><path d="M 4 21 L 47 21 L 47 59 L 4 59 Z M 4 21 " clip-rule="nonzero"/></clipPath><clipPath id="d9aabd626a"><path d="M 10.320312 16.320312 L 49.410156 25.003906 L 40.726562 64.089844 L 1.636719 55.40625 Z M 10.320312 16.320312 " clip-rule="nonzero"/></clipPath><clipPath id="8c875afbb0"><path d="M 10.320312 16.320312 L 49.410156 25.003906 L 40.726562 64.089844 L 1.636719 55.40625 Z M 10.320312 16.320312 " clip-rule="nonzero"/></clipPath><clipPath id="1bcbe60cd3"><path d="M 64 8 L 112 8 L 112 59 L 64 59 Z M 64 8 " clip-rule="nonzero"/></clipPath><clipPath id="2aa4e4acae"><path d="M 114.546875 11.007812 L 110.210938 59.753906 L 61.464844 55.414062 L 65.804688 6.671875 Z M 114.546875 11.007812 " clip-rule="nonzero"/></clipPath><clipPath id="313cd5ea30"><path d="M 114.546875 11.007812 L 110.210938 59.753906 L 61.464844 55.414062 L 65.804688 6.671875 Z M 114.546875 11.007812 " clip-rule="nonzero"/></clipPath><clipPath id="8f3c5cb301"><path d="M 313 6 L 352 6 L 352 46 L 313 46 Z M 313 6 " clip-rule="nonzero"/></clipPath><clipPath id="3cde8a5d61"><path d="M 353.8125 8.800781 L 349.75 47.144531 L 311.410156 43.085938 L 315.46875 4.742188 Z M 353.8125 8.800781 " clip-rule="nonzero"/></clipPath><clipPath id="f4941e2768"><path d="M 353.8125 8.800781 L 349.75 47.144531 L 311.410156 43.085938 L 315.46875 4.742188 Z M 353.8125 8.800781 " clip-rule="nonzero"/></clipPath><clipPath id="fd6f5c12bc"><path d="M 256 21 L 298 21 L 298 50 L 256 50 Z M 256 21 " clip-rule="nonzero"/></clipPath><clipPath id="c5f1fa56bc"><path d="M 282.472656 8.636719 L 304.074219 40.574219 L 272.132812 62.175781 L 250.535156 30.238281 Z M 282.472656 8.636719 " clip-rule="nonzero"/></clipPath><clipPath id="d9be0b0edc"><path d="M 282.472656 8.636719 L 304.074219 40.574219 L 272.132812 62.175781 L 250.535156 30.238281 Z M 282.472656 8.636719 " clip-rule="nonzero"/></clipPath></defs><g clip-path="url(#1638102062)"><g clip-path="url(#423a37aecd)"><g clip-path="url(#7277fcd14d)"><path fill="#bca893" d="M 196.476562 29.433594 C 195.824219 27.898438 195.808594 26.207031 196.4375 24.65625 C 197.0625 23.109375 198.25 21.894531 199.789062 21.242188 C 200.453125 20.960938 201.148438 20.796875 201.847656 20.753906 C 201.359375 20.21875 200.960938 19.59375 200.675781 18.902344 C 200.03125 17.332031 200.046875 15.609375 200.71875 14.050781 C 201.355469 12.578125 202.523438 11.417969 204.015625 10.785156 C 205.503906 10.152344 207.152344 10.113281 208.652344 10.679688 C 210.242188 11.277344 211.496094 12.464844 212.175781 14.015625 C 212.859375 15.574219 212.882812 17.292969 212.246094 18.867188 L 212.242188 18.882812 C 212.164062 19.070312 212.167969 19.28125 212.25 19.46875 C 212.25 19.46875 212.25 19.46875 212.25 19.472656 C 212.328125 19.660156 212.476562 19.808594 212.667969 19.882812 L 225.210938 24.945312 C 225.398438 25.023438 225.601562 25.019531 225.785156 24.941406 C 225.96875 24.863281 226.109375 24.714844 226.183594 24.53125 C 226.199219 24.5 226.210938 24.46875 226.222656 24.433594 C 226.839844 22.949219 228 21.773438 229.488281 21.121094 C 230.972656 20.46875 232.625 20.414062 234.136719 20.96875 C 235.742188 21.558594 237.007812 22.742188 237.699219 24.300781 C 238.394531 25.863281 238.421875 27.59375 237.785156 29.175781 C 236.855469 31.480469 234.699219 32.929688 232.371094 33.074219 C 232.84375 33.59375 233.234375 34.195312 233.515625 34.859375 C 233.515625 34.859375 233.515625 34.859375 233.519531 34.859375 C 234.171875 36.398438 234.1875 38.09375 233.5625 39.644531 C 232.925781 41.21875 231.707031 42.445312 230.132812 43.085938 C 228.558594 43.730469 226.832031 43.710938 225.269531 43.03125 C 223.804688 42.394531 222.652344 41.226562 222.023438 39.746094 C 222.019531 39.734375 222.015625 39.71875 222.007812 39.707031 C 221.382812 38.207031 221.359375 36.554688 221.9375 35.050781 L 221.960938 34.996094 C 222.128906 34.578125 221.925781 34.101562 221.511719 33.933594 L 209.074219 28.910156 C 208.660156 28.742188 208.183594 28.945312 208.011719 29.367188 L 207.988281 29.421875 C 207.363281 30.90625 206.199219 32.078125 204.707031 32.722656 C 203.214844 33.367188 201.5625 33.414062 200.054688 32.851562 C 198.457031 32.257812 197.199219 31.070312 196.511719 29.515625 C 196.5 29.488281 196.488281 29.460938 196.476562 29.433594 Z M 204.113281 22.320312 C 202.863281 21.816406 201.496094 21.832031 200.257812 22.355469 C 199.019531 22.882812 198.0625 23.859375 197.558594 25.109375 C 197.042969 26.382812 197.066406 27.773438 197.621094 29.027344 C 198.171875 30.28125 199.1875 31.238281 200.472656 31.71875 C 201.691406 32.171875 203.023438 32.132812 204.226562 31.613281 C 205.429688 31.09375 206.371094 30.148438 206.871094 28.953125 L 206.890625 28.90625 C 207.316406 27.875 208.496094 27.375 209.527344 27.789062 L 221.964844 32.8125 C 222.996094 33.226562 223.496094 34.40625 223.085938 35.441406 L 223.066406 35.488281 C 222.597656 36.699219 222.621094 38.03125 223.125 39.242188 C 223.128906 39.25 223.132812 39.261719 223.136719 39.269531 C 223.644531 40.46875 224.574219 41.40625 225.753906 41.921875 C 227.011719 42.46875 228.40625 42.488281 229.675781 41.96875 C 230.945312 41.449219 231.925781 40.460938 232.441406 39.1875 C 232.945312 37.941406 232.929688 36.570312 232.40625 35.332031 C 231.878906 34.09375 230.902344 33.132812 229.652344 32.628906 C 229.34375 32.503906 229.195312 32.152344 229.320312 31.84375 C 229.382812 31.6875 229.5 31.574219 229.644531 31.511719 C 229.785156 31.453125 229.949219 31.445312 230.105469 31.507812 C 232.683594 32.546875 235.625 31.296875 236.664062 28.722656 C 237.179688 27.445312 237.152344 26.050781 236.597656 24.789062 C 236.035156 23.53125 235.015625 22.578125 233.71875 22.101562 C 232.503906 21.65625 231.171875 21.699219 229.972656 22.226562 C 228.773438 22.753906 227.835938 23.703125 227.339844 24.898438 C 227.328125 24.925781 227.316406 24.949219 227.308594 24.976562 C 227.113281 25.460938 226.742188 25.84375 226.261719 26.050781 C 225.777344 26.257812 225.242188 26.261719 224.757812 26.066406 L 212.214844 21.003906 C 211.726562 20.804688 211.34375 20.429688 211.136719 19.941406 C 210.929688 19.453125 210.925781 18.914062 211.121094 18.425781 L 211.128906 18.414062 C 211.640625 17.144531 211.617188 15.753906 211.070312 14.5 C 210.519531 13.25 209.511719 12.292969 208.226562 11.808594 C 207.019531 11.355469 205.691406 11.386719 204.488281 11.898438 C 203.285156 12.410156 202.339844 13.34375 201.828125 14.53125 C 201.285156 15.789062 201.273438 17.179688 201.792969 18.441406 C 202.316406 19.707031 203.300781 20.6875 204.570312 21.199219 C 204.878906 21.324219 205.027344 21.675781 204.902344 21.988281 C 204.777344 22.296875 204.425781 22.445312 204.117188 22.320312 C 204.113281 22.320312 204.113281 22.320312 204.113281 22.320312 Z M 204.113281 22.320312 " fill-opacity="1" fill-rule="nonzero"/></g></g></g><g clip-path="url(#0222c78f1e)"><g clip-path="url(#4de85fa0d7)"><g clip-path="url(#f9069cce0f)"><path fill="#715c50" d="M 162.898438 12.324219 C 164.558594 12.480469 166.058594 13.269531 167.125 14.554688 C 168.191406 15.839844 168.691406 17.460938 168.539062 19.125 C 168.472656 19.84375 168.285156 20.535156 167.992188 21.171875 C 168.695312 20.992188 169.433594 20.941406 170.179688 21.019531 C 171.863281 21.195312 173.375 22.027344 174.429688 23.359375 C 175.421875 24.617188 175.890625 26.195312 175.738281 27.808594 C 175.589844 29.421875 174.839844 30.886719 173.628906 31.941406 C 172.347656 33.058594 170.710938 33.597656 169.019531 33.457031 C 167.328125 33.320312 165.800781 32.527344 164.71875 31.21875 L 164.707031 31.207031 C 164.578125 31.050781 164.390625 30.953125 164.1875 30.933594 C 163.980469 30.914062 163.78125 30.976562 163.625 31.105469 L 153.214844 39.746094 C 153.058594 39.875 152.964844 40.054688 152.945312 40.253906 C 152.929688 40.453125 152.988281 40.648438 153.117188 40.800781 C 153.140625 40.828125 153.164062 40.855469 153.183594 40.878906 C 154.199219 42.128906 154.683594 43.707031 154.550781 45.324219 C 154.421875 46.945312 153.683594 48.421875 152.480469 49.488281 C 151.203125 50.625 149.558594 51.175781 147.855469 51.046875 C 146.152344 50.914062 144.617188 50.121094 143.523438 48.808594 C 141.9375 46.894531 141.6875 44.308594 142.664062 42.191406 C 141.980469 42.363281 141.265625 42.421875 140.546875 42.355469 C 138.882812 42.199219 137.382812 41.40625 136.316406 40.121094 C 135.230469 38.8125 134.730469 37.160156 134.910156 35.46875 C 135.09375 33.78125 135.929688 32.269531 137.269531 31.214844 C 138.523438 30.230469 140.097656 29.769531 141.699219 29.917969 C 141.714844 29.921875 141.726562 29.921875 141.742188 29.921875 C 143.359375 30.082031 144.824219 30.847656 145.871094 32.070312 L 145.910156 32.117188 C 146.199219 32.460938 146.714844 32.511719 147.058594 32.226562 L 157.382812 23.660156 C 157.726562 23.375 157.773438 22.859375 157.488281 22.507812 L 157.449219 22.464844 C 156.4375 21.207031 155.960938 19.625 156.097656 18.007812 C 156.238281 16.386719 156.984375 14.910156 158.195312 13.851562 C 159.476562 12.726562 161.117188 12.183594 162.8125 12.316406 C 162.839844 12.320312 162.871094 12.320312 162.898438 12.324219 Z M 165.539062 22.421875 C 166.574219 21.5625 167.210938 20.351562 167.332031 19.011719 C 167.457031 17.671875 167.054688 16.363281 166.195312 15.328125 C 165.316406 14.273438 164.082031 13.628906 162.714844 13.523438 C 161.347656 13.414062 160.023438 13.851562 158.992188 14.757812 C 158.015625 15.613281 157.417969 16.804688 157.304688 18.109375 C 157.191406 19.417969 157.578125 20.691406 158.390625 21.703125 L 158.421875 21.742188 C 159.128906 22.605469 159.007812 23.882812 158.15625 24.589844 L 147.832031 33.15625 C 146.980469 33.867188 145.699219 33.746094 144.984375 32.894531 L 144.953125 32.855469 C 144.109375 31.871094 142.925781 31.257812 141.621094 31.128906 C 141.609375 31.125 141.601562 31.125 141.589844 31.125 C 140.296875 31.003906 139.027344 31.375 138.015625 32.167969 C 136.933594 33.015625 136.257812 34.234375 136.113281 35.597656 C 135.96875 36.960938 136.371094 38.296875 137.246094 39.351562 C 138.109375 40.386719 139.320312 41.027344 140.660156 41.152344 C 142 41.273438 143.308594 40.871094 144.34375 40.011719 C 144.601562 39.796875 144.980469 39.832031 145.195312 40.089844 C 145.300781 40.21875 145.347656 40.378906 145.332031 40.53125 C 145.316406 40.6875 145.246094 40.835938 145.117188 40.941406 C 142.976562 42.714844 142.683594 45.898438 144.457031 48.035156 C 145.335938 49.097656 146.578125 49.734375 147.953125 49.84375 C 149.324219 49.949219 150.648438 49.5 151.679688 48.585938 C 152.648438 47.726562 153.242188 46.535156 153.347656 45.226562 C 153.457031 43.921875 153.0625 42.648438 152.246094 41.644531 C 152.230469 41.621094 152.210938 41.601562 152.195312 41.578125 C 151.859375 41.175781 151.699219 40.667969 151.746094 40.144531 C 151.792969 39.625 152.039062 39.152344 152.445312 38.816406 L 162.855469 30.175781 C 163.257812 29.839844 163.773438 29.683594 164.300781 29.730469 C 164.828125 29.78125 165.304688 30.03125 165.640625 30.4375 L 165.648438 30.449219 C 166.523438 31.503906 167.753906 32.144531 169.121094 32.253906 C 170.484375 32.363281 171.800781 31.929688 172.835938 31.03125 C 173.8125 30.179688 174.414062 28.996094 174.535156 27.695312 C 174.65625 26.394531 174.28125 25.121094 173.480469 24.105469 C 172.628906 23.03125 171.410156 22.363281 170.050781 22.21875 C 168.691406 22.078125 167.359375 22.480469 166.308594 23.355469 C 166.050781 23.566406 165.667969 23.53125 165.457031 23.273438 C 165.242188 23.019531 165.277344 22.636719 165.535156 22.421875 C 165.535156 22.421875 165.539062 22.421875 165.539062 22.421875 Z M 165.539062 22.421875 " fill-opacity="1" fill-rule="nonzero"/></g></g></g><g clip-path="url(#e01c81324f)"><g clip-path="url(#d9aabd626a)"><g clip-path="url(#8c875afbb0)"><path fill="#715c50" d="M 15.53125 58.425781 C 13.90625 58.066406 12.515625 57.09375 11.621094 55.683594 C 10.722656 54.273438 10.429688 52.601562 10.792969 50.972656 C 10.949219 50.269531 11.21875 49.605469 11.589844 49.011719 C 10.871094 49.097656 10.132812 49.058594 9.402344 48.886719 C 7.75 48.5 6.359375 47.488281 5.480469 46.03125 C 4.652344 44.660156 4.386719 43.035156 4.738281 41.453125 C 5.089844 39.875 6.015625 38.511719 7.351562 37.617188 C 8.761719 36.671875 10.453125 36.34375 12.113281 36.691406 C 13.777344 37.039062 15.191406 38.019531 16.101562 39.453125 L 16.109375 39.464844 C 16.21875 39.640625 16.390625 39.757812 16.59375 39.804688 C 16.792969 39.847656 17 39.8125 17.171875 39.703125 L 28.585938 32.441406 C 28.753906 32.332031 28.871094 32.164062 28.914062 31.96875 C 28.957031 31.773438 28.921875 31.574219 28.8125 31.40625 C 28.792969 31.375 28.773438 31.347656 28.757812 31.316406 C 27.90625 29.953125 27.625 28.324219 27.957031 26.738281 C 28.292969 25.148438 29.207031 23.773438 30.535156 22.867188 C 31.949219 21.902344 33.648438 21.558594 35.320312 21.902344 C 36.996094 22.246094 38.417969 23.226562 39.335938 24.667969 C 40.667969 26.761719 40.59375 29.359375 39.359375 31.339844 C 40.058594 31.253906 40.773438 31.289062 41.480469 31.445312 C 43.109375 31.804688 44.5 32.78125 45.394531 34.1875 C 46.308594 35.625 46.597656 37.324219 46.207031 38.980469 C 45.8125 40.636719 44.792969 42.03125 43.332031 42.90625 C 41.960938 43.726562 40.34375 43.984375 38.773438 43.636719 C 38.757812 43.632812 38.746094 43.628906 38.734375 43.625 C 37.148438 43.261719 35.789062 42.324219 34.90625 40.976562 L 34.871094 40.925781 C 34.628906 40.546875 34.121094 40.433594 33.746094 40.671875 L 22.429688 47.875 C 22.050781 48.113281 21.941406 48.621094 22.179688 49.003906 L 22.210938 49.054688 C 23.058594 50.425781 23.332031 52.054688 22.992188 53.644531 C 22.648438 55.234375 21.726562 56.605469 20.390625 57.503906 C 18.980469 58.457031 17.285156 58.792969 15.617188 58.445312 C 15.589844 58.441406 15.5625 58.433594 15.53125 58.425781 Z M 14.179688 48.082031 C 13.046875 48.804688 12.265625 49.921875 11.972656 51.234375 C 11.679688 52.550781 11.917969 53.898438 12.640625 55.035156 C 13.375 56.191406 14.523438 56.984375 15.863281 57.261719 C 17.207031 57.542969 18.574219 57.273438 19.714844 56.503906 C 20.789062 55.777344 21.53125 54.671875 21.808594 53.390625 C 22.085938 52.109375 21.863281 50.792969 21.183594 49.6875 L 21.15625 49.648438 C 20.5625 48.703125 20.84375 47.449219 21.78125 46.855469 L 33.09375 39.652344 C 34.03125 39.054688 35.285156 39.335938 35.886719 40.269531 L 35.914062 40.3125 C 36.625 41.394531 37.722656 42.152344 39.003906 42.445312 C 39.011719 42.449219 39.023438 42.449219 39.035156 42.453125 C 40.304688 42.734375 41.605469 42.527344 42.710938 41.867188 C 43.890625 41.160156 44.714844 40.035156 45.027344 38.703125 C 45.34375 37.367188 45.109375 35.996094 44.375 34.835938 C 43.652344 33.703125 42.53125 32.914062 41.214844 32.625 C 39.902344 32.332031 38.554688 32.570312 37.417969 33.292969 C 37.136719 33.46875 36.761719 33.386719 36.582031 33.105469 C 36.492188 32.964844 36.46875 32.800781 36.503906 32.648438 C 36.535156 32.5 36.628906 32.359375 36.769531 32.269531 C 39.113281 30.78125 39.804688 27.660156 38.3125 25.316406 C 37.574219 24.152344 36.421875 23.363281 35.074219 23.085938 C 33.726562 22.808594 32.355469 23.082031 31.214844 23.863281 C 30.144531 24.59375 29.410156 25.703125 29.140625 26.984375 C 28.871094 28.265625 29.097656 29.578125 29.78125 30.679688 C 29.796875 30.703125 29.8125 30.726562 29.824219 30.75 C 30.109375 31.191406 30.203125 31.714844 30.09375 32.226562 C 29.980469 32.742188 29.671875 33.175781 29.230469 33.460938 L 17.820312 40.722656 C 17.375 41.003906 16.847656 41.097656 16.328125 40.980469 C 15.8125 40.867188 15.371094 40.558594 15.089844 40.113281 L 15.082031 40.101562 C 14.347656 38.945312 13.203125 38.15625 11.863281 37.875 C 10.527344 37.59375 9.160156 37.859375 8.023438 38.621094 C 6.949219 39.339844 6.203125 40.441406 5.917969 41.714844 C 5.636719 42.992188 5.847656 44.304688 6.515625 45.410156 C 7.222656 46.582031 8.347656 47.398438 9.679688 47.710938 C 11.011719 48.023438 12.382812 47.792969 13.535156 47.058594 C 13.816406 46.878906 14.191406 46.960938 14.371094 47.242188 C 14.550781 47.523438 14.46875 47.898438 14.183594 48.078125 C 14.183594 48.078125 14.183594 48.078125 14.179688 48.082031 Z M 14.179688 48.082031 " fill-opacity="1" fill-rule="nonzero"/></g></g></g><g clip-path="url(#1bcbe60cd3)"><g clip-path="url(#2aa4e4acae)"><g clip-path="url(#313cd5ea30)"><path fill="#bca893" d="M 64.289062 24 C 64.46875 21.96875 65.429688 20.128906 67 18.816406 C 68.566406 17.507812 70.546875 16.886719 72.582031 17.066406 C 73.460938 17.144531 74.308594 17.371094 75.089844 17.726562 C 74.867188 16.867188 74.800781 15.964844 74.890625 15.050781 C 75.101562 12.988281 76.109375 11.136719 77.734375 9.839844 C 79.265625 8.617188 81.199219 8.039062 83.171875 8.214844 C 85.144531 8.390625 86.945312 9.300781 88.238281 10.777344 C 89.609375 12.339844 90.277344 14.339844 90.117188 16.40625 C 89.957031 18.480469 88.992188 20.351562 87.398438 21.683594 L 87.386719 21.695312 C 87.191406 21.855469 87.074219 22.082031 87.050781 22.335938 C 87.03125 22.585938 87.105469 22.832031 87.265625 23.023438 L 97.886719 35.714844 C 98.042969 35.90625 98.265625 36.019531 98.507812 36.042969 C 98.753906 36.0625 98.988281 35.988281 99.175781 35.828125 C 99.210938 35.800781 99.242188 35.773438 99.273438 35.746094 C 100.796875 34.5 102.726562 33.898438 104.703125 34.054688 C 106.6875 34.207031 108.5 35.097656 109.808594 36.566406 C 111.203125 38.128906 111.890625 40.132812 111.738281 42.21875 C 111.585938 44.304688 110.621094 46.1875 109.019531 47.527344 C 106.6875 49.480469 103.523438 49.800781 100.925781 48.613281 C 101.140625 49.445312 101.214844 50.320312 101.136719 51.203125 C 100.957031 53.238281 99.992188 55.078125 98.425781 56.390625 C 96.832031 57.726562 94.8125 58.34375 92.742188 58.128906 C 90.671875 57.917969 88.820312 56.902344 87.527344 55.265625 C 86.3125 53.734375 85.742188 51.8125 85.917969 49.851562 C 85.917969 49.835938 85.921875 49.816406 85.921875 49.800781 C 86.109375 47.824219 87.035156 46.023438 88.53125 44.738281 L 88.585938 44.691406 C 89.007812 44.332031 89.066406 43.703125 88.714844 43.28125 L 78.183594 30.695312 C 77.835938 30.273438 77.203125 30.21875 76.777344 30.574219 L 76.71875 30.617188 C 75.191406 31.859375 73.253906 32.453125 71.273438 32.292969 C 69.292969 32.128906 67.484375 31.222656 66.179688 29.746094 C 64.796875 28.1875 64.125 26.183594 64.28125 24.109375 C 64.285156 24.070312 64.285156 24.035156 64.289062 24 Z M 76.628906 20.722656 C 75.574219 19.460938 74.089844 18.6875 72.449219 18.542969 C 70.808594 18.394531 69.210938 18.898438 67.949219 19.953125 C 66.660156 21.03125 65.878906 22.546875 65.753906 24.21875 C 65.628906 25.890625 66.171875 27.507812 67.285156 28.769531 C 68.335938 29.957031 69.796875 30.683594 71.394531 30.816406 C 72.996094 30.949219 74.554688 30.472656 75.785156 29.46875 L 75.832031 29.433594 C 76.882812 28.5625 78.449219 28.703125 79.320312 29.746094 L 89.847656 42.332031 C 90.722656 43.375 90.582031 44.9375 89.542969 45.816406 L 89.496094 45.859375 C 88.292969 46.894531 87.546875 48.34375 87.394531 49.941406 C 87.394531 49.953125 87.394531 49.96875 87.390625 49.980469 C 87.25 51.566406 87.710938 53.113281 88.6875 54.347656 C 89.730469 55.667969 91.226562 56.488281 92.894531 56.65625 C 94.5625 56.828125 96.191406 56.332031 97.476562 55.253906 C 98.742188 54.195312 99.519531 52.710938 99.664062 51.070312 C 99.808594 49.429688 99.308594 47.832031 98.253906 46.570312 C 97.988281 46.253906 98.03125 45.789062 98.34375 45.527344 C 98.5 45.394531 98.695312 45.339844 98.886719 45.355469 C 99.074219 45.375 99.253906 45.460938 99.386719 45.617188 C 101.566406 48.226562 105.464844 48.574219 108.070312 46.390625 C 109.363281 45.308594 110.140625 43.789062 110.261719 42.109375 C 110.386719 40.429688 109.832031 38.808594 108.707031 37.550781 C 107.652344 36.367188 106.191406 35.648438 104.59375 35.527344 C 102.992188 35.402344 101.4375 35.886719 100.210938 36.890625 C 100.183594 36.914062 100.15625 36.933594 100.132812 36.957031 C 99.640625 37.371094 99.019531 37.566406 98.382812 37.511719 C 97.742188 37.457031 97.164062 37.15625 96.75 36.664062 L 86.132812 23.96875 C 85.71875 23.476562 85.523438 22.847656 85.582031 22.203125 C 85.636719 21.554688 85.941406 20.972656 86.4375 20.558594 L 86.453125 20.546875 C 87.734375 19.476562 88.515625 17.960938 88.644531 16.292969 C 88.773438 14.625 88.234375 13.011719 87.128906 11.75 C 86.085938 10.5625 84.632812 9.832031 83.039062 9.6875 C 81.449219 9.546875 79.890625 10.011719 78.65625 11 C 77.34375 12.042969 76.53125 13.535156 76.363281 15.199219 C 76.195312 16.867188 76.691406 18.492188 77.765625 19.777344 C 78.03125 20.089844 77.988281 20.554688 77.675781 20.820312 C 77.359375 21.082031 76.894531 21.039062 76.632812 20.726562 C 76.632812 20.726562 76.628906 20.722656 76.628906 20.722656 Z M 76.628906 20.722656 " fill-opacity="1" fill-rule="nonzero"/></g></g></g><g clip-path="url(#8f3c5cb301)"><g clip-path="url(#3cde8a5d61)"><g clip-path="url(#f4941e2768)"><path fill="#bca893" d="M 313.734375 18.449219 C 313.902344 16.839844 314.691406 15.394531 315.953125 14.371094 C 317.214844 13.351562 318.796875 12.886719 320.410156 13.054688 C 321.105469 13.128906 321.773438 13.320312 322.390625 13.613281 C 322.226562 12.925781 322.183594 12.210938 322.269531 11.488281 C 322.460938 9.851562 323.289062 8.394531 324.597656 7.386719 C 325.828125 6.4375 327.371094 6.003906 328.933594 6.167969 C 330.5 6.332031 331.914062 7.082031 332.925781 8.269531 C 333.992188 9.527344 334.496094 11.125 334.339844 12.765625 C 334.1875 14.410156 333.394531 15.882812 332.113281 16.917969 L 332.101562 16.929688 C 331.945312 17.050781 331.847656 17.230469 331.828125 17.429688 C 331.828125 17.429688 331.828125 17.429688 331.828125 17.433594 C 331.808594 17.632812 331.863281 17.824219 331.988281 17.980469 L 340.25 28.199219 C 340.375 28.351562 340.546875 28.445312 340.742188 28.464844 C 340.9375 28.484375 341.125 28.429688 341.277344 28.304688 C 341.300781 28.285156 341.328125 28.265625 341.355469 28.242188 C 342.578125 27.273438 344.121094 26.820312 345.6875 26.96875 C 347.261719 27.117188 348.6875 27.851562 349.710938 29.035156 C 350.796875 30.292969 351.3125 31.894531 351.164062 33.546875 C 351.015625 35.199219 350.222656 36.683594 348.933594 37.726562 C 347.058594 39.242188 344.542969 39.457031 342.496094 38.480469 C 342.65625 39.144531 342.703125 39.839844 342.628906 40.539062 C 342.457031 42.152344 341.667969 43.601562 340.40625 44.621094 C 339.121094 45.660156 337.511719 46.125 335.871094 45.929688 C 334.230469 45.730469 332.773438 44.898438 331.765625 43.585938 C 330.824219 42.351562 330.398438 40.820312 330.5625 39.265625 C 330.5625 39.25 330.566406 39.238281 330.566406 39.226562 C 330.742188 37.65625 331.5 36.238281 332.703125 35.238281 L 332.75 35.203125 C 333.089844 34.925781 333.144531 34.421875 332.871094 34.085938 L 324.675781 23.949219 C 324.402344 23.613281 323.902344 23.558594 323.558594 23.835938 L 323.515625 23.871094 C 322.28125 24.835938 320.738281 25.28125 319.167969 25.125 C 317.597656 24.96875 316.171875 24.230469 315.15625 23.039062 C 314.082031 21.78125 313.574219 20.179688 313.722656 18.535156 C 313.726562 18.507812 313.730469 18.480469 313.734375 18.449219 Z M 323.574219 16.011719 C 322.75 14.996094 321.582031 14.363281 320.285156 14.226562 C 318.984375 14.085938 317.707031 14.464844 316.691406 15.285156 C 315.652344 16.125 315.015625 17.316406 314.894531 18.644531 C 314.769531 19.96875 315.179688 21.261719 316.046875 22.277344 C 316.867188 23.234375 318.015625 23.832031 319.285156 23.957031 C 320.550781 24.082031 321.796875 23.726562 322.789062 22.945312 L 322.824219 22.917969 C 323.671875 22.242188 324.910156 22.371094 325.589844 23.210938 L 333.785156 33.347656 C 334.460938 34.183594 334.332031 35.425781 333.492188 36.109375 L 333.457031 36.140625 C 332.488281 36.945312 331.875 38.089844 331.734375 39.355469 C 331.734375 39.367188 331.734375 39.375 331.730469 39.386719 C 331.597656 40.640625 331.941406 41.878906 332.703125 42.871094 C 333.511719 43.933594 334.6875 44.605469 336.011719 44.761719 C 337.332031 44.917969 338.632812 44.542969 339.667969 43.707031 C 340.6875 42.882812 341.324219 41.714844 341.460938 40.414062 C 341.597656 39.113281 341.222656 37.835938 340.398438 36.820312 C 340.195312 36.570312 340.234375 36.199219 340.488281 35.996094 C 340.613281 35.894531 340.769531 35.851562 340.917969 35.867188 C 341.066406 35.882812 341.210938 35.957031 341.3125 36.082031 C 343.007812 38.179688 346.097656 38.507812 348.199219 36.8125 C 349.238281 35.96875 349.875 34.773438 349.996094 33.4375 C 350.113281 32.105469 349.699219 30.816406 348.820312 29.800781 C 348 28.847656 346.847656 28.257812 345.578125 28.136719 C 344.3125 28.019531 343.070312 28.382812 342.082031 29.164062 C 342.0625 29.179688 342.039062 29.195312 342.019531 29.214844 C 341.625 29.535156 341.128906 29.683594 340.621094 29.632812 C 340.113281 29.582031 339.660156 29.332031 339.339844 28.9375 L 331.078125 18.714844 C 330.753906 18.316406 330.605469 17.816406 330.660156 17.304688 C 330.714844 16.792969 330.964844 16.335938 331.363281 16.011719 L 331.375 16.003906 C 332.410156 15.167969 333.046875 13.980469 333.171875 12.65625 C 333.296875 11.332031 332.890625 10.042969 332.03125 9.027344 C 331.214844 8.070312 330.074219 7.46875 328.8125 7.335938 C 327.546875 7.203125 326.304688 7.550781 325.3125 8.316406 C 324.257812 9.128906 323.589844 10.304688 323.433594 11.625 C 323.28125 12.945312 323.652344 14.242188 324.488281 15.277344 C 324.695312 15.527344 324.65625 15.898438 324.402344 16.101562 C 324.148438 16.304688 323.78125 16.265625 323.578125 16.015625 C 323.574219 16.015625 323.574219 16.011719 323.574219 16.011719 Z M 323.574219 16.011719 " fill-opacity="1" fill-rule="nonzero"/></g></g></g><g clip-path="url(#fd6f5c12bc)"><g clip-path="url(#c5f1fa56bc)"><g clip-path="url(#d9be0b0edc)"><path fill="#715c50" d="M 258.039062 41.839844 C 257.132812 40.496094 256.800781 38.882812 257.109375 37.289062 C 257.414062 35.695312 258.324219 34.320312 259.667969 33.410156 C 260.25 33.019531 260.882812 32.730469 261.542969 32.558594 C 260.976562 32.140625 260.480469 31.621094 260.082031 31.011719 C 259.171875 29.636719 258.867188 27.988281 259.21875 26.378906 C 259.546875 24.855469 260.449219 23.53125 261.75 22.648438 C 263.054688 21.769531 264.617188 21.425781 266.15625 21.6875 C 267.78125 21.960938 269.195312 22.859375 270.136719 24.210938 C 271.078125 25.570312 271.421875 27.207031 271.109375 28.824219 L 271.105469 28.839844 C 271.066406 29.035156 271.109375 29.234375 271.21875 29.398438 C 271.21875 29.398438 271.21875 29.398438 271.222656 29.398438 C 271.332031 29.566406 271.5 29.679688 271.695312 29.714844 L 284.601562 32.207031 C 284.792969 32.246094 284.988281 32.203125 285.148438 32.09375 C 285.308594 31.984375 285.417969 31.820312 285.453125 31.628906 C 285.460938 31.59375 285.464844 31.5625 285.472656 31.53125 C 285.785156 30 286.671875 28.660156 287.96875 27.761719 C 289.261719 26.863281 290.828125 26.503906 292.371094 26.75 C 294.011719 27.011719 295.441406 27.90625 296.390625 29.265625 C 297.34375 30.625 297.695312 32.269531 297.378906 33.898438 C 296.921875 36.269531 295.136719 38.050781 292.941406 38.625 C 293.492188 39.027344 293.976562 39.53125 294.367188 40.113281 C 294.367188 40.113281 294.367188 40.113281 294.371094 40.113281 C 295.277344 41.457031 295.609375 43.074219 295.300781 44.664062 C 294.988281 46.289062 294.054688 47.679688 292.671875 48.589844 C 291.292969 49.496094 289.640625 49.796875 288.027344 49.441406 C 286.511719 49.105469 285.195312 48.207031 284.320312 46.910156 C 284.3125 46.902344 284.304688 46.890625 284.296875 46.878906 C 283.421875 45.566406 283.089844 43.996094 283.363281 42.453125 L 283.375 42.394531 C 283.457031 41.964844 283.175781 41.546875 282.75 41.464844 L 269.953125 38.992188 C 269.527344 38.910156 269.109375 39.195312 269.023438 39.625 L 269.011719 39.679688 C 268.691406 41.210938 267.800781 42.546875 266.496094 43.441406 C 265.195312 44.335938 263.628906 44.683594 262.085938 44.429688 C 260.449219 44.160156 259.03125 43.265625 258.085938 41.910156 C 258.070312 41.886719 258.054688 41.863281 258.039062 41.839844 Z M 263.992188 33.632812 C 262.710938 33.386719 261.410156 33.652344 260.328125 34.386719 C 259.242188 35.117188 258.511719 36.226562 258.261719 37.511719 C 258.007812 38.820312 258.289062 40.144531 259.050781 41.238281 C 259.8125 42.332031 260.957031 43.054688 262.273438 43.273438 C 263.519531 43.476562 264.78125 43.191406 265.832031 42.472656 C 266.882812 41.753906 267.605469 40.675781 267.859375 39.441406 L 267.871094 39.394531 C 268.082031 38.332031 269.117188 37.636719 270.175781 37.839844 L 282.972656 40.308594 C 284.03125 40.515625 284.730469 41.546875 284.527344 42.613281 L 284.519531 42.660156 C 284.300781 43.898438 284.566406 45.164062 285.273438 46.226562 C 285.28125 46.234375 285.285156 46.242188 285.292969 46.253906 C 286 47.296875 287.058594 48.023438 288.28125 48.292969 C 289.582031 48.582031 290.914062 48.335938 292.027344 47.605469 C 293.140625 46.875 293.894531 45.75 294.148438 44.441406 C 294.394531 43.15625 294.128906 41.855469 293.394531 40.769531 C 292.664062 39.6875 291.550781 38.953125 290.269531 38.707031 C 289.949219 38.644531 289.742188 38.335938 289.804688 38.015625 C 289.835938 37.859375 289.925781 37.726562 290.050781 37.640625 C 290.175781 37.558594 290.332031 37.519531 290.492188 37.550781 C 293.140625 38.0625 295.714844 36.324219 296.226562 33.671875 C 296.480469 32.359375 296.195312 31.035156 295.429688 29.9375 C 294.660156 28.839844 293.511719 28.121094 292.1875 27.910156 C 290.941406 27.710938 289.683594 28 288.636719 28.726562 C 287.589844 29.453125 286.875 30.53125 286.621094 31.765625 C 286.617188 31.789062 286.613281 31.816406 286.605469 31.84375 C 286.511719 32.34375 286.230469 32.777344 285.808594 33.0625 C 285.386719 33.351562 284.878906 33.457031 284.378906 33.359375 L 271.472656 30.867188 C 270.972656 30.769531 270.535156 30.480469 270.25 30.054688 C 270.246094 30.054688 270.246094 30.054688 270.246094 30.054688 C 269.960938 29.628906 269.855469 29.117188 269.953125 28.613281 L 269.957031 28.601562 C 270.207031 27.296875 269.929688 25.972656 269.171875 24.882812 C 268.414062 23.789062 267.273438 23.066406 265.960938 22.84375 C 264.722656 22.636719 263.460938 22.910156 262.410156 23.625 C 261.359375 24.335938 260.632812 25.402344 260.363281 26.628906 C 260.082031 27.929688 260.328125 29.257812 261.058594 30.367188 C 261.792969 31.476562 262.914062 32.226562 264.21875 32.480469 C 264.539062 32.539062 264.746094 32.847656 264.6875 33.167969 C 264.625 33.484375 264.316406 33.695312 263.996094 33.632812 C 263.996094 33.632812 263.992188 33.632812 263.992188 33.632812 Z M 263.992188 33.632812 " fill-opacity="1" fill-rule="nonzero"/></g></g></g></svg>