<svg xmlns="http://www.w3.org/2000/svg" xmlns:xlink="http://www.w3.org/1999/xlink" width="1080" zoomAndPan="magnify" viewBox="0 0 810 1439.999935" height="1920" preserveAspectRatio="xMidYMid meet" version="1.0"><defs><clipPath id="c3446391af"><path d="M 241 1304 L 285 1304 L 285 1339 L 241 1339 Z M 241 1304 " clip-rule="nonzero"/></clipPath><clipPath id="2f24c47bd6"><path d="M 273.691406 1294.976562 L 289.527344 1332.253906 L 252.25 1348.089844 L 236.414062 1310.816406 Z M 273.691406 1294.976562 " clip-rule="nonzero"/></clipPath><clipPath id="0e9f159152"><path d="M 273.691406 1294.976562 L 289.527344 1332.253906 L 252.25 1348.089844 L 236.414062 1310.816406 Z M 273.691406 1294.976562 " clip-rule="nonzero"/></clipPath><clipPath id="005ef68c03"><path d="M 179 1306 L 222 1306 L 222 1346 L 179 1346 Z M 179 1306 " clip-rule="nonzero"/></clipPath><clipPath id="1d12bb27cc"><path d="M 218.710938 1348.3125 L 178.386719 1344.5625 L 182.132812 1304.238281 L 222.460938 1307.984375 Z M 218.710938 1348.3125 " clip-rule="nonzero"/></clipPath><clipPath id="d835f107f4"><path d="M 218.710938 1348.3125 L 178.386719 1344.5625 L 182.132812 1304.238281 L 222.460938 1307.984375 Z M 218.710938 1348.3125 " clip-rule="nonzero"/></clipPath><clipPath id="0a4a434116"><path d="M 48 1316 L 91 1316 L 91 1354 L 48 1354 Z M 48 1316 " clip-rule="nonzero"/></clipPath><clipPath id="568a66e598"><path d="M 53.804688 1310.761719 L 93.339844 1319.542969 L 84.554688 1359.082031 L 45.019531 1350.296875 Z M 53.804688 1310.761719 " clip-rule="nonzero"/></clipPath><clipPath id="bc6d6aaba0"><path d="M 53.804688 1310.761719 L 93.339844 1319.542969 L 84.554688 1359.082031 L 45.019531 1350.296875 Z M 53.804688 1310.761719 " clip-rule="nonzero"/></clipPath><clipPath id="304533a42e"><path d="M 108 1302 L 157 1302 L 157 1354 L 108 1354 Z M 108 1302 " clip-rule="nonzero"/></clipPath><clipPath id="b3951aa8ed"><path d="M 159.226562 1305.386719 L 154.839844 1354.691406 L 105.535156 1350.304688 L 109.921875 1301 Z M 159.226562 1305.386719 " clip-rule="nonzero"/></clipPath><clipPath id="3906687eae"><path d="M 159.226562 1305.386719 L 154.839844 1354.691406 L 105.535156 1350.304688 L 109.921875 1301 Z M 159.226562 1305.386719 " clip-rule="nonzero"/></clipPath><clipPath id="ea76b02056"><path d="M 360 1300 L 399 1300 L 399 1341 L 360 1341 Z M 360 1300 " clip-rule="nonzero"/></clipPath><clipPath id="7651dd5a54"><path d="M 401.238281 1303.15625 L 397.132812 1341.9375 L 358.351562 1337.832031 L 362.457031 1299.050781 Z M 401.238281 1303.15625 " clip-rule="nonzero"/></clipPath><clipPath id="27dbec924c"><path d="M 401.238281 1303.15625 L 397.132812 1341.9375 L 358.351562 1337.832031 L 362.457031 1299.050781 Z M 401.238281 1303.15625 " clip-rule="nonzero"/></clipPath><clipPath id="1efb1b7050"><path d="M 303 1316 L 345 1316 L 345 1345 L 303 1345 Z M 303 1316 " clip-rule="nonzero"/></clipPath><clipPath id="c179133a58"><path d="M 329.082031 1302.988281 L 350.929688 1335.292969 L 318.625 1357.144531 L 296.777344 1324.835938 Z M 329.082031 1302.988281 " clip-rule="nonzero"/></clipPath><clipPath id="80455ce154"><path d="M 329.082031 1302.988281 L 350.929688 1335.292969 L 318.625 1357.144531 L 296.777344 1324.835938 Z M 329.082031 1302.988281 " clip-rule="nonzero"/></clipPath><clipPath id="581ade2be7"><path d="M 605 1304 L 649 1304 L 649 1339 L 605 1339 Z M 605 1304 " clip-rule="nonzero"/></clipPath><clipPath id="9e7d406202"><path d="M 637.40625 1294.976562 L 653.242188 1332.253906 L 615.96875 1348.089844 L 600.128906 1310.816406 Z M 637.40625 1294.976562 " clip-rule="nonzero"/></clipPath><clipPath id="5fb318dc15"><path d="M 637.40625 1294.976562 L 653.242188 1332.253906 L 615.96875 1348.089844 L 600.128906 1310.816406 Z M 637.40625 1294.976562 " clip-rule="nonzero"/></clipPath><clipPath id="c40e9158de"><path d="M 543 1306 L 585 1306 L 585 1346 L 543 1346 Z M 543 1306 " clip-rule="nonzero"/></clipPath><clipPath id="bbf7622b40"><path d="M 582.425781 1348.3125 L 542.101562 1344.5625 L 545.847656 1304.238281 L 586.175781 1307.984375 Z M 582.425781 1348.3125 " clip-rule="nonzero"/></clipPath><clipPath id="9ede92316d"><path d="M 582.425781 1348.3125 L 542.101562 1344.5625 L 545.847656 1304.238281 L 586.175781 1307.984375 Z M 582.425781 1348.3125 " clip-rule="nonzero"/></clipPath><clipPath id="d3e52a6b37"><path d="M 411 1316 L 454 1316 L 454 1354 L 411 1354 Z M 411 1316 " clip-rule="nonzero"/></clipPath><clipPath id="21f06b7320"><path d="M 417.519531 1310.761719 L 457.054688 1319.542969 L 448.269531 1359.082031 L 408.734375 1350.296875 Z M 417.519531 1310.761719 " clip-rule="nonzero"/></clipPath><clipPath id="ae2d98faf1"><path d="M 417.519531 1310.761719 L 457.054688 1319.542969 L 448.269531 1359.082031 L 408.734375 1350.296875 Z M 417.519531 1310.761719 " clip-rule="nonzero"/></clipPath><clipPath id="7beada7671"><path d="M 472 1302 L 521 1302 L 521 1354 L 472 1354 Z M 472 1302 " clip-rule="nonzero"/></clipPath><clipPath id="478e05edc2"><path d="M 522.941406 1305.386719 L 518.554688 1354.691406 L 469.25 1350.304688 L 473.636719 1301 Z M 522.941406 1305.386719 " clip-rule="nonzero"/></clipPath><clipPath id="71b03627ed"><path d="M 522.941406 1305.386719 L 518.554688 1354.691406 L 469.25 1350.304688 L 473.636719 1301 Z M 522.941406 1305.386719 " clip-rule="nonzero"/></clipPath><clipPath id="eaf9293ffb"><path d="M 724 1300 L 763 1300 L 763 1341 L 724 1341 Z M 724 1300 " clip-rule="nonzero"/></clipPath><clipPath id="860f9e3ddd"><path d="M 764.953125 1303.15625 L 760.847656 1341.9375 L 722.066406 1337.832031 L 726.171875 1299.050781 Z M 764.953125 1303.15625 " clip-rule="nonzero"/></clipPath><clipPath id="c9dce85c07"><path d="M 764.953125 1303.15625 L 760.847656 1341.9375 L 722.066406 1337.832031 L 726.171875 1299.050781 Z M 764.953125 1303.15625 " clip-rule="nonzero"/></clipPath><clipPath id="db45dc0108"><path d="M 667 1316 L 708 1316 L 708 1345 L 667 1345 Z M 667 1316 " clip-rule="nonzero"/></clipPath><clipPath id="36393ebd4e"><path d="M 692.796875 1302.988281 L 714.644531 1335.292969 L 682.339844 1357.144531 L 660.492188 1324.835938 Z M 692.796875 1302.988281 " clip-rule="nonzero"/></clipPath><clipPath id="d1e33db6f0"><path d="M 692.796875 1302.988281 L 714.644531 1335.292969 L 682.339844 1357.144531 L 660.492188 1324.835938 Z M 692.796875 1302.988281 " clip-rule="nonzero"/></clipPath></defs><rect x="-81" width="972" fill="#ffffff" y="-143.999994" height="1727.999922" fill-opacity="1"/><rect x="-81" width="972" fill="#f5f1ec" y="-143.999994" height="1727.999922" fill-opacity="1"/><g clip-path="url(#c3446391af)"><g clip-path="url(#2f24c47bd6)"><g clip-path="url(#0e9f159152)"><path fill="#bca893" d="M 242.097656 1324.027344 C 241.4375 1322.472656 241.421875 1320.761719 242.054688 1319.191406 C 242.6875 1317.625 243.890625 1316.402344 245.445312 1315.742188 C 246.117188 1315.453125 246.824219 1315.289062 247.53125 1315.246094 C 247.035156 1314.703125 246.632812 1314.074219 246.34375 1313.371094 C 245.691406 1311.785156 245.707031 1310.042969 246.390625 1308.464844 C 247.03125 1306.976562 248.214844 1305.800781 249.722656 1305.160156 C 251.230469 1304.519531 252.894531 1304.484375 254.414062 1305.054688 C 256.023438 1305.660156 257.289062 1306.859375 257.976562 1308.429688 C 258.667969 1310.007812 258.691406 1311.746094 258.050781 1313.335938 L 258.042969 1313.351562 C 257.964844 1313.542969 257.96875 1313.753906 258.050781 1313.945312 C 258.050781 1313.945312 258.050781 1313.945312 258.050781 1313.949219 C 258.132812 1314.140625 258.28125 1314.289062 258.472656 1314.367188 L 271.160156 1319.488281 C 271.347656 1319.5625 271.554688 1319.5625 271.742188 1319.480469 C 271.929688 1319.402344 272.074219 1319.253906 272.148438 1319.066406 C 272.160156 1319.035156 272.171875 1319 272.1875 1318.96875 C 272.8125 1317.464844 273.984375 1316.277344 275.488281 1315.617188 C 276.992188 1314.957031 278.660156 1314.902344 280.1875 1315.464844 C 281.8125 1316.058594 283.09375 1317.253906 283.796875 1318.832031 C 284.496094 1320.414062 284.527344 1322.164062 283.878906 1323.765625 C 282.941406 1326.09375 280.757812 1327.5625 278.402344 1327.707031 C 278.882812 1328.230469 279.277344 1328.839844 279.5625 1329.515625 C 280.222656 1331.070312 280.238281 1332.785156 279.609375 1334.351562 C 278.964844 1335.949219 277.734375 1337.183594 276.140625 1337.835938 C 274.546875 1338.484375 272.800781 1338.464844 271.222656 1337.777344 C 269.738281 1337.132812 268.574219 1335.953125 267.9375 1334.457031 C 267.933594 1334.441406 267.929688 1334.429688 267.921875 1334.417969 C 267.289062 1332.902344 267.265625 1331.230469 267.851562 1329.707031 L 267.875 1329.652344 C 268.042969 1329.230469 267.839844 1328.746094 267.421875 1328.578125 L 254.839844 1323.496094 C 254.421875 1323.328125 253.9375 1323.53125 253.765625 1323.957031 L 253.742188 1324.011719 C 253.109375 1325.511719 251.929688 1326.699219 250.421875 1327.351562 C 248.914062 1328.003906 247.242188 1328.050781 245.714844 1327.480469 C 244.101562 1326.878906 242.828125 1325.679688 242.132812 1324.109375 C 242.121094 1324.082031 242.109375 1324.054688 242.097656 1324.027344 Z M 249.820312 1316.828125 C 248.558594 1316.320312 247.175781 1316.335938 245.921875 1316.867188 C 244.671875 1317.398438 243.699219 1318.386719 243.191406 1319.652344 C 242.671875 1320.9375 242.691406 1322.347656 243.253906 1323.613281 C 243.8125 1324.882812 244.839844 1325.851562 246.140625 1326.335938 C 247.371094 1326.792969 248.71875 1326.757812 249.933594 1326.230469 C 251.152344 1325.703125 252.105469 1324.746094 252.613281 1323.539062 L 252.632812 1323.492188 C 253.058594 1322.449219 254.253906 1321.941406 255.296875 1322.363281 L 267.878906 1327.441406 C 268.917969 1327.863281 269.425781 1329.054688 269.011719 1330.101562 L 268.992188 1330.148438 C 268.519531 1331.371094 268.539062 1332.722656 269.050781 1333.945312 C 269.054688 1333.957031 269.0625 1333.964844 269.066406 1333.976562 C 269.578125 1335.1875 270.515625 1336.136719 271.710938 1336.65625 C 272.984375 1337.210938 274.394531 1337.226562 275.675781 1336.703125 C 276.960938 1336.175781 277.953125 1335.179688 278.472656 1333.894531 C 278.984375 1332.628906 278.972656 1331.246094 278.4375 1329.992188 C 277.90625 1328.738281 276.917969 1327.765625 275.65625 1327.257812 C 275.34375 1327.132812 275.191406 1326.773438 275.316406 1326.460938 C 275.378906 1326.304688 275.5 1326.1875 275.644531 1326.128906 C 275.789062 1326.066406 275.957031 1326.058594 276.113281 1326.125 C 278.71875 1327.175781 281.695312 1325.910156 282.746094 1323.304688 C 283.269531 1322.011719 283.242188 1320.601562 282.679688 1319.328125 C 282.113281 1318.054688 281.078125 1317.089844 279.769531 1316.609375 C 278.539062 1316.160156 277.191406 1316.203125 275.976562 1316.734375 C 274.765625 1317.269531 273.820312 1318.226562 273.316406 1319.4375 C 273.304688 1319.464844 273.292969 1319.488281 273.28125 1319.515625 C 273.085938 1320.007812 272.710938 1320.394531 272.222656 1320.601562 C 271.734375 1320.8125 271.195312 1320.816406 270.703125 1320.621094 L 258.015625 1315.496094 C 257.523438 1315.296875 257.132812 1314.917969 256.925781 1314.425781 C 256.925781 1314.421875 256.925781 1314.421875 256.925781 1314.421875 C 256.714844 1313.929688 256.710938 1313.386719 256.910156 1312.890625 L 256.917969 1312.878906 C 257.433594 1311.59375 257.414062 1310.1875 256.859375 1308.921875 C 256.300781 1307.65625 255.28125 1306.6875 253.984375 1306.199219 C 252.757812 1305.738281 251.417969 1305.769531 250.199219 1306.289062 C 248.984375 1306.804688 248.027344 1307.75 247.511719 1308.949219 C 246.960938 1310.222656 246.949219 1311.628906 247.476562 1312.90625 C 248.003906 1314.1875 249 1315.179688 250.28125 1315.695312 C 250.597656 1315.824219 250.746094 1316.179688 250.621094 1316.492188 C 250.496094 1316.804688 250.136719 1316.957031 249.824219 1316.832031 C 249.824219 1316.832031 249.820312 1316.832031 249.820312 1316.828125 Z M 249.820312 1316.828125 " fill-opacity="1" fill-rule="nonzero"/></g></g></g><g clip-path="url(#005ef68c03)"><g clip-path="url(#1d12bb27cc)"><g clip-path="url(#d835f107f4)"><path fill="#715c50" d="M 208.132812 1306.71875 C 209.8125 1306.875 211.328125 1307.675781 212.410156 1308.976562 C 213.488281 1310.273438 213.996094 1311.914062 213.839844 1313.597656 C 213.769531 1314.324219 213.582031 1315.023438 213.285156 1315.667969 C 213.996094 1315.488281 214.742188 1315.433594 215.496094 1315.511719 C 217.203125 1315.691406 218.730469 1316.53125 219.796875 1317.878906 C 220.800781 1319.152344 221.273438 1320.75 221.121094 1322.382812 C 220.96875 1324.011719 220.210938 1325.496094 218.988281 1326.5625 C 217.691406 1327.691406 216.035156 1328.234375 214.328125 1328.097656 C 212.613281 1327.957031 211.070312 1327.152344 209.972656 1325.832031 L 209.964844 1325.820312 C 209.832031 1325.660156 209.644531 1325.5625 209.4375 1325.542969 C 209.4375 1325.542969 209.4375 1325.542969 209.433594 1325.542969 C 209.226562 1325.523438 209.027344 1325.585938 208.867188 1325.71875 L 198.339844 1334.457031 C 198.183594 1334.585938 198.085938 1334.769531 198.066406 1334.96875 C 198.050781 1335.171875 198.109375 1335.367188 198.242188 1335.523438 C 198.261719 1335.550781 198.285156 1335.578125 198.308594 1335.601562 C 199.332031 1336.867188 199.824219 1338.464844 199.691406 1340.097656 C 199.558594 1341.738281 198.8125 1343.230469 197.597656 1344.3125 C 196.300781 1345.460938 194.640625 1346.019531 192.917969 1345.886719 C 191.195312 1345.753906 189.640625 1344.949219 188.535156 1343.621094 C 186.933594 1341.6875 186.675781 1339.070312 187.664062 1336.929688 C 186.976562 1337.105469 186.253906 1337.160156 185.523438 1337.09375 C 183.84375 1336.9375 182.324219 1336.136719 181.246094 1334.835938 C 180.144531 1333.511719 179.640625 1331.84375 179.824219 1330.132812 C 180.007812 1328.421875 180.851562 1326.890625 182.207031 1325.828125 C 183.480469 1324.832031 185.070312 1324.367188 186.691406 1324.515625 C 186.707031 1324.519531 186.71875 1324.519531 186.730469 1324.519531 C 188.367188 1324.683594 189.851562 1325.453125 190.910156 1326.691406 L 190.949219 1326.738281 C 191.242188 1327.089844 191.765625 1327.136719 192.113281 1326.851562 L 202.554688 1318.1875 C 202.902344 1317.898438 202.949219 1317.375 202.660156 1317.019531 L 202.621094 1316.972656 C 201.597656 1315.707031 201.113281 1314.105469 201.257812 1312.46875 C 201.398438 1310.828125 202.152344 1309.335938 203.375 1308.261719 C 204.671875 1307.125 206.328125 1306.578125 208.042969 1306.710938 C 208.074219 1306.714844 208.105469 1306.71875 208.132812 1306.71875 Z M 210.804688 1316.929688 C 211.847656 1316.0625 212.492188 1314.835938 212.621094 1313.484375 C 212.746094 1312.128906 212.335938 1310.804688 211.464844 1309.757812 C 210.582031 1308.6875 209.328125 1308.039062 207.949219 1307.929688 C 206.566406 1307.820312 205.226562 1308.265625 204.183594 1309.179688 C 203.195312 1310.046875 202.589844 1311.25 202.476562 1312.570312 C 202.359375 1313.894531 202.75 1315.183594 203.574219 1316.207031 L 203.605469 1316.242188 C 204.320312 1317.117188 204.199219 1318.410156 203.335938 1319.125 L 192.894531 1327.792969 C 192.03125 1328.507812 190.738281 1328.386719 190.011719 1327.523438 L 189.980469 1327.488281 C 189.128906 1326.492188 187.933594 1325.867188 186.613281 1325.738281 C 186.601562 1325.738281 186.589844 1325.734375 186.578125 1325.734375 C 185.269531 1325.613281 183.988281 1325.988281 182.964844 1326.792969 C 181.871094 1327.648438 181.1875 1328.882812 181.042969 1330.261719 C 180.894531 1331.640625 181.300781 1332.988281 182.1875 1334.054688 C 183.058594 1335.105469 184.28125 1335.75 185.636719 1335.875 C 185.636719 1335.875 185.636719 1335.875 185.640625 1335.875 C 186.996094 1336.003906 188.316406 1335.59375 189.363281 1334.722656 C 189.625 1334.507812 190.011719 1334.542969 190.226562 1334.804688 C 190.335938 1334.933594 190.378906 1335.09375 190.363281 1335.25 C 190.351562 1335.40625 190.277344 1335.558594 190.148438 1335.664062 C 187.984375 1337.460938 187.683594 1340.679688 189.480469 1342.839844 C 190.371094 1343.914062 191.625 1344.558594 193.015625 1344.667969 C 194.402344 1344.773438 195.742188 1344.324219 196.785156 1343.398438 C 197.765625 1342.527344 198.367188 1341.320312 198.472656 1340 C 198.582031 1338.679688 198.183594 1337.390625 197.359375 1336.375 C 197.34375 1336.351562 197.324219 1336.332031 197.304688 1336.308594 C 196.964844 1335.902344 196.804688 1335.386719 196.851562 1334.859375 C 196.898438 1334.332031 197.152344 1333.855469 197.558594 1333.515625 L 208.085938 1324.777344 C 208.496094 1324.4375 209.015625 1324.277344 209.550781 1324.328125 C 210.085938 1324.375 210.566406 1324.632812 210.90625 1325.042969 L 210.914062 1325.050781 C 211.796875 1326.117188 213.046875 1326.765625 214.425781 1326.878906 C 215.804688 1326.988281 217.140625 1326.550781 218.1875 1325.640625 C 219.171875 1324.78125 219.78125 1323.585938 219.902344 1322.269531 C 220.027344 1320.953125 219.648438 1319.664062 218.835938 1318.636719 C 217.976562 1317.550781 216.746094 1316.871094 215.367188 1316.726562 C 213.992188 1316.585938 212.648438 1316.992188 211.582031 1317.875 C 211.320312 1318.089844 210.9375 1318.054688 210.71875 1317.796875 C 210.503906 1317.535156 210.539062 1317.148438 210.800781 1316.933594 C 210.800781 1316.933594 210.804688 1316.933594 210.804688 1316.929688 Z M 210.804688 1316.929688 " fill-opacity="1" fill-rule="nonzero"/></g></g></g><g clip-path="url(#0a4a434116)"><g clip-path="url(#568a66e598)"><g clip-path="url(#bc6d6aaba0)"><path fill="#715c50" d="M 59.074219 1353.351562 C 57.425781 1352.984375 56.023438 1352.003906 55.113281 1350.578125 C 54.207031 1349.152344 53.910156 1347.460938 54.277344 1345.8125 C 54.4375 1345.097656 54.710938 1344.429688 55.085938 1343.828125 C 54.359375 1343.917969 53.609375 1343.875 52.875 1343.703125 C 51.203125 1343.3125 49.792969 1342.285156 48.90625 1340.816406 C 48.066406 1339.425781 47.800781 1337.78125 48.15625 1336.183594 C 48.511719 1334.585938 49.449219 1333.207031 50.796875 1332.304688 C 52.222656 1331.347656 53.933594 1331.015625 55.613281 1331.367188 C 57.296875 1331.71875 58.726562 1332.710938 59.648438 1334.160156 L 59.65625 1334.171875 C 59.769531 1334.347656 59.941406 1334.46875 60.144531 1334.515625 C 60.351562 1334.558594 60.558594 1334.523438 60.730469 1334.414062 L 72.273438 1327.066406 C 72.445312 1326.957031 72.566406 1326.789062 72.609375 1326.589844 C 72.652344 1326.390625 72.613281 1326.1875 72.503906 1326.019531 C 72.488281 1325.988281 72.46875 1325.960938 72.449219 1325.929688 C 71.589844 1324.550781 71.304688 1322.902344 71.640625 1321.296875 C 71.980469 1319.691406 72.90625 1318.300781 74.25 1317.382812 C 75.675781 1316.40625 77.394531 1316.058594 79.085938 1316.40625 C 80.78125 1316.753906 82.222656 1317.746094 83.148438 1319.203125 C 84.5 1321.324219 84.421875 1323.949219 83.171875 1325.953125 C 83.878906 1325.867188 84.605469 1325.898438 85.320312 1326.058594 C 86.96875 1326.425781 88.375 1327.410156 89.28125 1328.835938 C 90.203125 1330.285156 90.496094 1332.007812 90.097656 1333.683594 C 89.703125 1335.355469 88.671875 1336.765625 87.191406 1337.652344 C 85.808594 1338.480469 84.171875 1338.742188 82.582031 1338.390625 C 82.566406 1338.386719 82.554688 1338.382812 82.539062 1338.378906 C 80.9375 1338.015625 79.5625 1337.0625 78.667969 1335.699219 L 78.636719 1335.652344 C 78.390625 1335.265625 77.878906 1335.152344 77.496094 1335.394531 L 66.046875 1342.675781 C 65.667969 1342.921875 65.554688 1343.433594 65.796875 1343.820312 L 65.832031 1343.871094 C 66.683594 1345.257812 66.964844 1346.90625 66.617188 1348.511719 C 66.273438 1350.121094 65.335938 1351.507812 63.988281 1352.417969 C 62.558594 1353.382812 60.84375 1353.71875 59.160156 1353.371094 C 59.132812 1353.363281 59.101562 1353.359375 59.074219 1353.351562 Z M 57.707031 1342.886719 C 56.558594 1343.617188 55.765625 1344.75 55.472656 1346.078125 C 55.175781 1347.40625 55.417969 1348.773438 56.148438 1349.921875 C 56.894531 1351.089844 58.050781 1351.890625 59.410156 1352.175781 C 60.769531 1352.457031 62.152344 1352.183594 63.300781 1351.40625 C 64.390625 1350.671875 65.140625 1349.554688 65.421875 1348.257812 C 65.703125 1346.960938 65.476562 1345.632812 64.789062 1344.511719 L 64.761719 1344.472656 C 64.164062 1343.515625 64.445312 1342.25 65.390625 1341.644531 L 76.839844 1334.363281 C 77.785156 1333.757812 79.054688 1334.039062 79.664062 1334.988281 L 79.691406 1335.03125 C 80.410156 1336.125 81.519531 1336.890625 82.8125 1337.1875 C 82.824219 1337.191406 82.835938 1337.191406 82.84375 1337.195312 C 84.128906 1337.480469 85.449219 1337.269531 86.5625 1336.601562 C 87.757812 1335.886719 88.589844 1334.75 88.90625 1333.398438 C 89.226562 1332.050781 88.992188 1330.660156 88.246094 1329.492188 C 87.515625 1328.34375 86.382812 1327.546875 85.050781 1327.25 C 83.722656 1326.957031 82.359375 1327.195312 81.210938 1327.925781 C 80.925781 1328.109375 80.546875 1328.023438 80.367188 1327.738281 C 80.277344 1327.597656 80.25 1327.429688 80.285156 1327.277344 C 80.320312 1327.125 80.410156 1326.984375 80.554688 1326.894531 C 82.925781 1325.386719 83.625 1322.230469 82.117188 1319.859375 C 81.367188 1318.683594 80.203125 1317.886719 78.839844 1317.601562 C 77.476562 1317.324219 76.089844 1317.601562 74.9375 1318.390625 C 73.855469 1319.128906 73.109375 1320.25 72.835938 1321.546875 C 72.5625 1322.84375 72.796875 1324.171875 73.488281 1325.285156 C 73.5 1325.308594 73.515625 1325.332031 73.53125 1325.355469 C 73.816406 1325.800781 73.914062 1326.332031 73.800781 1326.851562 C 73.6875 1327.371094 73.378906 1327.8125 72.929688 1328.097656 L 61.386719 1335.441406 C 60.9375 1335.730469 60.402344 1335.824219 59.878906 1335.707031 C 59.355469 1335.589844 58.910156 1335.277344 58.625 1334.828125 L 58.617188 1334.816406 C 57.875 1333.648438 56.71875 1332.847656 55.363281 1332.5625 C 54.007812 1332.277344 52.628906 1332.546875 51.476562 1333.320312 C 50.390625 1334.046875 49.636719 1335.15625 49.347656 1336.449219 C 49.0625 1337.738281 49.277344 1339.066406 49.953125 1340.183594 C 50.667969 1341.371094 51.804688 1342.199219 53.152344 1342.515625 C 54.5 1342.828125 55.886719 1342.59375 57.054688 1341.851562 C 57.339844 1341.667969 57.714844 1341.753906 57.898438 1342.039062 C 58.078125 1342.324219 57.996094 1342.703125 57.710938 1342.882812 C 57.710938 1342.882812 57.707031 1342.886719 57.707031 1342.886719 Z M 57.707031 1342.886719 " fill-opacity="1" fill-rule="nonzero"/></g></g></g><g clip-path="url(#304533a42e)"><g clip-path="url(#b3951aa8ed)"><g clip-path="url(#3906687eae)"><path fill="#bca893" d="M 108.390625 1318.53125 C 108.574219 1316.472656 109.542969 1314.613281 111.132812 1313.289062 C 112.714844 1311.960938 114.71875 1311.332031 116.777344 1311.515625 C 117.667969 1311.59375 118.523438 1311.824219 119.3125 1312.183594 C 119.089844 1311.3125 119.023438 1310.402344 119.113281 1309.476562 C 119.324219 1307.390625 120.347656 1305.515625 121.992188 1304.207031 C 123.539062 1302.96875 125.496094 1302.386719 127.488281 1302.5625 C 129.484375 1302.742188 131.304688 1303.660156 132.617188 1305.152344 C 134.003906 1306.734375 134.675781 1308.757812 134.515625 1310.851562 C 134.355469 1312.949219 133.378906 1314.839844 131.765625 1316.1875 L 131.75 1316.199219 C 131.558594 1316.359375 131.4375 1316.589844 131.414062 1316.84375 C 131.414062 1316.84375 131.414062 1316.84375 131.414062 1316.847656 C 131.390625 1317.101562 131.46875 1317.347656 131.628906 1317.539062 L 142.371094 1330.378906 C 142.53125 1330.570312 142.753906 1330.6875 143.003906 1330.707031 C 143.25 1330.730469 143.488281 1330.652344 143.679688 1330.492188 C 143.710938 1330.464844 143.746094 1330.4375 143.777344 1330.410156 C 145.316406 1329.152344 147.269531 1328.542969 149.269531 1328.699219 C 151.273438 1328.851562 153.109375 1329.757812 154.433594 1331.242188 C 155.84375 1332.820312 156.539062 1334.847656 156.382812 1336.957031 C 156.230469 1339.066406 155.253906 1340.972656 153.632812 1342.328125 C 151.273438 1344.300781 148.074219 1344.625 145.449219 1343.425781 C 145.667969 1344.269531 145.742188 1345.152344 145.660156 1346.042969 C 145.660156 1346.042969 145.660156 1346.042969 145.660156 1346.046875 C 145.476562 1348.101562 144.503906 1349.964844 142.921875 1351.289062 C 141.304688 1352.640625 139.265625 1353.265625 137.167969 1353.050781 C 135.078125 1352.835938 133.203125 1351.808594 131.894531 1350.15625 C 130.667969 1348.605469 130.089844 1346.660156 130.269531 1344.675781 C 130.269531 1344.660156 130.269531 1344.644531 130.273438 1344.628906 C 130.464844 1342.625 131.398438 1340.804688 132.910156 1339.503906 L 132.964844 1339.457031 C 133.390625 1339.097656 133.453125 1338.457031 133.097656 1338.035156 L 122.445312 1325.300781 C 122.089844 1324.875 121.453125 1324.820312 121.019531 1325.175781 L 120.964844 1325.222656 C 119.417969 1326.480469 117.460938 1327.082031 115.457031 1326.914062 C 113.453125 1326.75 111.621094 1325.835938 110.300781 1324.34375 C 108.90625 1322.761719 108.226562 1320.734375 108.382812 1318.636719 C 108.382812 1318.601562 108.386719 1318.566406 108.390625 1318.53125 Z M 120.871094 1315.210938 C 119.804688 1313.9375 118.300781 1313.15625 116.644531 1313.007812 C 114.984375 1312.859375 113.367188 1313.367188 112.089844 1314.4375 C 110.789062 1315.527344 110 1317.058594 109.875 1318.75 C 109.746094 1320.441406 110.296875 1322.078125 111.421875 1323.351562 C 112.484375 1324.554688 113.960938 1325.289062 115.578125 1325.425781 C 117.195312 1325.558594 118.773438 1325.074219 120.019531 1324.0625 L 120.066406 1324.023438 C 121.128906 1323.144531 122.710938 1323.285156 123.59375 1324.339844 L 134.246094 1337.070312 C 135.125 1338.125 134.984375 1339.707031 133.933594 1340.597656 L 133.886719 1340.636719 C 132.671875 1341.683594 131.917969 1343.152344 131.761719 1344.769531 C 131.761719 1344.78125 131.761719 1344.792969 131.757812 1344.808594 C 131.617188 1346.410156 132.082031 1347.976562 133.070312 1349.226562 C 134.125 1350.558594 135.636719 1351.390625 137.324219 1351.5625 C 139.011719 1351.734375 140.660156 1351.230469 141.960938 1350.140625 C 143.238281 1349.074219 144.023438 1347.570312 144.171875 1345.910156 C 144.320312 1344.25 143.8125 1342.632812 142.742188 1341.355469 C 142.476562 1341.039062 142.519531 1340.566406 142.835938 1340.300781 C 142.996094 1340.171875 143.191406 1340.113281 143.382812 1340.128906 C 143.574219 1340.148438 143.757812 1340.238281 143.890625 1340.394531 C 146.097656 1343.035156 150.039062 1343.382812 152.675781 1341.179688 C 153.980469 1340.085938 154.765625 1338.546875 154.894531 1336.84375 C 155.015625 1335.144531 154.457031 1333.507812 153.320312 1332.234375 C 152.25 1331.039062 150.773438 1330.3125 149.15625 1330.1875 C 147.539062 1330.0625 145.964844 1330.550781 144.722656 1331.566406 C 144.699219 1331.589844 144.671875 1331.613281 144.644531 1331.632812 C 144.148438 1332.050781 143.519531 1332.253906 142.875 1332.195312 C 142.226562 1332.140625 141.640625 1331.835938 141.222656 1331.335938 L 130.484375 1318.496094 C 130.066406 1318 129.867188 1317.363281 129.925781 1316.710938 C 129.984375 1316.058594 130.292969 1315.46875 130.792969 1315.050781 L 130.808594 1315.039062 C 132.105469 1313.953125 132.894531 1312.421875 133.023438 1310.734375 C 133.15625 1309.046875 132.609375 1307.414062 131.492188 1306.140625 C 130.4375 1304.9375 128.96875 1304.195312 127.359375 1304.054688 C 125.746094 1303.910156 124.171875 1304.378906 122.921875 1305.378906 C 121.59375 1306.433594 120.769531 1307.945312 120.601562 1309.628906 C 120.433594 1311.3125 120.9375 1312.957031 122.023438 1314.257812 C 122.289062 1314.574219 122.246094 1315.046875 121.929688 1315.3125 C 121.613281 1315.578125 121.140625 1315.535156 120.875 1315.21875 C 120.875 1315.214844 120.871094 1315.214844 120.871094 1315.210938 Z M 120.871094 1315.210938 " fill-opacity="1" fill-rule="nonzero"/></g></g></g><g clip-path="url(#ea76b02056)"><g clip-path="url(#7651dd5a54)"><g clip-path="url(#27dbec924c)"><path fill="#bca893" d="M 360.699219 1312.914062 C 360.875 1311.285156 361.667969 1309.824219 362.945312 1308.789062 C 364.222656 1307.757812 365.824219 1307.285156 367.453125 1307.457031 C 368.160156 1307.535156 368.835938 1307.726562 369.457031 1308.023438 C 369.292969 1307.328125 369.25 1306.601562 369.335938 1305.871094 C 369.53125 1304.214844 370.367188 1302.742188 371.6875 1301.726562 C 372.9375 1300.761719 374.496094 1300.324219 376.078125 1300.492188 C 377.660156 1300.660156 379.09375 1301.414062 380.113281 1302.617188 C 381.195312 1303.890625 381.703125 1305.503906 381.546875 1307.164062 C 381.390625 1308.828125 380.589844 1310.316406 379.292969 1311.367188 L 379.28125 1311.375 C 379.125 1311.5 379.027344 1311.683594 379.003906 1311.882812 C 379.003906 1311.882812 379.003906 1311.882812 379.003906 1311.886719 C 378.984375 1312.085938 379.039062 1312.285156 379.167969 1312.4375 L 387.523438 1322.777344 C 387.648438 1322.929688 387.824219 1323.027344 388.023438 1323.046875 C 388.21875 1323.066406 388.410156 1323.007812 388.5625 1322.882812 C 388.585938 1322.863281 388.613281 1322.84375 388.640625 1322.820312 C 389.878906 1321.839844 391.4375 1321.382812 393.023438 1321.53125 C 394.613281 1321.683594 396.058594 1322.425781 397.089844 1323.621094 C 398.191406 1324.890625 398.710938 1326.511719 398.5625 1328.183594 C 398.410156 1329.859375 397.613281 1331.359375 396.308594 1332.414062 C 394.410156 1333.949219 391.863281 1334.164062 389.796875 1333.175781 C 389.957031 1333.847656 390.003906 1334.550781 389.929688 1335.257812 C 389.753906 1336.890625 388.957031 1338.355469 387.683594 1339.386719 C 386.382812 1340.4375 384.753906 1340.910156 383.09375 1340.710938 C 381.433594 1340.511719 379.960938 1339.667969 378.941406 1338.339844 C 377.988281 1337.09375 377.558594 1335.542969 377.722656 1333.96875 C 377.726562 1333.953125 377.726562 1333.941406 377.726562 1333.929688 C 377.90625 1332.339844 378.675781 1330.910156 379.890625 1329.894531 L 379.9375 1329.859375 C 380.277344 1329.578125 380.335938 1329.070312 380.058594 1328.730469 L 371.769531 1318.480469 C 371.496094 1318.136719 370.988281 1318.085938 370.640625 1318.363281 L 370.59375 1318.398438 C 369.351562 1319.375 367.789062 1319.828125 366.199219 1319.667969 C 364.609375 1319.511719 363.167969 1318.761719 362.140625 1317.558594 C 361.054688 1316.285156 360.539062 1314.664062 360.691406 1313 C 360.695312 1312.972656 360.699219 1312.945312 360.699219 1312.914062 Z M 370.65625 1310.449219 C 369.824219 1309.421875 368.640625 1308.78125 367.328125 1308.640625 C 366.011719 1308.503906 364.722656 1308.882812 363.691406 1309.714844 C 362.644531 1310.5625 362 1311.769531 361.875 1313.109375 C 361.75 1314.453125 362.167969 1315.757812 363.042969 1316.785156 C 363.871094 1317.753906 365.035156 1318.359375 366.316406 1318.484375 C 367.597656 1318.613281 368.855469 1318.25 369.859375 1317.464844 L 369.898438 1317.433594 C 370.753906 1316.75 372.007812 1316.882812 372.695312 1317.730469 L 380.984375 1327.984375 C 381.667969 1328.832031 381.535156 1330.085938 380.6875 1330.777344 L 380.652344 1330.808594 C 379.671875 1331.625 379.054688 1332.777344 378.910156 1334.058594 C 378.910156 1334.070312 378.90625 1334.082031 378.90625 1334.09375 C 378.773438 1335.363281 379.121094 1336.613281 379.886719 1337.617188 C 380.707031 1338.691406 381.898438 1339.371094 383.234375 1339.527344 C 384.574219 1339.6875 385.886719 1339.308594 386.9375 1338.460938 C 387.964844 1337.628906 388.609375 1336.449219 388.746094 1335.132812 C 388.886719 1333.816406 388.503906 1332.527344 387.675781 1331.496094 C 387.46875 1331.242188 387.507812 1330.867188 387.761719 1330.660156 C 387.890625 1330.558594 388.046875 1330.515625 388.199219 1330.53125 C 388.351562 1330.546875 388.496094 1330.621094 388.597656 1330.75 C 390.316406 1332.875 393.4375 1333.203125 395.5625 1331.488281 C 396.613281 1330.636719 397.257812 1329.425781 397.382812 1328.078125 C 397.5 1326.730469 397.078125 1325.421875 396.191406 1324.394531 C 395.359375 1323.433594 394.195312 1322.835938 392.914062 1322.714844 C 391.632812 1322.59375 390.375 1322.960938 389.378906 1323.75 C 389.355469 1323.769531 389.335938 1323.785156 389.3125 1323.800781 C 388.914062 1324.128906 388.414062 1324.277344 387.898438 1324.226562 C 387.386719 1324.171875 386.925781 1323.921875 386.601562 1323.523438 L 378.242188 1313.183594 C 377.917969 1312.78125 377.769531 1312.277344 377.824219 1311.757812 C 377.878906 1311.238281 378.132812 1310.777344 378.535156 1310.449219 L 378.546875 1310.441406 C 379.59375 1309.597656 380.238281 1308.390625 380.363281 1307.054688 C 380.488281 1305.714844 380.078125 1304.414062 379.207031 1303.386719 C 378.386719 1302.417969 377.230469 1301.808594 375.953125 1301.675781 C 374.675781 1301.539062 373.417969 1301.890625 372.414062 1302.667969 C 371.34375 1303.488281 370.671875 1304.675781 370.515625 1306.011719 C 370.359375 1307.347656 370.734375 1308.660156 371.582031 1309.703125 C 371.789062 1309.960938 371.75 1310.332031 371.492188 1310.539062 C 371.238281 1310.746094 370.863281 1310.707031 370.65625 1310.453125 C 370.65625 1310.449219 370.65625 1310.449219 370.65625 1310.449219 Z M 370.65625 1310.449219 " fill-opacity="1" fill-rule="nonzero"/></g></g></g><g clip-path="url(#1efb1b7050)"><g clip-path="url(#c179133a58)"><g clip-path="url(#80455ce154)"><path fill="#715c50" d="M 304.367188 1336.574219 C 303.449219 1335.214844 303.113281 1333.582031 303.425781 1331.96875 C 303.738281 1330.359375 304.65625 1328.96875 306.015625 1328.046875 C 306.605469 1327.648438 307.246094 1327.363281 307.910156 1327.1875 C 307.339844 1326.761719 306.835938 1326.234375 306.433594 1325.621094 C 305.515625 1324.230469 305.203125 1322.566406 305.558594 1320.933594 C 305.894531 1319.394531 306.804688 1318.054688 308.121094 1317.164062 C 309.441406 1316.273438 311.023438 1315.925781 312.578125 1316.1875 C 314.222656 1316.464844 315.652344 1317.375 316.601562 1318.742188 C 317.554688 1320.117188 317.902344 1321.769531 317.585938 1323.410156 L 317.582031 1323.421875 C 317.546875 1323.621094 317.585938 1323.820312 317.699219 1323.992188 C 317.816406 1324.160156 317.984375 1324.273438 318.183594 1324.308594 L 331.234375 1326.832031 C 331.429688 1326.867188 331.625 1326.828125 331.789062 1326.714844 C 331.949219 1326.605469 332.058594 1326.4375 332.097656 1326.246094 C 332.101562 1326.210938 332.109375 1326.179688 332.117188 1326.144531 C 332.433594 1324.597656 333.328125 1323.242188 334.640625 1322.335938 C 335.949219 1321.425781 337.53125 1321.0625 339.09375 1321.3125 C 340.753906 1321.578125 342.199219 1322.480469 343.160156 1323.855469 C 344.125 1325.230469 344.476562 1326.894531 344.160156 1328.542969 C 343.699219 1330.9375 341.890625 1332.742188 339.671875 1333.320312 C 340.226562 1333.730469 340.714844 1334.238281 341.113281 1334.828125 C 341.113281 1334.828125 341.113281 1334.828125 341.117188 1334.828125 C 342.035156 1336.1875 342.367188 1337.820312 342.058594 1339.433594 C 341.742188 1341.074219 340.796875 1342.484375 339.398438 1343.398438 C 338.003906 1344.316406 336.332031 1344.625 334.699219 1344.261719 C 333.167969 1343.921875 331.835938 1343.015625 330.949219 1341.703125 C 330.941406 1341.691406 330.933594 1341.683594 330.929688 1341.671875 C 330.042969 1340.34375 329.707031 1338.753906 329.984375 1337.195312 L 329.992188 1337.136719 C 330.074219 1336.699219 329.792969 1336.277344 329.359375 1336.195312 L 316.417969 1333.695312 C 315.984375 1333.609375 315.5625 1333.898438 315.476562 1334.332031 L 315.464844 1334.390625 C 315.144531 1335.941406 314.238281 1337.289062 312.921875 1338.195312 C 311.605469 1339.097656 310.019531 1339.453125 308.457031 1339.195312 C 306.808594 1338.921875 305.371094 1338.015625 304.417969 1336.644531 C 304.398438 1336.621094 304.382812 1336.597656 304.367188 1336.574219 Z M 310.390625 1328.273438 C 309.09375 1328.023438 307.777344 1328.292969 306.679688 1329.035156 C 305.585938 1329.773438 304.84375 1330.898438 304.59375 1332.195312 C 304.335938 1333.519531 304.621094 1334.859375 305.390625 1335.964844 C 306.160156 1337.070312 307.320312 1337.800781 308.652344 1338.023438 C 309.910156 1338.230469 311.1875 1337.941406 312.25 1337.214844 C 313.3125 1336.484375 314.042969 1335.398438 314.300781 1334.148438 L 314.3125 1334.101562 C 314.527344 1333.027344 315.570312 1332.320312 316.640625 1332.527344 L 329.585938 1335.027344 C 330.65625 1335.234375 331.363281 1336.277344 331.160156 1337.355469 L 331.152344 1337.402344 C 330.929688 1338.65625 331.199219 1339.9375 331.917969 1341.011719 C 331.921875 1341.019531 331.929688 1341.027344 331.933594 1341.039062 C 332.648438 1342.09375 333.722656 1342.828125 334.957031 1343.101562 C 336.273438 1343.390625 337.621094 1343.144531 338.746094 1342.40625 C 339.875 1341.664062 340.636719 1340.527344 340.890625 1339.207031 C 341.140625 1337.90625 340.871094 1336.589844 340.128906 1335.492188 C 339.390625 1334.394531 338.265625 1333.65625 336.96875 1333.402344 C 336.644531 1333.339844 336.433594 1333.03125 336.496094 1332.707031 C 336.527344 1332.546875 336.621094 1332.414062 336.746094 1332.328125 C 336.875 1332.242188 337.03125 1332.207031 337.191406 1332.238281 C 339.875 1332.753906 342.476562 1330.996094 342.992188 1328.3125 C 343.25 1326.984375 342.960938 1325.644531 342.1875 1324.53125 C 341.410156 1323.425781 340.246094 1322.695312 338.90625 1322.484375 C 337.648438 1322.28125 336.375 1322.578125 335.316406 1323.308594 C 334.257812 1324.042969 333.535156 1325.136719 333.277344 1326.382812 C 333.273438 1326.410156 333.269531 1326.4375 333.261719 1326.460938 C 333.167969 1326.96875 332.882812 1327.40625 332.457031 1327.699219 C 332.027344 1327.988281 331.515625 1328.09375 331.007812 1327.996094 L 317.957031 1325.476562 C 317.449219 1325.375 317.007812 1325.085938 316.71875 1324.65625 C 316.714844 1324.652344 316.714844 1324.652344 316.714844 1324.652344 C 316.425781 1324.222656 316.320312 1323.703125 316.417969 1323.195312 L 316.421875 1323.183594 C 316.675781 1321.863281 316.394531 1320.523438 315.628906 1319.421875 C 314.859375 1318.316406 313.707031 1317.582031 312.378906 1317.359375 C 311.128906 1317.148438 309.851562 1317.429688 308.789062 1318.148438 C 307.722656 1318.867188 306.988281 1319.945312 306.71875 1321.1875 C 306.433594 1322.503906 306.683594 1323.847656 307.421875 1324.96875 C 308.164062 1326.089844 309.296875 1326.851562 310.621094 1327.105469 C 310.941406 1327.167969 311.152344 1327.480469 311.089844 1327.800781 C 311.027344 1328.125 310.714844 1328.335938 310.394531 1328.273438 C 310.394531 1328.273438 310.390625 1328.273438 310.390625 1328.273438 Z M 310.390625 1328.273438 " fill-opacity="1" fill-rule="nonzero"/></g></g></g><g clip-path="url(#581ade2be7)"><g clip-path="url(#9e7d406202)"><g clip-path="url(#5fb318dc15)"><path fill="#bca893" d="M 605.8125 1324.027344 C 605.15625 1322.472656 605.140625 1320.761719 605.773438 1319.191406 C 606.402344 1317.625 607.605469 1316.402344 609.160156 1315.742188 C 609.832031 1315.453125 610.539062 1315.289062 611.246094 1315.246094 C 610.75 1314.703125 610.347656 1314.074219 610.0625 1313.371094 C 609.410156 1311.785156 609.421875 1310.042969 610.105469 1308.464844 C 610.746094 1306.976562 611.929688 1305.800781 613.4375 1305.160156 C 614.945312 1304.519531 616.609375 1304.484375 618.128906 1305.054688 C 619.738281 1305.660156 621.003906 1306.859375 621.691406 1308.429688 C 622.382812 1310.007812 622.40625 1311.746094 621.765625 1313.335938 L 621.757812 1313.351562 C 621.679688 1313.542969 621.683594 1313.753906 621.765625 1313.945312 C 621.765625 1313.945312 621.765625 1313.945312 621.765625 1313.949219 C 621.847656 1314.140625 621.996094 1314.289062 622.1875 1314.367188 L 634.875 1319.488281 C 635.066406 1319.5625 635.269531 1319.5625 635.457031 1319.480469 C 635.644531 1319.402344 635.789062 1319.253906 635.863281 1319.066406 C 635.875 1319.035156 635.886719 1319 635.902344 1318.96875 C 636.527344 1317.464844 637.699219 1316.277344 639.203125 1315.617188 C 640.707031 1314.957031 642.375 1314.902344 643.90625 1315.464844 C 645.527344 1316.058594 646.808594 1317.253906 647.511719 1318.832031 C 648.210938 1320.414062 648.242188 1322.164062 647.59375 1323.765625 C 646.65625 1326.09375 644.472656 1327.5625 642.117188 1327.707031 C 642.597656 1328.230469 642.992188 1328.839844 643.277344 1329.515625 C 643.277344 1329.515625 643.277344 1329.515625 643.28125 1329.515625 C 643.9375 1331.070312 643.953125 1332.785156 643.324219 1334.351562 C 642.679688 1335.949219 641.449219 1337.183594 639.855469 1337.835938 C 638.261719 1338.484375 636.515625 1338.464844 634.9375 1337.777344 C 633.453125 1337.132812 632.289062 1335.953125 631.652344 1334.457031 C 631.648438 1334.441406 631.644531 1334.429688 631.636719 1334.417969 C 631.003906 1332.902344 630.980469 1331.230469 631.566406 1329.707031 L 631.589844 1329.652344 C 631.757812 1329.230469 631.554688 1328.746094 631.136719 1328.578125 L 618.554688 1323.496094 C 618.136719 1323.328125 617.652344 1323.53125 617.480469 1323.957031 L 617.457031 1324.011719 C 616.824219 1325.511719 615.644531 1326.699219 614.136719 1327.351562 C 612.628906 1328.003906 610.957031 1328.050781 609.429688 1327.480469 C 607.816406 1326.878906 606.542969 1325.679688 605.851562 1324.109375 C 605.835938 1324.082031 605.824219 1324.054688 605.8125 1324.027344 Z M 613.535156 1316.828125 C 612.273438 1316.320312 610.890625 1316.335938 609.640625 1316.867188 C 608.386719 1317.398438 607.414062 1318.386719 606.90625 1319.652344 C 606.386719 1320.9375 606.410156 1322.347656 606.96875 1323.613281 C 607.527344 1324.882812 608.554688 1325.851562 609.855469 1326.335938 C 611.085938 1326.792969 612.433594 1326.757812 613.652344 1326.230469 C 614.867188 1325.703125 615.820312 1324.746094 616.328125 1323.539062 L 616.347656 1323.492188 C 616.777344 1322.449219 617.96875 1321.941406 619.011719 1322.363281 L 631.59375 1327.441406 C 632.636719 1327.863281 633.144531 1329.054688 632.726562 1330.101562 L 632.707031 1330.148438 C 632.234375 1331.371094 632.257812 1332.722656 632.765625 1333.945312 C 632.773438 1333.957031 632.777344 1333.964844 632.78125 1333.976562 C 633.292969 1335.1875 634.234375 1336.136719 635.425781 1336.65625 C 636.699219 1337.210938 638.109375 1337.226562 639.390625 1336.703125 C 640.675781 1336.175781 641.667969 1335.179688 642.1875 1333.894531 C 642.699219 1332.628906 642.6875 1331.246094 642.152344 1329.992188 C 641.621094 1328.738281 640.632812 1327.765625 639.371094 1327.257812 C 639.058594 1327.132812 638.90625 1326.773438 639.03125 1326.460938 C 639.09375 1326.304688 639.214844 1326.1875 639.359375 1326.128906 C 639.503906 1326.066406 639.671875 1326.058594 639.828125 1326.125 C 642.433594 1327.175781 645.410156 1325.910156 646.460938 1323.304688 C 646.984375 1322.011719 646.957031 1320.601562 646.394531 1319.328125 C 645.828125 1318.054688 644.792969 1317.089844 643.484375 1316.609375 C 642.253906 1316.160156 640.90625 1316.203125 639.695312 1316.734375 C 638.480469 1317.269531 637.535156 1318.226562 637.03125 1319.4375 C 637.019531 1319.464844 637.007812 1319.488281 637 1319.515625 C 636.800781 1320.007812 636.425781 1320.394531 635.9375 1320.601562 C 635.449219 1320.8125 634.910156 1320.816406 634.417969 1320.621094 L 621.730469 1315.496094 C 621.238281 1315.296875 620.851562 1314.917969 620.640625 1314.425781 C 620.640625 1314.421875 620.640625 1314.421875 620.640625 1314.421875 C 620.429688 1313.929688 620.425781 1313.386719 620.625 1312.890625 L 620.632812 1312.878906 C 621.148438 1311.59375 621.128906 1310.1875 620.574219 1308.921875 C 620.015625 1307.65625 618.996094 1306.6875 617.699219 1306.199219 C 616.476562 1305.738281 615.132812 1305.769531 613.914062 1306.289062 C 612.699219 1306.804688 611.742188 1307.75 611.226562 1308.949219 C 610.675781 1310.222656 610.664062 1311.628906 611.191406 1312.90625 C 611.71875 1314.1875 612.714844 1315.179688 613.996094 1315.695312 C 614.3125 1315.824219 614.460938 1316.179688 614.335938 1316.492188 C 614.210938 1316.804688 613.851562 1316.957031 613.539062 1316.832031 C 613.539062 1316.832031 613.535156 1316.832031 613.535156 1316.828125 Z M 613.535156 1316.828125 " fill-opacity="1" fill-rule="nonzero"/></g></g></g><g clip-path="url(#c40e9158de)"><g clip-path="url(#bbf7622b40)"><g clip-path="url(#9ede92316d)"><path fill="#715c50" d="M 571.847656 1306.71875 C 573.527344 1306.875 575.042969 1307.675781 576.125 1308.976562 C 577.203125 1310.273438 577.710938 1311.914062 577.554688 1313.597656 C 577.484375 1314.324219 577.296875 1315.023438 577 1315.667969 C 577.710938 1315.488281 578.457031 1315.433594 579.210938 1315.511719 C 580.917969 1315.691406 582.445312 1316.53125 583.511719 1317.878906 C 584.515625 1319.152344 584.988281 1320.75 584.835938 1322.382812 C 584.683594 1324.011719 583.925781 1325.496094 582.703125 1326.5625 C 581.40625 1327.691406 579.75 1328.234375 578.042969 1328.097656 C 576.328125 1327.957031 574.785156 1327.152344 573.6875 1325.832031 L 573.679688 1325.820312 C 573.546875 1325.660156 573.359375 1325.5625 573.152344 1325.542969 C 573.152344 1325.542969 573.152344 1325.542969 573.148438 1325.542969 C 572.941406 1325.523438 572.742188 1325.585938 572.582031 1325.71875 L 562.054688 1334.457031 C 561.898438 1334.585938 561.800781 1334.769531 561.78125 1334.96875 C 561.765625 1335.171875 561.824219 1335.367188 561.957031 1335.523438 C 561.980469 1335.550781 562 1335.578125 562.023438 1335.601562 C 563.046875 1336.867188 563.539062 1338.464844 563.40625 1340.097656 C 563.273438 1341.738281 562.527344 1343.230469 561.3125 1344.3125 C 560.015625 1345.460938 558.355469 1346.019531 556.632812 1345.886719 C 554.910156 1345.753906 553.355469 1344.949219 552.253906 1343.621094 C 550.648438 1341.6875 550.390625 1339.070312 551.382812 1336.929688 C 550.691406 1337.105469 549.96875 1337.160156 549.238281 1337.09375 C 547.558594 1336.9375 546.039062 1336.136719 544.960938 1334.835938 C 543.863281 1333.511719 543.355469 1331.84375 543.539062 1330.132812 C 543.722656 1328.421875 544.570312 1326.890625 545.925781 1325.828125 C 547.195312 1324.832031 548.785156 1324.367188 550.40625 1324.515625 C 550.421875 1324.519531 550.433594 1324.519531 550.449219 1324.519531 C 552.082031 1324.683594 553.566406 1325.453125 554.625 1326.691406 L 554.664062 1326.738281 C 554.957031 1327.089844 555.480469 1327.136719 555.828125 1326.851562 L 566.269531 1318.1875 C 566.617188 1317.898438 566.664062 1317.375 566.375 1317.019531 L 566.335938 1316.972656 C 565.316406 1315.707031 564.828125 1314.105469 564.972656 1312.46875 C 565.113281 1310.828125 565.867188 1309.335938 567.089844 1308.261719 C 568.386719 1307.125 570.046875 1306.578125 571.757812 1306.710938 C 571.789062 1306.714844 571.820312 1306.71875 571.847656 1306.71875 Z M 574.519531 1316.929688 C 575.566406 1316.0625 576.207031 1314.835938 576.335938 1313.484375 C 576.460938 1312.128906 576.050781 1310.804688 575.183594 1309.757812 C 574.296875 1308.6875 573.042969 1308.039062 571.664062 1307.929688 C 570.28125 1307.820312 568.941406 1308.265625 567.898438 1309.179688 C 566.910156 1310.046875 566.304688 1311.25 566.191406 1312.570312 C 566.074219 1313.894531 566.464844 1315.183594 567.289062 1316.207031 L 567.320312 1316.242188 C 568.035156 1317.117188 567.914062 1318.410156 567.050781 1319.125 L 556.609375 1327.792969 C 555.746094 1328.507812 554.453125 1328.386719 553.730469 1327.523438 L 553.695312 1327.488281 C 552.84375 1326.492188 551.648438 1325.867188 550.328125 1325.738281 C 550.316406 1325.738281 550.304688 1325.734375 550.292969 1325.734375 C 548.984375 1325.613281 547.703125 1325.988281 546.679688 1326.792969 C 545.585938 1327.648438 544.902344 1328.882812 544.757812 1330.261719 C 544.609375 1331.640625 545.015625 1332.988281 545.902344 1334.054688 C 546.773438 1335.105469 547.996094 1335.75 549.355469 1335.875 C 550.710938 1336.003906 552.035156 1335.59375 553.082031 1334.722656 C 553.339844 1334.507812 553.726562 1334.542969 553.941406 1334.804688 C 554.050781 1334.933594 554.09375 1335.09375 554.082031 1335.25 C 554.066406 1335.40625 553.992188 1335.558594 553.863281 1335.664062 C 551.699219 1337.460938 551.398438 1340.679688 553.195312 1342.839844 C 554.085938 1343.914062 555.339844 1344.558594 556.730469 1344.667969 C 558.117188 1344.773438 559.457031 1344.324219 560.5 1343.398438 C 561.484375 1342.527344 562.082031 1341.320312 562.1875 1340 C 562.296875 1338.679688 561.902344 1337.390625 561.074219 1336.375 C 561.058594 1336.351562 561.039062 1336.332031 561.023438 1336.308594 C 560.679688 1335.902344 560.519531 1335.386719 560.566406 1334.859375 C 560.613281 1334.332031 560.867188 1333.855469 561.273438 1333.515625 L 571.804688 1324.777344 C 572.214844 1324.4375 572.730469 1324.277344 573.265625 1324.328125 C 573.800781 1324.375 574.28125 1324.632812 574.621094 1325.042969 L 574.628906 1325.050781 C 575.515625 1326.117188 576.761719 1326.765625 578.140625 1326.878906 C 579.519531 1326.988281 580.855469 1326.550781 581.902344 1325.640625 C 582.886719 1324.78125 583.496094 1323.585938 583.617188 1322.269531 C 583.742188 1320.953125 583.363281 1319.664062 582.550781 1318.636719 C 581.691406 1317.550781 580.460938 1316.871094 579.082031 1316.726562 C 577.707031 1316.585938 576.363281 1316.992188 575.296875 1317.875 C 575.035156 1318.089844 574.652344 1318.054688 574.433594 1317.796875 C 574.21875 1317.535156 574.253906 1317.148438 574.515625 1316.933594 C 574.515625 1316.933594 574.519531 1316.933594 574.519531 1316.929688 Z M 574.519531 1316.929688 " fill-opacity="1" fill-rule="nonzero"/></g></g></g><g clip-path="url(#d3e52a6b37)"><g clip-path="url(#21f06b7320)"><g clip-path="url(#ae2d98faf1)"><path fill="#715c50" d="M 422.789062 1353.351562 C 421.140625 1352.984375 419.738281 1352.003906 418.832031 1350.578125 C 417.925781 1349.152344 417.625 1347.460938 417.992188 1345.8125 C 418.152344 1345.097656 418.425781 1344.429688 418.800781 1343.828125 C 418.074219 1343.917969 417.324219 1343.875 416.589844 1343.703125 C 414.917969 1343.3125 413.507812 1342.285156 412.621094 1340.816406 C 411.78125 1339.425781 411.515625 1337.78125 411.871094 1336.183594 C 412.226562 1334.585938 413.164062 1333.207031 414.511719 1332.304688 C 415.941406 1331.347656 417.652344 1331.015625 419.328125 1331.367188 C 421.011719 1331.71875 422.441406 1332.710938 423.363281 1334.160156 L 423.371094 1334.171875 C 423.484375 1334.347656 423.65625 1334.46875 423.859375 1334.515625 C 423.859375 1334.515625 423.859375 1334.515625 423.863281 1334.515625 C 424.066406 1334.558594 424.273438 1334.523438 424.445312 1334.414062 L 435.988281 1327.066406 C 436.160156 1326.957031 436.28125 1326.789062 436.324219 1326.589844 C 436.367188 1326.390625 436.332031 1326.1875 436.21875 1326.019531 C 436.203125 1325.988281 436.183594 1325.960938 436.164062 1325.929688 C 435.304688 1324.550781 435.019531 1322.902344 435.355469 1321.296875 C 435.695312 1319.691406 436.621094 1318.300781 437.964844 1317.382812 C 439.390625 1316.40625 441.109375 1316.058594 442.800781 1316.40625 C 444.496094 1316.753906 445.9375 1317.746094 446.863281 1319.203125 C 448.214844 1321.324219 448.136719 1323.949219 446.886719 1325.953125 C 447.59375 1325.867188 448.320312 1325.898438 449.035156 1326.058594 C 450.683594 1326.425781 452.089844 1327.410156 452.996094 1328.835938 C 453.917969 1330.285156 454.210938 1332.007812 453.8125 1333.683594 C 453.417969 1335.355469 452.386719 1336.765625 450.90625 1337.652344 C 449.523438 1338.480469 447.886719 1338.742188 446.296875 1338.390625 C 446.28125 1338.386719 446.269531 1338.382812 446.257812 1338.378906 C 444.652344 1338.015625 443.277344 1337.0625 442.382812 1335.699219 L 442.351562 1335.652344 C 442.105469 1335.265625 441.59375 1335.152344 441.210938 1335.394531 L 429.765625 1342.675781 C 429.382812 1342.921875 429.269531 1343.433594 429.511719 1343.820312 L 429.546875 1343.871094 C 430.398438 1345.257812 430.679688 1346.90625 430.332031 1348.511719 C 429.988281 1350.121094 429.050781 1351.507812 427.703125 1352.417969 C 426.273438 1353.382812 424.558594 1353.71875 422.875 1353.371094 C 422.847656 1353.363281 422.816406 1353.359375 422.789062 1353.351562 Z M 421.421875 1342.886719 C 420.277344 1343.617188 419.480469 1344.75 419.1875 1346.078125 C 418.890625 1347.40625 419.132812 1348.773438 419.863281 1349.921875 C 420.609375 1351.089844 421.765625 1351.890625 423.125 1352.175781 C 424.484375 1352.457031 425.867188 1352.183594 427.019531 1351.40625 C 428.105469 1350.671875 428.859375 1349.554688 429.136719 1348.257812 C 429.417969 1346.960938 429.191406 1345.632812 428.503906 1344.511719 L 428.476562 1344.472656 C 427.878906 1343.515625 428.160156 1342.25 429.109375 1341.644531 L 440.554688 1334.363281 C 441.5 1333.757812 442.769531 1334.039062 443.378906 1334.988281 L 443.40625 1335.03125 C 444.125 1336.125 445.234375 1336.890625 446.527344 1337.1875 C 446.539062 1337.191406 446.550781 1337.191406 446.5625 1337.195312 C 447.84375 1337.480469 449.164062 1337.269531 450.28125 1336.601562 C 451.472656 1335.886719 452.304688 1334.75 452.621094 1333.398438 C 452.941406 1332.050781 452.707031 1330.660156 451.960938 1329.492188 C 451.230469 1328.34375 450.097656 1327.546875 448.769531 1327.25 C 448.769531 1327.25 448.769531 1327.25 448.765625 1327.25 C 447.4375 1326.957031 446.074219 1327.195312 444.925781 1327.925781 C 444.640625 1328.109375 444.261719 1328.023438 444.082031 1327.738281 C 443.992188 1327.597656 443.964844 1327.429688 444 1327.277344 C 444.035156 1327.125 444.125 1326.984375 444.269531 1326.894531 C 446.640625 1325.386719 447.339844 1322.230469 445.832031 1319.859375 C 445.082031 1318.683594 443.917969 1317.886719 442.554688 1317.601562 C 441.191406 1317.324219 439.804688 1317.601562 438.652344 1318.390625 C 437.570312 1319.128906 436.824219 1320.25 436.550781 1321.546875 C 436.277344 1322.84375 436.511719 1324.171875 437.203125 1325.285156 C 437.214844 1325.308594 437.230469 1325.332031 437.246094 1325.355469 C 437.53125 1325.800781 437.628906 1326.332031 437.515625 1326.851562 C 437.402344 1327.371094 437.09375 1327.8125 436.644531 1328.097656 L 425.101562 1335.441406 C 424.652344 1335.730469 424.117188 1335.824219 423.59375 1335.707031 C 423.070312 1335.589844 422.625 1335.277344 422.339844 1334.828125 L 422.332031 1334.816406 C 421.589844 1333.648438 420.433594 1332.847656 419.078125 1332.5625 C 417.722656 1332.277344 416.34375 1332.546875 415.191406 1333.320312 C 414.105469 1334.046875 413.351562 1335.15625 413.066406 1336.449219 C 412.777344 1337.738281 412.992188 1339.066406 413.667969 1340.183594 C 414.382812 1341.371094 415.519531 1342.199219 416.867188 1342.515625 C 418.214844 1342.828125 419.601562 1342.59375 420.769531 1341.851562 C 421.054688 1341.667969 421.433594 1341.753906 421.613281 1342.039062 C 421.792969 1342.324219 421.710938 1342.703125 421.425781 1342.882812 C 421.425781 1342.882812 421.421875 1342.886719 421.421875 1342.886719 Z M 421.421875 1342.886719 " fill-opacity="1" fill-rule="nonzero"/></g></g></g><g clip-path="url(#7beada7671)"><g clip-path="url(#478e05edc2)"><g clip-path="url(#71b03627ed)"><path fill="#bca893" d="M 472.105469 1318.53125 C 472.289062 1316.472656 473.261719 1314.613281 474.847656 1313.289062 C 476.429688 1311.960938 478.4375 1311.332031 480.492188 1311.515625 C 481.382812 1311.59375 482.238281 1311.824219 483.03125 1312.183594 C 482.804688 1311.3125 482.738281 1310.402344 482.828125 1309.476562 C 483.039062 1307.390625 484.0625 1305.515625 485.707031 1304.207031 C 487.257812 1302.96875 489.210938 1302.386719 491.207031 1302.5625 C 493.199219 1302.742188 495.019531 1303.660156 496.332031 1305.152344 C 497.71875 1306.734375 498.390625 1308.757812 498.230469 1310.851562 C 498.070312 1312.949219 497.09375 1314.839844 495.480469 1316.1875 L 495.46875 1316.199219 C 495.273438 1316.359375 495.152344 1316.589844 495.128906 1316.84375 C 495.128906 1316.84375 495.128906 1316.84375 495.128906 1316.847656 C 495.105469 1317.101562 495.183594 1317.347656 495.347656 1317.539062 L 506.085938 1330.378906 C 506.246094 1330.570312 506.472656 1330.6875 506.71875 1330.707031 C 506.964844 1330.730469 507.203125 1330.652344 507.394531 1330.492188 C 507.425781 1330.464844 507.460938 1330.4375 507.492188 1330.410156 C 509.03125 1329.152344 510.984375 1328.542969 512.984375 1328.699219 C 514.988281 1328.851562 516.824219 1329.757812 518.148438 1331.242188 C 519.558594 1332.820312 520.253906 1334.847656 520.097656 1336.957031 C 519.945312 1339.066406 518.96875 1340.972656 517.347656 1342.328125 C 514.992188 1344.300781 511.792969 1344.625 509.164062 1343.425781 C 509.382812 1344.269531 509.457031 1345.152344 509.375 1346.042969 C 509.375 1346.042969 509.375 1346.042969 509.375 1346.046875 C 509.191406 1348.101562 508.21875 1349.964844 506.636719 1351.289062 C 505.019531 1352.640625 502.980469 1353.265625 500.886719 1353.050781 C 498.792969 1352.835938 496.917969 1351.808594 495.609375 1350.15625 C 494.382812 1348.605469 493.804688 1346.660156 493.984375 1344.675781 C 493.984375 1344.660156 493.984375 1344.644531 493.988281 1344.628906 C 494.179688 1342.625 495.113281 1340.804688 496.625 1339.503906 L 496.679688 1339.457031 C 497.109375 1339.097656 497.167969 1338.457031 496.8125 1338.035156 L 486.160156 1325.300781 C 485.808594 1324.875 485.167969 1324.820312 484.734375 1325.175781 L 484.679688 1325.222656 C 483.132812 1326.480469 481.175781 1327.082031 479.171875 1326.914062 C 477.167969 1326.75 475.335938 1325.835938 474.015625 1324.34375 C 472.621094 1322.761719 471.941406 1320.734375 472.097656 1318.636719 C 472.101562 1318.601562 472.101562 1318.566406 472.105469 1318.53125 Z M 484.585938 1315.210938 C 483.519531 1313.9375 482.019531 1313.15625 480.359375 1313.007812 C 478.699219 1312.859375 477.082031 1313.367188 475.804688 1314.4375 C 474.503906 1315.527344 473.714844 1317.058594 473.589844 1318.75 C 473.460938 1320.441406 474.011719 1322.078125 475.136719 1323.351562 C 476.199219 1324.554688 477.675781 1325.289062 479.292969 1325.425781 C 480.910156 1325.558594 482.488281 1325.074219 483.734375 1324.0625 L 483.78125 1324.023438 C 484.84375 1323.144531 486.425781 1323.285156 487.308594 1324.339844 L 497.960938 1337.070312 C 498.839844 1338.125 498.699219 1339.707031 497.648438 1340.597656 L 497.601562 1340.636719 C 496.386719 1341.683594 495.632812 1343.152344 495.476562 1344.769531 C 495.476562 1344.78125 495.476562 1344.792969 495.476562 1344.808594 C 495.332031 1346.410156 495.796875 1347.976562 496.785156 1349.226562 C 497.839844 1350.558594 499.351562 1351.390625 501.039062 1351.5625 C 502.726562 1351.734375 504.375 1351.230469 505.675781 1350.140625 C 506.953125 1349.074219 507.738281 1347.570312 507.886719 1345.910156 C 508.035156 1344.25 507.527344 1342.632812 506.460938 1341.355469 C 506.195312 1341.039062 506.234375 1340.566406 506.554688 1340.300781 C 506.710938 1340.171875 506.90625 1340.113281 507.097656 1340.128906 C 507.289062 1340.148438 507.472656 1340.238281 507.605469 1340.394531 C 509.8125 1343.035156 513.753906 1343.382812 516.390625 1341.179688 C 517.695312 1340.085938 518.480469 1338.546875 518.609375 1336.84375 C 518.730469 1335.144531 518.171875 1333.507812 517.035156 1332.234375 C 515.96875 1331.039062 514.488281 1330.3125 512.871094 1330.1875 C 511.253906 1330.0625 509.679688 1330.550781 508.441406 1331.566406 C 508.414062 1331.589844 508.386719 1331.613281 508.359375 1331.632812 C 507.863281 1332.050781 507.234375 1332.253906 506.589844 1332.195312 C 505.941406 1332.140625 505.355469 1331.835938 504.941406 1331.335938 L 494.199219 1318.496094 C 493.78125 1318 493.582031 1317.363281 493.640625 1316.710938 C 493.699219 1316.058594 494.007812 1315.46875 494.507812 1315.050781 L 494.523438 1315.039062 C 495.820312 1313.953125 496.609375 1312.421875 496.738281 1310.734375 C 496.871094 1309.046875 496.324219 1307.414062 495.207031 1306.140625 C 494.152344 1304.9375 492.683594 1304.195312 491.074219 1304.054688 C 489.460938 1303.910156 487.886719 1304.378906 486.636719 1305.378906 C 485.308594 1306.433594 484.488281 1307.945312 484.316406 1309.628906 C 484.148438 1311.3125 484.652344 1312.957031 485.738281 1314.257812 C 486.003906 1314.574219 485.960938 1315.046875 485.644531 1315.3125 C 485.328125 1315.578125 484.855469 1315.535156 484.589844 1315.21875 C 484.589844 1315.214844 484.589844 1315.214844 484.585938 1315.210938 Z M 484.585938 1315.210938 " fill-opacity="1" fill-rule="nonzero"/></g></g></g><g clip-path="url(#eaf9293ffb)"><g clip-path="url(#860f9e3ddd)"><g clip-path="url(#c9dce85c07)"><path fill="#bca893" d="M 724.417969 1312.914062 C 724.589844 1311.285156 725.382812 1309.824219 726.660156 1308.789062 C 727.9375 1307.757812 729.539062 1307.285156 731.167969 1307.457031 C 731.875 1307.535156 732.550781 1307.726562 733.175781 1308.023438 C 733.007812 1307.328125 732.964844 1306.601562 733.050781 1305.871094 C 733.246094 1304.214844 734.082031 1302.742188 735.40625 1301.726562 C 736.652344 1300.761719 738.210938 1300.324219 739.792969 1300.492188 C 741.375 1300.660156 742.808594 1301.414062 743.828125 1302.617188 C 744.910156 1303.890625 745.417969 1305.503906 745.261719 1307.164062 C 745.105469 1308.828125 744.304688 1310.316406 743.007812 1311.367188 L 742.996094 1311.375 C 742.839844 1311.5 742.742188 1311.683594 742.71875 1311.882812 C 742.71875 1311.882812 742.71875 1311.882812 742.71875 1311.886719 C 742.699219 1312.085938 742.753906 1312.285156 742.882812 1312.4375 L 751.242188 1322.777344 C 751.363281 1322.929688 751.539062 1323.027344 751.738281 1323.046875 C 751.933594 1323.066406 752.125 1323.007812 752.277344 1322.882812 C 752.304688 1322.863281 752.328125 1322.84375 752.355469 1322.820312 C 753.59375 1321.839844 755.152344 1321.382812 756.742188 1321.53125 C 758.328125 1321.683594 759.773438 1322.425781 760.804688 1323.621094 C 761.90625 1324.890625 762.429688 1326.511719 762.277344 1328.183594 C 762.128906 1329.859375 761.328125 1331.359375 760.023438 1332.414062 C 758.125 1333.949219 755.578125 1334.164062 753.511719 1333.175781 C 753.671875 1333.847656 753.71875 1334.550781 753.644531 1335.257812 C 753.472656 1336.890625 752.671875 1338.355469 751.398438 1339.386719 C 750.097656 1340.4375 748.46875 1340.910156 746.808594 1340.710938 C 745.148438 1340.511719 743.675781 1339.667969 742.660156 1338.339844 C 741.703125 1337.09375 741.273438 1335.542969 741.4375 1333.96875 C 741.441406 1333.953125 741.441406 1333.941406 741.445312 1333.929688 C 741.621094 1332.339844 742.390625 1330.910156 743.605469 1329.894531 L 743.652344 1329.859375 C 743.996094 1329.578125 744.050781 1329.070312 743.773438 1328.730469 L 735.488281 1318.480469 C 735.210938 1318.136719 734.703125 1318.085938 734.355469 1318.363281 L 734.308594 1318.398438 C 733.066406 1319.375 731.503906 1319.828125 729.914062 1319.667969 C 728.324219 1319.511719 726.882812 1318.761719 725.855469 1317.558594 C 724.769531 1316.285156 724.253906 1314.664062 724.40625 1313 C 724.410156 1312.972656 724.414062 1312.945312 724.417969 1312.914062 Z M 734.371094 1310.449219 C 733.539062 1309.421875 732.359375 1308.78125 731.042969 1308.640625 C 729.726562 1308.503906 728.4375 1308.882812 727.40625 1309.714844 C 726.359375 1310.5625 725.714844 1311.769531 725.589844 1313.109375 C 725.46875 1314.453125 725.882812 1315.757812 726.757812 1316.785156 C 727.585938 1317.753906 728.75 1318.359375 730.03125 1318.484375 C 731.3125 1318.613281 732.574219 1318.25 733.574219 1317.464844 L 733.613281 1317.433594 C 734.46875 1316.75 735.722656 1316.882812 736.410156 1317.730469 L 744.699219 1327.984375 C 745.382812 1328.832031 745.25 1330.085938 744.402344 1330.777344 L 744.367188 1330.808594 C 743.386719 1331.625 742.769531 1332.777344 742.625 1334.058594 C 742.625 1334.070312 742.625 1334.082031 742.621094 1334.09375 C 742.488281 1335.363281 742.835938 1336.613281 743.601562 1337.617188 C 744.421875 1338.691406 745.613281 1339.371094 746.949219 1339.527344 C 748.289062 1339.6875 749.601562 1339.308594 750.652344 1338.460938 C 751.679688 1337.628906 752.324219 1336.449219 752.460938 1335.132812 C 752.601562 1333.816406 752.222656 1332.527344 751.390625 1331.496094 C 751.183594 1331.242188 751.222656 1330.867188 751.476562 1330.660156 C 751.605469 1330.558594 751.761719 1330.515625 751.914062 1330.53125 C 752.066406 1330.546875 752.210938 1330.621094 752.3125 1330.75 C 754.03125 1332.875 757.152344 1333.203125 759.277344 1331.488281 C 760.328125 1330.636719 760.972656 1329.425781 761.097656 1328.078125 C 761.214844 1326.730469 760.796875 1325.421875 759.910156 1324.394531 C 759.074219 1323.433594 757.910156 1322.835938 756.628906 1322.714844 C 755.347656 1322.59375 754.089844 1322.960938 753.09375 1323.75 C 753.070312 1323.769531 753.050781 1323.785156 753.027344 1323.800781 C 752.628906 1324.128906 752.128906 1324.277344 751.613281 1324.226562 C 751.101562 1324.171875 750.640625 1323.921875 750.316406 1323.523438 L 741.960938 1313.183594 C 741.632812 1312.78125 741.484375 1312.277344 741.539062 1311.757812 C 741.59375 1311.238281 741.847656 1310.777344 742.25 1310.449219 L 742.261719 1310.441406 C 743.308594 1309.597656 743.953125 1308.390625 744.078125 1307.054688 C 744.203125 1305.714844 743.792969 1304.414062 742.921875 1303.386719 C 742.101562 1302.417969 740.945312 1301.808594 739.667969 1301.675781 C 738.390625 1301.539062 737.132812 1301.890625 736.128906 1302.667969 C 735.0625 1303.488281 734.386719 1304.675781 734.230469 1306.011719 C 734.074219 1307.347656 734.453125 1308.660156 735.296875 1309.703125 C 735.503906 1309.960938 735.464844 1310.332031 735.210938 1310.539062 C 734.953125 1310.746094 734.578125 1310.707031 734.375 1310.453125 C 734.371094 1310.449219 734.371094 1310.449219 734.371094 1310.449219 Z M 734.371094 1310.449219 " fill-opacity="1" fill-rule="nonzero"/></g></g></g><g clip-path="url(#db45dc0108)"><g clip-path="url(#36393ebd4e)"><g clip-path="url(#d1e33db6f0)"><path fill="#715c50" d="M 668.082031 1336.574219 C 667.164062 1335.214844 666.828125 1333.582031 667.140625 1331.96875 C 667.453125 1330.359375 668.371094 1328.96875 669.730469 1328.046875 C 670.320312 1327.648438 670.960938 1327.363281 671.628906 1327.1875 C 671.054688 1326.761719 670.554688 1326.234375 670.148438 1325.621094 C 669.230469 1324.230469 668.917969 1322.566406 669.273438 1320.933594 C 669.609375 1319.394531 670.519531 1318.054688 671.835938 1317.164062 C 673.15625 1316.273438 674.738281 1315.925781 676.292969 1316.1875 C 677.9375 1316.464844 679.367188 1317.375 680.316406 1318.742188 C 681.269531 1320.117188 681.617188 1321.769531 681.300781 1323.410156 L 681.300781 1323.421875 C 681.261719 1323.621094 681.300781 1323.820312 681.414062 1323.992188 C 681.414062 1323.992188 681.414062 1323.992188 681.417969 1323.992188 C 681.53125 1324.160156 681.699219 1324.273438 681.898438 1324.308594 L 694.949219 1326.832031 C 695.144531 1326.867188 695.339844 1326.828125 695.503906 1326.714844 C 695.664062 1326.605469 695.777344 1326.4375 695.8125 1326.246094 C 695.816406 1326.210938 695.824219 1326.179688 695.832031 1326.144531 C 696.148438 1324.597656 697.042969 1323.242188 698.355469 1322.335938 C 699.664062 1321.425781 701.25 1321.0625 702.808594 1321.3125 C 704.46875 1321.578125 705.914062 1322.480469 706.875 1323.855469 C 707.839844 1325.230469 708.191406 1326.894531 707.875 1328.542969 C 707.414062 1330.9375 705.605469 1332.742188 703.386719 1333.320312 C 703.941406 1333.730469 704.429688 1334.238281 704.832031 1334.828125 C 705.75 1336.1875 706.085938 1337.820312 705.773438 1339.433594 C 705.457031 1341.074219 704.511719 1342.484375 703.113281 1343.398438 C 701.71875 1344.316406 700.046875 1344.625 698.414062 1344.261719 C 696.882812 1343.921875 695.550781 1343.015625 694.664062 1341.703125 C 694.65625 1341.691406 694.648438 1341.683594 694.644531 1341.671875 C 693.757812 1340.34375 693.421875 1338.753906 693.699219 1337.195312 L 693.710938 1337.136719 C 693.792969 1336.699219 693.507812 1336.277344 693.074219 1336.195312 L 680.132812 1333.695312 C 679.703125 1333.609375 679.277344 1333.898438 679.191406 1334.332031 L 679.179688 1334.390625 C 678.859375 1335.941406 677.957031 1337.289062 676.636719 1338.195312 C 675.320312 1339.097656 673.734375 1339.453125 672.175781 1339.195312 C 670.523438 1338.921875 669.085938 1338.015625 668.132812 1336.644531 C 668.113281 1336.621094 668.097656 1336.597656 668.082031 1336.574219 Z M 674.105469 1328.273438 C 672.808594 1328.023438 671.492188 1328.292969 670.394531 1329.035156 C 669.300781 1329.773438 668.558594 1330.898438 668.308594 1332.195312 C 668.054688 1333.519531 668.335938 1334.859375 669.105469 1335.964844 C 669.875 1337.070312 671.035156 1337.800781 672.367188 1338.023438 C 673.625 1338.230469 674.902344 1337.941406 675.964844 1337.214844 C 677.027344 1336.484375 677.757812 1335.398438 678.015625 1334.148438 L 678.027344 1334.101562 C 678.242188 1333.027344 679.285156 1332.320312 680.359375 1332.527344 L 693.300781 1335.027344 C 694.371094 1335.234375 695.078125 1336.277344 694.878906 1337.355469 L 694.867188 1337.402344 C 694.644531 1338.65625 694.917969 1339.9375 695.632812 1341.011719 C 695.636719 1341.019531 695.644531 1341.027344 695.648438 1341.039062 C 696.367188 1342.09375 697.4375 1342.828125 698.671875 1343.101562 C 699.988281 1343.390625 701.335938 1343.144531 702.460938 1342.40625 C 703.589844 1341.664062 704.351562 1340.527344 704.605469 1339.207031 C 704.855469 1337.90625 704.585938 1336.589844 703.847656 1335.492188 C 703.847656 1335.492188 703.847656 1335.492188 703.84375 1335.492188 C 703.105469 1334.394531 701.980469 1333.65625 700.683594 1333.402344 C 700.359375 1333.339844 700.148438 1333.03125 700.210938 1332.707031 C 700.242188 1332.546875 700.335938 1332.414062 700.460938 1332.328125 C 700.589844 1332.242188 700.746094 1332.207031 700.90625 1332.238281 C 703.589844 1332.753906 706.191406 1330.996094 706.707031 1328.3125 C 706.964844 1326.984375 706.675781 1325.644531 705.902344 1324.53125 C 705.125 1323.425781 703.960938 1322.695312 702.621094 1322.484375 C 701.363281 1322.28125 700.089844 1322.578125 699.03125 1323.308594 C 697.972656 1324.042969 697.25 1325.136719 696.996094 1326.382812 C 696.988281 1326.410156 696.984375 1326.4375 696.976562 1326.460938 C 696.882812 1326.96875 696.597656 1327.40625 696.171875 1327.699219 C 695.746094 1327.988281 695.230469 1328.09375 694.722656 1327.996094 L 681.671875 1325.476562 C 681.164062 1325.375 680.722656 1325.085938 680.433594 1324.65625 C 680.433594 1324.652344 680.433594 1324.652344 680.429688 1324.652344 C 680.140625 1324.222656 680.035156 1323.703125 680.132812 1323.195312 L 680.136719 1323.183594 C 680.390625 1321.863281 680.109375 1320.523438 679.34375 1319.421875 C 678.578125 1318.316406 677.421875 1317.582031 676.09375 1317.359375 C 674.84375 1317.148438 673.566406 1317.429688 672.503906 1318.148438 C 671.441406 1318.867188 670.707031 1319.945312 670.433594 1321.1875 C 670.148438 1322.503906 670.398438 1323.847656 671.136719 1324.96875 C 671.878906 1326.089844 673.015625 1326.851562 674.335938 1327.105469 C 674.65625 1327.167969 674.867188 1327.480469 674.804688 1327.800781 C 674.742188 1328.125 674.433594 1328.335938 674.109375 1328.273438 C 674.109375 1328.273438 674.105469 1328.273438 674.105469 1328.273438 Z M 674.105469 1328.273438 " fill-opacity="1" fill-rule="nonzero"/></g></g></g></svg>