<svg xmlns="http://www.w3.org/2000/svg" xmlns:xlink="http://www.w3.org/1999/xlink" width="322" zoomAndPan="magnify" viewBox="0 0 241.5 241.499991" height="322" preserveAspectRatio="xMidYMid meet" version="1.0"><defs><g/><clipPath id="57f78bffb6"><path d="M 29 81 L 212 81 L 212 160 L 29 160 Z M 29 81 " clip-rule="nonzero"/></clipPath><clipPath id="9aa52a90cc"><path d="M 120.496094 0.574219 L 240.566406 120.644531 L 120.496094 240.714844 L 0.425781 120.644531 Z M 120.496094 0.574219 " clip-rule="nonzero"/></clipPath><clipPath id="60c3d636a7"><path d="M 120.496094 0.574219 L 240.566406 120.644531 L 120.496094 240.714844 L 0.425781 120.644531 Z M 120.496094 0.574219 " clip-rule="nonzero"/></clipPath></defs><g clip-path="url(#57f78bffb6)"><g clip-path="url(#9aa52a90cc)"><g clip-path="url(#60c3d636a7)"><path fill="#6f5d51" d="M 39.011719 120.824219 C 29.726562 127.761719 27.164062 139.507812 32.28125 148.328125 C 37.746094 157.753906 49.835938 159.4375 58.324219 156.8125 C 64.472656 154.914062 69.539062 150.5 72.550781 144.707031 C 74.765625 140.46875 79.136719 137.792969 83.917969 137.792969 L 158.714844 137.792969 C 163.269531 137.792969 167.320312 140.515625 169.207031 144.65625 C 173.828125 154.792969 184.359375 160.648438 194.070312 158.851562 C 203.894531 157.035156 212.285156 147.507812 211.921875 136.90625 C 211.589844 127.390625 204.363281 121.484375 203.140625 120.523438 C 204.359375 119.554688 211.589844 113.652344 211.921875 104.136719 C 212.289062 93.53125 203.902344 84.003906 194.070312 82.195312 C 184.367188 80.402344 173.828125 86.25 169.207031 96.390625 C 167.320312 100.53125 163.265625 103.257812 158.714844 103.253906 L 83.917969 103.253906 C 79.136719 103.253906 74.757812 100.582031 72.550781 96.335938 C 69.539062 90.546875 64.472656 86.132812 58.324219 84.234375 C 49.835938 81.605469 37.753906 83.296875 32.28125 92.71875 C 27.164062 101.550781 29.730469 113.882812 39.011719 120.824219 Z M 39.011719 120.824219 " fill-opacity="1" fill-rule="nonzero"/></g></g></g><g fill="#ffffff" fill-opacity="1"><g transform="translate(58.433002, 128.101187)"><g><path d="M 1.050781 0 L 4.515625 0 C 5.054688 0 5.285156 -0.796875 4.851562 -1.101562 C 4.695312 -1.207031 4.542969 -1.308594 4.414062 -1.386719 C 4.003906 -1.640625 3.722656 -2.078125 3.746094 -2.515625 L 4.15625 -14.265625 L 9.289062 -0.71875 C 9.46875 -0.28125 9.878906 0 10.339844 0 L 11.546875 0 C 12.007812 0 12.394531 -0.28125 12.574219 -0.71875 L 17.371094 -14.191406 L 17.960938 -2.515625 C 17.9375 -2.054688 17.679688 -1.617188 17.242188 -1.410156 C 17.0625 -1.308594 16.882812 -1.207031 16.730469 -1.101562 C 16.320312 -0.796875 16.550781 0 17.0625 0 L 24.992188 0 C 25.53125 0 25.789062 -0.796875 25.351562 -1.101562 C 25.199219 -1.207031 25.042969 -1.308594 24.890625 -1.386719 C 24.503906 -1.640625 24.25 -2.078125 24.25 -2.515625 L 23.582031 -16.164062 C 23.609375 -16.578125 23.863281 -16.988281 24.222656 -17.21875 C 24.378906 -17.296875 24.53125 -17.398438 24.683594 -17.5 C 25.121094 -17.808594 24.863281 -18.605469 24.324219 -18.605469 L 18.117188 -18.605469 C 17.65625 -18.605469 17.242188 -18.320312 17.0625 -17.886719 L 13.367188 -7.851562 L 9.316406 -17.886719 C 9.136719 -18.320312 8.722656 -18.605469 8.261719 -18.605469 L 1.566406 -18.605469 C 1.050781 -18.605469 0.820312 -17.808594 1.257812 -17.5 C 1.386719 -17.398438 1.566406 -17.296875 1.769531 -17.191406 C 2.128906 -17.011719 2.386719 -16.679688 2.4375 -16.292969 L 1.949219 -2.515625 C 1.949219 -2.054688 1.667969 -1.617188 1.257812 -1.410156 C 1.050781 -1.308594 0.871094 -1.207031 0.746094 -1.101562 C 0.308594 -0.796875 0.539062 0 1.050781 0 Z M 1.050781 0 "/></g></g></g><g fill="#ffffff" fill-opacity="1"><g transform="translate(82.960653, 128.101187)"><g><path d="M 0.257812 -10.929688 C 0.4375 -10.804688 0.640625 -10.699219 0.871094 -10.597656 C 1.207031 -10.417969 1.539062 -10.109375 1.769531 -9.75 C 4.414062 -4.183594 8.441406 3.617188 6.3125 4.4375 C 6.234375 4.464844 6.132812 4.492188 6.054688 4.492188 C 5.542969 4.542969 4.644531 3.746094 4.773438 2.257812 C 4.875 1.207031 3.667969 0.539062 2.488281 0.539062 C 1.515625 0.539062 0.539062 1 0.308594 2.054688 C -0.179688 4.207031 1.796875 6.03125 4.851562 5.980469 C 8.3125 5.925781 9.289062 4.027344 10.90625 0.332031 L 15.320312 -9.675781 C 15.5 -10.03125 15.859375 -10.390625 16.242188 -10.625 C 16.398438 -10.699219 16.550781 -10.804688 16.730469 -10.929688 C 17.167969 -11.214844 16.910156 -12.007812 16.371094 -12.007812 L 13.085938 -12.007812 C 12.546875 -12.007812 12.316406 -11.214844 12.753906 -10.929688 C 12.882812 -10.828125 13.011719 -10.75 13.164062 -10.648438 C 13.574219 -10.390625 13.703125 -9.980469 13.546875 -9.570312 L 13.394531 -9.238281 L 13.421875 -9.238281 L 10.699219 -2.925781 C 10.367188 -4.335938 9.160156 -7.082031 8.058594 -9.675781 C 7.953125 -10.058594 8.109375 -10.417969 8.46875 -10.648438 C 8.621094 -10.75 8.75 -10.828125 8.878906 -10.929688 C 9.289062 -11.214844 9.058594 -12.007812 8.542969 -12.007812 L 0.617188 -12.007812 C 0.078125 -12.007812 -0.179688 -11.214844 0.257812 -10.929688 Z M 6.210938 4.464844 C 6.160156 4.492188 6.105469 4.492188 6.054688 4.492188 C 6.105469 4.492188 6.160156 4.492188 6.210938 4.464844 Z M 6.210938 4.464844 "/></g></g></g><g fill="#ffffff" fill-opacity="1"><g transform="translate(98.55974, 128.101187)"><g/></g></g><g fill="#ffffff" fill-opacity="1"><g transform="translate(105.999969, 128.101187)"><g><path d="M 0.898438 -9.289062 C 1.101562 -3.695312 4.59375 0.332031 11.136719 0.332031 C 16.550781 0.332031 19.859375 -2.027344 20.398438 -6.570312 C 20.503906 -7.414062 20.347656 -8.210938 19.578125 -8.261719 C 18.707031 -8.3125 18.5 -7.46875 18.398438 -6.75 C 17.9375 -3.773438 15.910156 -1.976562 13.316406 -1.976562 C 9.289062 -1.976562 7.773438 -5.261719 7.339844 -8.851562 C 6.773438 -13.601562 7.289062 -17.011719 10.007812 -17.347656 C 11.878906 -17.578125 13.625 -16.882812 13.394531 -13.726562 C 13.214844 -11.289062 14.984375 -10.160156 17.191406 -10.339844 C 19.859375 -10.546875 20.273438 -13.113281 19.679688 -14.652344 C 18.707031 -17.296875 15.652344 -18.9375 10.984375 -18.9375 C 4.4375 -18.9375 0.71875 -15.140625 0.898438 -9.289062 Z M 0.898438 -9.289062 "/></g></g></g><g fill="#ffffff" fill-opacity="1"><g transform="translate(125.47323, 128.101187)"><g><path d="M 0.308594 -6.003906 C 0.308594 -1.875 3.105469 0.359375 7.363281 0.359375 C 11.648438 0.359375 14.445312 -1.667969 14.445312 -6.003906 C 14.445312 -10.339844 11.648438 -12.367188 7.363281 -12.367188 C 3.105469 -12.367188 0.308594 -10.136719 0.308594 -6.003906 Z M 6.542969 -10.878906 C 7.722656 -11.085938 8.082031 -9.980469 8.722656 -6.234375 C 9.339844 -2.488281 9.339844 -1.308594 8.1875 -1.101562 C 7.03125 -0.898438 6.644531 -2.027344 6.03125 -5.773438 C 5.386719 -9.519531 5.386719 -10.675781 6.542969 -10.878906 Z M 6.542969 -10.878906 "/></g></g></g><g fill="#ffffff" fill-opacity="1"><g transform="translate(139.199376, 128.101187)"><g><path d="M 0.308594 -6.003906 C 0.359375 -1.875 2.976562 0.667969 6.671875 0.359375 C 7.800781 0.257812 8.75 -0.078125 9.546875 -0.566406 C 10.210938 0.0273438 11.238281 0.308594 12.417969 0.332031 C 16.34375 0.386719 16.730469 -1.589844 16.113281 -1.746094 C 15.78125 -1.820312 15.472656 -1.359375 15.089844 -1.410156 C 14.625 -1.460938 14.472656 -1.925781 14.472656 -2.71875 C 14.472656 -3.746094 14.5 -13.753906 14.5 -15.523438 L 14.5 -16.601562 C 14.5 -18.808594 13.753906 -19.167969 11.777344 -19.167969 C 10.339844 -19.167969 8.621094 -18.835938 7.621094 -18.246094 C 7.109375 -17.960938 7.261719 -17.089844 7.828125 -17.039062 C 8.519531 -17.011719 8.722656 -17.011719 8.722656 -16.191406 L 8.722656 -11.855469 C 8.160156 -12.113281 7.519531 -12.292969 6.800781 -12.367188 C 2.925781 -12.703125 0.230469 -10.085938 0.308594 -6.003906 Z M 6.570312 -10.90625 C 7.722656 -11.109375 8.082031 -10.238281 8.722656 -6.492188 C 9.339844 -2.746094 9.367188 -1.566406 8.1875 -1.359375 C 7.03125 -1.15625 6.644531 -2.285156 6.03125 -6.03125 C 5.386719 -9.777344 5.414062 -10.699219 6.570312 -10.90625 Z M 6.570312 -10.90625 "/></g></g></g><g fill="#ffffff" fill-opacity="1"><g transform="translate(154.38795, 128.101187)"><g><path d="M 0.308594 -6.003906 C 0.410156 -1.875 3.105469 0.359375 7.363281 0.359375 C 11.035156 0.359375 13.574219 -0.921875 14.242188 -4.078125 C 14.34375 -4.671875 14.191406 -5.003906 13.675781 -5.082031 C 13.1875 -5.132812 12.882812 -4.875 12.753906 -4.3125 C 12.394531 -2.695312 11.164062 -1.820312 9.546875 -1.820312 C 8.058594 -1.847656 6.902344 -2.589844 6.183594 -4.464844 C 6.519531 -4.414062 6.929688 -4.386719 7.363281 -4.386719 C 10.1875 -4.386719 14.445312 -5.644531 13.960938 -8.570312 C 13.601562 -10.648438 11.316406 -12.367188 7.722656 -12.367188 C 3.464844 -12.367188 0.207031 -10.160156 0.308594 -6.003906 Z M 7.003906 -10.878906 C 8.46875 -11.1875 9.726562 -9.058594 9.160156 -7.132812 C 8.800781 -5.824219 6.980469 -5.644531 5.824219 -5.746094 C 5.234375 -8.417969 5.851562 -10.648438 7.003906 -10.878906 Z M 7.003906 -10.878906 "/></g></g></g><g fill="#ffffff" fill-opacity="1"><g transform="translate(167.831871, 128.101187)"><g><path d="M 0.488281 -2.308594 C 1.4375 -0.078125 5.515625 0.410156 7.132812 0.410156 C 11.699219 0.410156 14.0625 -1.207031 13.90625 -4.054688 C 13.703125 -8.367188 5.285156 -7.828125 5.414062 -10.160156 C 5.441406 -10.828125 6.210938 -11.1875 7.160156 -11.109375 C 9.621094 -10.90625 9.441406 -8.570312 11.46875 -8.289062 C 12.445312 -8.160156 13.265625 -8.800781 13.085938 -9.777344 C 12.855469 -11.238281 10.726562 -12.265625 7.109375 -12.417969 C 3.105469 -12.597656 0.539062 -11.007812 0.566406 -8.699219 C 0.589844 -4.59375 8.929688 -3.847656 8.929688 -1.925781 C 8.929688 -1.179688 8.339844 -0.71875 7.003906 -0.921875 C 3.644531 -1.4375 4.4375 -4.335938 2.179688 -4.644531 C 0.691406 -4.851562 -0.078125 -3.59375 0.488281 -2.308594 Z M 0.488281 -2.308594 "/></g></g></g></svg>