<svg xmlns="http://www.w3.org/2000/svg" xmlns:xlink="http://www.w3.org/1999/xlink" width="544" zoomAndPan="magnify" viewBox="0 0 408 407.999985" height="544" preserveAspectRatio="xMidYMid meet" version="1.0"><defs><g/><clipPath id="4297a011c8"><path d="M 48 132 L 361 132 L 361 273 L 48 273 Z M 48 132 " clip-rule="nonzero"/></clipPath><clipPath id="4ec4e6dae0"><path d="M 194.796875 0.03125 L 407.808594 194.972656 L 212.867188 407.984375 L -0.144531 213.042969 Z M 194.796875 0.03125 " clip-rule="nonzero"/></clipPath><clipPath id="96bccc440a"><path d="M 194.796875 0.03125 L 407.808594 194.972656 L 212.867188 407.984375 L -0.144531 213.042969 Z M 194.796875 0.03125 " clip-rule="nonzero"/></clipPath></defs><g fill="#6f5d51" fill-opacity="1"><g transform="translate(67.374795, 118.217211)"><g><path d="M 1.992188 0 L 17.070312 0 C 18.089844 0 18.527344 -1.507812 17.703125 -2.089844 C 17.410156 -2.285156 17.117188 -2.480469 16.875 -2.625 C 16.097656 -3.113281 15.609375 -3.9375 15.609375 -4.765625 L 15.609375 -16.730469 L 27.574219 -16.730469 L 27.574219 -4.765625 C 27.523438 -3.890625 27.039062 -3.0625 26.261719 -2.675781 C 25.871094 -2.480469 25.53125 -2.285156 25.238281 -2.089844 C 24.460938 -1.507812 24.898438 0 25.871094 0 L 40.945312 0 C 41.917969 0 42.40625 -1.507812 41.578125 -2.089844 C 41.285156 -2.285156 40.996094 -2.480469 40.703125 -2.625 C 39.972656 -3.113281 39.488281 -3.9375 39.488281 -4.765625 L 39.488281 -30.492188 C 39.488281 -31.316406 39.972656 -32.144531 40.703125 -32.628906 C 40.996094 -32.777344 41.285156 -32.972656 41.578125 -33.164062 C 42.40625 -33.75 41.917969 -35.257812 40.945312 -35.257812 L 25.871094 -35.257812 C 24.898438 -35.257812 24.460938 -33.75 25.238281 -33.164062 C 25.53125 -32.972656 25.871094 -32.777344 26.261719 -32.582031 C 27.039062 -32.191406 27.523438 -31.367188 27.574219 -30.492188 L 27.574219 -19.648438 L 15.609375 -19.648438 L 15.609375 -30.492188 C 15.609375 -31.316406 16.097656 -32.144531 16.875 -32.628906 C 17.117188 -32.777344 17.410156 -32.972656 17.703125 -33.164062 C 18.527344 -33.75 18.089844 -35.257812 17.070312 -35.257812 L 1.992188 -35.257812 C 1.019531 -35.257812 0.582031 -33.75 1.410156 -33.164062 C 1.652344 -32.972656 1.992188 -32.777344 2.382812 -32.582031 C 3.160156 -32.191406 3.695312 -31.367188 3.695312 -30.492188 L 3.695312 -4.765625 C 3.695312 -3.890625 3.160156 -3.0625 2.382812 -2.675781 C 1.992188 -2.480469 1.652344 -2.285156 1.410156 -2.089844 C 0.582031 -1.507812 1.019531 0 1.992188 0 Z M 1.992188 0 "/></g></g></g><g fill="#6f5d51" fill-opacity="1"><g transform="translate(107.38909, 118.217211)"><g><path d="M 1.167969 -18.578125 C 1.800781 -18.578125 2.625 -18.722656 3.257812 -18.722656 C 3.9375 -18.722656 4.425781 -18.527344 4.425781 -17.75 L 4.425781 -4.765625 C 4.425781 -3.890625 3.890625 -3.0625 3.113281 -2.675781 C 2.722656 -2.480469 2.382812 -2.285156 2.140625 -2.089844 C 1.3125 -1.507812 1.75 0 2.722656 0 L 16.824219 0 C 17.796875 0 18.285156 -1.507812 17.457031 -2.089844 C 17.167969 -2.285156 16.875 -2.480469 16.632812 -2.625 C 15.851562 -3.113281 15.367188 -3.9375 15.367188 -4.765625 L 15.367188 -17.992188 C 15.367188 -22.320312 13.8125 -22.90625 9.96875 -22.90625 C 6.855469 -22.90625 3.015625 -22.125 0.828125 -20.863281 C -0.144531 -20.328125 0.0976562 -18.675781 1.167969 -18.578125 Z M 2.527344 -31.902344 C 2.527344 -28.59375 4.960938 -26.648438 9.09375 -26.648438 C 13.226562 -26.648438 15.609375 -28.59375 15.609375 -31.902344 C 15.609375 -35.160156 13.226562 -37.054688 9.09375 -37.054688 C 4.960938 -37.054688 2.527344 -35.160156 2.527344 -31.902344 Z M 2.527344 -31.902344 "/></g></g></g><g fill="#6f5d51" fill-opacity="1"><g transform="translate(122.995588, 118.217211)"><g/></g></g><g fill="#6f5d51" fill-opacity="1"><g transform="translate(137.094834, 118.217211)"><g><path d="M 1.410156 -33.070312 C 1.652344 -32.875 1.992188 -32.679688 2.382812 -32.484375 C 3.160156 -32.097656 3.695312 -31.269531 3.695312 -30.394531 L 3.695312 -4.765625 C 3.695312 -3.890625 3.160156 -3.0625 2.382812 -2.675781 C 1.992188 -2.480469 1.652344 -2.285156 1.410156 -2.089844 C 0.582031 -1.507812 1.019531 0 1.992188 0 L 17.070312 0 C 18.089844 0 18.527344 -1.507812 17.703125 -2.089844 C 17.410156 -2.285156 17.117188 -2.480469 16.875 -2.625 C 16.097656 -3.113281 15.609375 -3.9375 15.609375 -4.765625 L 15.609375 -15.851562 L 19.113281 -15.851562 C 25.433594 -15.851562 23.292969 -11.964844 25.480469 -11.769531 C 28.011719 -11.523438 28.300781 -23.097656 25.726562 -23.003906 C 23.390625 -22.90625 25.433594 -18.722656 19.113281 -18.722656 L 15.609375 -18.722656 L 15.609375 -30.78125 C 15.609375 -31.65625 16.195312 -32.242188 17.070312 -32.242188 L 22.371094 -32.242188 C 27.425781 -32.242188 28.15625 -29.808594 29.46875 -27.816406 C 30.003906 -27.039062 30.734375 -26.648438 31.367188 -26.648438 C 32.289062 -26.648438 33.019531 -27.328125 32.824219 -28.691406 C 32.535156 -30.441406 32.097656 -32.386719 31.753906 -33.699219 C 31.5625 -34.574219 30.78125 -35.160156 29.90625 -35.160156 L 1.992188 -35.160156 C 1.019531 -35.160156 0.582031 -33.652344 1.410156 -33.070312 Z M 1.410156 -33.070312 "/></g></g></g><g fill="#6f5d51" fill-opacity="1"><g transform="translate(168.357327, 118.217211)"><g><path d="M 1.214844 -19.0625 C 1.847656 -19.0625 2.625 -19.207031 3.257812 -19.207031 C 3.9375 -19.207031 4.425781 -19.015625 4.425781 -18.234375 L 4.425781 -4.765625 C 4.425781 -3.890625 3.9375 -3.0625 3.113281 -2.675781 C 2.773438 -2.480469 2.429688 -2.285156 2.140625 -2.089844 C 1.3125 -1.507812 1.800781 0 2.773438 0 L 16.679688 0 C 17.703125 0 18.1875 -1.507812 17.3125 -2.089844 C 17.019531 -2.285156 16.777344 -2.480469 16.484375 -2.625 C 15.757812 -3.113281 15.222656 -3.9375 15.222656 -4.765625 L 15.222656 -12.789062 C 15.222656 -15.511719 16.144531 -20.328125 19.355469 -20.472656 C 23.34375 -20.617188 18.234375 -12.984375 24.945312 -12.351562 C 29.082031 -11.964844 31.074219 -14.152344 31.125 -16.875 C 31.171875 -20.863281 26.796875 -24.265625 20.085938 -23.441406 C 17.019531 -23.050781 15.171875 -21.398438 14.152344 -19.597656 C 13.90625 -23.003906 12.011719 -23.390625 9.09375 -23.390625 C 6.273438 -23.390625 3.0625 -22.613281 0.875 -21.347656 C -0.144531 -20.8125 0.144531 -19.160156 1.214844 -19.0625 Z M 1.214844 -19.0625 "/></g></g></g><g fill="#6f5d51" fill-opacity="1"><g transform="translate(196.897047, 118.217211)"><g><path d="M 1.167969 -18.578125 C 1.800781 -18.578125 2.625 -18.722656 3.257812 -18.722656 C 3.9375 -18.722656 4.425781 -18.527344 4.425781 -17.75 L 4.425781 -4.765625 C 4.425781 -3.890625 3.890625 -3.0625 3.113281 -2.675781 C 2.722656 -2.480469 2.382812 -2.285156 2.140625 -2.089844 C 1.3125 -1.507812 1.75 0 2.722656 0 L 16.824219 0 C 17.796875 0 18.285156 -1.507812 17.457031 -2.089844 C 17.167969 -2.285156 16.875 -2.480469 16.632812 -2.625 C 15.851562 -3.113281 15.367188 -3.9375 15.367188 -4.765625 L 15.367188 -17.992188 C 15.367188 -22.320312 13.8125 -22.90625 9.96875 -22.90625 C 6.855469 -22.90625 3.015625 -22.125 0.828125 -20.863281 C -0.144531 -20.328125 0.0976562 -18.675781 1.167969 -18.578125 Z M 2.527344 -31.902344 C 2.527344 -28.59375 4.960938 -26.648438 9.09375 -26.648438 C 13.226562 -26.648438 15.609375 -28.59375 15.609375 -31.902344 C 15.609375 -35.160156 13.226562 -37.054688 9.09375 -37.054688 C 4.960938 -37.054688 2.527344 -35.160156 2.527344 -31.902344 Z M 2.527344 -31.902344 "/></g></g></g><g fill="#6f5d51" fill-opacity="1"><g transform="translate(212.503548, 118.217211)"><g><path d="M 0.582031 -11.378906 C 0.777344 -3.550781 5.882812 0.679688 13.957031 0.679688 C 20.910156 0.679688 25.726562 -1.75 26.988281 -7.730469 C 27.183594 -8.851562 26.890625 -9.484375 25.917969 -9.628906 C 24.996094 -9.726562 24.414062 -9.238281 24.167969 -8.167969 C 23.488281 -5.105469 21.152344 -3.453125 18.089844 -3.453125 C 15.269531 -3.5 13.082031 -4.910156 11.71875 -8.460938 C 12.351562 -8.363281 13.128906 -8.316406 13.957031 -8.316406 C 19.304688 -8.316406 27.378906 -10.699219 26.453125 -16.242188 C 25.773438 -20.179688 21.445312 -23.441406 14.636719 -23.441406 C 6.566406 -23.441406 0.390625 -19.257812 0.582031 -11.378906 Z M 13.277344 -20.617188 C 16.046875 -21.203125 18.429688 -17.167969 17.359375 -13.519531 C 16.679688 -11.039062 13.226562 -10.699219 11.039062 -10.894531 C 9.921875 -15.949219 11.085938 -20.179688 13.277344 -20.617188 Z M 13.277344 -20.617188 "/></g></g></g><g fill="#6f5d51" fill-opacity="1"><g transform="translate(237.980143, 118.217211)"><g><path d="M 1.214844 -19.0625 C 1.847656 -19.0625 2.625 -19.207031 3.257812 -19.207031 C 3.9375 -19.207031 4.425781 -19.015625 4.425781 -18.234375 L 4.425781 -4.765625 C 4.425781 -3.890625 3.9375 -3.0625 3.113281 -2.675781 C 2.773438 -2.480469 2.429688 -2.285156 2.140625 -2.089844 C 1.3125 -1.507812 1.800781 0 2.773438 0 L 16.679688 0 C 17.703125 0 18.1875 -1.507812 17.3125 -2.089844 C 17.019531 -2.285156 16.777344 -2.480469 16.484375 -2.625 C 15.757812 -3.113281 15.222656 -3.9375 15.222656 -4.765625 L 15.222656 -12.984375 C 15.464844 -15.464844 17.167969 -18.332031 19.304688 -18.382812 C 21.640625 -18.429688 21.398438 -15.320312 21.398438 -12.691406 L 21.347656 -4.8125 C 21.398438 -2.335938 22.175781 0 25.726562 0 L 33.75 0 C 34.769531 0 35.207031 -1.507812 34.382812 -2.089844 C 34.089844 -2.285156 33.847656 -2.480469 33.554688 -2.625 C 32.777344 -3.113281 32.289062 -3.9375 32.289062 -4.765625 L 32.289062 -15.949219 C 32.289062 -21.300781 29.761719 -23.535156 23.585938 -23.441406 C 20.132812 -23.34375 17.019531 -21.496094 15.222656 -18.769531 C 15.222656 -22.90625 13.519531 -23.390625 9.921875 -23.390625 C 6.808594 -23.390625 3.0625 -22.613281 0.875 -21.347656 C -0.144531 -20.8125 0.144531 -19.160156 1.214844 -19.0625 Z M 1.214844 -19.0625 "/></g></g></g><g fill="#6f5d51" fill-opacity="1"><g transform="translate(270.555405, 118.217211)"><g><path d="M 0.582031 -11.378906 C 0.679688 -3.550781 5.640625 1.265625 12.644531 0.679688 C 14.785156 0.484375 16.582031 -0.144531 18.089844 -1.070312 C 19.355469 0.046875 21.300781 0.582031 23.535156 0.632812 C 30.976562 0.730469 31.707031 -3.015625 30.539062 -3.308594 C 29.90625 -3.453125 29.324219 -2.578125 28.59375 -2.675781 C 27.71875 -2.773438 27.425781 -3.648438 27.425781 -5.15625 C 27.425781 -7.101562 27.476562 -26.066406 27.476562 -29.421875 L 27.476562 -31.464844 C 27.476562 -35.644531 26.066406 -36.328125 22.320312 -36.328125 C 19.597656 -36.328125 16.339844 -35.695312 14.441406 -34.574219 C 13.46875 -34.039062 13.761719 -32.386719 14.832031 -32.289062 C 16.144531 -32.242188 16.535156 -32.242188 16.535156 -30.683594 L 16.535156 -22.46875 C 15.464844 -22.953125 14.25 -23.292969 12.886719 -23.441406 C 5.542969 -24.070312 0.4375 -19.113281 0.582031 -11.378906 Z M 12.449219 -20.667969 C 14.636719 -21.058594 15.320312 -19.402344 16.535156 -12.304688 C 17.703125 -5.203125 17.75 -2.964844 15.511719 -2.578125 C 13.324219 -2.1875 12.59375 -4.328125 11.429688 -11.429688 C 10.210938 -18.527344 10.261719 -20.277344 12.449219 -20.667969 Z M 12.449219 -20.667969 "/></g></g></g><g fill="#6f5d51" fill-opacity="1"><g transform="translate(299.338232, 118.217211)"><g><path d="M 0.925781 -4.375 C 2.722656 -0.144531 10.457031 0.777344 13.519531 0.777344 C 22.175781 0.777344 26.648438 -2.285156 26.359375 -7.683594 C 25.96875 -15.851562 10.019531 -14.832031 10.261719 -19.257812 C 10.308594 -20.523438 11.769531 -21.203125 13.566406 -21.058594 C 18.234375 -20.667969 17.894531 -16.242188 21.738281 -15.707031 C 23.585938 -15.464844 25.140625 -16.679688 24.800781 -18.527344 C 24.363281 -21.300781 20.328125 -23.246094 13.46875 -23.535156 C 5.882812 -23.878906 1.019531 -20.863281 1.070312 -16.484375 C 1.117188 -8.703125 16.921875 -7.292969 16.921875 -3.648438 C 16.921875 -2.238281 15.804688 -1.363281 13.277344 -1.75 C 6.90625 -2.722656 8.414062 -8.21875 4.132812 -8.800781 C 1.3125 -9.191406 -0.144531 -6.808594 0.925781 -4.375 Z M 0.925781 -4.375 "/></g></g></g><g fill="#6f5d51" fill-opacity="1"><g transform="translate(324.328602, 118.217211)"><g><path d="M 2.625 -29.226562 L 6.46875 -11.476562 C 6.613281 -10.699219 7.246094 -10.210938 8.023438 -10.210938 C 8.851562 -10.210938 9.484375 -10.699219 9.628906 -11.476562 L 13.375 -29.226562 C 14.101562 -32.824219 12.15625 -35.257812 8.460938 -35.257812 L 7.441406 -35.257812 C 3.746094 -35.257812 1.800781 -32.824219 2.625 -29.226562 Z M 7.976562 1.214844 C 11.28125 1.214844 13.277344 -0.582031 13.277344 -3.746094 C 13.277344 -6.808594 11.28125 -8.65625 7.976562 -8.65625 C 4.71875 -8.65625 2.675781 -6.808594 2.675781 -3.746094 C 2.675781 -0.679688 4.765625 1.214844 7.976562 1.214844 Z M 7.976562 1.214844 "/></g></g></g><g clip-path="url(#4297a011c8)"><g clip-path="url(#4ec4e6dae0)"><g clip-path="url(#96bccc440a)"><path fill="#6f5d51" d="M 65.414062 210.445312 C 50.164062 222.925781 46.691406 243.070312 56.054688 257.671875 C 66.046875 273.273438 86.710938 275.226562 100.933594 270.125 C 111.234375 266.4375 119.507812 258.558594 124.191406 248.492188 C 127.632812 241.121094 134.859375 236.246094 142.980469 235.886719 L 270.042969 230.257812 C 277.785156 229.917969 284.871094 234.238281 288.390625 241.128906 C 297.003906 258.003906 315.332031 267.160156 331.695312 263.375 C 348.246094 259.550781 361.78125 242.734375 360.367188 224.753906 C 359.085938 208.613281 346.367188 199.121094 344.21875 197.578125 C 346.210938 195.84375 358.054688 185.273438 357.902344 169.082031 C 357.730469 151.035156 342.761719 135.480469 325.925781 133.148438 C 309.304688 130.832031 291.84375 141.5625 284.757812 159.132812 C 281.863281 166.3125 275.175781 171.253906 267.445312 171.585938 L 140.382812 177.214844 C 132.257812 177.574219 124.621094 173.367188 120.550781 166.316406 C 114.996094 156.707031 106.058594 149.589844 95.472656 146.828125 C 80.855469 143.003906 60.453125 146.785156 51.867188 163.199219 C 43.835938 178.59375 49.128906 199.351562 65.414062 210.445312 Z M 65.414062 210.445312 " fill-opacity="1" fill-rule="nonzero"/></g></g></g><g fill="#ffffff" fill-opacity="1"><g transform="translate(69.754523, 228.642505)"><g><path d="M 24.828125 -41.9375 C 24.648438 -42.0625 24.507812 -42.273438 24.503906 -42.359375 C 24.492188 -42.667969 23.824219 -42.898438 22.636719 -43.109375 C 21.714844 -43.242188 21.410156 -43.226562 20.195312 -43 C 17.25 -42.476562 14.929688 -41.585938 12.851562 -40.230469 C 10.898438 -38.960938 10.144531 -38.1875 10.179688 -37.402344 C 10.195312 -37.097656 10.839844 -36.339844 10.964844 -36.476562 C 11.003906 -36.523438 11.011719 -36.390625 11.019531 -36.214844 C 11.042969 -35.695312 11.648438 -35.765625 12.757812 -36.425781 C 13.3125 -36.710938 13.78125 -36.949219 13.785156 -36.90625 C 13.785156 -36.863281 13.132812 -35.785156 12.402344 -34.53125 C 8.539062 -28.070312 5.554688 -21.515625 4.394531 -17.183594 C 3.453125 -13.738281 3.257812 -12.199219 3.382812 -9.453125 L 3.445312 -7.054688 L 3.964844 -6.117188 C 4.203125 -5.644531 4.667969 -5.011719 4.945312 -4.71875 L 5.492188 -4.21875 L 4.210938 -3.550781 C 2.847656 -2.789062 1.449219 -1.769531 1.210938 -1.277344 C 1.050781 -0.964844 1.347656 -0.101562 1.605469 -0.246094 C 1.90625 -0.347656 2.269531 -0.0585938 2.289062 0.378906 C 2.296875 0.597656 2.394531 0.8125 2.484375 0.851562 C 2.839844 0.964844 3.007812 0.871094 5.308594 -0.410156 C 6.929688 -1.3125 8.257812 -1.9375 9.757812 -2.527344 C 10.964844 -2.933594 12.121094 -3.417969 12.378906 -3.5625 C 12.589844 -3.703125 12.890625 -3.804688 13.066406 -3.8125 C 13.675781 -3.839844 13.707031 -4.101562 13.289062 -4.652344 C 12.828125 -5.242188 12.738281 -5.28125 10.894531 -5.503906 C 10.453125 -5.574219 8.980469 -5.332031 8.074219 -5.074219 C 7.8125 -5.019531 7.769531 -5.0625 7.660156 -5.535156 C 7.601562 -5.839844 7.566406 -6.710938 7.617188 -7.457031 C 7.945312 -11.925781 10.445312 -19.59375 13.578125 -25.804688 C 14.460938 -27.503906 18.25 -34.703125 19.664062 -37.253906 C 20.394531 -38.554688 20.617188 -39.394531 20.347656 -39.554688 C 20.082031 -39.675781 20.210938 -39.726562 21.894531 -40.148438 C 22.628906 -40.355469 23.402344 -40.652344 23.613281 -40.835938 C 23.824219 -40.976562 24.164062 -41.167969 24.425781 -41.222656 C 25.027344 -41.378906 25.191406 -41.648438 24.828125 -41.9375 Z M 10.898438 -36.953125 C 10.894531 -37.039062 11.0625 -37.179688 11.234375 -37.273438 C 11.53125 -37.460938 11.53125 -37.460938 11.28125 -37.144531 C 10.992188 -36.785156 10.90625 -36.78125 10.898438 -36.953125 Z M 11.679688 -37.074219 C 11.382812 -36.84375 11.214844 -36.707031 11.253906 -36.792969 C 11.375 -37.019531 12.175781 -37.664062 12.183594 -37.535156 C 12.183594 -37.535156 11.929688 -37.304688 11.679688 -37.074219 Z M 5.183594 -13.15625 C 5.917969 -17.253906 7.523438 -21.472656 10.527344 -27.546875 C 12.859375 -32.148438 16.800781 -38.832031 17.070312 -38.625 C 17.117188 -38.582031 16.875 -38.136719 16.542969 -37.683594 C 15.722656 -36.511719 12.640625 -31.132812 11.351562 -28.71875 C 9.058594 -24.25 7.277344 -20.109375 6.28125 -16.917969 C 6.058594 -16.078125 5.648438 -14.488281 5.394531 -13.34375 C 4.886719 -10.960938 4.761719 -10.867188 5.183594 -13.15625 Z M 6.265625 -14.386719 C 6.046875 -13.371094 5.722656 -11.785156 5.589844 -10.863281 C 5.410156 -9.980469 5.304688 -9.449219 5.292969 -9.710938 C 5.1875 -11.0625 6.167969 -15.558594 7.210938 -18.621094 C 8.292969 -21.8125 11.289062 -28.148438 13.597656 -32.179688 C 16.15625 -36.574219 17.664062 -39 17.96875 -39.015625 C 18.058594 -39.019531 17.898438 -38.707031 17.648438 -38.386719 C 17.402344 -38.027344 16.707031 -36.949219 16.136719 -36.007812 C 10.972656 -27.433594 7.585938 -20.035156 6.265625 -14.386719 Z M 6.625 -13.132812 C 6.582031 -13.089844 6.535156 -13.175781 6.53125 -13.304688 C 6.566406 -13.480469 6.5625 -13.523438 6.613281 -13.394531 C 6.660156 -13.3125 6.667969 -13.179688 6.625 -13.132812 Z M 6.730469 -13.707031 C 6.6875 -13.660156 6.683594 -13.75 6.679688 -13.878906 C 6.671875 -14.054688 6.714844 -14.097656 6.761719 -13.972656 C 6.808594 -13.886719 6.773438 -13.753906 6.730469 -13.707031 Z M 7.226562 -9.449219 C 7.183594 -9.402344 7.136719 -9.488281 7.128906 -9.621094 C 7.121094 -9.792969 7.164062 -9.839844 7.214844 -9.710938 C 7.261719 -9.625 7.265625 -9.496094 7.226562 -9.449219 Z M 7.386719 -16.617188 C 8.605469 -20.691406 11.074219 -26.085938 14.433594 -32.132812 C 16.621094 -35.941406 18.738281 -39.398438 18.917969 -39.273438 C 18.921875 -39.230469 18.636719 -38.738281 18.230469 -38.109375 C 16.917969 -36.171875 13.960938 -30.929688 11.914062 -26.867188 C 10.464844 -24.050781 8.761719 -20.085938 7.992188 -17.78125 C 7.5625 -16.582031 7.179688 -15.386719 7.105469 -15.121094 C 6.71875 -13.96875 6.933594 -15.027344 7.386719 -16.617188 Z M 11.441406 -22.695312 C 10.132812 -19.710938 9.117188 -17 8.398438 -14.480469 C 8.210938 -13.773438 7.875 -12.492188 7.65625 -11.5625 C 7.433594 -10.679688 7.28125 -10.148438 7.3125 -10.457031 C 7.398438 -11.421875 8.1875 -14.382812 8.835938 -16.464844 C 9.683594 -19.035156 12.488281 -25.753906 12.75 -25.765625 C 12.792969 -25.769531 12.199219 -24.386719 11.441406 -22.695312 Z M 19.660156 -38.304688 C 19.625 -38.171875 19.300781 -37.589844 18.933594 -37.003906 C 18.242188 -35.835938 14.644531 -29.257812 13.601562 -27.203125 C 13.242188 -26.488281 12.914062 -25.949219 12.871094 -25.945312 C 12.742188 -25.941406 13.789062 -27.910156 15.925781 -31.890625 C 17.945312 -35.648438 19.769531 -38.789062 19.660156 -38.304688 Z M 19.660156 -38.304688 "/></g></g></g><g fill="#ffffff" fill-opacity="1"><g transform="translate(95.208475, 227.514954)"><g><path d="M 26.808594 -32.722656 C 26.320312 -32.964844 22.917969 -32.8125 17.785156 -32.324219 C 16.046875 -32.160156 14.609375 -32.050781 14.566406 -32.050781 C 14.519531 -32.089844 14.589844 -32.53125 14.742188 -33.019531 C 14.964844 -33.859375 14.941406 -34.425781 14.6875 -34.238281 C 14.601562 -34.191406 14.554688 -34.277344 14.550781 -34.40625 C 14.535156 -34.710938 14.128906 -35.042969 13.957031 -34.949219 C 13.871094 -34.902344 13.78125 -34.941406 13.777344 -35.070312 C 13.765625 -35.332031 13.765625 -35.332031 13.558594 -35.105469 C 13.304688 -34.875 13.304688 -34.875 13.285156 -35.355469 C 13.210938 -36.007812 12.894531 -36.257812 12.292969 -36.054688 C 11.730469 -35.898438 10.273438 -34.304688 9.253906 -32.6875 C 7.945312 -30.664062 8.15625 -30.804688 5.910156 -30.226562 C 3.234375 -29.539062 2.808594 -29.300781 2.886719 -28.476562 C 2.949219 -28.085938 3.457031 -27.496094 3.621094 -27.675781 C 3.664062 -27.722656 3.625 -27.632812 3.546875 -27.410156 C 3.425781 -27.1875 3.429688 -27.058594 3.570312 -26.890625 C 3.800781 -26.636719 4.191406 -26.65625 5.050781 -26.953125 C 5.394531 -27.101562 5.699219 -27.15625 5.699219 -27.15625 C 5.699219 -27.15625 4.976562 -25.726562 4.046875 -23.984375 C 1.265625 -18.75 -1.375 -12.34375 -2.074219 -9.386719 C -2.914062 -5.679688 -2.257812 -2.652344 -0.183594 -1.171875 C 0.269531 -0.839844 0.894531 -0.519531 1.207031 -0.402344 C 1.515625 -0.328125 1.957031 -0.175781 2.226562 -0.0117188 C 3.570312 0.714844 5.1875 -0.230469 7.507812 -3.085938 C 9.121094 -5.078125 12.5625 -10.210938 15.042969 -14.382812 C 16.832031 -17.34375 17.234375 -18.191406 16.851562 -17.910156 C 16.765625 -17.863281 16.679688 -17.902344 16.675781 -17.992188 C 16.660156 -18.296875 16.371094 -17.890625 15.058594 -15.996094 C 10.011719 -8.699219 8.9375 -7.296875 6.5625 -4.660156 C 5.148438 -3.109375 4.644531 -2.652344 3.835938 -2.179688 C 2.339844 -1.371094 2.339844 -1.371094 2.40625 -2.859375 C 2.40625 -3.820312 2.546875 -4.65625 3.113281 -6.644531 C 3.488281 -8.015625 3.980469 -9.742188 4.253906 -10.453125 C 5.105469 -12.9375 7.492188 -18.195312 9.507812 -21.996094 C 10.59375 -24.097656 11.882812 -26.558594 12.320312 -27.496094 C 13.285156 -29.460938 12.859375 -29.179688 16.539062 -29.953125 C 20.128906 -30.722656 20.953125 -30.847656 24.386719 -31.261719 C 26.078125 -31.46875 27.46875 -31.617188 27.511719 -31.664062 C 27.636719 -31.84375 27.210938 -32.566406 26.808594 -32.722656 Z M -0.636719 -4.515625 C -0.671875 -4.292969 -0.679688 -4.511719 -0.703125 -4.992188 C -0.722656 -5.429688 -0.730469 -5.601562 -0.675781 -5.386719 C -0.621094 -5.125 -0.601562 -4.734375 -0.636719 -4.515625 Z M 0.167969 -7.082031 C 0.0898438 -6.816406 0.00390625 -5.851562 0 -4.9375 C -0.0585938 -3.316406 -0.0585938 -3.316406 -0.179688 -4.097656 C -0.292969 -4.617188 -0.320312 -5.269531 -0.214844 -5.800781 C -0.0820312 -6.808594 0.207031 -8.132812 0.265625 -7.785156 C 0.269531 -7.699219 0.199219 -7.347656 0.167969 -7.082031 Z M 1.417969 -9.367188 C 1.382812 -9.191406 1.203125 -8.308594 0.984375 -7.335938 C 0.808594 -6.371094 0.644531 -5.183594 0.578125 -4.65625 L 0.445312 -3.730469 L 0.484375 -4.871094 C 0.476562 -5.960938 1.046875 -8.871094 1.375 -9.40625 C 1.453125 -9.585938 1.496094 -9.589844 1.417969 -9.367188 Z M 13.488281 -13.046875 C 13.527344 -13.089844 13.660156 -13.054688 13.707031 -13.011719 C 13.753906 -12.925781 13.714844 -12.835938 13.628906 -12.746094 C 13.589844 -12.699219 13.457031 -12.738281 13.410156 -12.824219 C 13.363281 -12.867188 13.402344 -13 13.488281 -13.046875 Z M 12.398438 -10.945312 C 12.480469 -11.078125 12.5625 -11.257812 12.511719 -11.34375 C 12.46875 -11.382812 12.507812 -11.429688 12.640625 -11.4375 C 12.769531 -11.441406 12.773438 -11.398438 12.695312 -11.21875 C 12.613281 -11.042969 12.488281 -10.90625 12.40625 -10.8125 C 12.277344 -10.765625 12.277344 -10.765625 12.398438 -10.945312 Z M 11.273438 -9.757812 C 11.316406 -9.804688 11.398438 -9.851562 11.445312 -9.808594 C 11.492188 -9.769531 11.621094 -9.816406 11.746094 -9.910156 C 11.914062 -10.050781 11.914062 -10.050781 11.789062 -9.914062 C 11.585938 -9.640625 11.152344 -9.535156 11.273438 -9.757812 Z M 10.925781 -8.738281 C 11.136719 -8.921875 11.136719 -8.921875 10.972656 -8.652344 C 10.890625 -8.519531 10.765625 -8.425781 10.722656 -8.425781 C 10.632812 -8.421875 10.671875 -8.507812 10.925781 -8.738281 Z M 10.390625 -7.972656 C 10.601562 -8.15625 10.601562 -8.15625 10.4375 -7.929688 C 10.273438 -7.707031 10.144531 -7.613281 10.140625 -7.742188 C 10.140625 -7.742188 10.265625 -7.878906 10.390625 -7.972656 Z M 7.335938 -24.695312 C 7.613281 -25.320312 9.070312 -27.960938 9.28125 -28.144531 C 9.445312 -28.371094 9.449219 -28.285156 8.3125 -26.269531 C 7.304688 -24.433594 6.9375 -23.804688 7.335938 -24.695312 Z M 6.933594 -23.894531 C 7.058594 -24.074219 7.019531 -23.941406 6.859375 -23.628906 C 6.699219 -23.316406 6.496094 -22.957031 6.414062 -22.867188 C 6.203125 -22.636719 6.6875 -23.578125 6.933594 -23.894531 Z M 4.441406 -17.101562 C 4.316406 -16.964844 4.316406 -16.964844 4.347656 -17.183594 C 4.429688 -17.316406 4.46875 -17.40625 4.515625 -17.367188 C 4.5625 -17.324219 4.523438 -17.191406 4.441406 -17.101562 Z M 5.078125 -18.4375 C 4.882812 -17.992188 4.679688 -17.589844 4.636719 -17.589844 C 4.59375 -17.585938 4.707031 -17.984375 4.949219 -18.433594 C 5.144531 -18.921875 5.390625 -19.324219 5.390625 -19.324219 C 5.433594 -19.328125 5.320312 -18.929688 5.078125 -18.4375 Z M 5.679688 -19.6875 C 5.558594 -19.464844 5.472656 -19.417969 5.464844 -19.589844 C 5.460938 -19.679688 5.5 -19.769531 5.585938 -19.859375 C 5.667969 -19.90625 5.71875 -19.820312 5.679688 -19.6875 Z M 10.316406 -28.367188 C 10.28125 -28.234375 9.675781 -27.117188 8.988281 -25.863281 C 8.296875 -24.652344 7.328125 -22.863281 6.804688 -21.878906 C 6.28125 -20.894531 5.839844 -20.042969 5.792969 -20.042969 C 5.707031 -20.039062 5.90625 -20.484375 6.632812 -21.871094 C 6.996094 -22.542969 7.722656 -23.882812 8.246094 -24.867188 C 9.132812 -26.523438 9.78125 -27.6875 10.1875 -28.363281 C 10.351562 -28.628906 10.351562 -28.628906 10.316406 -28.367188 Z M 11.183594 -31.464844 C 11.011719 -31.410156 11.09375 -31.546875 11.992188 -32.984375 C 12.402344 -33.613281 12.726562 -34.109375 12.773438 -34.066406 C 12.820312 -34.023438 12.496094 -33.441406 12.089844 -32.769531 C 11.679688 -32.097656 11.269531 -31.511719 11.183594 -31.464844 Z M 12.792969 -32.625 C 12.265625 -31.730469 12.101562 -31.503906 12.089844 -31.765625 C 12.085938 -31.808594 12.328125 -32.300781 12.695312 -32.882812 C 13.019531 -33.421875 13.257812 -33.957031 13.257812 -34 C 13.253906 -34.089844 13.339844 -34.136719 13.382812 -34.136719 C 13.601562 -34.148438 13.441406 -33.746094 12.792969 -32.625 Z M 13.824219 -32.058594 C 13.660156 -31.792969 13.660156 -31.792969 13.777344 -32.144531 C 13.972656 -32.589844 14.058594 -32.683594 14.066406 -32.507812 C 14.070312 -32.421875 13.945312 -32.242188 13.824219 -32.058594 Z M 14.179688 -32.863281 C 14.097656 -32.769531 14.054688 -32.726562 14.050781 -32.8125 C 14.046875 -32.898438 14.085938 -33.03125 14.167969 -33.167969 C 14.25 -33.300781 14.292969 -33.304688 14.292969 -33.261719 C 14.296875 -33.171875 14.261719 -32.996094 14.179688 -32.863281 Z M 14.179688 -32.863281 "/></g></g></g><g fill="#ffffff" fill-opacity="1"><g transform="translate(107.455804, 226.972425)"><g><path d="M 1.296875 -39.761719 C 1.933594 -39.175781 2.761719 -38.210938 3.183594 -37.574219 C 4.074219 -36.214844 4.960938 -33.9375 4.710938 -33.621094 C 4.507812 -33.308594 4.777344 -33.144531 5.117188 -33.378906 C 5.628906 -33.664062 6.53125 -35.011719 6.675781 -35.632812 C 7.113281 -37.617188 5.03125 -41.191406 2.472656 -42.78125 C 1.527344 -43.394531 1.222656 -43.425781 0.929688 -43.0625 C 0.765625 -42.882812 0.433594 -42.472656 0.140625 -42.15625 C -0.355469 -41.566406 -0.398438 -41.5625 -0.121094 -41.226562 C 0.0195312 -41.015625 0.65625 -40.386719 1.296875 -39.761719 Z M 4.785156 -38.910156 C 4.878906 -38.738281 4.929688 -38.609375 4.886719 -38.609375 C 4.839844 -38.605469 4.75 -38.734375 4.652344 -38.90625 C 4.558594 -39.074219 4.507812 -39.203125 4.554688 -39.207031 C 4.597656 -39.207031 4.6875 -39.082031 4.785156 -38.910156 Z M 5.4375 -37.015625 C 5.441406 -36.929688 5.160156 -37.3125 4.828125 -37.90625 C 4.496094 -38.503906 3.9375 -39.265625 3.613281 -39.6875 C 3.292969 -40.066406 3.105469 -40.363281 3.191406 -40.324219 C 3.589844 -40.210938 5.460938 -37.457031 5.4375 -37.015625 Z M 4.714844 -37.554688 C 4.71875 -37.464844 4.441406 -37.804688 4.113281 -38.3125 C 3.785156 -38.824219 3.046875 -39.707031 2.492188 -40.335938 L 1.484375 -41.429688 L 2.484375 -40.511719 C 3.351562 -39.71875 4.699219 -37.902344 4.714844 -37.554688 Z M 4.714844 -37.554688 "/></g></g></g><g fill="#ffffff" fill-opacity="1"><g transform="translate(114.342016, 226.667382)"><g><path d="M 8.316406 -24.214844 C 7.4375 -25.402344 5.449219 -25.835938 3.90625 -25.242188 C 1.929688 -24.5 -0.148438 -22.050781 -0.742188 -19.753906 C -1.300781 -17.5 -0.5 -15.222656 1.550781 -13.347656 C 3.097656 -11.886719 3.28125 -11.675781 3.230469 -10.84375 C 3.132812 -9.179688 1.605469 -7.101562 -0.355469 -6.011719 C -1.292969 -5.488281 -1.550781 -5.390625 -2.507812 -5.347656 C -3.074219 -5.324219 -3.726562 -5.25 -3.898438 -5.15625 C -4.371094 -5.003906 -4.433594 -4.433594 -3.972656 -3.886719 C -3.464844 -3.253906 -1.007812 -1.089844 -0.566406 -0.9375 C -0.386719 -0.855469 0.269531 -0.839844 0.875 -0.914062 C 1.835938 -0.953125 2.09375 -1.054688 3.414062 -1.8125 C 4.609375 -2.433594 5.074219 -2.800781 5.78125 -3.621094 C 7.445312 -5.441406 8.171875 -7.789062 7.613281 -9.554688 C 7.359375 -10.371094 6.339844 -11.722656 5.058594 -12.976562 C 3.738281 -14.1875 3.449219 -14.785156 3.539062 -15.792969 C 3.644531 -17.28125 5.082031 -19.398438 6.527344 -20.25 C 7.890625 -21.054688 7.890625 -21.054688 7.933594 -20.050781 C 7.96875 -19.308594 8.015625 -19.179688 8.382812 -18.804688 C 8.609375 -18.59375 8.796875 -18.339844 8.800781 -18.253906 C 8.8125 -17.992188 9.25 -17.96875 9.589844 -18.203125 C 10.097656 -18.53125 10.617188 -19.601562 10.667969 -20.433594 C 10.71875 -21.308594 10.378906 -22.082031 9.421875 -23 C 9.054688 -23.332031 8.550781 -23.921875 8.316406 -24.214844 Z M 6.824219 -6.679688 C 6.824219 -6.679688 6.828125 -6.546875 6.75 -6.328125 C 6.59375 -5.925781 6.230469 -5.253906 6.222656 -5.429688 C 6.214844 -5.605469 6.738281 -6.675781 6.824219 -6.679688 Z M 1.015625 -19.480469 C 1.003906 -19.699219 2.109375 -21.40625 2.320312 -21.59375 C 2.40625 -21.640625 2.164062 -21.148438 1.800781 -20.519531 C 0.984375 -19.175781 1.027344 -19.21875 1.015625 -19.480469 Z M 1.394531 -18.84375 C 1.5 -19.414062 1.984375 -20.3125 2.6875 -21.128906 C 3.390625 -22.03125 3.570312 -21.953125 2.910156 -21.09375 C 2.664062 -20.734375 2.171875 -19.96875 1.890625 -19.433594 C 1.484375 -18.714844 1.363281 -18.535156 1.394531 -18.84375 Z M 5.574219 -7.277344 C 5.578125 -7.191406 5.375 -6.832031 5.175781 -6.429688 C 4.929688 -6.070312 4.597656 -5.664062 4.429688 -5.523438 C 4.171875 -5.382812 4.292969 -5.605469 4.789062 -6.285156 C 5.609375 -7.5 5.566406 -7.453125 5.574219 -7.277344 Z M 5.203125 -8.792969 C 5.417969 -8.800781 5.152344 -7.960938 4.703125 -7.195312 C 4.378906 -6.613281 3.757812 -5.886719 3.75 -6.0625 C 3.75 -6.0625 4.035156 -6.554688 4.359375 -7.09375 C 4.683594 -7.632812 4.964844 -8.214844 5 -8.433594 C 5.035156 -8.609375 5.113281 -8.789062 5.203125 -8.792969 Z M 4.636719 -8.679688 C 4.644531 -8.546875 4.488281 -8.148438 4.328125 -7.792969 C 4.007812 -7.164062 3.839844 -7.027344 3.871094 -7.246094 C 3.859375 -7.507812 4.625 -8.941406 4.636719 -8.679688 Z M 3.570312 -17.980469 C 3.167969 -17.21875 3.125 -17.171875 3.117188 -17.347656 C 3.109375 -17.523438 3.761719 -18.597656 3.847656 -18.601562 C 3.894531 -18.605469 3.777344 -18.292969 3.570312 -17.980469 Z M 3.359375 -19.847656 C 3.480469 -20.027344 3.648438 -20.167969 3.691406 -20.167969 C 3.738281 -20.171875 3.65625 -20.035156 3.488281 -19.851562 C 3.367188 -19.671875 3.242188 -19.535156 3.195312 -19.535156 C 3.152344 -19.53125 3.234375 -19.667969 3.359375 -19.847656 Z M 3.960938 -21.054688 C 3.542969 -20.597656 2.96875 -19.785156 2.679688 -19.335938 C 2.070312 -18.304688 1.941406 -18.257812 2.421875 -19.238281 C 2.820312 -20.128906 3.648438 -21.171875 4.28125 -21.636719 C 4.578125 -21.867188 4.496094 -21.730469 3.960938 -21.054688 Z M 3.960938 -21.054688 "/></g></g></g><g fill="#ffffff" fill-opacity="1"><g transform="translate(124.104923, 226.234907)"><g/></g></g><g fill="#ffffff" fill-opacity="1"><g transform="translate(130.119412, 225.968479)"><g><path d="M 2.832031 -0.167969 C 3.953125 0.523438 6.144531 1.648438 6.8125 1.925781 C 8.410156 2.554688 11.082031 1.738281 13.359375 -0.15625 C 14.328125 -0.941406 16.570312 -3.53125 17.558594 -4.972656 C 20.921875 -9.878906 23.554688 -15.457031 25.9375 -22.8125 C 28.128906 -29.59375 28.722656 -31.933594 29.25 -35.800781 L 29.378906 -36.8125 L 30.722656 -37.046875 C 31.460938 -37.164062 33.375 -37.382812 34.941406 -37.496094 C 36.464844 -37.605469 37.941406 -37.800781 38.15625 -37.898438 C 38.710938 -38.140625 39.183594 -39.34375 38.703125 -39.320312 C 38.574219 -39.316406 38.527344 -39.402344 38.5625 -39.535156 C 38.597656 -39.710938 38.410156 -40.007812 38.09375 -40.296875 C 37.773438 -40.589844 37.542969 -40.886719 37.535156 -41.015625 C 37.523438 -41.320312 36.699219 -42.160156 36.164062 -42.398438 C 35.539062 -42.71875 33.96875 -42.691406 31.1875 -42.394531 C 23.839844 -41.589844 18.375 -39.773438 13.492188 -36.542969 C 11.585938 -35.28125 10.324219 -34.175781 8.609375 -32.398438 C 6.730469 -30.4375 5.582031 -28.769531 4.710938 -26.722656 C 3.917969 -24.9375 3.632812 -23.527344 3.703125 -21.871094 C 3.816406 -19.34375 4.582031 -17.804688 6.585938 -16.015625 C 8.085938 -14.683594 9.160156 -14.121094 9.984375 -14.246094 C 10.417969 -14.265625 10.546875 -14.355469 10.578125 -14.578125 C 10.613281 -14.796875 10.386719 -15.003906 9.628906 -15.363281 C 9.089844 -15.644531 8.464844 -15.96875 8.285156 -16.089844 C 7.792969 -16.375 7.070312 -17.828125 6.894531 -18.867188 C 6.691406 -20.519531 7.246094 -22.769531 8.300781 -24.609375 C 10.050781 -27.527344 13.332031 -30.335938 18.023438 -32.902344 C 19.855469 -33.898438 23.027344 -35.261719 24.324219 -35.582031 L 24.800781 -35.691406 L 24.488281 -34.804688 C 20.410156 -22.351562 18.917969 -18.613281 15.96875 -13.242188 C 12.289062 -6.527344 7.992188 -1.96875 5.203125 -1.847656 C 4.941406 -1.835938 4.289062 -1.761719 3.8125 -1.652344 C 2.949219 -1.441406 2.859375 -1.480469 2.542969 -1.730469 C 2.363281 -1.894531 2.136719 -2.015625 2.050781 -2.011719 C 1.964844 -2.007812 1.828125 -2.089844 1.78125 -2.21875 C 1.59375 -2.515625 1.117188 -2.363281 1.046875 -2.011719 C 1.019531 -1.617188 1.796875 -0.820312 2.832031 -0.167969 Z M 5.136719 -24.03125 C 5.203125 -24.558594 6.070312 -26.605469 6.207031 -26.523438 C 6.253906 -26.484375 6.132812 -26.261719 5.96875 -25.945312 C 5.851562 -25.679688 5.574219 -25.054688 5.378906 -24.523438 C 5.226562 -24.035156 5.105469 -23.8125 5.136719 -24.03125 Z M 5.234375 -22.8125 C 5.214844 -23.25 5.914062 -25.203125 6.398438 -26.140625 C 6.964844 -27.125 8.195312 -28.929688 8.617188 -29.296875 C 8.742188 -29.390625 8.457031 -28.941406 7.960938 -28.304688 C 7.46875 -27.628906 6.855469 -26.640625 6.574219 -26.105469 C 6.292969 -25.523438 5.902344 -24.546875 5.671875 -23.835938 C 5.4375 -23.171875 5.28125 -22.726562 5.234375 -22.8125 Z M 9.328125 -29.023438 C 8.914062 -28.523438 8.253906 -27.664062 7.882812 -27.125 C 7.515625 -26.582031 6.949219 -25.511719 6.59375 -24.707031 C 6.234375 -23.90625 5.953125 -23.371094 5.949219 -23.5 C 5.933594 -23.847656 7.09375 -26.257812 7.746094 -27.25 C 8.117188 -27.746094 8.777344 -28.605469 9.28125 -29.0625 L 10.117188 -29.972656 Z M 18.804688 -10.3125 C 18.726562 -10.132812 18.601562 -9.996094 18.558594 -9.996094 C 18.558594 -9.996094 18.550781 -10.125 18.628906 -10.304688 C 18.710938 -10.480469 18.835938 -10.617188 18.835938 -10.617188 C 18.878906 -10.621094 18.882812 -10.488281 18.804688 -10.3125 Z M 20.914062 -12.019531 C 20.03125 -10.277344 20.300781 -11.074219 21.335938 -13.304688 C 21.894531 -14.554688 22.6875 -16.378906 23.121094 -17.359375 C 23.558594 -18.382812 23.914062 -19.1875 23.914062 -19.1875 C 24.050781 -19.0625 21.957031 -14.074219 20.914062 -12.019531 Z M 24.46875 -27.378906 C 24.507812 -27.511719 24.59375 -27.558594 24.597656 -27.472656 C 24.601562 -27.382812 24.519531 -27.25 24.480469 -27.117188 C 24.398438 -26.980469 24.3125 -26.976562 24.3125 -27.023438 C 24.308594 -27.109375 24.386719 -27.285156 24.46875 -27.378906 Z M 17.222656 -11.507812 C 19.03125 -15.039062 20.941406 -19.316406 21.917969 -21.890625 C 22.113281 -22.425781 22.3125 -22.871094 22.3125 -22.828125 C 22.582031 -22.621094 19.695312 -15.855469 18.164062 -12.992188 C 17.679688 -12.09375 17.273438 -11.378906 17.230469 -11.375 C 17.1875 -11.375 17.183594 -11.417969 17.222656 -11.507812 Z M 16.210938 -8.753906 C 18.738281 -12.796875 21.726562 -19.308594 23.660156 -24.984375 C 23.886719 -25.734375 24.121094 -26.359375 24.167969 -26.316406 C 24.210938 -26.316406 23.90625 -25.300781 23.519531 -24.148438 C 21.714844 -18.609375 19.84375 -14.460938 17.285156 -10.15625 C 16.589844 -9.035156 15.898438 -7.910156 15.6875 -7.683594 C 15.191406 -7.09375 15.394531 -7.453125 16.210938 -8.753906 Z M 15.734375 -6.679688 C 17.5 -9.25 19.238281 -12.339844 20.875 -15.820312 C 21.875 -17.960938 22.042969 -18.054688 21.171875 -16.007812 C 19.664062 -12.578125 17.886719 -9.351562 16.238281 -7.097656 C 14.878906 -5.246094 14.585938 -5.015625 15.734375 -6.679688 Z M 15.734375 -6.679688 "/></g></g></g><g fill="#ffffff" fill-opacity="1"><g transform="translate(169.433797, 224.226942)"><g><path d="M -1.773438 -6.515625 C -1.296875 -5.621094 -0.25 -4.617188 0.144531 -4.636719 C 0.320312 -4.644531 0.769531 -4.359375 1.175781 -4.027344 C 2.308594 -3.074219 3 -3.277344 4.582031 -5.050781 C 5.328125 -5.957031 7.464844 -8.933594 8.40625 -10.417969 L 9.054688 -11.496094 L 9.191406 -10.410156 C 9.496094 -8.457031 10.394531 -6.925781 11.597656 -6.410156 C 11.953125 -6.25 12.269531 -6.046875 12.316406 -5.917969 C 12.558594 -5.359375 14.050781 -5.207031 14.6875 -5.671875 C 16.335938 -6.882812 18.550781 -10.167969 22.59375 -17.511719 C 23.601562 -19.390625 23.785156 -20.140625 22.84375 -18.703125 C 22.558594 -18.253906 22.269531 -17.890625 22.265625 -17.933594 C 22.261719 -18.019531 22.507812 -18.382812 22.753906 -18.785156 C 23.042969 -19.191406 23.199219 -19.589844 23.152344 -19.632812 C 23.109375 -19.675781 22.695312 -19.089844 22.246094 -18.414062 C 19.707031 -14.585938 18.433594 -12.785156 17.019531 -11.191406 C 15.644531 -9.648438 13.800781 -7.949219 13.660156 -8.117188 C 13.527344 -8.199219 13.808594 -9.742188 14.179688 -11.199219 C 14.363281 -11.992188 14.980469 -13.855469 15.480469 -15.363281 C 16.601562 -18.601562 17.007812 -20.320312 16.96875 -21.238281 C 16.941406 -21.847656 16.890625 -21.976562 16.4375 -22.347656 C 16.121094 -22.597656 15.851562 -22.757812 15.765625 -22.710938 C 15.722656 -22.667969 15.636719 -22.707031 15.585938 -22.835938 C 15.535156 -22.964844 15.402344 -23.046875 15.273438 -22.996094 C 15.144531 -22.945312 15.054688 -22.984375 15.050781 -23.117188 C 15.039062 -23.335938 14.996094 -23.332031 14.746094 -23.058594 C 14.453125 -22.785156 14.453125 -22.785156 14.613281 -23.097656 C 14.808594 -23.585938 14.753906 -23.847656 14.445312 -23.921875 C 13.871094 -24.070312 13.445312 -23.832031 13.042969 -23.070312 C 12.636719 -22.398438 12.386719 -22.125 12.371094 -22.472656 C 12.367188 -22.5625 12.230469 -22.644531 12.054688 -22.679688 C 11.878906 -22.714844 11.292969 -23.125 10.792969 -23.539062 C 10.066406 -24.207031 9.753906 -24.367188 9.226562 -24.429688 C 7.996094 -24.550781 6.324219 -23.910156 4.929688 -22.800781 C 1.429688 -19.980469 -2.734375 -11.453125 -2.277344 -8.066406 C -2.214844 -7.632812 -1.96875 -6.945312 -1.773438 -6.515625 Z M 21.375 -16.410156 C 21.464844 -16.367188 21.542969 -16.503906 21.539062 -16.632812 C 21.578125 -16.765625 21.613281 -16.945312 21.652344 -16.988281 C 21.738281 -17.035156 21.742188 -16.949219 21.707031 -16.773438 C 21.683594 -16.335938 21.433594 -16.0625 21.292969 -16.273438 C 21.246094 -16.359375 21.242188 -16.402344 21.375 -16.410156 Z M 20.816406 -15.160156 C 21.027344 -15.34375 21.027344 -15.34375 20.867188 -15.074219 C 20.65625 -14.847656 20.574219 -14.757812 20.566406 -14.886719 C 20.566406 -14.929688 20.648438 -15.023438 20.816406 -15.160156 Z M 20.226562 -14.699219 C 20.265625 -14.789062 20.574219 -14.757812 20.578125 -14.625 C 20.578125 -14.625 20.496094 -14.578125 20.363281 -14.574219 C 20.234375 -14.566406 20.1875 -14.609375 20.226562 -14.699219 Z M 18.917969 -12.675781 C 19.003906 -12.765625 19.175781 -12.816406 19.261719 -12.820312 C 19.347656 -12.824219 19.429688 -12.960938 19.46875 -13.046875 C 19.507812 -13.179688 19.460938 -13.222656 19.335938 -13.128906 C 19.207031 -13.035156 19.207031 -13.082031 19.25 -13.125 C 19.332031 -13.21875 19.417969 -13.265625 19.503906 -13.269531 C 19.589844 -13.273438 19.71875 -13.367188 19.757812 -13.496094 C 19.792969 -13.628906 19.75 -13.671875 19.578125 -13.578125 C 19.453125 -13.441406 19.449219 -13.484375 19.574219 -13.664062 C 19.695312 -13.84375 19.824219 -13.894531 19.914062 -13.855469 C 20.050781 -13.773438 19.691406 -13.015625 19.394531 -12.738281 C 19.144531 -12.511719 18.710938 -12.402344 18.917969 -12.675781 Z M 18.640625 -12.09375 C 18.554688 -12.003906 18.511719 -12.046875 18.59375 -12.09375 C 18.636719 -12.183594 18.765625 -12.230469 18.894531 -12.28125 C 19.066406 -12.289062 19.070312 -12.246094 18.949219 -12.019531 C 18.910156 -11.886719 18.742188 -11.707031 18.65625 -11.660156 C 18.53125 -11.566406 18.527344 -11.609375 18.652344 -11.746094 C 18.734375 -11.878906 18.816406 -12.015625 18.816406 -12.058594 C 18.8125 -12.144531 18.722656 -12.140625 18.640625 -12.09375 Z M 18.058594 -11.414062 C 18.179688 -11.59375 18.347656 -11.730469 18.394531 -11.734375 C 18.4375 -11.734375 18.355469 -11.601562 18.1875 -11.417969 C 18.0625 -11.28125 17.9375 -11.144531 17.894531 -11.144531 C 17.851562 -11.140625 17.933594 -11.277344 18.058594 -11.414062 Z M 17.441406 -10.554688 C 17.652344 -10.742188 17.652344 -10.742188 17.484375 -10.515625 C 17.324219 -10.246094 17.195312 -10.195312 17.191406 -10.285156 C 17.1875 -10.328125 17.269531 -10.460938 17.441406 -10.554688 Z M 2.464844 -8.453125 C 2.390625 -8.1875 2.324219 -7.703125 2.207031 -7.390625 L 2.058594 -6.773438 L 2.117188 -7.429688 C 2.144531 -7.78125 2.253906 -8.269531 2.328125 -8.53125 L 2.53125 -8.933594 Z M 7.890625 -11.226562 C 7.679688 -10.996094 7.597656 -10.90625 7.589844 -11.039062 C 7.589844 -11.039062 7.671875 -11.171875 7.800781 -11.265625 C 8.011719 -11.449219 8.054688 -11.449219 7.890625 -11.226562 Z M 8.257812 -11.808594 C 8.089844 -11.582031 7.964844 -11.492188 7.957031 -11.621094 C 7.957031 -11.621094 8.082031 -11.757812 8.210938 -11.851562 C 8.417969 -12.078125 8.421875 -12.035156 8.257812 -11.808594 Z M 16.078125 -19.582031 C 16.476562 -20.472656 15.984375 -18.746094 15.363281 -17.015625 C 14.972656 -15.949219 14.355469 -14.089844 13.972656 -12.890625 C 13.289062 -10.589844 13.128906 -10.277344 13.53125 -12 C 13.753906 -12.882812 15.722656 -18.734375 16.078125 -19.582031 Z M 14.960938 -20.144531 C 15.050781 -20.148438 14.699219 -19.171875 13.996094 -17.347656 C 13.679688 -16.546875 13.210938 -15.304688 12.980469 -14.640625 C 12.402344 -12.910156 12.359375 -12.820312 12.355469 -12.90625 C 12.289062 -13.429688 14.703125 -20.132812 14.960938 -20.144531 Z M 13.109375 -17.613281 C 13.316406 -17.886719 13.203125 -17.445312 12.699219 -15.980469 C 12.3125 -14.871094 11.816406 -13.234375 11.640625 -12.351562 C 11.382812 -11.207031 11.304688 -10.984375 11.328125 -11.507812 C 11.46875 -13.21875 12.449219 -16.757812 13.109375 -17.613281 Z M 11.886719 -15.59375 C 11.804688 -15.503906 11.578125 -14.75 11.347656 -13.957031 C 11.125 -13.117188 10.96875 -12.714844 10.996094 -13.066406 C 11.089844 -13.945312 11.503906 -15.402344 11.757812 -15.589844 C 11.96875 -15.773438 11.96875 -15.773438 11.886719 -15.59375 Z M 9.921875 -19.570312 C 10.429688 -19.941406 10.9375 -20.3125 11.066406 -20.363281 C 11.492188 -20.558594 11.433594 -19.988281 10.757812 -18.472656 C 9.640625 -16.019531 5.539062 -10.027344 3.78125 -8.292969 C 3.40625 -7.925781 3.070312 -7.605469 2.984375 -7.601562 C 2.808594 -7.59375 3.574219 -9.984375 4.328125 -11.765625 C 5.753906 -15.0625 7.933594 -18.128906 9.921875 -19.570312 Z M 5.261719 -18.316406 L 5.800781 -18.949219 L 5.226562 -18.097656 C 3.792969 -15.9375 2.824219 -14.144531 2.164062 -12.28125 C 1.886719 -11.613281 1.503906 -10.417969 1.277344 -9.621094 C 1.050781 -8.824219 0.855469 -8.292969 0.847656 -8.46875 C 0.773438 -9.121094 1.582031 -11.644531 2.335938 -13.335938 C 3.253906 -15.300781 4.429688 -17.316406 5.261719 -18.316406 Z M 3.648438 -17.238281 C 3.691406 -17.242188 3.574219 -16.929688 3.328125 -16.570312 C 2.757812 -15.628906 1.5625 -13.085938 1.09375 -11.753906 C 0.859375 -11.132812 0.523438 -9.894531 0.34375 -9.011719 C 0.09375 -7.777344 0.015625 -7.558594 -0.00390625 -7.992188 C -0.0742188 -9.5625 1.167969 -13.066406 2.875 -15.980469 C 3.238281 -16.652344 3.605469 -17.238281 3.648438 -17.238281 Z M -0.5625 -8.753906 C -0.425781 -9.589844 -0.0117188 -11.09375 0.269531 -11.628906 C 0.433594 -11.941406 0.472656 -12.03125 0.4375 -11.855469 C 0.398438 -11.722656 0.171875 -10.882812 -0.0507812 -10 C -0.5 -8.363281 -0.699219 -7.875 -0.5625 -8.753906 Z M -0.5625 -8.753906 "/></g></g></g><g fill="#ffffff" fill-opacity="1"><g transform="translate(187.783203, 223.414105)"><g><path d="M 11 -21.847656 C 11.296875 -22.035156 11.382812 -22.039062 11.523438 -21.867188 C 11.570312 -21.785156 11.664062 -21.613281 11.667969 -21.527344 C 11.671875 -21.4375 11.769531 -21.269531 11.949219 -21.144531 C 12.175781 -20.9375 12.21875 -20.9375 12.507812 -21.300781 C 12.675781 -21.484375 12.832031 -21.882812 12.863281 -22.148438 C 12.929688 -22.671875 12.882812 -22.714844 11.882812 -23.589844 C 10.703125 -24.628906 10.167969 -24.867188 9.078125 -24.816406 C 7.160156 -24.734375 5.078125 -23.417969 2.875 -20.917969 C 1.542969 -19.417969 0.886719 -18.472656 -0.40625 -16.054688 C -1.417969 -14.261719 -2.242188 -12.175781 -2.644531 -10.367188 C -2.941406 -9.171875 -2.746094 -6.78125 -2.261719 -5.664062 C -1.488281 -3.996094 -0.210938 -2.785156 2.15625 -1.625 C 3.71875 -0.863281 6.253906 -1.761719 8.90625 -4.0625 C 10.296875 -5.21875 13.390625 -8.28125 14.011719 -9.050781 C 14.222656 -9.277344 14.882812 -10.09375 15.464844 -10.773438 C 17.128906 -12.683594 19.109375 -15.304688 19.34375 -15.925781 C 19.496094 -16.371094 19.492188 -16.457031 19.269531 -16.621094 C 18.636719 -17.03125 17.628906 -16.15625 14.980469 -12.851562 C 12.332031 -9.542969 9.992188 -7.125 7.792969 -5.5 C 5.976562 -4.152344 4.304688 -3.421875 2.820312 -3.355469 C 2.210938 -3.332031 2.121094 -3.371094 1.976562 -3.710938 C 1.441406 -4.914062 2.554688 -9.417969 4.082031 -12.367188 C 5.808594 -15.761719 9.722656 -21.132812 11 -21.847656 Z M 0.570312 -13.785156 C 0.609375 -13.828125 0.65625 -13.742188 0.621094 -13.609375 C 0.542969 -13.390625 0.414062 -13.339844 0.40625 -13.515625 C 0.402344 -13.601562 0.484375 -13.691406 0.570312 -13.785156 Z M -1.089844 -8.863281 C -1.121094 -9.558594 0.191406 -13.417969 0.375 -13.207031 C 0.417969 -13.210938 0.300781 -12.898438 0.1875 -12.542969 C 0.0273438 -12.230469 -0.320312 -11.167969 -0.585938 -10.238281 C -0.847656 -9.308594 -1.082031 -8.6875 -1.089844 -8.863281 Z M -0.589844 -7.398438 L -0.542969 -8.273438 C -0.546875 -9.367188 -0.0546875 -11.136719 0.660156 -12.738281 C 1.257812 -13.988281 2.878906 -16.855469 3.132812 -17 C 3.21875 -17.089844 2.855469 -16.417969 2.410156 -15.613281 C 1.351562 -13.820312 0.636719 -12.214844 0.183594 -10.621094 C -0.00390625 -9.957031 -0.265625 -8.984375 -0.371094 -8.414062 Z M 0.515625 -9.109375 C 0.09375 -7.777344 0.1875 -8.613281 0.640625 -10.207031 C 1.167969 -12.105469 1.84375 -13.578125 3.066406 -15.597656 C 4.003906 -17.082031 5.6875 -19.515625 5.863281 -19.523438 C 5.90625 -19.523438 5.90625 -19.480469 5.042969 -18.304688 C 3.597656 -16.363281 1.703125 -12.785156 1.046875 -10.835938 C 0.894531 -10.347656 0.625 -9.550781 0.515625 -9.109375 Z M 2.230469 -12.722656 C 2.15625 -12.457031 2.027344 -12.40625 2.019531 -12.625 C 2.015625 -12.667969 2.097656 -12.804688 2.183594 -12.851562 C 2.269531 -12.898438 2.273438 -12.8125 2.230469 -12.722656 Z M 1.835938 -11.832031 C 1.757812 -11.566406 1.671875 -11.519531 1.664062 -11.734375 C 1.660156 -11.824219 1.699219 -11.910156 1.785156 -11.960938 C 1.871094 -12.007812 1.871094 -11.964844 1.835938 -11.832031 Z M 2.230469 -9.75 C 2.117188 -9.398438 1.851562 -8.511719 1.667969 -7.71875 C 1.480469 -6.964844 1.328125 -6.523438 1.320312 -6.652344 C 1.261719 -7 2.050781 -9.875 2.25 -10.320312 C 2.453125 -10.679688 2.464844 -10.460938 2.230469 -9.75 Z M 2.578125 -10.859375 C 2.5 -10.59375 2.414062 -10.546875 2.40625 -10.765625 C 2.402344 -10.851562 2.441406 -10.941406 2.527344 -10.988281 C 2.613281 -11.035156 2.65625 -10.992188 2.578125 -10.859375 Z M 2.578125 -10.859375 "/></g></g></g><g fill="#ffffff" fill-opacity="1"><g transform="translate(202.297015, 222.771177)"><g><path d="M -0.550781 -1.546875 C -0.417969 -1.554688 -0.152344 -1.433594 0.117188 -1.273438 C 0.433594 -1.023438 0.613281 -0.988281 0.78125 -1.125 C 1.078125 -1.3125 1.238281 -2.589844 1.046875 -3.015625 C 0.761719 -3.527344 0.804688 -4.492188 1.109375 -6.46875 C 1.339844 -8.183594 2.203125 -11.410156 2.375 -11.417969 C 2.421875 -11.417969 2.84375 -10.695312 3.320312 -9.800781 C 5.027344 -6.816406 7.414062 -4.171875 9.980469 -2.496094 C 11.371094 -1.597656 12.085938 -1.277344 13.316406 -1.070312 C 14.460938 -0.902344 15.503906 -1.035156 16.007812 -1.496094 C 16.214844 -1.722656 16.558594 -1.867188 16.6875 -1.875 C 17.257812 -1.898438 17.597656 -2.089844 17.757812 -2.359375 C 18.003906 -2.804688 17.632812 -3.269531 16.613281 -3.574219 C 15.414062 -4.003906 14.199219 -4.867188 12.738281 -6.242188 C 10.367188 -8.539062 8.421875 -10.988281 7.046875 -13.460938 C 6.617188 -14.269531 6.238281 -14.953125 6.28125 -14.953125 C 6.324219 -15 6.886719 -15.15625 7.574219 -15.359375 C 10.554688 -16.105469 16.023438 -18.878906 18.253906 -20.769531 C 20.066406 -22.289062 21.304688 -23.917969 21.800781 -25.46875 C 21.992188 -26.089844 22.023438 -26.441406 21.9375 -27.398438 C 21.859375 -28.09375 21.703125 -28.695312 21.5625 -28.910156 C 21.425781 -29.078125 21.277344 -29.421875 21.179688 -29.679688 C 21.125 -29.9375 20.9375 -30.234375 20.804688 -30.273438 C 20.578125 -30.394531 20.410156 -30.300781 19.832031 -29.53125 C 17.84375 -27.039062 16.332031 -25.707031 13.523438 -24.054688 C 10.628906 -22.308594 6.265625 -20.238281 6.039062 -20.445312 C 5.992188 -20.488281 6.5 -21.863281 7.214844 -23.511719 C 10.925781 -32.367188 12.03125 -35.082031 12.085938 -35.828125 C 12.148438 -36.308594 12.101562 -36.4375 11.734375 -36.816406 C 11.410156 -37.195312 11.28125 -37.234375 11.113281 -37.050781 C 10.945312 -36.910156 10.945312 -36.910156 11.019531 -37.222656 C 11.09375 -37.488281 11.046875 -37.570312 10.917969 -37.480469 C 10.789062 -37.429688 10.652344 -37.554688 10.507812 -37.855469 C 10.222656 -38.367188 10.089844 -38.488281 9.519531 -38.464844 C 8.691406 -38.429688 7.386719 -36.40625 4.664062 -30.738281 C 2.304688 -25.828125 0.6875 -21.914062 -0.621094 -17.96875 C -2.699219 -11.628906 -2.992188 -10.394531 -3.195312 -8.070312 C -3.382812 -6.402344 -3.164062 -4.402344 -2.734375 -3.589844 C -2.398438 -2.90625 -0.941406 -1.53125 -0.550781 -1.546875 Z M 19.371094 -24.183594 C 18.964844 -23.507812 17.234375 -22.078125 15.492188 -20.996094 C 14.257812 -20.242188 14.339844 -20.421875 15.613281 -21.265625 C 16.96875 -22.152344 18.109375 -23.078125 18.945312 -23.945312 C 19.363281 -24.355469 19.492188 -24.40625 19.371094 -24.183594 Z M 18.78125 -24.636719 C 19.867188 -25.777344 19.964844 -25.5625 18.878906 -24.378906 C 17.214844 -22.558594 14.285156 -20.679688 10.257812 -18.84375 C 8.890625 -18.214844 8.542969 -18.113281 9.484375 -18.632812 C 15.457031 -21.78125 16.945312 -22.71875 18.78125 -24.636719 Z M 17.578125 -26.15625 C 18.460938 -26.9375 18.589844 -26.988281 18.089844 -26.484375 C 17.714844 -26.074219 17.125 -25.566406 16.789062 -25.289062 C 15.941406 -24.683594 16.191406 -24.914062 17.578125 -26.15625 Z M 15.851562 -24.769531 C 15.980469 -24.816406 16.066406 -24.820312 16.027344 -24.734375 C 15.941406 -24.640625 15.859375 -24.59375 15.769531 -24.589844 C 15.597656 -24.582031 15.636719 -24.671875 15.851562 -24.769531 Z M 15.3125 -23.128906 C 15.4375 -23.222656 15.566406 -23.269531 15.570312 -23.226562 C 15.570312 -23.183594 15.445312 -23.089844 15.316406 -22.996094 C 15.144531 -22.902344 15.015625 -22.855469 15.015625 -22.898438 C 15.011719 -22.941406 15.140625 -23.035156 15.3125 -23.128906 Z M 8.632812 -19.121094 C 11.757812 -20.480469 16.355469 -23.21875 18.164062 -24.828125 C 18.332031 -24.921875 18.164062 -24.785156 17.832031 -24.417969 C 17.453125 -24.054688 16.738281 -23.453125 16.1875 -23.035156 C 14.457031 -21.738281 10.316406 -19.5 8.082031 -18.660156 C 7.566406 -18.503906 7.136719 -18.3125 7.09375 -18.308594 C 6.921875 -18.300781 7.261719 -18.492188 8.632812 -19.121094 Z M 10.074219 -4.289062 C 9.898438 -4.28125 7.566406 -6.667969 6.917969 -7.511719 C 5.804688 -8.992188 4.539062 -10.902344 4.714844 -10.910156 C 4.757812 -10.910156 5.128906 -10.402344 5.503906 -9.808594 C 6.441406 -8.367188 7.78125 -6.722656 9.109375 -5.382812 C 9.660156 -4.796875 10.117188 -4.292969 10.074219 -4.289062 Z M 10.269531 -4.824219 C 7.683594 -6.980469 5.3125 -10.238281 4.089844 -13.152344 C 3.597656 -14.441406 3.535156 -14.832031 4.023438 -13.675781 C 5.332031 -10.761719 7.425781 -7.839844 10.164062 -5.210938 C 10.941406 -4.414062 11.582031 -3.789062 11.539062 -3.785156 C 11.539062 -3.785156 10.949219 -4.242188 10.269531 -4.824219 Z M 8 -10.664062 C 8.042969 -10.664062 8.460938 -10.160156 8.878906 -9.566406 C 9.804688 -8.382812 11 -7.039062 12.003906 -6.078125 C 12.414062 -5.703125 12.644531 -5.410156 12.601562 -5.40625 C 12.425781 -5.398438 10.136719 -7.785156 9.351562 -8.800781 C 8.289062 -10.105469 7.914062 -10.660156 8 -10.664062 Z M 7.253906 -11.765625 C 7.296875 -11.765625 7.433594 -11.640625 7.527344 -11.472656 C 7.621094 -11.34375 7.628906 -11.214844 7.628906 -11.214844 C 7.582031 -11.210938 7.445312 -11.335938 7.355469 -11.464844 C 7.257812 -11.632812 7.253906 -11.765625 7.253906 -11.765625 Z M 8.933594 -7.339844 C 9.855469 -6.289062 9.632812 -6.367188 8.621094 -7.5 C 7.609375 -8.679688 6.585938 -10.03125 5.882812 -11.179688 C 5.226562 -12.199219 4.257812 -14.296875 4.242188 -14.644531 C 4.238281 -14.734375 4.382812 -14.476562 4.574219 -14.046875 C 5.585938 -11.953125 7.273438 -9.363281 8.933594 -7.339844 Z M 4.226562 -20.976562 C 4.222656 -21.066406 4.339844 -21.375 4.5 -21.644531 C 4.621094 -21.914062 4.742188 -22.09375 4.746094 -22.003906 C 4.75 -21.917969 4.632812 -21.652344 4.515625 -21.339844 C 4.351562 -21.070312 4.230469 -20.890625 4.226562 -20.976562 Z M 11.40625 -35.359375 C 11.453125 -35.320312 10.820312 -33.761719 10.074219 -31.894531 C 8.695312 -28.515625 7.742188 -26.375 7.691406 -26.503906 C 7.691406 -26.546875 8.003906 -27.347656 8.398438 -28.28125 C 10.882812 -34.332031 11.359375 -35.402344 11.40625 -35.359375 Z M 10.785156 -36.597656 C 10.828125 -36.558594 10.632812 -36.070312 10.308594 -35.441406 C 9.746094 -34.414062 7.164062 -28.535156 4.628906 -22.65625 C 3.878906 -20.917969 3.242188 -19.492188 3.15625 -19.445312 C 2.898438 -19.390625 3.769531 -21.394531 6.988281 -28.570312 C 10.167969 -35.65625 10.648438 -36.722656 10.785156 -36.597656 Z M 5.914062 -29.21875 C 7.539062 -32.917969 8.339844 -34.570312 8.988281 -35.691406 C 9.476562 -36.542969 9.730469 -36.726562 9.285156 -35.921875 C 8.398438 -34.222656 6.164062 -29.449219 4.335938 -25.394531 C 3.816406 -24.234375 3.378906 -23.300781 3.335938 -23.296875 C 3.25 -23.292969 3.527344 -23.875 5.914062 -29.21875 Z M 2.585938 -21.515625 C 2.746094 -21.785156 2.792969 -21.746094 2.632812 -21.429688 C 2.433594 -20.984375 2.394531 -20.898438 2.386719 -21.070312 C 2.382812 -21.160156 2.460938 -21.335938 2.585938 -21.515625 Z M 3.34375 -22.117188 C 5.234375 -26.746094 9.378906 -35.75 10.121094 -36.789062 C 10.40625 -37.195312 10.503906 -37.023438 10.214844 -36.574219 C 9.523438 -35.453125 4.464844 -24.394531 3.210938 -21.195312 C 2.738281 -20.039062 2.34375 -19.105469 2.253906 -19.101562 C 2.210938 -19.097656 2.164062 -19.140625 2.164062 -19.183594 C 2.164062 -19.183594 2.671875 -20.515625 3.34375 -22.117188 Z M 1.222656 -9.839844 C 1.1875 -9.707031 1 -8.953125 0.859375 -8.207031 C 0.71875 -7.414062 0.539062 -6.574219 0.46875 -6.222656 C 0.394531 -5.914062 0.355469 -5.738281 0.351562 -5.867188 C 0.289062 -6.257812 0.863281 -9.078125 1.058594 -9.613281 C 1.175781 -9.921875 1.261719 -10.015625 1.222656 -9.839844 Z M 0.914062 -12.882812 C 0.601562 -12.039062 0.261719 -10.84375 0.0742188 -10.136719 C -0.453125 -8.234375 -0.488281 -8.101562 -0.433594 -8.761719 C -0.3125 -9.988281 1.210938 -15.078125 1.320312 -14.601562 C 1.367188 -14.519531 1.183594 -13.722656 0.914062 -12.882812 Z M 1.5625 -18.980469 C 1.597656 -19.113281 1.683594 -19.207031 1.726562 -19.164062 C 1.773438 -19.121094 1.734375 -18.988281 1.609375 -18.894531 C 1.484375 -18.761719 1.484375 -18.761719 1.5625 -18.980469 Z M 1.472656 -17.054688 C 1.515625 -17.015625 1.210938 -16.039062 0.824219 -14.886719 C -0.332031 -11.429688 -0.707031 -10.015625 -0.972656 -8.167969 C -1.152344 -7.242188 -1.28125 -6.277344 -1.320312 -6.101562 C -1.351562 -5.835938 -1.351562 -5.878906 -1.371094 -6.273438 C -1.449219 -7.054688 -1.039062 -9.652344 -0.582031 -11.15625 C -0.246094 -12.4375 1.261719 -16.914062 1.339844 -17.050781 C 1.382812 -17.09375 1.425781 -17.097656 1.472656 -17.054688 Z M -0.875 -11.839844 C -0.226562 -13.96875 0.859375 -17.074219 0.90625 -17.03125 C 0.949219 -16.988281 0.570312 -15.75 0.0664062 -14.285156 C -0.394531 -12.824219 -0.964844 -10.964844 -1.148438 -10.167969 C -1.332031 -9.375 -1.554688 -8.449219 -1.625 -8.097656 C -1.691406 -7.65625 -1.734375 -7.566406 -1.742188 -7.785156 C -1.808594 -8.304688 -1.375 -10.289062 -0.875 -11.839844 Z M -0.875 -11.839844 "/></g></g></g><g fill="#ffffff" fill-opacity="1"><g transform="translate(221.95401, 221.900417)"><g/></g></g><g fill="#ffffff" fill-opacity="1"><g transform="translate(227.968505, 221.633988)"><g><path d="M 5.886719 -15.023438 C 7.476562 -14.65625 10.125 -14.992188 10.96875 -15.640625 L 11.265625 -15.875 L 10.773438 -16.070312 C 10.511719 -16.144531 9.410156 -16.359375 8.351562 -16.53125 C 5.933594 -16.902344 4.253906 -17.355469 3.84375 -17.730469 C 3.570312 -17.980469 3.519531 -18.152344 3.566406 -19.113281 C 3.566406 -20.03125 3.640625 -20.382812 4.117188 -21.453125 C 4.789062 -23.011719 5.691406 -24.320312 7.195312 -25.871094 C 12.707031 -31.617188 20.554688 -35.851562 28.867188 -37.574219 C 31.070312 -38.066406 35.648438 -38.269531 36.839844 -37.972656 C 37.417969 -37.777344 37.640625 -37.65625 37.648438 -37.484375 C 37.667969 -37.089844 36.535156 -35.03125 35.585938 -33.765625 C 34.636719 -32.546875 31.886719 -29.496094 30.082031 -27.84375 C 27.613281 -25.464844 21.042969 -19.933594 21.03125 -20.238281 C 21.023438 -20.367188 22.398438 -22.832031 23.175781 -24.089844 C 23.785156 -25.121094 24.726562 -26.515625 26.125 -28.457031 C 26.574219 -29.132812 26.761719 -29.839844 26.457031 -29.824219 C 26.371094 -29.820312 26.324219 -29.863281 26.363281 -29.953125 C 26.40625 -30.039062 26.222656 -30.207031 25.953125 -30.371094 C 25.683594 -30.53125 25.363281 -30.867188 25.265625 -31.082031 C 25.121094 -31.425781 25.03125 -31.464844 24.507812 -31.441406 C 23.070312 -31.378906 21.054688 -29.542969 18.460938 -25.976562 C 17.59375 -24.800781 15.84375 -21.929688 15.039062 -20.410156 C 13.148438 -16.742188 11.96875 -11.800781 12.132812 -8.136719 C 12.261719 -5.171875 12.71875 -3.75 13.503906 -3.785156 C 13.761719 -3.84375 13.898438 -3.761719 13.902344 -3.628906 C 13.90625 -3.542969 14 -3.460938 14.039062 -3.546875 C 14.125 -3.597656 14.214844 -3.46875 14.222656 -3.292969 C 14.234375 -3.03125 14.328125 -2.90625 14.640625 -2.789062 C 15.347656 -2.601562 15.628906 -3.09375 15.976562 -5.164062 C 16.355469 -7.449219 17.039062 -10.757812 17.191406 -11.246094 C 17.351562 -11.601562 17.773438 -11.882812 19.519531 -12.917969 C 21.859375 -14.289062 23.363281 -14.925781 26.167969 -15.660156 C 27.722656 -16.035156 28.332031 -16.148438 30.511719 -16.246094 C 31.863281 -16.304688 33.039062 -16.3125 33.132812 -16.230469 C 33.492188 -15.941406 30.382812 -12.222656 28.027344 -10.195312 C 24.746094 -7.34375 20.457031 -4.53125 16.945312 -2.976562 C 12.363281 -0.941406 9.023438 -0.398438 6.28125 -1.195312 C 4.777344 -1.609375 4.414062 -1.898438 4.519531 -2.515625 C 4.546875 -2.867188 4.542969 -2.910156 4.328125 -2.855469 C 4.203125 -2.761719 4.113281 -2.804688 4.152344 -2.890625 C 4.195312 -2.9375 4.191406 -3.023438 4.101562 -3.019531 C 4.015625 -3.015625 4.011719 -3.105469 4.050781 -3.238281 C 4.125 -3.546875 3.386719 -3.425781 3.183594 -3.066406 C 2.980469 -2.710938 3.59375 -1.730469 4.929688 -0.175781 C 6.449219 1.636719 7.484375 2.289062 9.558594 2.765625 C 11.011719 3.09375 14.101562 2.824219 16.171875 2.253906 C 21.347656 0.757812 27.234375 -2.472656 31.269531 -6.015625 C 32.824219 -7.394531 34.945312 -9.757812 35.679688 -10.972656 C 37.226562 -13.484375 37.234375 -15.320312 35.582031 -17.125 C 35.261719 -17.460938 34.890625 -17.96875 34.699219 -18.308594 C 34.042969 -19.328125 32.84375 -19.757812 30.609375 -19.875 L 29.300781 -19.90625 L 30.945312 -21.199219 C 36.976562 -26.097656 40.902344 -31.074219 41.449219 -34.550781 C 41.691406 -36.003906 41.328125 -37.296875 40.300781 -38.78125 C 39.976562 -39.203125 39.691406 -39.714844 39.683594 -39.84375 C 39.664062 -40.28125 38.789062 -41.378906 38.023438 -41.824219 C 37.578125 -42.066406 36.734375 -42.378906 36.074219 -42.523438 C 35.054688 -42.785156 34.707031 -42.769531 32.355469 -42.621094 C 30.441406 -42.449219 29.3125 -42.3125 27.84375 -41.941406 C 22.570312 -40.703125 17.507812 -38.644531 13.257812 -35.964844 C 6.710938 -31.875 1.753906 -26.460938 0.714844 -22.351562 C 0.199219 -20.144531 0.753906 -18.507812 2.617188 -16.84375 C 3.84375 -15.761719 4.695312 -15.277344 5.886719 -15.023438 Z M 14.679688 -11.699219 C 14.609375 -11.390625 14.433594 -10.421875 14.296875 -9.542969 C 14.082031 -8.484375 14.003906 -8.21875 14.027344 -8.746094 C 14.109375 -9.839844 14.53125 -12.175781 14.660156 -12.179688 C 14.746094 -12.183594 14.757812 -11.964844 14.679688 -11.699219 Z M 14.945312 -15.601562 C 14.933594 -15.90625 16.042969 -18.445312 16.851562 -19.921875 C 17.816406 -21.796875 19.855469 -25.078125 20.433594 -25.800781 L 20.886719 -26.390625 L 20.398438 -25.582031 C 18.277344 -22.253906 16.496094 -19.074219 15.792969 -17.210938 C 15.28125 -15.921875 14.960938 -15.292969 14.945312 -15.601562 Z M 16.882812 -18.175781 C 16.125 -16.570312 15.800781 -16.03125 15.785156 -16.335938 C 15.777344 -16.554688 17.09375 -19.363281 17.984375 -20.976562 C 19.640625 -23.976562 21.117188 -26.136719 22.652344 -27.953125 C 23.484375 -28.90625 23.285156 -28.503906 22.046875 -26.878906 C 20.191406 -24.347656 18.199219 -21.027344 16.882812 -18.175781 Z M 17.425781 -17.761719 C 17.191406 -17.183594 17.023438 -17.003906 17.015625 -17.21875 C 17.003906 -17.4375 18.167969 -19.761719 19.183594 -21.507812 C 21.128906 -24.914062 22.6875 -27.210938 24.148438 -28.71875 L 24.941406 -29.539062 L 24.195312 -28.632812 C 22.832031 -26.867188 22.296875 -26.144531 20.992188 -24.078125 C 19.722656 -22.101562 18.027344 -19.011719 17.425781 -17.761719 Z M 19.675781 -19.261719 C 19.542969 -19.253906 22.171875 -24 22.425781 -24.1875 C 22.511719 -24.234375 22.230469 -23.695312 21.867188 -23.027344 C 21.460938 -22.351562 20.855469 -21.234375 20.449219 -20.5625 C 20.085938 -19.847656 19.71875 -19.261719 19.675781 -19.261719 Z M 30.390625 -8.074219 C 29.675781 -7.472656 29.464844 -7.332031 29.839844 -7.699219 C 32.683594 -10.53125 33.269531 -11.171875 34.421875 -12.707031 C 34.546875 -12.886719 34.511719 -12.710938 34.308594 -12.351562 C 34.148438 -11.996094 33.488281 -11.09375 32.78125 -10.363281 C 32.113281 -9.632812 31.023438 -8.582031 30.390625 -8.074219 Z M 33.179688 -10.207031 C 32.96875 -10.019531 32.804688 -9.839844 32.757812 -9.835938 C 32.714844 -9.835938 32.839844 -10.015625 33.003906 -10.199219 C 33.214844 -10.425781 33.378906 -10.605469 33.425781 -10.609375 C 33.46875 -10.609375 33.34375 -10.429688 33.179688 -10.207031 Z M 35.503906 -11.96875 C 35.796875 -12.285156 35.351562 -11.480469 34.695312 -10.535156 C 34.40625 -10.128906 34.117188 -9.765625 34.074219 -9.765625 C 33.984375 -9.761719 35.210938 -11.691406 35.503906 -11.96875 Z M 34.699219 -14.335938 C 34.71875 -13.941406 33.691406 -12.457031 32.652344 -11.273438 C 32.070312 -10.636719 31.273438 -9.816406 30.894531 -9.492188 C 30.394531 -9.035156 30.597656 -9.304688 31.554688 -10.394531 C 33.09375 -12.125 33.34375 -12.441406 34.117188 -13.699219 C 34.445312 -14.148438 34.695312 -14.464844 34.699219 -14.335938 Z M 34.246094 -14.707031 C 34.257812 -14.445312 33.484375 -13.1875 32.863281 -12.417969 C 32.574219 -12.011719 32.242188 -11.691406 32.195312 -11.691406 C 32.152344 -11.6875 32.359375 -12.003906 32.6875 -12.453125 C 33.019531 -12.863281 33.511719 -13.582031 33.753906 -14.03125 C 34.039062 -14.480469 34.246094 -14.75 34.246094 -14.707031 Z M 35.296875 -32.398438 C 35.507812 -32.585938 35.507812 -32.585938 35.34375 -32.316406 C 35.179688 -32.089844 35.054688 -31.996094 35.046875 -32.128906 C 35.046875 -32.171875 35.171875 -32.261719 35.296875 -32.398438 Z M 33.960938 -29.066406 C 34.792969 -29.976562 35.957031 -31.335938 36.535156 -32.105469 C 37.066406 -32.871094 37.566406 -33.417969 37.570312 -33.375 C 37.582031 -33.070312 35.761719 -30.761719 34.347656 -29.214844 C 33.429688 -28.210938 32.636719 -27.390625 32.550781 -27.386719 C 32.507812 -27.382812 33.128906 -28.15625 33.960938 -29.066406 Z M 29.429688 -23.886719 C 29.761719 -24.292969 29.84375 -24.339844 29.851562 -24.164062 C 29.8125 -24.121094 29.644531 -23.9375 29.476562 -23.757812 L 29.097656 -23.476562 Z M 26.183594 -20.203125 C 26.019531 -19.976562 25.894531 -19.886719 25.886719 -20.015625 C 25.886719 -20.058594 25.96875 -20.148438 26.136719 -20.289062 C 26.347656 -20.472656 26.347656 -20.472656 26.183594 -20.203125 Z M 29.265625 -22.65625 C 27.15625 -20.945312 26.4375 -20.390625 26.433594 -20.476562 C 26.433594 -20.519531 27.023438 -21.027344 27.78125 -21.628906 C 30.984375 -24.257812 33 -26.140625 35.335938 -28.601562 C 36.378906 -29.652344 37.050781 -30.335938 36.925781 -30.15625 C 35.320312 -27.988281 33.140625 -25.839844 29.265625 -22.65625 Z M 33.367188 -25.675781 C 33.160156 -25.449219 33.078125 -25.355469 33.070312 -25.488281 C 33.070312 -25.488281 33.152344 -25.621094 33.277344 -25.714844 C 33.53125 -25.902344 33.53125 -25.902344 33.367188 -25.675781 Z M 34.457031 -26.726562 C 34.292969 -26.503906 34.164062 -26.410156 34.160156 -26.496094 C 34.160156 -26.539062 34.242188 -26.675781 34.410156 -26.769531 C 34.621094 -26.953125 34.621094 -26.953125 34.457031 -26.726562 Z M 38.71875 -30.148438 C 38.304688 -29.5625 37.273438 -28.207031 36.691406 -27.527344 C 36.363281 -27.117188 35.816406 -26.613281 35.523438 -26.339844 C 35.015625 -25.921875 35.015625 -25.921875 35.601562 -26.5625 C 35.933594 -26.925781 36.765625 -27.878906 37.425781 -28.695312 C 38.667969 -30.234375 39 -30.640625 38.71875 -30.148438 Z M 38.394531 -33.453125 C 37.636719 -31.890625 34.480469 -28.214844 31.917969 -25.917969 C 29.269531 -23.570312 29.347656 -23.75 32.152344 -26.496094 C 34.375 -28.601562 36.742188 -31.328125 37.726562 -32.769531 C 38.46875 -33.808594 38.675781 -34.035156 38.394531 -33.453125 Z M 11.472656 -31.914062 C 11.679688 -32.097656 11.679688 -32.097656 11.519531 -31.828125 C 11.4375 -31.691406 11.308594 -31.601562 11.308594 -31.601562 C 11.179688 -31.59375 11.261719 -31.683594 11.472656 -31.914062 Z M 10.878906 -31.449219 L 10.546875 -31.085938 C 10.335938 -30.902344 9.707031 -30.347656 9.074219 -29.839844 C 7.769531 -28.734375 5.058594 -25.820312 4.28125 -24.648438 C 3.953125 -24.152344 3.585938 -23.570312 3.417969 -23.386719 L 3.214844 -23.03125 L 3.371094 -23.472656 C 4.082031 -25.164062 7.792969 -29.171875 10.417969 -31.078125 Z M 2.089844 -22.804688 C 2.082031 -23.023438 3.050781 -24.8125 3.464844 -25.3125 L 3.839844 -25.765625 L 3.46875 -25.179688 C 3.265625 -24.910156 2.859375 -24.191406 2.578125 -23.65625 C 2.296875 -23.121094 2.09375 -22.761719 2.089844 -22.804688 Z M 2.332031 -22.335938 C 2.4375 -22.90625 3.121094 -24.203125 3.734375 -25.105469 C 4.558594 -26.234375 6.09375 -28.050781 6.4375 -28.238281 C 6.605469 -28.332031 6.234375 -27.835938 5.570312 -27.109375 C 4.945312 -26.382812 4.160156 -25.386719 3.832031 -24.933594 C 3.546875 -24.484375 3.058594 -23.632812 2.777344 -23.054688 C 2.457031 -22.472656 2.25 -22.15625 2.332031 -22.335938 Z M 2.332031 -22.335938 "/></g></g></g><g fill="#ffffff" fill-opacity="1"><g transform="translate(269.636537, 219.78819)"><g><path d="M -1.773438 -6.515625 C -1.296875 -5.621094 -0.25 -4.617188 0.144531 -4.636719 C 0.320312 -4.644531 0.769531 -4.359375 1.175781 -4.027344 C 2.308594 -3.074219 3 -3.277344 4.582031 -5.050781 C 5.328125 -5.957031 7.464844 -8.933594 8.40625 -10.417969 L 9.054688 -11.496094 L 9.191406 -10.410156 C 9.496094 -8.457031 10.394531 -6.925781 11.597656 -6.410156 C 11.953125 -6.25 12.269531 -6.046875 12.316406 -5.917969 C 12.558594 -5.359375 14.050781 -5.207031 14.6875 -5.671875 C 16.335938 -6.882812 18.550781 -10.167969 22.59375 -17.511719 C 23.601562 -19.390625 23.785156 -20.140625 22.84375 -18.703125 C 22.558594 -18.253906 22.269531 -17.890625 22.265625 -17.933594 C 22.261719 -18.019531 22.507812 -18.382812 22.753906 -18.785156 C 23.042969 -19.191406 23.199219 -19.589844 23.152344 -19.632812 C 23.109375 -19.675781 22.695312 -19.089844 22.246094 -18.414062 C 19.707031 -14.585938 18.433594 -12.785156 17.019531 -11.191406 C 15.644531 -9.648438 13.800781 -7.949219 13.660156 -8.117188 C 13.527344 -8.199219 13.808594 -9.742188 14.179688 -11.199219 C 14.363281 -11.992188 14.980469 -13.855469 15.480469 -15.363281 C 16.601562 -18.601562 17.007812 -20.320312 16.96875 -21.238281 C 16.941406 -21.847656 16.890625 -21.976562 16.4375 -22.347656 C 16.121094 -22.597656 15.851562 -22.757812 15.765625 -22.710938 C 15.722656 -22.667969 15.636719 -22.707031 15.585938 -22.835938 C 15.535156 -22.964844 15.402344 -23.046875 15.273438 -22.996094 C 15.144531 -22.945312 15.054688 -22.984375 15.050781 -23.117188 C 15.039062 -23.335938 14.996094 -23.332031 14.746094 -23.058594 C 14.453125 -22.785156 14.453125 -22.785156 14.613281 -23.097656 C 14.808594 -23.585938 14.753906 -23.847656 14.445312 -23.921875 C 13.871094 -24.070312 13.445312 -23.832031 13.042969 -23.070312 C 12.636719 -22.398438 12.386719 -22.125 12.371094 -22.472656 C 12.367188 -22.5625 12.230469 -22.644531 12.054688 -22.679688 C 11.878906 -22.714844 11.292969 -23.125 10.792969 -23.539062 C 10.066406 -24.207031 9.753906 -24.367188 9.226562 -24.429688 C 7.996094 -24.550781 6.324219 -23.910156 4.929688 -22.800781 C 1.429688 -19.980469 -2.734375 -11.453125 -2.277344 -8.066406 C -2.214844 -7.632812 -1.96875 -6.945312 -1.773438 -6.515625 Z M 21.375 -16.410156 C 21.464844 -16.367188 21.542969 -16.503906 21.539062 -16.632812 C 21.578125 -16.765625 21.613281 -16.945312 21.652344 -16.988281 C 21.738281 -17.035156 21.742188 -16.949219 21.707031 -16.773438 C 21.683594 -16.335938 21.433594 -16.0625 21.292969 -16.273438 C 21.246094 -16.359375 21.242188 -16.402344 21.375 -16.410156 Z M 20.816406 -15.160156 C 21.027344 -15.34375 21.027344 -15.34375 20.867188 -15.074219 C 20.65625 -14.847656 20.574219 -14.757812 20.566406 -14.886719 C 20.566406 -14.929688 20.648438 -15.023438 20.816406 -15.160156 Z M 20.226562 -14.699219 C 20.265625 -14.789062 20.574219 -14.757812 20.578125 -14.625 C 20.578125 -14.625 20.496094 -14.578125 20.363281 -14.574219 C 20.234375 -14.566406 20.1875 -14.609375 20.226562 -14.699219 Z M 18.917969 -12.675781 C 19.003906 -12.765625 19.175781 -12.816406 19.261719 -12.820312 C 19.347656 -12.824219 19.429688 -12.960938 19.46875 -13.046875 C 19.507812 -13.179688 19.460938 -13.222656 19.335938 -13.128906 C 19.207031 -13.035156 19.207031 -13.082031 19.25 -13.125 C 19.332031 -13.21875 19.417969 -13.265625 19.503906 -13.269531 C 19.589844 -13.273438 19.71875 -13.367188 19.757812 -13.496094 C 19.792969 -13.628906 19.75 -13.671875 19.578125 -13.578125 C 19.453125 -13.441406 19.449219 -13.484375 19.574219 -13.664062 C 19.695312 -13.84375 19.824219 -13.894531 19.914062 -13.855469 C 20.050781 -13.773438 19.691406 -13.015625 19.394531 -12.738281 C 19.144531 -12.511719 18.710938 -12.402344 18.917969 -12.675781 Z M 18.640625 -12.09375 C 18.554688 -12.003906 18.511719 -12.046875 18.59375 -12.09375 C 18.636719 -12.183594 18.765625 -12.230469 18.894531 -12.28125 C 19.066406 -12.289062 19.070312 -12.246094 18.949219 -12.019531 C 18.910156 -11.886719 18.742188 -11.707031 18.65625 -11.660156 C 18.53125 -11.566406 18.527344 -11.609375 18.652344 -11.746094 C 18.734375 -11.878906 18.816406 -12.015625 18.816406 -12.058594 C 18.8125 -12.144531 18.722656 -12.140625 18.640625 -12.09375 Z M 18.058594 -11.414062 C 18.179688 -11.59375 18.347656 -11.730469 18.394531 -11.734375 C 18.4375 -11.734375 18.355469 -11.601562 18.1875 -11.417969 C 18.0625 -11.28125 17.9375 -11.144531 17.894531 -11.144531 C 17.851562 -11.140625 17.933594 -11.277344 18.058594 -11.414062 Z M 17.441406 -10.554688 C 17.652344 -10.742188 17.652344 -10.742188 17.484375 -10.515625 C 17.324219 -10.246094 17.195312 -10.195312 17.191406 -10.285156 C 17.1875 -10.328125 17.269531 -10.460938 17.441406 -10.554688 Z M 2.464844 -8.453125 C 2.390625 -8.1875 2.324219 -7.703125 2.207031 -7.390625 L 2.058594 -6.773438 L 2.117188 -7.429688 C 2.144531 -7.78125 2.253906 -8.269531 2.328125 -8.53125 L 2.53125 -8.933594 Z M 7.890625 -11.226562 C 7.679688 -10.996094 7.597656 -10.90625 7.589844 -11.039062 C 7.589844 -11.039062 7.671875 -11.171875 7.800781 -11.265625 C 8.011719 -11.449219 8.054688 -11.449219 7.890625 -11.226562 Z M 8.257812 -11.808594 C 8.089844 -11.582031 7.964844 -11.492188 7.957031 -11.621094 C 7.957031 -11.621094 8.082031 -11.757812 8.210938 -11.851562 C 8.417969 -12.078125 8.421875 -12.035156 8.257812 -11.808594 Z M 16.078125 -19.582031 C 16.476562 -20.472656 15.984375 -18.746094 15.363281 -17.015625 C 14.972656 -15.949219 14.355469 -14.089844 13.972656 -12.890625 C 13.289062 -10.589844 13.128906 -10.277344 13.53125 -12 C 13.753906 -12.882812 15.722656 -18.734375 16.078125 -19.582031 Z M 14.960938 -20.144531 C 15.050781 -20.148438 14.699219 -19.171875 13.996094 -17.347656 C 13.679688 -16.546875 13.210938 -15.304688 12.980469 -14.640625 C 12.402344 -12.910156 12.359375 -12.820312 12.355469 -12.90625 C 12.289062 -13.429688 14.703125 -20.132812 14.960938 -20.144531 Z M 13.109375 -17.613281 C 13.316406 -17.886719 13.203125 -17.445312 12.699219 -15.980469 C 12.3125 -14.871094 11.816406 -13.234375 11.640625 -12.351562 C 11.382812 -11.207031 11.304688 -10.984375 11.328125 -11.507812 C 11.46875 -13.21875 12.449219 -16.757812 13.109375 -17.613281 Z M 11.886719 -15.59375 C 11.804688 -15.503906 11.578125 -14.75 11.347656 -13.957031 C 11.125 -13.117188 10.96875 -12.714844 10.996094 -13.066406 C 11.089844 -13.945312 11.503906 -15.402344 11.757812 -15.589844 C 11.96875 -15.773438 11.96875 -15.773438 11.886719 -15.59375 Z M 9.921875 -19.570312 C 10.429688 -19.941406 10.9375 -20.3125 11.066406 -20.363281 C 11.492188 -20.558594 11.433594 -19.988281 10.757812 -18.472656 C 9.640625 -16.019531 5.539062 -10.027344 3.78125 -8.292969 C 3.40625 -7.925781 3.070312 -7.605469 2.984375 -7.601562 C 2.808594 -7.59375 3.574219 -9.984375 4.328125 -11.765625 C 5.753906 -15.0625 7.933594 -18.128906 9.921875 -19.570312 Z M 5.261719 -18.316406 L 5.800781 -18.949219 L 5.226562 -18.097656 C 3.792969 -15.9375 2.824219 -14.144531 2.164062 -12.28125 C 1.886719 -11.613281 1.503906 -10.417969 1.277344 -9.621094 C 1.050781 -8.824219 0.855469 -8.292969 0.847656 -8.46875 C 0.773438 -9.121094 1.582031 -11.644531 2.335938 -13.335938 C 3.253906 -15.300781 4.429688 -17.316406 5.261719 -18.316406 Z M 3.648438 -17.238281 C 3.691406 -17.242188 3.574219 -16.929688 3.328125 -16.570312 C 2.757812 -15.628906 1.5625 -13.085938 1.09375 -11.753906 C 0.859375 -11.132812 0.523438 -9.894531 0.34375 -9.011719 C 0.09375 -7.777344 0.015625 -7.558594 -0.00390625 -7.992188 C -0.0742188 -9.5625 1.167969 -13.066406 2.875 -15.980469 C 3.238281 -16.652344 3.605469 -17.238281 3.648438 -17.238281 Z M -0.5625 -8.753906 C -0.425781 -9.589844 -0.0117188 -11.09375 0.269531 -11.628906 C 0.433594 -11.941406 0.472656 -12.03125 0.4375 -11.855469 C 0.398438 -11.722656 0.171875 -10.882812 -0.0507812 -10 C -0.5 -8.363281 -0.699219 -7.875 -0.5625 -8.753906 Z M -0.5625 -8.753906 "/></g></g></g><g fill="#ffffff" fill-opacity="1"><g transform="translate(287.985942, 218.975353)"><g><path d="M 26 -19.496094 C 25.527344 -19.300781 25.277344 -18.984375 24.460938 -17.679688 C 23.890625 -16.824219 23.28125 -15.75 22.996094 -15.300781 C 21.625 -12.75 18.277344 -8.410156 16.597656 -6.894531 C 15.085938 -5.515625 13.128906 -4.339844 12.8125 -4.628906 C 12.628906 -4.796875 12.992188 -6.472656 13.527344 -8.15625 C 14.1875 -10.0625 15.421875 -12.738281 16.789062 -15.375 C 18.035156 -17.789062 18.667969 -19.347656 18.757812 -20.265625 C 18.777344 -20.835938 18.769531 -21.011719 18.546875 -21.042969 C 18.414062 -21.082031 18.324219 -21.210938 18.316406 -21.339844 C 18.3125 -21.472656 18.128906 -21.59375 17.90625 -21.714844 C 17.683594 -21.792969 17.460938 -21.914062 17.371094 -21.996094 C 17.324219 -22.082031 17.109375 -21.941406 16.863281 -21.625 L 16.449219 -21.082031 L 16.726562 -21.707031 C 17.046875 -22.417969 17.039062 -22.59375 16.789062 -22.320312 C 16.621094 -22.183594 16.574219 -22.222656 16.601562 -22.617188 C 16.578125 -23.097656 16.578125 -23.097656 15.964844 -23.113281 C 15.355469 -23.128906 15.3125 -23.128906 14.355469 -22.039062 C 13.691406 -21.265625 13.078125 -20.320312 12.351562 -18.980469 C 11.058594 -16.5625 9.464844 -13.128906 9 -11.796875 C 8.617188 -10.601562 7.667969 -9.335938 5.789062 -7.332031 C 4.539062 -6.011719 2.972656 -4.847656 2.792969 -5.015625 C 2.699219 -5.097656 2.726562 -5.492188 2.835938 -5.976562 C 3.277344 -8.878906 4.054688 -10.96875 5.960938 -14.328125 C 7.5 -17.015625 8.417969 -18.980469 8.394531 -19.503906 C 8.375 -19.9375 7.824219 -20.613281 7.609375 -20.515625 C 7.519531 -20.511719 7.476562 -20.554688 7.472656 -20.640625 C 7.46875 -20.726562 7.339844 -20.679688 7.171875 -20.539062 C 6.875 -20.265625 6.875 -20.265625 7.039062 -20.578125 C 7.238281 -20.980469 7.238281 -21.023438 6.886719 -21.007812 C 6.714844 -21 6.574219 -21.167969 6.519531 -21.472656 C 6.363281 -22.035156 5.828125 -22.226562 5.054688 -21.933594 C 4.152344 -21.628906 2.410156 -19.542969 1.113281 -17.257812 C -1.839844 -11.972656 -2.5625 -8.578125 -1.269531 -6.015625 C -0.839844 -5.160156 0.210938 -4.070312 0.835938 -3.792969 C 1.105469 -3.675781 1.464844 -3.382812 1.695312 -3.175781 C 2.328125 -2.636719 3.167969 -2.457031 3.9375 -2.796875 C 4.878906 -3.230469 6.515625 -4.742188 7.921875 -6.507812 L 8.457031 -7.230469 L 8.714844 -6.371094 C 9.066406 -5.335938 9.863281 -4.148438 10.539062 -3.699219 C 10.851562 -3.496094 11.121094 -3.332031 11.164062 -3.332031 C 11.207031 -3.335938 11.433594 -3.171875 11.664062 -2.917969 C 11.894531 -2.667969 12.253906 -2.421875 12.519531 -2.300781 C 12.742188 -2.222656 13.09375 -2.152344 13.3125 -2.164062 C 15.058594 -2.238281 18.683594 -6.15625 23.566406 -13.273438 C 24.59375 -14.71875 25.699219 -16.382812 26.113281 -16.925781 C 26.933594 -18.140625 27.234375 -19.203125 26.828125 -19.53125 C 26.597656 -19.742188 26.554688 -19.738281 26 -19.496094 Z M 17.277344 -18.148438 C 17.632812 -18.996094 17.992188 -19.753906 18.035156 -19.796875 C 18.203125 -19.9375 17.695312 -18.605469 17.296875 -17.757812 C 16.574219 -16.328125 16.5625 -16.589844 17.277344 -18.148438 Z M 7.425781 -18.71875 C 7.660156 -19.339844 7.828125 -19.476562 7.679688 -18.945312 C 7.601562 -18.679688 7.480469 -18.457031 7.441406 -18.414062 C 7.355469 -18.363281 7.347656 -18.496094 7.425781 -18.71875 Z M 4.03125 -14.460938 C 3.953125 -14.328125 3.871094 -14.191406 3.828125 -14.191406 C 3.78125 -14.1875 3.820312 -14.320312 3.902344 -14.457031 C 3.980469 -14.632812 4.0625 -14.769531 4.105469 -14.769531 C 4.148438 -14.773438 4.113281 -14.640625 4.03125 -14.460938 Z M 5.882812 -20.003906 C 6.09375 -20.1875 6.136719 -20.1875 5.972656 -19.964844 C 5.765625 -19.691406 5.679688 -19.644531 5.675781 -19.730469 C 5.675781 -19.777344 5.757812 -19.910156 5.882812 -20.003906 Z M 3.222656 -17.003906 C 3.300781 -17.179688 3.382812 -17.316406 3.425781 -17.316406 C 3.46875 -17.320312 3.433594 -17.1875 3.351562 -17.007812 C 3.273438 -16.828125 3.191406 -16.738281 3.144531 -16.738281 C 3.101562 -16.734375 3.140625 -16.824219 3.222656 -17.003906 Z M -0.144531 -9.210938 C -0.207031 -9.644531 0.328125 -11.371094 0.882812 -12.617188 C 1.519531 -14 2.769531 -16.371094 2.980469 -16.511719 C 3.148438 -16.648438 3.152344 -16.605469 2.378906 -15.304688 C 2.140625 -14.8125 1.617188 -13.742188 1.261719 -12.898438 C 0.90625 -12.050781 0.4375 -10.808594 0.207031 -10.140625 C 0.015625 -9.480469 -0.136719 -9.035156 -0.144531 -9.210938 Z M 0.335938 -8.226562 C 0.246094 -9.269531 1.046875 -11.839844 2.09375 -13.894531 C 3.019531 -15.683594 4.605469 -18.332031 5.183594 -19.011719 C 5.558594 -19.464844 5.4375 -19.242188 4.828125 -18.210938 C 2.585938 -14.570312 1.269531 -11.761719 0.71875 -9.421875 C 0.359375 -7.703125 0.355469 -7.746094 0.335938 -8.226562 Z M 1.4375 -9.976562 C 1.578125 -10.683594 2.203125 -12.371094 2.925781 -13.800781 C 3.894531 -15.632812 6.378906 -19.71875 6.550781 -19.726562 C 6.636719 -19.730469 6.640625 -19.6875 6.558594 -19.550781 C 6.3125 -19.191406 3.917969 -15.109375 3.433594 -14.214844 C 3.148438 -13.722656 2.671875 -12.609375 2.316406 -11.808594 C 1.25 -9.269531 1.371094 -9.496094 1.4375 -9.976562 Z M 2.328125 -7.617188 C 2.3125 -7.921875 2.917969 -10.042969 3.28125 -10.714844 C 3.679688 -11.605469 3.6875 -11.386719 3.253906 -10.320312 C 3.058594 -9.875 2.789062 -9.035156 2.640625 -8.460938 C 2.488281 -7.929688 2.375 -7.53125 2.328125 -7.617188 Z M 15.882812 -15.117188 C 15.640625 -14.714844 15.28125 -13.953125 15.082031 -13.507812 C 14.886719 -13.019531 14.640625 -12.660156 14.59375 -12.65625 C 14.507812 -12.652344 15.707031 -15.195312 16.039062 -15.605469 C 16.160156 -15.785156 16.082031 -15.5625 15.882812 -15.117188 Z M 10.164062 -9.140625 C 10.117188 -9.269531 10.191406 -9.492188 10.277344 -9.582031 C 10.3125 -9.714844 10.398438 -9.765625 10.402344 -9.675781 C 10.371094 -9.414062 10.175781 -8.925781 10.164062 -9.140625 Z M 10.839844 -8.691406 C 10.539062 -7.628906 10.5 -7.496094 10.519531 -8.023438 C 10.566406 -8.941406 11.214844 -11.109375 11.585938 -11.605469 C 11.957031 -12.105469 11.957031 -12.0625 11.527344 -10.90625 C 11.332031 -10.417969 11.027344 -9.398438 10.839844 -8.691406 Z M 11.6875 -9.296875 C 11.691406 -9.167969 11.652344 -9.078125 11.566406 -9.03125 C 10.933594 -8.566406 14.351562 -16.230469 15.066406 -16.828125 C 15.277344 -17.011719 15.277344 -17.011719 15.074219 -16.652344 C 14.136719 -15.082031 11.671875 -9.644531 11.6875 -9.296875 Z M 12.449219 -6.882812 C 12.40625 -6.839844 12.359375 -6.925781 12.398438 -7.058594 C 12.390625 -7.230469 12.429688 -7.277344 12.480469 -7.148438 C 12.527344 -7.0625 12.492188 -6.929688 12.449219 -6.882812 Z M 12.511719 -7.457031 C 12.492188 -7.890625 14.378906 -12.605469 14.515625 -12.480469 C 14.519531 -12.4375 14.324219 -11.902344 14.046875 -11.28125 C 13.765625 -10.65625 13.335938 -9.542969 13.0625 -8.789062 C 12.675781 -7.636719 12.523438 -7.195312 12.511719 -7.457031 Z M 17.398438 -6.535156 C 17.234375 -6.355469 17.066406 -6.171875 17.023438 -6.171875 C 16.980469 -6.167969 17.058594 -6.347656 17.269531 -6.53125 C 17.433594 -6.757812 17.601562 -6.9375 17.644531 -6.941406 C 17.6875 -6.941406 17.566406 -6.761719 17.398438 -6.535156 Z M 20.035156 -9.144531 C 19.867188 -9.003906 19.867188 -9.003906 19.945312 -9.226562 C 19.984375 -9.359375 20.066406 -9.449219 20.113281 -9.40625 C 20.15625 -9.367188 20.121094 -9.234375 20.035156 -9.144531 Z M 20.464844 -10.339844 C 20.71875 -10.527344 20.71875 -10.527344 20.550781 -10.300781 C 20.34375 -10.074219 20.261719 -9.984375 20.253906 -10.113281 C 20.253906 -10.113281 20.335938 -10.246094 20.464844 -10.339844 Z M 20.613281 -9.910156 C 20.492188 -9.730469 20.320312 -9.59375 20.277344 -9.589844 C 20.234375 -9.589844 20.316406 -9.722656 20.484375 -9.90625 C 20.605469 -10.085938 20.730469 -10.222656 20.773438 -10.222656 C 20.816406 -10.226562 20.738281 -10.089844 20.613281 -9.910156 Z M 22.175781 -12.121094 C 21.644531 -11.308594 21.355469 -10.90625 21.351562 -10.992188 C 21.347656 -11.078125 21.511719 -11.304688 21.675781 -11.574219 C 22.085938 -12.160156 22.121094 -12.378906 21.785156 -12.101562 C 21.53125 -11.917969 21.53125 -11.917969 21.695312 -12.140625 C 21.820312 -12.277344 21.945312 -12.371094 21.992188 -12.332031 C 22.035156 -12.289062 22.164062 -12.339844 22.246094 -12.472656 C 22.375 -12.566406 22.339844 -12.390625 22.175781 -12.121094 Z M 22.933594 -13.726562 C 22.769531 -13.5 22.605469 -13.273438 22.605469 -13.273438 C 22.5625 -13.273438 22.640625 -13.496094 22.804688 -13.71875 C 22.964844 -13.988281 23.132812 -14.171875 23.175781 -14.171875 C 23.175781 -14.171875 23.097656 -13.996094 22.933594 -13.726562 Z M 24.058594 -14.957031 C 24.023438 -14.777344 23.980469 -14.777344 23.929688 -14.90625 C 23.882812 -15.035156 23.792969 -15.03125 23.625 -14.890625 C 23.457031 -14.710938 23.414062 -14.707031 23.582031 -14.890625 C 23.828125 -15.207031 24.179688 -15.222656 24.058594 -14.957031 Z M 25.136719 -17.230469 C 24.933594 -16.914062 24.769531 -16.691406 24.726562 -16.6875 C 24.636719 -16.683594 25.210938 -17.539062 25.382812 -17.632812 C 25.464844 -17.726562 25.34375 -17.5 25.136719 -17.230469 Z M 26.628906 -19.085938 C 26.492188 -19.210938 26.152344 -18.933594 26.164062 -18.71875 C 26.167969 -18.628906 26.253906 -18.632812 26.421875 -18.773438 C 26.632812 -18.957031 26.632812 -18.957031 26.46875 -18.730469 C 26.347656 -18.550781 26.21875 -18.5 26.171875 -18.5 C 26.171875 -18.542969 26 -18.492188 25.914062 -18.402344 C 25.789062 -18.308594 25.828125 -18.441406 25.988281 -18.710938 C 26.355469 -19.292969 26.527344 -19.390625 26.667969 -19.175781 C 26.71875 -19.046875 26.71875 -19.003906 26.628906 -19.085938 Z M 26.628906 -19.085938 "/></g></g></g><g fill="#ffffff" fill-opacity="1"><g transform="translate(308.078793, 218.085286)"><g><path d="M 18.785156 -17.648438 C 18.65625 -17.640625 18.519531 -17.722656 18.515625 -17.8125 C 18.371094 -18.152344 17.578125 -17.289062 16.59375 -15.847656 C 14.460938 -12.738281 11.183594 -8.835938 9.371094 -7.359375 C 7.472656 -5.789062 5.589844 -4.921875 4.023438 -4.851562 C 2.976562 -4.804688 2.753906 -4.882812 2.421875 -5.4375 C 1.898438 -6.460938 1.898438 -7.464844 2.421875 -9.410156 C 2.570312 -10.027344 2.65625 -10.074219 2.921875 -10 C 3.585938 -9.769531 5.0625 -9.964844 5.871094 -10.394531 C 7.667969 -11.304688 10.09375 -13.726562 11.4375 -15.925781 C 12.167969 -17.136719 12.621094 -18.773438 12.691406 -20.171875 C 12.71875 -21.484375 12.332031 -22.296875 11.433594 -22.871094 C 11.117188 -23.117188 10.710938 -23.449219 10.527344 -23.617188 C 9.835938 -24.457031 8.039062 -24.554688 6.328125 -23.824219 C 4.226562 -22.898438 1.671875 -20.429688 0.00390625 -17.644531 C -2.964844 -12.667969 -3.492188 -8.800781 -1.492188 -6.09375 C -0.75 -5.121094 0.296875 -4.164062 1.007812 -3.84375 C 1.367188 -3.6875 1.859375 -3.402344 2.171875 -3.199219 C 2.445312 -2.992188 3.023438 -2.710938 3.421875 -2.640625 C 4.878906 -2.269531 6.308594 -2.507812 7.929688 -3.363281 C 10.917969 -4.980469 14.816406 -9.609375 18.308594 -15.617188 C 18.914062 -16.691406 19.132812 -17.664062 18.785156 -17.648438 Z M 11.21875 -18.839844 C 11.257812 -19.019531 11.300781 -19.019531 11.347656 -18.890625 C 11.355469 -18.761719 11.277344 -18.582031 11.238281 -18.449219 C 11.074219 -18.179688 11.0625 -18.441406 11.21875 -18.839844 Z M 10.675781 -17.375 C 11.035156 -18.132812 11.078125 -18.136719 10.894531 -17.296875 C 10.859375 -17.164062 10.941406 -17.257812 11.019531 -17.480469 C 11.382812 -18.105469 11.433594 -17.976562 11.117188 -17.265625 C 10.757812 -16.460938 10.304688 -15.832031 10.214844 -15.914062 C 10.167969 -15.957031 10 -15.859375 9.875 -15.722656 C 9.664062 -15.539062 9.703125 -15.628906 9.949219 -15.988281 C 10.113281 -16.257812 10.476562 -16.886719 10.675781 -17.375 Z M 3.394531 -17.054688 C 3.386719 -17.226562 4.996094 -19.351562 5.125 -19.359375 C 5.125 -19.359375 4.800781 -18.820312 4.347656 -18.1875 C 3.359375 -16.832031 3.402344 -16.878906 3.394531 -17.054688 Z M 5.289062 -15.652344 C 7 -18.4375 8.742188 -20.523438 9.9375 -21.1875 C 10.535156 -21.519531 10.585938 -21.347656 10.34375 -19.9375 C 9.871094 -16.773438 7.523438 -13.523438 4.710938 -12 C 3.941406 -11.574219 3.25 -11.414062 3.242188 -11.628906 C 3.230469 -11.847656 4.597656 -14.53125 5.289062 -15.652344 Z M -0.65625 -10.847656 C -0.84375 -10.140625 -1.03125 -9.519531 -1.074219 -9.472656 C -1.28125 -9.246094 -0.664062 -12.027344 -0.378906 -12.519531 C -0.21875 -12.789062 -0.25 -12.566406 -0.65625 -10.847656 Z M -0.511719 -8.582031 L -0.46875 -9.589844 C -0.492188 -10.113281 -0.351562 -10.902344 -0.238281 -11.300781 C -0.015625 -12.140625 0.273438 -12.546875 0.171875 -11.886719 C 0.09375 -11.667969 -0.0429688 -10.832031 -0.226562 -10.035156 Z M 0.203125 -9.226562 C 0.144531 -9.570312 0.546875 -11.335938 0.671875 -11.472656 C 0.753906 -11.5625 0.796875 -11.566406 0.804688 -11.433594 C 0.816406 -11.128906 0.210938 -9.007812 0.203125 -9.226562 Z M 1.804688 -9.558594 C 1.730469 -9.292969 1.660156 -8.851562 1.542969 -8.542969 L 1.394531 -7.96875 L 1.457031 -8.539062 C 1.488281 -8.84375 1.597656 -9.285156 1.675781 -9.507812 L 1.875 -9.953125 Z M 17.246094 -14.960938 C 17.164062 -14.824219 17.035156 -14.730469 16.992188 -14.773438 C 16.945312 -14.816406 16.816406 -14.765625 16.691406 -14.671875 C 16.480469 -14.488281 16.480469 -14.488281 16.644531 -14.757812 C 16.769531 -14.894531 16.894531 -14.988281 16.941406 -14.945312 C 16.941406 -14.902344 17.113281 -14.953125 17.199219 -15.042969 C 17.40625 -15.226562 17.40625 -15.226562 17.246094 -14.960938 Z M 17.457031 -16.0625 C 17.457031 -16.105469 17.582031 -16.242188 17.707031 -16.332031 C 17.917969 -16.519531 17.917969 -16.519531 17.753906 -16.292969 C 17.589844 -16.023438 17.460938 -15.972656 17.457031 -16.0625 Z M 17.941406 -15.996094 C 17.734375 -15.765625 17.648438 -15.675781 17.644531 -15.808594 C 17.640625 -15.851562 17.726562 -15.941406 17.851562 -16.078125 C 18.0625 -16.261719 18.105469 -16.265625 17.941406 -15.996094 Z M 18.632812 -17.117188 C 18.511719 -16.894531 18.429688 -16.847656 18.417969 -17.0625 C 18.414062 -17.152344 18.324219 -17.191406 18.242188 -17.101562 C 18.15625 -17.050781 18.113281 -17.050781 18.195312 -17.140625 C 18.363281 -17.367188 18.667969 -17.335938 18.632812 -17.117188 Z M 10.582031 -16.5 C 10.742188 -16.8125 10.863281 -17.078125 10.816406 -17.121094 C 10.726562 -17.160156 10.15625 -16.21875 10.164062 -16.042969 C 10.171875 -15.867188 10.339844 -16.050781 10.582031 -16.5 Z M 10.582031 -16.5 "/></g></g></g><g fill="#ffffff" fill-opacity="1"><g transform="translate(322.941285, 217.426912)"><g><path d="M 3.898438 -24.414062 C 3.351562 -23.953125 1.054688 -19.613281 0.03125 -17.078125 C -2.402344 -10.855469 -3.464844 -7.183594 -3.363281 -4.960938 C -3.328125 -4.175781 -2.722656 -3.285156 -2.242188 -3.308594 C -1.71875 -3.332031 -1.449219 -3.167969 -1.441406 -2.949219 C -1.433594 -2.820312 -1.292969 -2.605469 -1.160156 -2.480469 C -0.972656 -2.273438 -0.886719 -2.277344 -0.761719 -2.367188 C -0.589844 -2.507812 -0.546875 -2.507812 -0.542969 -2.378906 C -0.535156 -2.246094 -0.449219 -2.296875 -0.285156 -2.476562 C -0.117188 -2.617188 0.0078125 -2.796875 0.00390625 -2.882812 C -0.0078125 -3.101562 1.230469 -5.777344 2.035156 -7.339844 C 3.886719 -10.828125 5.894531 -13.84375 8.019531 -16.167969 C 9.351562 -17.667969 10.238281 -18.363281 11.097656 -18.617188 C 11.742188 -18.863281 12.183594 -18.796875 13.46875 -18.375 C 14.355469 -18.0625 14.445312 -18.023438 15.046875 -18.269531 C 15.390625 -18.371094 15.6875 -18.558594 15.726562 -18.648438 C 15.875 -19.265625 11.753906 -21.574219 10.351562 -21.6875 C 9.167969 -21.765625 8.058594 -21.234375 6.757812 -19.953125 C 6.511719 -19.636719 6.214844 -19.40625 6.214844 -19.40625 C 6.171875 -19.40625 6.324219 -19.890625 6.519531 -20.425781 C 6.910156 -21.488281 7 -22.453125 6.691406 -22.441406 C 6.648438 -22.4375 6.558594 -22.523438 6.554688 -22.652344 C 6.550781 -22.742188 6.410156 -22.910156 6.230469 -22.988281 C 6.054688 -23.066406 5.828125 -23.234375 5.734375 -23.359375 C 5.597656 -23.527344 5.554688 -23.527344 5.347656 -23.210938 C 5.105469 -22.808594 5.058594 -22.894531 5.25 -23.425781 C 5.328125 -23.691406 5.324219 -23.777344 5.152344 -23.726562 C 5.023438 -23.632812 4.976562 -23.71875 5.050781 -23.984375 C 5.117188 -24.511719 4.363281 -24.785156 3.898438 -24.414062 Z M 6.550781 -16.800781 L 7.011719 -17.214844 L 6.640625 -16.761719 C 6.390625 -16.488281 6.179688 -16.261719 6.179688 -16.261719 C 6.050781 -16.253906 6.175781 -16.390625 6.550781 -16.800781 Z M -1.316406 -8.023438 C -1.464844 -7.402344 -1.660156 -6.871094 -1.742188 -6.824219 C -1.957031 -6.683594 -1.007812 -9.914062 0.00390625 -12.710938 C 1.09375 -15.730469 4.3125 -22.902344 4.496094 -22.738281 C 4.542969 -22.695312 4.304688 -22.117188 3.984375 -21.492188 C 2.011719 -17.648438 -0.339844 -11.601562 -1.316406 -8.023438 Z M -0.339844 -9.636719 C -0.496094 -9.238281 -0.65625 -8.882812 -0.699219 -8.878906 C -0.910156 -8.738281 0.214844 -11.933594 1.351562 -14.867188 C 2.332031 -17.398438 4.523438 -22.082031 4.695312 -22.179688 C 4.78125 -22.183594 4.191406 -20.757812 3.394531 -18.976562 C 2.558594 -17.191406 1.453125 -14.523438 0.910156 -13.011719 C 0.40625 -11.550781 -0.183594 -10.039062 -0.339844 -9.636719 Z M 3.429688 -12.292969 C 3.066406 -11.625 3.066406 -11.625 3.0625 -11.753906 C 3.058594 -11.839844 3.175781 -12.109375 3.382812 -12.335938 L 3.714844 -12.789062 Z M 4.785156 -14.277344 C 4.371094 -13.691406 3.960938 -13.148438 3.878906 -13.011719 C 3.503906 -12.601562 4.570312 -14.179688 5.023438 -14.765625 C 5.273438 -15.039062 5.152344 -14.816406 4.785156 -14.277344 Z M 5.898438 -15.765625 C 5.6875 -15.539062 5.605469 -15.449219 5.597656 -15.578125 C 5.597656 -15.621094 5.679688 -15.714844 5.804688 -15.851562 C 6.058594 -16.035156 6.058594 -16.035156 5.898438 -15.765625 Z M 5.347656 -19.324219 C 5.621094 -19.992188 5.859375 -20.527344 5.90625 -20.484375 C 5.953125 -20.441406 5.71875 -19.777344 5.402344 -19.019531 C 5.042969 -18.261719 4.765625 -17.636719 4.722656 -17.636719 C 4.679688 -17.632812 4.675781 -17.722656 4.757812 -17.855469 C 4.792969 -18.03125 5.070312 -18.65625 5.347656 -19.324219 Z M 3.617188 -17.9375 C 2.664062 -15.753906 1.753906 -13.617188 1.558594 -13.128906 C 0.882812 -11.613281 1.109375 -12.410156 1.855469 -14.320312 C 2.679688 -16.410156 4.828125 -21.136719 5.113281 -21.585938 C 5.238281 -21.722656 4.523438 -20.117188 3.617188 -17.9375 Z M 3.617188 -17.9375 "/></g></g></g></svg>